  0
SECTION
  2
HEADER
  9
$MEASUREMENT
  70
  1
  9
$INSUNITS
  70
  4
  0
ENDSEC
  0
SECTION
  2
TABLES
  0
TABLE
  2
LTYPE
 70
     1
  0
LTYPE
  2
CONTINUOUS
 70
    64
  3
Ausgezogene Linie
 72
    65
 73
     0
 40
0.0
  0
ENDTAB
  0
TABLE
  2
LAYER
 70
     3
  0
LAYER
  2
Contour
 70
    64
 62
     7
  6
CONTINUOUS
  0
LAYER
  2
Engraving
 70
    64
 62
     7
  6
CONTINUOUS
  0
LAYER
  2
Reference_points
 70
    64
 62
     1
  6
CONTINUOUS
  0
ENDTAB
  0
TABLE
  2
STYLE
 70
     1
  0
STYLE
  2
TXT
 70
    64
 40
0.0
 41
1.0
 50
0.0
 71
     0
 42
3.500000
  3
TXT
  0
ENDTAB
  0
ENDSEC
  0
SECTION
  2
BLOCKS
  0
ENDSEC
  0
SECTION
  2
ENTITIES
  0
LINE
  8
Contour
 62
   7
 39
0.100
  6
CONTINUOUS
 10
150.40000
 20
108.00000
 30
 0
 11
2.00000
 21
108.00000
  0
ARC
  8
Contour
 62
   7
 39
0.100
  6
CONTINUOUS
 10
2.00000
 20
106.00000
 30
 0
 40
2.00000
 50
90.00000
 51
180.00000
  0
LINE
  8
Contour
 62
   7
 39
0.100
  6
CONTINUOUS
 10
0.00000
 20
106.00000
 30
 0
 11
0.00000
 21
2.00000
  0
ARC
  8
Contour
 62
   7
 39
0.100
  6
CONTINUOUS
 10
2.00000
 20
2.00000
 30
 0
 40
2.00000
 50
180.00000
 51
270.00000
  0
LINE
  8
Contour
 62
   7
 39
0.100
  6
CONTINUOUS
 10
2.00000
 20
0.00000
 30
 0
 11
150.40000
 21
0.00000
  0
ARC
  8
Contour
 62
   7
 39
0.100
  6
CONTINUOUS
 10
150.40000
 20
2.00000
 30
 0
 40
2.00000
 50
-90.00000
 51
0.00000
  0
LINE
  8
Contour
 62
   7
 39
0.100
  6
CONTINUOUS
 10
152.40000
 20
2.00000
 30
 0
 11
152.40000
 21
106.00000
  0
ARC
  8
Contour
 62
   7
 39
0.100
  6
CONTINUOUS
 10
150.40000
 20
106.00000
 30
 0
 40
2.00000
 50
0.00000
 51
90.00000
  0
LINE
  8
Engraving
 62
   254
 39
0.200
  6
CONTINUOUS
 10
20.92700
 20
61.38200
 30
 0
 11
20.92700
 21
58.59800
  0
LINE
  8
Engraving
 62
   254
 39
0.200
  6
CONTINUOUS
 10
20.92700
 20
58.59800
 30
 0
 11
22.08700
 21
58.59800
  0
ARC
  8
Engraving
 62
   254
 39
0.200
  6
CONTINUOUS
 10
22.08700
 20
59.99000
 30
 0
 40
1.39200
 50
-90.00000
 51
90.00000
  0
LINE
  8
Engraving
 62
   254
 39
0.200
  6
CONTINUOUS
 10
22.08700
 20
61.38200
 30
 0
 11
20.92700
 21
61.38200
  0
LINE
  8
Engraving
 62
   254
 39
0.200
  6
CONTINUOUS
 10
20.92700
 20
61.38200
 30
 0
 11
20.86900
 21
61.44000
  0
LINE
  8
Engraving
 62
   254
 39
0.200
  6
CONTINUOUS
 10
20.86900
 20
61.44000
 30
 0
 11
20.86900
 21
58.54000
  0
LINE
  8
Engraving
 62
   254
 39
0.200
  6
CONTINUOUS
 10
20.86900
 20
58.54000
 30
 0
 11
22.08700
 21
58.54000
  0
ARC
  8
Engraving
 62
   254
 39
0.200
  6
CONTINUOUS
 10
22.08700
 20
59.99000
 30
 0
 40
1.45000
 50
-90.00000
 51
90.00000
  0
LINE
  8
Engraving
 62
   254
 39
0.200
  6
CONTINUOUS
 10
22.08700
 20
61.44000
 30
 0
 11
20.86900
 21
61.44000
  0
LINE
  8
Engraving
 62
   254
 39
0.200
  6
CONTINUOUS
 10
20.86900
 20
61.44000
 30
 0
 11
20.81100
 21
61.49800
  0
LINE
  8
Engraving
 62
   254
 39
0.200
  6
CONTINUOUS
 10
20.81100
 20
61.49800
 30
 0
 11
20.81100
 21
58.48200
  0
LINE
  8
Engraving
 62
   254
 39
0.200
  6
CONTINUOUS
 10
20.81100
 20
58.48200
 30
 0
 11
22.08700
 21
58.48200
  0
ARC
  8
Engraving
 62
   254
 39
0.200
  6
CONTINUOUS
 10
22.08700
 20
59.99000
 30
 0
 40
1.50800
 50
-90.00000
 51
90.00000
  0
LINE
  8
Engraving
 62
   254
 39
0.200
  6
CONTINUOUS
 10
22.08700
 20
61.49800
 30
 0
 11
20.81100
 21
61.49800
  0
LINE
  8
Engraving
 62
   254
 39
0.200
  6
CONTINUOUS
 10
20.81100
 20
61.49800
 30
 0
 11
20.75300
 21
61.55600
  0
LINE
  8
Engraving
 62
   254
 39
0.200
  6
CONTINUOUS
 10
20.75300
 20
61.55600
 30
 0
 11
20.75300
 21
58.42400
  0
LINE
  8
Engraving
 62
   254
 39
0.200
  6
CONTINUOUS
 10
20.75300
 20
58.42400
 30
 0
 11
22.08700
 21
58.42400
  0
ARC
  8
Engraving
 62
   254
 39
0.200
  6
CONTINUOUS
 10
22.08700
 20
59.99000
 30
 0
 40
1.56600
 50
-90.00000
 51
90.00000
  0
LINE
  8
Engraving
 62
   254
 39
0.200
  6
CONTINUOUS
 10
22.08700
 20
61.55600
 30
 0
 11
20.75300
 21
61.55600
  0
LINE
  8
Engraving
 62
   254
 39
0.200
  6
CONTINUOUS
 10
20.75300
 20
61.55600
 30
 0
 11
20.69500
 21
61.61400
  0
LINE
  8
Engraving
 62
   254
 39
0.200
  6
CONTINUOUS
 10
20.69500
 20
61.61400
 30
 0
 11
20.69500
 21
58.36600
  0
LINE
  8
Engraving
 62
   254
 39
0.200
  6
CONTINUOUS
 10
20.69500
 20
58.36600
 30
 0
 11
22.08700
 21
58.36600
  0
ARC
  8
Engraving
 62
   254
 39
0.200
  6
CONTINUOUS
 10
22.08700
 20
59.99000
 30
 0
 40
1.62400
 50
-90.00000
 51
90.00000
  0
LINE
  8
Engraving
 62
   254
 39
0.200
  6
CONTINUOUS
 10
22.08700
 20
61.61400
 30
 0
 11
20.69500
 21
61.61400
  0
LINE
  8
Engraving
 62
   254
 39
0.200
  6
CONTINUOUS
 10
20.69500
 20
61.61400
 30
 0
 11
20.63700
 21
61.67200
  0
LINE
  8
Engraving
 62
   254
 39
0.200
  6
CONTINUOUS
 10
20.63700
 20
61.67200
 30
 0
 11
20.63700
 21
58.30800
  0
LINE
  8
Engraving
 62
   254
 39
0.200
  6
CONTINUOUS
 10
20.63700
 20
58.30800
 30
 0
 11
22.08700
 21
58.30800
  0
ARC
  8
Engraving
 62
   254
 39
0.200
  6
CONTINUOUS
 10
22.08700
 20
59.99000
 30
 0
 40
1.68200
 50
-90.00000
 51
90.00000
  0
LINE
  8
Engraving
 62
   254
 39
0.200
  6
CONTINUOUS
 10
22.08700
 20
61.67200
 30
 0
 11
20.63700
 21
61.67200
  0
LINE
  8
Engraving
 62
   254
 39
0.200
  6
CONTINUOUS
 10
20.63700
 20
61.67200
 30
 0
 11
20.57900
 21
61.73000
  0
LINE
  8
Engraving
 62
   254
 39
0.200
  6
CONTINUOUS
 10
20.57900
 20
61.73000
 30
 0
 11
20.57900
 21
58.25000
  0
LINE
  8
Engraving
 62
   254
 39
0.200
  6
CONTINUOUS
 10
20.57900
 20
58.25000
 30
 0
 11
22.08700
 21
58.25000
  0
ARC
  8
Engraving
 62
   254
 39
0.200
  6
CONTINUOUS
 10
22.08700
 20
59.99000
 30
 0
 40
1.74000
 50
-90.00000
 51
90.00000
  0
LINE
  8
Engraving
 62
   254
 39
0.200
  6
CONTINUOUS
 10
22.08700
 20
61.73000
 30
 0
 11
20.57900
 21
61.73000
  0
ARC
  8
Engraving
 62
   254
 39
0.200
  6
CONTINUOUS
 10
58.27000
 20
59.99600
 30
 0
 40
1.62100
 50
26.32797
 51
180.21207
  0
ARC
  8
Engraving
 62
   254
 39
0.200
  6
CONTINUOUS
 10
58.27000
 20
59.98400
 30
 0
 40
1.62100
 50
179.78793
 51
333.67203
  0
LINE
  8
Engraving
 62
   254
 39
0.200
  6
CONTINUOUS
 10
59.72300
 20
59.26500
 30
 0
 11
59.78100
 21
59.26500
  0
ARC
  8
Engraving
 62
   254
 39
0.200
  6
CONTINUOUS
 10
58.26600
 20
59.97900
 30
 0
 40
1.67500
 50
179.62373
 51
-25.23390
  0
ARC
  8
Engraving
 62
   254
 39
0.200
  6
CONTINUOUS
 10
58.26600
 20
60.00100
 30
 0
 40
1.67500
 50
25.23390
 51
-179.62373
  0
LINE
  8
Engraving
 62
   254
 39
0.200
  6
CONTINUOUS
 10
59.78100
 20
60.71500
 30
 0
 11
59.83900
 21
60.71500
  0
ARC
  8
Engraving
 62
   254
 39
0.200
  6
CONTINUOUS
 10
58.26300
 20
60.00200
 30
 0
 40
1.73000
 50
24.34253
 51
180.39742
  0
ARC
  8
Engraving
 62
   254
 39
0.200
  6
CONTINUOUS
 10
58.26300
 20
59.97800
 30
 0
 40
1.73000
 50
179.60258
 51
335.65747
  0
LINE
  8
Engraving
 62
   254
 39
0.200
  6
CONTINUOUS
 10
59.83900
 20
59.26500
 30
 0
 11
59.66500
 21
59.26500
  0
ARC
  8
Engraving
 62
   254
 39
0.200
  6
CONTINUOUS
 10
58.27300
 20
59.98200
 30
 0
 40
1.56600
 50
179.70730
 51
-27.25237
  0
ARC
  8
Engraving
 62
   254
 39
0.200
  6
CONTINUOUS
 10
58.27300
 20
59.99800
 30
 0
 40
1.56600
 50
27.25237
 51
-179.70730
  0
LINE
  8
Engraving
 62
   254
 39
0.200
  6
CONTINUOUS
 10
59.66500
 20
60.71500
 30
 0
 11
59.60700
 21
60.71500
  0
ARC
  8
Engraving
 62
   254
 39
0.200
  6
CONTINUOUS
 10
58.28100
 20
59.98000
 30
 0
 40
1.51600
 50
28.99954
 51
179.62206
  0
ARC
  8
Engraving
 62
   254
 39
0.200
  6
CONTINUOUS
 10
58.28100
 20
60.00000
 30
 0
 40
1.51600
 50
-179.62206
 51
-28.99954
  0
LINE
  8
Engraving
 62
   254
 39
0.200
  6
CONTINUOUS
 10
59.60700
 20
59.26500
 30
 0
 11
59.54900
 21
59.29400
  0
ARC
  8
Engraving
 62
   254
 39
0.200
  6
CONTINUOUS
 10
58.27700
 20
59.99800
 30
 0
 40
1.45400
 50
180.31524
 51
-28.96273
  0
ARC
  8
Engraving
 62
   254
 39
0.200
  6
CONTINUOUS
 10
58.27700
 20
59.98200
 30
 0
 40
1.45400
 50
388.96273
 51
179.68476
  0
LINE
  8
Engraving
 62
   254
 39
0.200
  6
CONTINUOUS
 10
59.54900
 20
60.68600
 30
 0
 11
59.92600
 21
60.68600
  0
ARC
  8
Engraving
 62
   254
 39
0.200
  6
CONTINUOUS
 10
58.27000
 20
59.99300
 30
 0
 40
1.79500
 50
22.70825
 51
180.09576
  0
ARC
  8
Engraving
 62
   254
 39
0.200
  6
CONTINUOUS
 10
58.27000
 20
59.98700
 30
 0
 40
1.79500
 50
179.90424
 51
337.29175
  0
LINE
  8
Engraving
 62
   254
 39
0.200
  6
CONTINUOUS
 10
59.92600
 20
59.29400
 30
 0
 11
59.54900
 21
59.29400
  0
LINE
  8
Engraving
 62
   254
 39
0.200
  6
CONTINUOUS
 10
93.04300
 20
61.55600
 30
 0
 11
93.04300
 21
58.42400
  0
LINE
  8
Engraving
 62
   254
 39
0.200
  6
CONTINUOUS
 10
93.04300
 20
58.42400
 30
 0
 11
94.55100
 21
58.42400
  0
ARC
  8
Engraving
 62
   254
 39
0.200
  6
CONTINUOUS
 10
94.55100
 20
59.23600
 30
 0
 40
0.81200
 50
-90.00000
 51
90.00000
  0
ARC
  8
Engraving
 62
   254
 39
0.200
  6
CONTINUOUS
 10
94.55100
 20
60.80200
 30
 0
 40
0.75400
 50
-90.00000
 51
90.00000
  0
LINE
  8
Engraving
 62
   254
 39
0.200
  6
CONTINUOUS
 10
94.55100
 20
61.55600
 30
 0
 11
93.04300
 21
61.55600
  0
LINE
  8
Engraving
 62
   254
 39
0.200
  6
CONTINUOUS
 10
93.04300
 20
61.55600
 30
 0
 11
92.98500
 21
61.61400
  0
LINE
  8
Engraving
 62
   254
 39
0.200
  6
CONTINUOUS
 10
92.98500
 20
61.61400
 30
 0
 11
92.98500
 21
58.36600
  0
LINE
  8
Engraving
 62
   254
 39
0.200
  6
CONTINUOUS
 10
92.98500
 20
58.36600
 30
 0
 11
94.55100
 21
58.36600
  0
ARC
  8
Engraving
 62
   254
 39
0.200
  6
CONTINUOUS
 10
94.54500
 20
59.23300
 30
 0
 40
0.86700
 50
-89.60350
 51
70.03948
  0
ARC
  8
Engraving
 62
   254
 39
0.200
  6
CONTINUOUS
 10
94.54500
 20
60.80300
 30
 0
 40
0.81100
 50
-68.59219
 51
89.57612
  0
LINE
  8
Engraving
 62
   254
 39
0.200
  6
CONTINUOUS
 10
94.55100
 20
61.61400
 30
 0
 11
92.98500
 21
61.61400
  0
LINE
  8
Engraving
 62
   254
 39
0.200
  6
CONTINUOUS
 10
92.98500
 20
61.61400
 30
 0
 11
92.92700
 21
61.67200
  0
LINE
  8
Engraving
 62
   254
 39
0.200
  6
CONTINUOUS
 10
92.92700
 20
61.67200
 30
 0
 11
92.92700
 21
58.30800
  0
LINE
  8
Engraving
 62
   254
 39
0.200
  6
CONTINUOUS
 10
92.92700
 20
58.30800
 30
 0
 11
94.55100
 21
58.30800
  0
ARC
  8
Engraving
 62
   254
 39
0.200
  6
CONTINUOUS
 10
94.54900
 20
59.23300
 30
 0
 40
0.92500
 50
-89.87612
 51
61.79995
  0
ARC
  8
Engraving
 62
   254
 39
0.200
  6
CONTINUOUS
 10
94.54800
 20
60.80100
 30
 0
 40
0.87100
 50
-59.81458
 51
89.80266
  0
LINE
  8
Engraving
 62
   254
 39
0.200
  6
CONTINUOUS
 10
94.55100
 20
61.67200
 30
 0
 11
92.92700
 21
61.67200
  0
LINE
  8
Engraving
 62
   254
 39
0.200
  6
CONTINUOUS
 10
92.92700
 20
61.67200
 30
 0
 11
92.86900
 21
61.73000
  0
LINE
  8
Engraving
 62
   254
 39
0.200
  6
CONTINUOUS
 10
92.86900
 20
61.73000
 30
 0
 11
92.86900
 21
58.25000
  0
LINE
  8
Engraving
 62
   254
 39
0.200
  6
CONTINUOUS
 10
92.86900
 20
58.25000
 30
 0
 11
94.55100
 21
58.25000
  0
ARC
  8
Engraving
 62
   254
 39
0.200
  6
CONTINUOUS
 10
94.55200
 20
59.23300
 30
 0
 40
0.98300
 50
-90.05829
 51
55.98669
  0
ARC
  8
Engraving
 62
   254
 39
0.200
  6
CONTINUOUS
 10
94.55200
 20
60.79900
 30
 0
 40
0.93100
 50
-53.78256
 51
90.06154
  0
LINE
  8
Engraving
 62
   254
 39
0.200
  6
CONTINUOUS
 10
94.55100
 20
61.73000
 30
 0
 11
92.86900
 21
61.73000
  0
LINE
  8
Engraving
 62
   254
 39
0.200
  6
CONTINUOUS
 10
92.86900
 20
61.73000
 30
 0
 11
93.10100
 21
61.49800
  0
LINE
  8
Engraving
 62
   254
 39
0.200
  6
CONTINUOUS
 10
93.10100
 20
61.49800
 30
 0
 11
93.10100
 21
60.10600
  0
LINE
  8
Engraving
 62
   254
 39
0.200
  6
CONTINUOUS
 10
93.10100
 20
60.10600
 30
 0
 11
94.55100
 21
60.10600
  0
ARC
  8
Engraving
 62
   254
 39
0.200
  6
CONTINUOUS
 10
94.55100
 20
60.80200
 30
 0
 40
0.69600
 50
-90.00000
 51
90.00000
  0
LINE
  8
Engraving
 62
   254
 39
0.200
  6
CONTINUOUS
 10
94.55100
 20
61.49800
 30
 0
 11
93.10100
 21
61.49800
  0
LINE
  8
Engraving
 62
   254
 39
0.200
  6
CONTINUOUS
 10
93.10100
 20
61.49800
 30
 0
 11
93.15900
 21
61.44000
  0
LINE
  8
Engraving
 62
   254
 39
0.200
  6
CONTINUOUS
 10
93.15900
 20
61.44000
 30
 0
 11
93.15900
 21
60.16400
  0
LINE
  8
Engraving
 62
   254
 39
0.200
  6
CONTINUOUS
 10
93.15900
 20
60.16400
 30
 0
 11
94.55100
 21
60.16400
  0
ARC
  8
Engraving
 62
   254
 39
0.200
  6
CONTINUOUS
 10
94.55100
 20
60.80200
 30
 0
 40
0.63800
 50
-90.00000
 51
90.00000
  0
LINE
  8
Engraving
 62
   254
 39
0.200
  6
CONTINUOUS
 10
94.55100
 20
61.44000
 30
 0
 11
93.15900
 21
61.44000
  0
LINE
  8
Engraving
 62
   254
 39
0.200
  6
CONTINUOUS
 10
93.15900
 20
61.44000
 30
 0
 11
93.21700
 21
61.38200
  0
LINE
  8
Engraving
 62
   254
 39
0.200
  6
CONTINUOUS
 10
93.21700
 20
61.38200
 30
 0
 11
94.55100
 21
61.38200
  0
ARC
  8
Engraving
 62
   254
 39
0.200
  6
CONTINUOUS
 10
94.55100
 20
60.80200
 30
 0
 40
0.58000
 50
270.00000
 51
90.00000
  0
LINE
  8
Engraving
 62
   254
 39
0.200
  6
CONTINUOUS
 10
94.55100
 20
60.22200
 30
 0
 11
93.21700
 21
60.22200
  0
LINE
  8
Engraving
 62
   254
 39
0.200
  6
CONTINUOUS
 10
93.21700
 20
60.22200
 30
 0
 11
93.21700
 21
61.38200
  0
LINE
  8
Engraving
 62
   254
 39
0.200
  6
CONTINUOUS
 10
93.04300
 20
60.04800
 30
 0
 11
94.55100
 21
60.04800
  0
LINE
  8
Engraving
 62
   254
 39
0.200
  6
CONTINUOUS
 10
94.55100
 20
60.04800
 30
 0
 11
94.55100
 21
59.99000
  0
ARC
  8
Engraving
 62
   254
 39
0.200
  6
CONTINUOUS
 10
94.55100
 20
59.23600
 30
 0
 40
0.75400
 50
270.00000
 51
90.00000
  0
LINE
  8
Engraving
 62
   254
 39
0.200
  6
CONTINUOUS
 10
94.55100
 20
58.48200
 30
 0
 11
93.10100
 21
58.48200
  0
LINE
  8
Engraving
 62
   254
 39
0.200
  6
CONTINUOUS
 10
93.10100
 20
58.48200
 30
 0
 11
93.10100
 21
59.99000
  0
LINE
  8
Engraving
 62
   254
 39
0.200
  6
CONTINUOUS
 10
93.10100
 20
59.99000
 30
 0
 11
94.55100
 21
59.99000
  0
LINE
  8
Engraving
 62
   254
 39
0.200
  6
CONTINUOUS
 10
94.55100
 20
59.99000
 30
 0
 11
94.55100
 21
59.93200
  0
ARC
  8
Engraving
 62
   254
 39
0.200
  6
CONTINUOUS
 10
94.55100
 20
59.23600
 30
 0
 40
0.69600
 50
270.00000
 51
90.00000
  0
LINE
  8
Engraving
 62
   254
 39
0.200
  6
CONTINUOUS
 10
94.55100
 20
58.54000
 30
 0
 11
93.15900
 21
58.54000
  0
LINE
  8
Engraving
 62
   254
 39
0.200
  6
CONTINUOUS
 10
93.15900
 20
58.54000
 30
 0
 11
93.15900
 21
59.93200
  0
LINE
  8
Engraving
 62
   254
 39
0.200
  6
CONTINUOUS
 10
93.15900
 20
59.93200
 30
 0
 11
94.55100
 21
59.93200
  0
LINE
  8
Engraving
 62
   254
 39
0.200
  6
CONTINUOUS
 10
94.55100
 20
59.93200
 30
 0
 11
94.55100
 21
59.87400
  0
ARC
  8
Engraving
 62
   254
 39
0.200
  6
CONTINUOUS
 10
94.55100
 20
59.23600
 30
 0
 40
0.63800
 50
270.00000
 51
90.00000
  0
LINE
  8
Engraving
 62
   254
 39
0.200
  6
CONTINUOUS
 10
94.55100
 20
58.59800
 30
 0
 11
93.21700
 21
58.59800
  0
LINE
  8
Engraving
 62
   254
 39
0.200
  6
CONTINUOUS
 10
93.21700
 20
58.59800
 30
 0
 11
93.21700
 21
59.87400
  0
LINE
  8
Engraving
 62
   254
 39
0.200
  6
CONTINUOUS
 10
93.21700
 20
59.87400
 30
 0
 11
94.55100
 21
59.87400
  0
LINE
  8
Engraving
 62
   254
 39
0.200
  6
CONTINUOUS
 10
129.50400
 20
59.41000
 30
 0
 11
130.20000
 21
61.32400
  0
LINE
  8
Engraving
 62
   254
 39
0.200
  6
CONTINUOUS
 10
130.20000
 20
61.32400
 30
 0
 11
130.89600
 21
59.41000
  0
LINE
  8
Engraving
 62
   254
 39
0.200
  6
CONTINUOUS
 10
130.89600
 20
59.41000
 30
 0
 11
129.50400
 21
59.41000
  0
LINE
  8
Engraving
 62
   254
 39
0.200
  6
CONTINUOUS
 10
129.50400
 20
59.41000
 30
 0
 11
129.44600
 21
59.41000
  0
LINE
  8
Engraving
 62
   254
 39
0.200
  6
CONTINUOUS
 10
129.44600
 20
59.41000
 30
 0
 11
130.17100
 21
61.38200
  0
LINE
  8
Engraving
 62
   254
 39
0.200
  6
CONTINUOUS
 10
130.17100
 20
61.38200
 30
 0
 11
130.22900
 21
61.38200
  0
LINE
  8
Engraving
 62
   254
 39
0.200
  6
CONTINUOUS
 10
130.22900
 20
61.38200
 30
 0
 11
130.98300
 21
59.35200
  0
LINE
  8
Engraving
 62
   254
 39
0.200
  6
CONTINUOUS
 10
130.98300
 20
59.35200
 30
 0
 11
129.41700
 21
59.35200
  0
LINE
  8
Engraving
 62
   254
 39
0.200
  6
CONTINUOUS
 10
129.41700
 20
59.35200
 30
 0
 11
129.38800
 21
59.29400
  0
LINE
  8
Engraving
 62
   254
 39
0.200
  6
CONTINUOUS
 10
129.38800
 20
59.29400
 30
 0
 11
131.01200
 21
59.29400
  0
LINE
  8
Engraving
 62
   254
 39
0.200
  6
CONTINUOUS
 10
131.01200
 20
59.29400
 30
 0
 11
131.04100
 21
59.23600
  0
LINE
  8
Engraving
 62
   254
 39
0.200
  6
CONTINUOUS
 10
131.04100
 20
59.23600
 30
 0
 11
129.35900
 21
59.23600
  0
LINE
  8
Engraving
 62
   254
 39
0.200
  6
CONTINUOUS
 10
129.35900
 20
59.23600
 30
 0
 11
129.33000
 21
59.17800
  0
LINE
  8
Engraving
 62
   254
 39
0.200
  6
CONTINUOUS
 10
129.33000
 20
59.17800
 30
 0
 11
131.04100
 21
59.17800
  0
LINE
  8
Engraving
 62
   254
 39
0.200
  6
CONTINUOUS
 10
131.04100
 20
59.17800
 30
 0
 11
131.38900
 21
58.30800
  0
LINE
  8
Engraving
 62
   254
 39
0.200
  6
CONTINUOUS
 10
131.38900
 20
58.30800
 30
 0
 11
131.62100
 21
58.30800
  0
LINE
  8
Engraving
 62
   254
 39
0.200
  6
CONTINUOUS
 10
131.62100
 20
58.30800
 30
 0
 11
130.28700
 21
61.67200
  0
LINE
  8
Engraving
 62
   254
 39
0.200
  6
CONTINUOUS
 10
130.28700
 20
61.67200
 30
 0
 11
130.11300
 21
61.67200
  0
LINE
  8
Engraving
 62
   254
 39
0.200
  6
CONTINUOUS
 10
130.11300
 20
61.67200
 30
 0
 11
128.77900
 21
58.30800
  0
LINE
  8
Engraving
 62
   254
 39
0.200
  6
CONTINUOUS
 10
128.77900
 20
58.30800
 30
 0
 11
129.01100
 21
58.30800
  0
LINE
  8
Engraving
 62
   254
 39
0.200
  6
CONTINUOUS
 10
129.01100
 20
58.30800
 30
 0
 11
129.33000
 21
59.14900
  0
LINE
  8
Engraving
 62
   254
 39
0.200
  6
CONTINUOUS
 10
129.33000
 20
59.14900
 30
 0
 11
129.01100
 21
58.30800
  0
LINE
  8
Engraving
 62
   254
 39
0.200
  6
CONTINUOUS
 10
129.01100
 20
58.30800
 30
 0
 11
128.98200
 21
58.36600
  0
LINE
  8
Engraving
 62
   254
 39
0.200
  6
CONTINUOUS
 10
128.98200
 20
58.36600
 30
 0
 11
128.86600
 21
58.36600
  0
LINE
  8
Engraving
 62
   254
 39
0.200
  6
CONTINUOUS
 10
128.86600
 20
58.36600
 30
 0
 11
130.14200
 21
61.61400
  0
LINE
  8
Engraving
 62
   254
 39
0.200
  6
CONTINUOUS
 10
130.14200
 20
61.61400
 30
 0
 11
130.25800
 21
61.61400
  0
LINE
  8
Engraving
 62
   254
 39
0.200
  6
CONTINUOUS
 10
130.25800
 20
61.61400
 30
 0
 11
131.53400
 21
58.36600
  0
LINE
  8
Engraving
 62
   254
 39
0.200
  6
CONTINUOUS
 10
131.53400
 20
58.36600
 30
 0
 11
131.41800
 21
58.36600
  0
LINE
  8
Engraving
 62
   254
 39
0.200
  6
CONTINUOUS
 10
131.41800
 20
58.36600
 30
 0
 11
130.22900
 21
61.46900
  0
LINE
  8
Engraving
 62
   254
 39
0.200
  6
CONTINUOUS
 10
130.22900
 20
61.46900
 30
 0
 11
130.17100
 21
61.46900
  0
LINE
  8
Engraving
 62
   254
 39
0.200
  6
CONTINUOUS
 10
130.17100
 20
61.46900
 30
 0
 11
128.98200
 21
58.36600
  0
LINE
  8
Engraving
 62
   254
 39
0.200
  6
CONTINUOUS
 10
128.98200
 20
58.36600
 30
 0
 11
128.95300
 21
58.42400
  0
LINE
  8
Engraving
 62
   254
 39
0.200
  6
CONTINUOUS
 10
128.95300
 20
58.42400
 30
 0
 11
130.17100
 21
61.55600
  0
LINE
  8
Engraving
 62
   254
 39
0.200
  6
CONTINUOUS
 10
130.17100
 20
61.55600
 30
 0
 11
130.22900
 21
61.55600
  0
LINE
  8
Engraving
 62
   254
 39
0.200
  6
CONTINUOUS
 10
130.22900
 20
61.55600
 30
 0
 11
131.47600
 21
58.39500
  0
LINE
  8
Engraving
 62
   254
 39
0.200
  6
CONTINUOUS
 10
131.47600
 20
58.39500
 30
 0
 11
131.53400
 21
58.36600
  0
LINE
  8
Engraving
 62
   254
 39
0.200
  6
CONTINUOUS
 10
131.53400
 20
58.36600
 30
 0
 11
131.70800
 21
58.25000
  0
LINE
  8
Engraving
 62
   254
 39
0.200
  6
CONTINUOUS
 10
131.70800
 20
58.25000
 30
 0
 11
130.31600
 21
61.73000
  0
LINE
  8
Engraving
 62
   254
 39
0.200
  6
CONTINUOUS
 10
130.31600
 20
61.73000
 30
 0
 11
130.08400
 21
61.73000
  0
LINE
  8
Engraving
 62
   254
 39
0.200
  6
CONTINUOUS
 10
130.08400
 20
61.73000
 30
 0
 11
128.69200
 21
58.25000
  0
LINE
  8
Engraving
 62
   254
 39
0.200
  6
CONTINUOUS
 10
128.69200
 20
58.25000
 30
 0
 11
129.04000
 21
58.25000
  0
LINE
  8
Engraving
 62
   254
 39
0.200
  6
CONTINUOUS
 10
129.04000
 20
58.25000
 30
 0
 11
129.38800
 21
59.12000
  0
LINE
  8
Engraving
 62
   254
 39
0.200
  6
CONTINUOUS
 10
129.38800
 20
59.12000
 30
 0
 11
131.01200
 21
59.12000
  0
LINE
  8
Engraving
 62
   254
 39
0.200
  6
CONTINUOUS
 10
131.01200
 20
59.12000
 30
 0
 11
131.36000
 21
58.25000
  0
LINE
  8
Engraving
 62
   254
 39
0.200
  6
CONTINUOUS
 10
131.36000
 20
58.25000
 30
 0
 11
131.70800
 21
58.25000
  0
LINE
  8
Engraving
 62
   254
 39
0.200
  6
CONTINUOUS
 10
111.30200
 20
6.75600
 30
 0
 11
111.30200
 21
4.63900
  0
ARC
  8
Engraving
 62
   254
 39
0.200
  6
CONTINUOUS
 10
112.34100
 20
4.63400
 30
 0
 40
1.03900
 50
179.72428
 51
270.27572
  0
LINE
  8
Engraving
 62
   254
 39
0.200
  6
CONTINUOUS
 10
112.34600
 20
3.59500
 30
 0
 11
112.92600
 21
3.59500
  0
ARC
  8
Engraving
 62
   254
 39
0.200
  6
CONTINUOUS
 10
112.93100
 20
4.63400
 30
 0
 40
1.03900
 50
-90.27572
 51
0.27572
  0
LINE
  8
Engraving
 62
   254
 39
0.200
  6
CONTINUOUS
 10
113.97000
 20
4.63900
 30
 0
 11
113.97000
 21
6.75600
  0
LINE
  8
Engraving
 62
   254
 39
0.200
  6
CONTINUOUS
 10
113.97000
 20
6.75600
 30
 0
 11
114.02800
 21
6.81400
  0
LINE
  8
Engraving
 62
   254
 39
0.200
  6
CONTINUOUS
 10
114.02800
 20
6.81400
 30
 0
 11
114.02800
 21
4.63900
  0
ARC
  8
Engraving
 62
   254
 39
0.200
  6
CONTINUOUS
 10
112.93200
 20
4.63300
 30
 0
 40
1.09600
 50
269.68634
 51
0.31366
  0
LINE
  8
Engraving
 62
   254
 39
0.200
  6
CONTINUOUS
 10
112.92600
 20
3.53700
 30
 0
 11
112.34600
 21
3.53700
  0
ARC
  8
Engraving
 62
   254
 39
0.200
  6
CONTINUOUS
 10
112.34000
 20
4.63300
 30
 0
 40
1.09600
 50
179.68634
 51
-89.68634
  0
LINE
  8
Engraving
 62
   254
 39
0.200
  6
CONTINUOUS
 10
111.24400
 20
4.63900
 30
 0
 11
111.24400
 21
6.81400
  0
LINE
  8
Engraving
 62
   254
 39
0.200
  6
CONTINUOUS
 10
111.24400
 20
6.81400
 30
 0
 11
111.36000
 21
6.81400
  0
LINE
  8
Engraving
 62
   254
 39
0.200
  6
CONTINUOUS
 10
111.36000
 20
6.81400
 30
 0
 11
111.36000
 21
4.63900
  0
ARC
  8
Engraving
 62
   254
 39
0.200
  6
CONTINUOUS
 10
112.34100
 20
4.63400
 30
 0
 40
0.98100
 50
179.70798
 51
270.29202
  0
LINE
  8
Engraving
 62
   254
 39
0.200
  6
CONTINUOUS
 10
112.34600
 20
3.65300
 30
 0
 11
112.92600
 21
3.65300
  0
ARC
  8
Engraving
 62
   254
 39
0.200
  6
CONTINUOUS
 10
112.93100
 20
4.63400
 30
 0
 40
0.98100
 50
-90.29202
 51
0.29202
  0
LINE
  8
Engraving
 62
   254
 39
0.200
  6
CONTINUOUS
 10
113.91200
 20
4.63900
 30
 0
 11
113.91200
 21
6.81400
  0
LINE
  8
Engraving
 62
   254
 39
0.200
  6
CONTINUOUS
 10
113.91200
 20
6.81400
 30
 0
 11
114.02800
 21
6.81400
  0
LINE
  8
Engraving
 62
   254
 39
0.200
  6
CONTINUOUS
 10
114.02800
 20
6.81400
 30
 0
 11
114.08600
 21
6.87200
  0
LINE
  8
Engraving
 62
   254
 39
0.200
  6
CONTINUOUS
 10
114.08600
 20
6.87200
 30
 0
 11
114.08600
 21
4.63900
  0
ARC
  8
Engraving
 62
   254
 39
0.200
  6
CONTINUOUS
 10
112.93200
 20
4.63300
 30
 0
 40
1.15400
 50
269.70210
 51
0.29790
  0
LINE
  8
Engraving
 62
   254
 39
0.200
  6
CONTINUOUS
 10
112.92600
 20
3.47900
 30
 0
 11
112.34600
 21
3.47900
  0
ARC
  8
Engraving
 62
   254
 39
0.200
  6
CONTINUOUS
 10
112.34000
 20
4.63300
 30
 0
 40
1.15400
 50
179.70210
 51
-89.70210
  0
LINE
  8
Engraving
 62
   254
 39
0.200
  6
CONTINUOUS
 10
111.18600
 20
4.63900
 30
 0
 11
111.18600
 21
6.87200
  0
LINE
  8
Engraving
 62
   254
 39
0.200
  6
CONTINUOUS
 10
111.18600
 20
6.87200
 30
 0
 11
111.41800
 21
6.87200
  0
LINE
  8
Engraving
 62
   254
 39
0.200
  6
CONTINUOUS
 10
111.41800
 20
6.87200
 30
 0
 11
111.41800
 21
4.63900
  0
ARC
  8
Engraving
 62
   254
 39
0.200
  6
CONTINUOUS
 10
112.34100
 20
4.63400
 30
 0
 40
0.92300
 50
179.68963
 51
270.31037
  0
LINE
  8
Engraving
 62
   254
 39
0.200
  6
CONTINUOUS
 10
112.34600
 20
3.71100
 30
 0
 11
112.92600
 21
3.71100
  0
ARC
  8
Engraving
 62
   254
 39
0.200
  6
CONTINUOUS
 10
112.93100
 20
4.63400
 30
 0
 40
0.92300
 50
-90.31037
 51
0.31037
  0
LINE
  8
Engraving
 62
   254
 39
0.200
  6
CONTINUOUS
 10
113.85400
 20
4.63900
 30
 0
 11
113.85400
 21
6.87200
  0
LINE
  8
Engraving
 62
   254
 39
0.200
  6
CONTINUOUS
 10
113.85400
 20
6.87200
 30
 0
 11
114.08600
 21
6.87200
  0
LINE
  8
Engraving
 62
   254
 39
0.200
  6
CONTINUOUS
 10
114.08600
 20
6.87200
 30
 0
 11
114.14400
 21
6.93000
  0
LINE
  8
Engraving
 62
   254
 39
0.200
  6
CONTINUOUS
 10
114.14400
 20
6.93000
 30
 0
 11
114.14400
 21
4.63900
  0
ARC
  8
Engraving
 62
   254
 39
0.200
  6
CONTINUOUS
 10
112.93200
 20
4.63300
 30
 0
 40
1.21200
 50
269.71636
 51
0.28364
  0
LINE
  8
Engraving
 62
   254
 39
0.200
  6
CONTINUOUS
 10
112.92600
 20
3.42100
 30
 0
 11
112.34600
 21
3.42100
  0
ARC
  8
Engraving
 62
   254
 39
0.200
  6
CONTINUOUS
 10
112.34000
 20
4.63300
 30
 0
 40
1.21200
 50
179.71636
 51
-89.71636
  0
LINE
  8
Engraving
 62
   254
 39
0.200
  6
CONTINUOUS
 10
111.12800
 20
4.63900
 30
 0
 11
111.12800
 21
6.93000
  0
LINE
  8
Engraving
 62
   254
 39
0.200
  6
CONTINUOUS
 10
111.12800
 20
6.93000
 30
 0
 11
111.47600
 21
6.93000
  0
LINE
  8
Engraving
 62
   254
 39
0.200
  6
CONTINUOUS
 10
111.47600
 20
6.93000
 30
 0
 11
111.47600
 21
4.63900
  0
ARC
  8
Engraving
 62
   254
 39
0.200
  6
CONTINUOUS
 10
112.34100
 20
4.63400
 30
 0
 40
0.86500
 50
179.66881
 51
270.33119
  0
LINE
  8
Engraving
 62
   254
 39
0.200
  6
CONTINUOUS
 10
112.34600
 20
3.76900
 30
 0
 11
112.92600
 21
3.76900
  0
ARC
  8
Engraving
 62
   254
 39
0.200
  6
CONTINUOUS
 10
112.93100
 20
4.63400
 30
 0
 40
0.86500
 50
-90.33119
 51
0.33119
  0
LINE
  8
Engraving
 62
   254
 39
0.200
  6
CONTINUOUS
 10
113.79600
 20
4.63900
 30
 0
 11
113.79600
 21
6.93000
  0
LINE
  8
Engraving
 62
   254
 39
0.200
  6
CONTINUOUS
 10
113.79600
 20
6.93000
 30
 0
 11
114.14400
 21
6.93000
  0
ARC
  8
Engraving
 62
   254
 39
0.200
  6
CONTINUOUS
 10
115.95000
 20
4.43000
 30
 0
 40
0.82000
 50
179.58077
 51
259.25164
  0
ARC
  8
Engraving
 62
   254
 39
0.200
  6
CONTINUOUS
 10
116.39200
 20
7.03100
 30
 0
 40
3.45900
 50
-99.90626
 51
-80.11006
  0
ARC
  8
Engraving
 62
   254
 39
0.200
  6
CONTINUOUS
 10
116.84600
 20
4.43600
 30
 0
 40
0.82400
 50
-80.21759
 51
80.21759
  0
ARC
  8
Engraving
 62
   254
 39
0.200
  6
CONTINUOUS
 10
116.54300
 20
2.20000
 30
 0
 40
3.08000
 50
81.73047
 51
92.54935
  0
ARC
  8
Engraving
 62
   254
 39
0.200
  6
CONTINUOUS
 10
116.42200
 20
8.36800
 30
 0
 40
3.09100
 50
258.88274
 51
-90.29658
  0
ARC
  8
Engraving
 62
   254
 39
0.200
  6
CONTINUOUS
 10
115.94600
 20
6.01700
 30
 0
 40
0.69200
 50
99.99358
 51
-99.97922
  0
ARC
  8
Engraving
 62
   254
 39
0.200
  6
CONTINUOUS
 10
116.39200
 20
3.45800
 30
 0
 40
3.28900
 50
440.10807
 51
99.90909
  0
ARC
  8
Engraving
 62
   254
 39
0.200
  6
CONTINUOUS
 10
116.84700
 20
6.01700
 30
 0
 40
0.69000
 50
361.16236
 51
80.82443
  0
LINE
  8
Engraving
 62
   254
 39
0.200
  6
CONTINUOUS
 10
117.53700
 20
6.03100
 30
 0
 11
117.59500
 21
6.03100
  0
ARC
  8
Engraving
 62
   254
 39
0.200
  6
CONTINUOUS
 10
116.85600
 20
6.02900
 30
 0
 40
0.73900
 50
0.15506
 51
79.86169
  0
ARC
  8
Engraving
 62
   254
 39
0.200
  6
CONTINUOUS
 10
116.39200
 20
3.34900
 30
 0
 40
3.45800
 50
80.11006
 51
99.90626
  0
ARC
  8
Engraving
 62
   254
 39
0.200
  6
CONTINUOUS
 10
115.92200
 20
6.01700
 30
 0
 40
0.74900
 50
99.60057
 51
260.41217
  0
ARC
  8
Engraving
 62
   254
 39
0.200
  6
CONTINUOUS
 10
116.40800
 20
8.46300
 30
 0
 40
3.24400
 50
-100.85618
 51
-90.03532
  0
ARC
  8
Engraving
 62
   254
 39
0.200
  6
CONTINUOUS
 10
116.54300
 20
2.14200
 30
 0
 40
3.08000
 50
441.73047
 51
92.54935
  0
ARC
  8
Engraving
 62
   254
 39
0.200
  6
CONTINUOUS
 10
116.85700
 20
4.43600
 30
 0
 40
0.76500
 50
279.70860
 51
80.29140
  0
ARC
  8
Engraving
 62
   254
 39
0.200
  6
CONTINUOUS
 10
116.39200
 20
7.08900
 30
 0
 40
3.45800
 50
260.09374
 51
-80.11006
  0
ARC
  8
Engraving
 62
   254
 39
0.200
  6
CONTINUOUS
 10
115.94500
 20
4.42400
 30
 0
 40
0.75700
 50
179.09182
 51
-101.28023
  0
LINE
  8
Engraving
 62
   254
 39
0.200
  6
CONTINUOUS
 10
115.18800
 20
4.43600
 30
 0
 11
115.07200
 21
4.43600
  0
ARC
  8
Engraving
 62
   254
 39
0.200
  6
CONTINUOUS
 10
115.95600
 20
4.43600
 30
 0
 40
0.88400
 50
180.00000
 51
259.64300
  0
ARC
  8
Engraving
 62
   254
 39
0.200
  6
CONTINUOUS
 10
116.40600
 20
7.05500
 30
 0
 40
3.54200
 50
-99.90115
 51
-80.09885
  0
ARC
  8
Engraving
 62
   254
 39
0.200
  6
CONTINUOUS
 10
116.86400
 20
4.43600
 30
 0
 40
0.88300
 50
-80.15365
 51
80.15365
  0
ARC
  8
Engraving
 62
   254
 39
0.200
  6
CONTINUOUS
 10
116.55700
 20
2.10600
 30
 0
 40
3.23300
 50
81.85486
 51
92.67741
  0
ARC
  8
Engraving
 62
   254
 39
0.200
  6
CONTINUOUS
 10
116.42200
 20
8.42600
 30
 0
 40
3.09100
 50
258.88274
 51
-90.29658
  0
ARC
  8
Engraving
 62
   254
 39
0.200
  6
CONTINUOUS
 10
115.93500
 20
6.01700
 30
 0
 40
0.63300
 50
99.92401
 51
-99.90843
  0
ARC
  8
Engraving
 62
   254
 39
0.200
  6
CONTINUOUS
 10
116.39200
 20
3.40000
 30
 0
 40
3.28900
 50
440.10807
 51
99.90909
  0
ARC
  8
Engraving
 62
   254
 39
0.200
  6
CONTINUOUS
 10
116.85300
 20
6.02300
 30
 0
 40
0.62600
 50
360.73217
 51
80.43230
  0
LINE
  8
Engraving
 62
   254
 39
0.200
  6
CONTINUOUS
 10
117.47900
 20
6.03100
 30
 0
 11
117.59500
 21
6.03100
  0
LINE
  8
Engraving
 62
   254
 39
0.200
  6
CONTINUOUS
 10
117.59500
 20
6.03100
 30
 0
 11
117.65300
 21
6.03100
  0
ARC
  8
Engraving
 62
   254
 39
0.200
  6
CONTINUOUS
 10
116.85000
 20
6.02300
 30
 0
 40
0.80300
 50
0.57080
 51
80.24428
  0
ARC
  8
Engraving
 62
   254
 39
0.200
  6
CONTINUOUS
 10
116.39200
 20
3.40700
 30
 0
 40
3.45800
 50
80.11006
 51
99.90626
  0
ARC
  8
Engraving
 62
   254
 39
0.200
  6
CONTINUOUS
 10
115.93300
 20
6.01700
 30
 0
 40
0.80900
 50
99.68368
 51
260.32823
  0
ARC
  8
Engraving
 62
   254
 39
0.200
  6
CONTINUOUS
 10
116.40800
 20
8.40500
 30
 0
 40
3.24400
 50
-100.85618
 51
-90.03532
  0
ARC
  8
Engraving
 62
   254
 39
0.200
  6
CONTINUOUS
 10
116.52800
 20
2.23800
 30
 0
 40
2.92600
 50
441.56801
 51
92.39002
  0
ARC
  8
Engraving
 62
   254
 39
0.200
  6
CONTINUOUS
 10
116.83900
 20
4.43600
 30
 0
 40
0.70600
 50
279.62244
 51
80.37756
  0
ARC
  8
Engraving
 62
   254
 39
0.200
  6
CONTINUOUS
 10
116.39200
 20
6.98000
 30
 0
 40
3.28900
 50
260.09091
 51
-80.10807
  0
ARC
  8
Engraving
 62
   254
 39
0.200
  6
CONTINUOUS
 10
115.95300
 20
4.43500
 30
 0
 40
0.70700
 50
179.91896
 51
-100.35562
  0
LINE
  8
Engraving
 62
   254
 39
0.200
  6
CONTINUOUS
 10
115.24600
 20
4.43600
 30
 0
 11
115.01400
 21
4.43600
  0
ARC
  8
Engraving
 62
   254
 39
0.200
  6
CONTINUOUS
 10
115.94800
 20
4.42500
 30
 0
 40
0.93400
 50
179.32524
 51
258.89448
  0
ARC
  8
Engraving
 62
   254
 39
0.200
  6
CONTINUOUS
 10
116.39200
 20
7.08000
 30
 0
 40
3.62600
 50
-99.90912
 51
-80.10644
  0
ARC
  8
Engraving
 62
   254
 39
0.200
  6
CONTINUOUS
 10
116.85300
 20
4.43600
 30
 0
 40
0.94200
 50
-80.09772
 51
80.09772
  0
ARC
  8
Engraving
 62
   254
 39
0.200
  6
CONTINUOUS
 10
116.55700
 20
2.16400
 30
 0
 40
3.23300
 50
81.85486
 51
92.67741
  0
ARC
  8
Engraving
 62
   254
 39
0.200
  6
CONTINUOUS
 10
116.43700
 20
8.33100
 30
 0
 40
2.93800
 50
258.57534
 51
-90.60453
  0
ARC
  8
Engraving
 62
   254
 39
0.200
  6
CONTINUOUS
 10
115.95300
 20
6.01700
 30
 0
 40
0.57400
 50
99.84013
 51
-99.82308
  0
ARC
  8
Engraving
 62
   254
 39
0.200
  6
CONTINUOUS
 10
116.40600
 20
3.42500
 30
 0
 40
3.20500
 50
440.09973
 51
99.90027
  0
ARC
  8
Engraving
 62
   254
 39
0.200
  6
CONTINUOUS
 10
116.85900
 20
6.02900
 30
 0
 40
0.56200
 50
360.20390
 51
79.95065
  0
LINE
  8
Engraving
 62
   254
 39
0.200
  6
CONTINUOUS
 10
117.42100
 20
6.03100
 30
 0
 11
117.65300
 21
6.03100
  0
LINE
  8
Engraving
 62
   254
 39
0.200
  6
CONTINUOUS
 10
117.65300
 20
6.03100
 30
 0
 11
117.71100
 21
6.03100
  0
ARC
  8
Engraving
 62
   254
 39
0.200
  6
CONTINUOUS
 10
116.85900
 20
6.03400
 30
 0
 40
0.85200
 50
-0.20174
 51
79.45467
  0
ARC
  8
Engraving
 62
   254
 39
0.200
  6
CONTINUOUS
 10
116.40600
 20
3.38300
 30
 0
 40
3.54200
 50
80.09885
 51
99.90115
  0
ARC
  8
Engraving
 62
   254
 39
0.200
  6
CONTINUOUS
 10
115.94400
 20
6.01700
 30
 0
 40
0.86800
 50
99.75548
 51
260.25570
  0
ARC
  8
Engraving
 62
   254
 39
0.200
  6
CONTINUOUS
 10
116.40800
 20
8.34700
 30
 0
 40
3.24400
 50
-100.85618
 51
-90.03532
  0
ARC
  8
Engraving
 62
   254
 39
0.200
  6
CONTINUOUS
 10
116.52800
 20
2.18000
 30
 0
 40
2.92600
 50
441.56801
 51
92.39002
  0
ARC
  8
Engraving
 62
   254
 39
0.200
  6
CONTINUOUS
 10
116.84900
 20
4.43600
 30
 0
 40
0.64700
 50
279.60789
 51
80.39211
  0
ARC
  8
Engraving
 62
   254
 39
0.200
  6
CONTINUOUS
 10
116.39200
 20
7.03800
 30
 0
 40
3.28900
 50
260.09091
 51
-80.10807
  0
ARC
  8
Engraving
 62
   254
 39
0.200
  6
CONTINUOUS
 10
115.94800
 20
4.43000
 30
 0
 40
0.64400
 50
179.46620
 51
-100.92587
  0
LINE
  8
Engraving
 62
   254
 39
0.200
  6
CONTINUOUS
 10
115.30400
 20
4.43600
 30
 0
 11
114.95600
 21
4.43600
  0
ARC
  8
Engraving
 62
   254
 39
0.200
  6
CONTINUOUS
 10
115.93600
 20
4.44400
 30
 0
 40
0.98000
 50
-179.53229
 51
-99.87583
  0
ARC
  8
Engraving
 62
   254
 39
0.200
  6
CONTINUOUS
 10
116.39200
 20
7.05100
 30
 0
 40
3.62600
 50
-99.90912
 51
-80.10644
  0
ARC
  8
Engraving
 62
   254
 39
0.200
  6
CONTINUOUS
 10
116.85100
 20
4.43600
 30
 0
 40
0.97100
 50
-80.27574
 51
80.27574
  0
ARC
  8
Engraving
 62
   254
 39
0.200
  6
CONTINUOUS
 10
116.40400
 20
2.20700
 30
 0
 40
3.24400
 50
79.14382
 51
89.96468
  0
ARC
  8
Engraving
 62
   254
 39
0.200
  6
CONTINUOUS
 10
116.43700
 20
8.38900
 30
 0
 40
2.93800
 50
258.57534
 51
-90.60453
  0
ARC
  8
Engraving
 62
   254
 39
0.200
  6
CONTINUOUS
 10
115.94300
 20
6.01700
 30
 0
 40
0.51600
 50
99.84673
 51
-99.82772
  0
ARC
  8
Engraving
 62
   254
 39
0.200
  6
CONTINUOUS
 10
116.39200
 20
3.45000
 30
 0
 40
3.12100
 50
440.10902
 51
99.90906
  0
ARC
  8
Engraving
 62
   254
 39
0.200
  6
CONTINUOUS
 10
116.85000
 20
6.01700
 30
 0
 40
0.51300
 50
361.56324
 51
81.25384
  0
LINE
  8
Engraving
 62
   254
 39
0.200
  6
CONTINUOUS
 10
117.36300
 20
6.03100
 30
 0
 11
117.71100
 21
6.03100
  0
LINE
  8
Engraving
 62
   254
 39
0.200
  6
CONTINUOUS
 10
118.78400
 20
6.75600
 30
 0
 11
118.78400
 21
3.62400
  0
LINE
  8
Engraving
 62
   254
 39
0.200
  6
CONTINUOUS
 10
118.78400
 20
3.62400
 30
 0
 11
120.29200
 21
3.62400
  0
ARC
  8
Engraving
 62
   254
 39
0.200
  6
CONTINUOUS
 10
120.29200
 20
4.43600
 30
 0
 40
0.81200
 50
-90.00000
 51
90.00000
  0
ARC
  8
Engraving
 62
   254
 39
0.200
  6
CONTINUOUS
 10
120.29200
 20
6.00200
 30
 0
 40
0.75400
 50
-90.00000
 51
90.00000
  0
LINE
  8
Engraving
 62
   254
 39
0.200
  6
CONTINUOUS
 10
120.29200
 20
6.75600
 30
 0
 11
118.78400
 21
6.75600
  0
LINE
  8
Engraving
 62
   254
 39
0.200
  6
CONTINUOUS
 10
118.78400
 20
6.75600
 30
 0
 11
118.72600
 21
6.81400
  0
LINE
  8
Engraving
 62
   254
 39
0.200
  6
CONTINUOUS
 10
118.72600
 20
6.81400
 30
 0
 11
118.72600
 21
3.56600
  0
LINE
  8
Engraving
 62
   254
 39
0.200
  6
CONTINUOUS
 10
118.72600
 20
3.56600
 30
 0
 11
120.29200
 21
3.56600
  0
ARC
  8
Engraving
 62
   254
 39
0.200
  6
CONTINUOUS
 10
120.28600
 20
4.43300
 30
 0
 40
0.86700
 50
-89.60350
 51
70.03948
  0
ARC
  8
Engraving
 62
   254
 39
0.200
  6
CONTINUOUS
 10
120.28600
 20
6.00300
 30
 0
 40
0.81100
 50
-68.59219
 51
89.57612
  0
LINE
  8
Engraving
 62
   254
 39
0.200
  6
CONTINUOUS
 10
120.29200
 20
6.81400
 30
 0
 11
118.72600
 21
6.81400
  0
LINE
  8
Engraving
 62
   254
 39
0.200
  6
CONTINUOUS
 10
118.72600
 20
6.81400
 30
 0
 11
118.66800
 21
6.87200
  0
LINE
  8
Engraving
 62
   254
 39
0.200
  6
CONTINUOUS
 10
118.66800
 20
6.87200
 30
 0
 11
118.66800
 21
3.50800
  0
LINE
  8
Engraving
 62
   254
 39
0.200
  6
CONTINUOUS
 10
118.66800
 20
3.50800
 30
 0
 11
120.29200
 21
3.50800
  0
ARC
  8
Engraving
 62
   254
 39
0.200
  6
CONTINUOUS
 10
120.29000
 20
4.43300
 30
 0
 40
0.92500
 50
-89.87612
 51
61.79995
  0
ARC
  8
Engraving
 62
   254
 39
0.200
  6
CONTINUOUS
 10
120.28900
 20
6.00100
 30
 0
 40
0.87100
 50
-59.81458
 51
89.80266
  0
LINE
  8
Engraving
 62
   254
 39
0.200
  6
CONTINUOUS
 10
120.29200
 20
6.87200
 30
 0
 11
118.66800
 21
6.87200
  0
LINE
  8
Engraving
 62
   254
 39
0.200
  6
CONTINUOUS
 10
118.66800
 20
6.87200
 30
 0
 11
118.61000
 21
6.93000
  0
LINE
  8
Engraving
 62
   254
 39
0.200
  6
CONTINUOUS
 10
118.61000
 20
6.93000
 30
 0
 11
118.61000
 21
3.45000
  0
LINE
  8
Engraving
 62
   254
 39
0.200
  6
CONTINUOUS
 10
118.61000
 20
3.45000
 30
 0
 11
120.29200
 21
3.45000
  0
ARC
  8
Engraving
 62
   254
 39
0.200
  6
CONTINUOUS
 10
120.29300
 20
4.43300
 30
 0
 40
0.98300
 50
-90.05829
 51
55.98669
  0
ARC
  8
Engraving
 62
   254
 39
0.200
  6
CONTINUOUS
 10
120.29300
 20
5.99900
 30
 0
 40
0.93100
 50
-53.78256
 51
90.06154
  0
LINE
  8
Engraving
 62
   254
 39
0.200
  6
CONTINUOUS
 10
120.29200
 20
6.93000
 30
 0
 11
118.61000
 21
6.93000
  0
LINE
  8
Engraving
 62
   254
 39
0.200
  6
CONTINUOUS
 10
118.61000
 20
6.93000
 30
 0
 11
118.84200
 21
6.69800
  0
LINE
  8
Engraving
 62
   254
 39
0.200
  6
CONTINUOUS
 10
118.84200
 20
6.69800
 30
 0
 11
118.84200
 21
5.30600
  0
LINE
  8
Engraving
 62
   254
 39
0.200
  6
CONTINUOUS
 10
118.84200
 20
5.30600
 30
 0
 11
120.29200
 21
5.30600
  0
ARC
  8
Engraving
 62
   254
 39
0.200
  6
CONTINUOUS
 10
120.29200
 20
6.00200
 30
 0
 40
0.69600
 50
-90.00000
 51
90.00000
  0
LINE
  8
Engraving
 62
   254
 39
0.200
  6
CONTINUOUS
 10
120.29200
 20
6.69800
 30
 0
 11
118.84200
 21
6.69800
  0
LINE
  8
Engraving
 62
   254
 39
0.200
  6
CONTINUOUS
 10
118.84200
 20
6.69800
 30
 0
 11
118.90000
 21
6.64000
  0
LINE
  8
Engraving
 62
   254
 39
0.200
  6
CONTINUOUS
 10
118.90000
 20
6.64000
 30
 0
 11
118.90000
 21
5.36400
  0
LINE
  8
Engraving
 62
   254
 39
0.200
  6
CONTINUOUS
 10
118.90000
 20
5.36400
 30
 0
 11
120.29200
 21
5.36400
  0
ARC
  8
Engraving
 62
   254
 39
0.200
  6
CONTINUOUS
 10
120.29200
 20
6.00200
 30
 0
 40
0.63800
 50
-90.00000
 51
90.00000
  0
LINE
  8
Engraving
 62
   254
 39
0.200
  6
CONTINUOUS
 10
120.29200
 20
6.64000
 30
 0
 11
118.90000
 21
6.64000
  0
LINE
  8
Engraving
 62
   254
 39
0.200
  6
CONTINUOUS
 10
118.90000
 20
6.64000
 30
 0
 11
118.95800
 21
6.58200
  0
LINE
  8
Engraving
 62
   254
 39
0.200
  6
CONTINUOUS
 10
118.95800
 20
6.58200
 30
 0
 11
120.29200
 21
6.58200
  0
ARC
  8
Engraving
 62
   254
 39
0.200
  6
CONTINUOUS
 10
120.29200
 20
6.00200
 30
 0
 40
0.58000
 50
270.00000
 51
90.00000
  0
LINE
  8
Engraving
 62
   254
 39
0.200
  6
CONTINUOUS
 10
120.29200
 20
5.42200
 30
 0
 11
118.95800
 21
5.42200
  0
LINE
  8
Engraving
 62
   254
 39
0.200
  6
CONTINUOUS
 10
118.95800
 20
5.42200
 30
 0
 11
118.95800
 21
6.58200
  0
LINE
  8
Engraving
 62
   254
 39
0.200
  6
CONTINUOUS
 10
118.78400
 20
5.24800
 30
 0
 11
120.29200
 21
5.24800
  0
LINE
  8
Engraving
 62
   254
 39
0.200
  6
CONTINUOUS
 10
120.29200
 20
5.24800
 30
 0
 11
120.29200
 21
5.19000
  0
ARC
  8
Engraving
 62
   254
 39
0.200
  6
CONTINUOUS
 10
120.29200
 20
4.43600
 30
 0
 40
0.75400
 50
270.00000
 51
90.00000
  0
LINE
  8
Engraving
 62
   254
 39
0.200
  6
CONTINUOUS
 10
120.29200
 20
3.68200
 30
 0
 11
118.84200
 21
3.68200
  0
LINE
  8
Engraving
 62
   254
 39
0.200
  6
CONTINUOUS
 10
118.84200
 20
3.68200
 30
 0
 11
118.84200
 21
5.19000
  0
LINE
  8
Engraving
 62
   254
 39
0.200
  6
CONTINUOUS
 10
118.84200
 20
5.19000
 30
 0
 11
120.29200
 21
5.19000
  0
LINE
  8
Engraving
 62
   254
 39
0.200
  6
CONTINUOUS
 10
120.29200
 20
5.19000
 30
 0
 11
120.29200
 21
5.13200
  0
ARC
  8
Engraving
 62
   254
 39
0.200
  6
CONTINUOUS
 10
120.29200
 20
4.43600
 30
 0
 40
0.69600
 50
270.00000
 51
90.00000
  0
LINE
  8
Engraving
 62
   254
 39
0.200
  6
CONTINUOUS
 10
120.29200
 20
3.74000
 30
 0
 11
118.90000
 21
3.74000
  0
LINE
  8
Engraving
 62
   254
 39
0.200
  6
CONTINUOUS
 10
118.90000
 20
3.74000
 30
 0
 11
118.90000
 21
5.13200
  0
LINE
  8
Engraving
 62
   254
 39
0.200
  6
CONTINUOUS
 10
118.90000
 20
5.13200
 30
 0
 11
120.29200
 21
5.13200
  0
LINE
  8
Engraving
 62
   254
 39
0.200
  6
CONTINUOUS
 10
120.29200
 20
5.13200
 30
 0
 11
120.29200
 21
5.07400
  0
ARC
  8
Engraving
 62
   254
 39
0.200
  6
CONTINUOUS
 10
120.29200
 20
4.43600
 30
 0
 40
0.63800
 50
270.00000
 51
90.00000
  0
LINE
  8
Engraving
 62
   254
 39
0.200
  6
CONTINUOUS
 10
120.29200
 20
3.79800
 30
 0
 11
118.95800
 21
3.79800
  0
LINE
  8
Engraving
 62
   254
 39
0.200
  6
CONTINUOUS
 10
118.95800
 20
3.79800
 30
 0
 11
118.95800
 21
5.07400
  0
LINE
  8
Engraving
 62
   254
 39
0.200
  6
CONTINUOUS
 10
118.95800
 20
5.07400
 30
 0
 11
120.29200
 21
5.07400
  0
CIRCLE
  8
Contour
 62
   7
 39
0.100
  6
CONTINUOUS
 10
5.20000
 20
5.20000
 30
 0
 40
2.65000
  0
CIRCLE
  8
Contour
 62
   7
 39
0.100
  6
CONTINUOUS
 10
147.20000
 20
5.20000
 30
 0
 40
2.65000
  0
CIRCLE
  8
Contour
 62
   7
 39
0.100
  6
CONTINUOUS
 10
147.20000
 20
102.80000
 30
 0
 40
2.65000
  0
CIRCLE
  8
Contour
 62
   7
 39
0.100
  6
CONTINUOUS
 10
5.20000
 20
102.80000
 30
 0
 40
2.65000
  0
CIRCLE
  8
Contour
 62
   7
 39
0.100
  6
CONTINUOUS
 10
12.67500
 20
45.80000
 30
 0
 40
4.76200
  0
CIRCLE
  8
Contour
 62
   7
 39
0.100
  6
CONTINUOUS
 10
31.72500
 20
45.80000
 30
 0
 40
4.76200
  0
CIRCLE
  8
Contour
 62
   7
 39
0.100
  6
CONTINUOUS
 10
48.67500
 20
45.80000
 30
 0
 40
4.76200
  0
CIRCLE
  8
Contour
 62
   7
 39
0.100
  6
CONTINUOUS
 10
67.72500
 20
45.80000
 30
 0
 40
4.76200
  0
CIRCLE
  8
Contour
 62
   7
 39
0.100
  6
CONTINUOUS
 10
84.67500
 20
45.80000
 30
 0
 40
4.76200
  0
CIRCLE
  8
Contour
 62
   7
 39
0.100
  6
CONTINUOUS
 10
103.72500
 20
45.80000
 30
 0
 40
4.76200
  0
CIRCLE
  8
Contour
 62
   7
 39
0.100
  6
CONTINUOUS
 10
120.67500
 20
45.80000
 30
 0
 40
4.76200
  0
CIRCLE
  8
Contour
 62
   7
 39
0.100
  6
CONTINUOUS
 10
139.72500
 20
45.80000
 30
 0
 40
4.76200
  0
ARC
  8
Contour
 62
   7
 39
0.100
  6
CONTINUOUS
 10
76.20000
 20
19.50000
 30
 0
 40
1.50000
 50
0.00000
 51
270.00000
  0
CIRCLE
  8
Contour
 62
   7
 39
0.100
  6
CONTINUOUS
 10
76.20000
 20
19.50000
 30
 0
 40
1.22900
  0
ARC
  8
Contour
 62
   7
 39
0.100
  6
CONTINUOUS
 10
17.80000
 20
19.50000
 30
 0
 40
1.50000
 50
0.00000
 51
270.00000
  0
CIRCLE
  8
Contour
 62
   7
 39
0.100
  6
CONTINUOUS
 10
17.80000
 20
19.50000
 30
 0
 40
1.22900
  0
ARC
  8
Contour
 62
   7
 39
0.100
  6
CONTINUOUS
 10
49.29000
 20
32.94000
 30
 0
 40
0.50000
 50
316.05341
 51
133.94659
  0
LINE
  8
Contour
 62
   7
 39
0.100
  6
CONTINUOUS
 10
49.65000
 20
32.59300
 30
 0
 11
49.65000
 21
6.40700
  0
ARC
  8
Contour
 62
   7
 39
0.100
  6
CONTINUOUS
 10
49.29000
 20
6.06000
 30
 0
 40
0.50000
 50
226.05341
 51
43.94659
  0
LINE
  8
Contour
 62
   7
 39
0.100
  6
CONTINUOUS
 10
48.94300
 20
5.70000
 30
 0
 11
23.45700
 21
5.70000
  0
ARC
  8
Contour
 62
   7
 39
0.100
  6
CONTINUOUS
 10
23.11000
 20
6.06000
 30
 0
 40
0.50000
 50
136.05341
 51
-46.05341
  0
LINE
  8
Contour
 62
   7
 39
0.100
  6
CONTINUOUS
 10
22.75000
 20
6.40700
 30
 0
 11
22.75000
 21
32.59300
  0
ARC
  8
Contour
 62
   7
 39
0.100
  6
CONTINUOUS
 10
23.11000
 20
32.94000
 30
 0
 40
0.50000
 50
46.05341
 51
-136.05341
  0
LINE
  8
Contour
 62
   7
 39
0.100
  6
CONTINUOUS
 10
23.45700
 20
33.30000
 30
 0
 11
48.94300
 21
33.30000
  0
ARC
  8
Contour
 62
   7
 39
0.100
  6
CONTINUOUS
 10
54.60000
 20
19.50000
 30
 0
 40
1.50000
 50
0.00000
 51
270.00000
  0
CIRCLE
  8
Contour
 62
   7
 39
0.100
  6
CONTINUOUS
 10
54.60000
 20
19.50000
 30
 0
 40
1.22900
  0
ARC
  8
Contour
 62
   7
 39
0.100
  6
CONTINUOUS
 10
123.59000
 20
23.14000
 30
 0
 40
0.50000
 50
316.05341
 51
133.94659
  0
LINE
  8
Contour
 62
   7
 39
0.100
  6
CONTINUOUS
 10
123.95000
 20
22.79300
 30
 0
 11
123.95000
 21
16.20700
  0
ARC
  8
Contour
 62
   7
 39
0.100
  6
CONTINUOUS
 10
123.59000
 20
15.86000
 30
 0
 40
0.50000
 50
226.05341
 51
43.94659
  0
LINE
  8
Contour
 62
   7
 39
0.100
  6
CONTINUOUS
 10
123.24300
 20
15.50000
 30
 0
 11
109.15700
 21
15.50000
  0
ARC
  8
Contour
 62
   7
 39
0.100
  6
CONTINUOUS
 10
108.81000
 20
15.86000
 30
 0
 40
0.50000
 50
136.05341
 51
-46.05341
  0
LINE
  8
Contour
 62
   7
 39
0.100
  6
CONTINUOUS
 10
108.45000
 20
16.20700
 30
 0
 11
108.45000
 21
22.79300
  0
ARC
  8
Contour
 62
   7
 39
0.100
  6
CONTINUOUS
 10
108.81000
 20
23.14000
 30
 0
 40
0.50000
 50
46.05341
 51
-136.05341
  0
LINE
  8
Contour
 62
   7
 39
0.100
  6
CONTINUOUS
 10
109.15700
 20
23.50000
 30
 0
 11
123.24300
 21
23.50000
  0
CIRCLE
  8
Contour
 62
   7
 39
0.100
  6
CONTINUOUS
 10
101.55000
 20
19.50000
 30
 0
 40
1.75000
  0
CIRCLE
  8
Contour
 62
   7
 39
0.100
  6
CONTINUOUS
 10
130.85000
 20
19.50000
 30
 0
 40
1.75000
  0
ARC
  8
Contour
 62
   7
 39
0.100
  6
CONTINUOUS
 10
24.72500
 20
65.78500
 30
 0
 40
1.50000
 50
270.03820
 51
-59.02314
  0
LINE
  8
Contour
 62
   7
 39
0.100
  6
CONTINUOUS
 10
24.72600
 20
64.28500
 30
 0
 11
19.67400
 21
64.28500
  0
ARC
  8
Contour
 62
   7
 39
0.100
  6
CONTINUOUS
 10
19.67500
 20
65.78500
 30
 0
 40
1.50000
 50
239.02314
 51
-90.03820
  0
ARC
  8
Contour
 62
   7
 39
0.100
  6
CONTINUOUS
 10
22.20000
 20
70.00000
 30
 0
 40
6.41300
 50
-59.06382
 51
-120.93618
  0
ARC
  8
Contour
 62
   7
 39
0.100
  6
CONTINUOUS
 10
60.72500
 20
65.78500
 30
 0
 40
1.50000
 50
270.03820
 51
-59.02314
  0
LINE
  8
Contour
 62
   7
 39
0.100
  6
CONTINUOUS
 10
60.72600
 20
64.28500
 30
 0
 11
55.67400
 21
64.28500
  0
ARC
  8
Contour
 62
   7
 39
0.100
  6
CONTINUOUS
 10
55.67500
 20
65.78500
 30
 0
 40
1.50000
 50
239.02314
 51
-90.03820
  0
ARC
  8
Contour
 62
   7
 39
0.100
  6
CONTINUOUS
 10
58.20000
 20
70.00000
 30
 0
 40
6.41300
 50
-59.06382
 51
-120.93618
  0
ARC
  8
Contour
 62
   7
 39
0.100
  6
CONTINUOUS
 10
96.72500
 20
65.78500
 30
 0
 40
1.50000
 50
270.03820
 51
-59.02314
  0
LINE
  8
Contour
 62
   7
 39
0.100
  6
CONTINUOUS
 10
96.72600
 20
64.28500
 30
 0
 11
91.67400
 21
64.28500
  0
ARC
  8
Contour
 62
   7
 39
0.100
  6
CONTINUOUS
 10
91.67500
 20
65.78500
 30
 0
 40
1.50000
 50
239.02314
 51
-90.03820
  0
ARC
  8
Contour
 62
   7
 39
0.100
  6
CONTINUOUS
 10
94.20000
 20
70.00000
 30
 0
 40
6.41300
 50
-59.06382
 51
-120.93618
  0
ARC
  8
Contour
 62
   7
 39
0.100
  6
CONTINUOUS
 10
132.72500
 20
65.78500
 30
 0
 40
1.50000
 50
270.03820
 51
-59.02314
  0
LINE
  8
Contour
 62
   7
 39
0.100
  6
CONTINUOUS
 10
132.72600
 20
64.28500
 30
 0
 11
127.67400
 21
64.28500
  0
ARC
  8
Contour
 62
   7
 39
0.100
  6
CONTINUOUS
 10
127.67500
 20
65.78500
 30
 0
 40
1.50000
 50
239.02314
 51
-90.03820
  0
ARC
  8
Contour
 62
   7
 39
0.100
  6
CONTINUOUS
 10
130.20000
 20
70.00000
 30
 0
 40
6.41300
 50
-59.06382
 51
-120.93618
  0
LINE
  8
Reference_points
 62
   1
 39
0.100
  6
CONTINUOUS
 10
-1.00000
 20
0.00000
 30
 0
 11
1.00000
 21
0.00000
  0
LINE
  8
Reference_points
 62
   1
 39
0.100
  6
CONTINUOUS
 10
0.00000
 20
-1.00000
 30
 0
 11
0.00000
 21
1.00000
  0
LINE
  8
Reference_points
 62
   1
 39
0.100
  6
CONTINUOUS
 10
4.20000
 20
5.20000
 30
 0
 11
6.20000
 21
5.20000
  0
LINE
  8
Reference_points
 62
   1
 39
0.100
  6
CONTINUOUS
 10
5.20000
 20
4.20000
 30
 0
 11
5.20000
 21
6.20000
  0
LINE
  8
Reference_points
 62
   1
 39
0.100
  6
CONTINUOUS
 10
146.20000
 20
5.20000
 30
 0
 11
148.20000
 21
5.20000
  0
LINE
  8
Reference_points
 62
   1
 39
0.100
  6
CONTINUOUS
 10
147.20000
 20
4.20000
 30
 0
 11
147.20000
 21
6.20000
  0
LINE
  8
Reference_points
 62
   1
 39
0.100
  6
CONTINUOUS
 10
146.20000
 20
102.80000
 30
 0
 11
148.20000
 21
102.80000
  0
LINE
  8
Reference_points
 62
   1
 39
0.100
  6
CONTINUOUS
 10
147.20000
 20
101.80000
 30
 0
 11
147.20000
 21
103.80000
  0
LINE
  8
Reference_points
 62
   1
 39
0.100
  6
CONTINUOUS
 10
4.20000
 20
102.80000
 30
 0
 11
6.20000
 21
102.80000
  0
LINE
  8
Reference_points
 62
   1
 39
0.100
  6
CONTINUOUS
 10
5.20000
 20
101.80000
 30
 0
 11
5.20000
 21
103.80000
  0
LINE
  8
Reference_points
 62
   1
 39
0.100
  6
CONTINUOUS
 10
11.67500
 20
45.80000
 30
 0
 11
13.67500
 21
45.80000
  0
LINE
  8
Reference_points
 62
   1
 39
0.100
  6
CONTINUOUS
 10
12.67500
 20
44.80000
 30
 0
 11
12.67500
 21
46.80000
  0
LINE
  8
Reference_points
 62
   1
 39
0.100
  6
CONTINUOUS
 10
30.72500
 20
45.80000
 30
 0
 11
32.72500
 21
45.80000
  0
LINE
  8
Reference_points
 62
   1
 39
0.100
  6
CONTINUOUS
 10
31.72500
 20
44.80000
 30
 0
 11
31.72500
 21
46.80000
  0
LINE
  8
Reference_points
 62
   1
 39
0.100
  6
CONTINUOUS
 10
21.20000
 20
45.80000
 30
 0
 11
23.20000
 21
45.80000
  0
LINE
  8
Reference_points
 62
   1
 39
0.100
  6
CONTINUOUS
 10
22.20000
 20
44.80000
 30
 0
 11
22.20000
 21
46.80000
  0
LINE
  8
Reference_points
 62
   1
 39
0.100
  6
CONTINUOUS
 10
47.67500
 20
45.80000
 30
 0
 11
49.67500
 21
45.80000
  0
LINE
  8
Reference_points
 62
   1
 39
0.100
  6
CONTINUOUS
 10
48.67500
 20
44.80000
 30
 0
 11
48.67500
 21
46.80000
  0
LINE
  8
Reference_points
 62
   1
 39
0.100
  6
CONTINUOUS
 10
66.72500
 20
45.80000
 30
 0
 11
68.72500
 21
45.80000
  0
LINE
  8
Reference_points
 62
   1
 39
0.100
  6
CONTINUOUS
 10
67.72500
 20
44.80000
 30
 0
 11
67.72500
 21
46.80000
  0
LINE
  8
Reference_points
 62
   1
 39
0.100
  6
CONTINUOUS
 10
57.20000
 20
45.80000
 30
 0
 11
59.20000
 21
45.80000
  0
LINE
  8
Reference_points
 62
   1
 39
0.100
  6
CONTINUOUS
 10
58.20000
 20
44.80000
 30
 0
 11
58.20000
 21
46.80000
  0
LINE
  8
Reference_points
 62
   1
 39
0.100
  6
CONTINUOUS
 10
83.67500
 20
45.80000
 30
 0
 11
85.67500
 21
45.80000
  0
LINE
  8
Reference_points
 62
   1
 39
0.100
  6
CONTINUOUS
 10
84.67500
 20
44.80000
 30
 0
 11
84.67500
 21
46.80000
  0
LINE
  8
Reference_points
 62
   1
 39
0.100
  6
CONTINUOUS
 10
102.72500
 20
45.80000
 30
 0
 11
104.72500
 21
45.80000
  0
LINE
  8
Reference_points
 62
   1
 39
0.100
  6
CONTINUOUS
 10
103.72500
 20
44.80000
 30
 0
 11
103.72500
 21
46.80000
  0
LINE
  8
Reference_points
 62
   1
 39
0.100
  6
CONTINUOUS
 10
93.20000
 20
45.80000
 30
 0
 11
95.20000
 21
45.80000
  0
LINE
  8
Reference_points
 62
   1
 39
0.100
  6
CONTINUOUS
 10
94.20000
 20
44.80000
 30
 0
 11
94.20000
 21
46.80000
  0
LINE
  8
Reference_points
 62
   1
 39
0.100
  6
CONTINUOUS
 10
21.20000
 20
60.00000
 30
 0
 11
23.20000
 21
60.00000
  0
LINE
  8
Reference_points
 62
   1
 39
0.100
  6
CONTINUOUS
 10
22.20000
 20
59.00000
 30
 0
 11
22.20000
 21
61.00000
  0
LINE
  8
Reference_points
 62
   1
 39
0.100
  6
CONTINUOUS
 10
57.20000
 20
60.00000
 30
 0
 11
59.20000
 21
60.00000
  0
LINE
  8
Reference_points
 62
   1
 39
0.100
  6
CONTINUOUS
 10
58.20000
 20
59.00000
 30
 0
 11
58.20000
 21
61.00000
  0
LINE
  8
Reference_points
 62
   1
 39
0.100
  6
CONTINUOUS
 10
93.20000
 20
60.00000
 30
 0
 11
95.20000
 21
60.00000
  0
LINE
  8
Reference_points
 62
   1
 39
0.100
  6
CONTINUOUS
 10
94.20000
 20
59.00000
 30
 0
 11
94.20000
 21
61.00000
  0
LINE
  8
Reference_points
 62
   1
 39
0.100
  6
CONTINUOUS
 10
129.20000
 20
60.00000
 30
 0
 11
131.20000
 21
60.00000
  0
LINE
  8
Reference_points
 62
   1
 39
0.100
  6
CONTINUOUS
 10
130.20000
 20
59.00000
 30
 0
 11
130.20000
 21
61.00000
  0
LINE
  8
Reference_points
 62
   1
 39
0.100
  6
CONTINUOUS
 10
119.67500
 20
45.80000
 30
 0
 11
121.67500
 21
45.80000
  0
LINE
  8
Reference_points
 62
   1
 39
0.100
  6
CONTINUOUS
 10
120.67500
 20
44.80000
 30
 0
 11
120.67500
 21
46.80000
  0
LINE
  8
Reference_points
 62
   1
 39
0.100
  6
CONTINUOUS
 10
138.72500
 20
45.80000
 30
 0
 11
140.72500
 21
45.80000
  0
LINE
  8
Reference_points
 62
   1
 39
0.100
  6
CONTINUOUS
 10
139.72500
 20
44.80000
 30
 0
 11
139.72500
 21
46.80000
  0
LINE
  8
Reference_points
 62
   1
 39
0.100
  6
CONTINUOUS
 10
129.20000
 20
45.80000
 30
 0
 11
131.20000
 21
45.80000
  0
LINE
  8
Reference_points
 62
   1
 39
0.100
  6
CONTINUOUS
 10
130.20000
 20
44.80000
 30
 0
 11
130.20000
 21
46.80000
  0
LINE
  8
Reference_points
 62
   1
 39
0.100
  6
CONTINUOUS
 10
75.20000
 20
19.50000
 30
 0
 11
77.20000
 21
19.50000
  0
LINE
  8
Reference_points
 62
   1
 39
0.100
  6
CONTINUOUS
 10
76.20000
 20
18.50000
 30
 0
 11
76.20000
 21
20.50000
  0
LINE
  8
Reference_points
 62
   1
 39
0.100
  6
CONTINUOUS
 10
16.80000
 20
19.50000
 30
 0
 11
18.80000
 21
19.50000
  0
LINE
  8
Reference_points
 62
   1
 39
0.100
  6
CONTINUOUS
 10
17.80000
 20
18.50000
 30
 0
 11
17.80000
 21
20.50000
  0
LINE
  8
Reference_points
 62
   1
 39
0.100
  6
CONTINUOUS
 10
35.20000
 20
19.50000
 30
 0
 11
37.20000
 21
19.50000
  0
LINE
  8
Reference_points
 62
   1
 39
0.100
  6
CONTINUOUS
 10
36.20000
 20
18.50000
 30
 0
 11
36.20000
 21
20.50000
  0
LINE
  8
Reference_points
 62
   1
 39
0.100
  6
CONTINUOUS
 10
53.60000
 20
19.50000
 30
 0
 11
55.60000
 21
19.50000
  0
LINE
  8
Reference_points
 62
   1
 39
0.100
  6
CONTINUOUS
 10
54.60000
 20
18.50000
 30
 0
 11
54.60000
 21
20.50000
  0
LINE
  8
Reference_points
 62
   1
 39
0.100
  6
CONTINUOUS
 10
35.20000
 20
19.50000
 30
 0
 11
37.20000
 21
19.50000
  0
LINE
  8
Reference_points
 62
   1
 39
0.100
  6
CONTINUOUS
 10
36.20000
 20
18.50000
 30
 0
 11
36.20000
 21
20.50000
  0
LINE
  8
Reference_points
 62
   1
 39
0.100
  6
CONTINUOUS
 10
115.20000
 20
5.20000
 30
 0
 11
117.20000
 21
5.20000
  0
LINE
  8
Reference_points
 62
   1
 39
0.100
  6
CONTINUOUS
 10
116.20000
 20
4.20000
 30
 0
 11
116.20000
 21
6.20000
  0
LINE
  8
Reference_points
 62
   1
 39
0.100
  6
CONTINUOUS
 10
115.20000
 20
19.50000
 30
 0
 11
117.20000
 21
19.50000
  0
LINE
  8
Reference_points
 62
   1
 39
0.100
  6
CONTINUOUS
 10
116.20000
 20
18.50000
 30
 0
 11
116.20000
 21
20.50000
  0
LINE
  8
Reference_points
 62
   1
 39
0.100
  6
CONTINUOUS
 10
100.55000
 20
19.50000
 30
 0
 11
102.55000
 21
19.50000
  0
LINE
  8
Reference_points
 62
   1
 39
0.100
  6
CONTINUOUS
 10
101.55000
 20
18.50000
 30
 0
 11
101.55000
 21
20.50000
  0
LINE
  8
Reference_points
 62
   1
 39
0.100
  6
CONTINUOUS
 10
129.85000
 20
19.50000
 30
 0
 11
131.85000
 21
19.50000
  0
LINE
  8
Reference_points
 62
   1
 39
0.100
  6
CONTINUOUS
 10
130.85000
 20
18.50000
 30
 0
 11
130.85000
 21
20.50000
  0
LINE
  8
Reference_points
 62
   1
 39
0.100
  6
CONTINUOUS
 10
115.20000
 20
19.50000
 30
 0
 11
117.20000
 21
19.50000
  0
LINE
  8
Reference_points
 62
   1
 39
0.100
  6
CONTINUOUS
 10
116.20000
 20
18.50000
 30
 0
 11
116.20000
 21
20.50000
  0
LINE
  8
Reference_points
 62
   1
 39
0.100
  6
CONTINUOUS
 10
21.20000
 20
70.00000
 30
 0
 11
23.20000
 21
70.00000
  0
LINE
  8
Reference_points
 62
   1
 39
0.100
  6
CONTINUOUS
 10
22.20000
 20
69.00000
 30
 0
 11
22.20000
 21
71.00000
  0
LINE
  8
Reference_points
 62
   1
 39
0.100
  6
CONTINUOUS
 10
57.20000
 20
70.00000
 30
 0
 11
59.20000
 21
70.00000
  0
LINE
  8
Reference_points
 62
   1
 39
0.100
  6
CONTINUOUS
 10
58.20000
 20
69.00000
 30
 0
 11
58.20000
 21
71.00000
  0
LINE
  8
Reference_points
 62
   1
 39
0.100
  6
CONTINUOUS
 10
93.20000
 20
70.00000
 30
 0
 11
95.20000
 21
70.00000
  0
LINE
  8
Reference_points
 62
   1
 39
0.100
  6
CONTINUOUS
 10
94.20000
 20
69.00000
 30
 0
 11
94.20000
 21
71.00000
  0
LINE
  8
Reference_points
 62
   1
 39
0.100
  6
CONTINUOUS
 10
129.20000
 20
70.00000
 30
 0
 11
131.20000
 21
70.00000
  0
LINE
  8
Reference_points
 62
   1
 39
0.100
  6
CONTINUOUS
 10
130.20000
 20
69.00000
 30
 0
 11
130.20000
 21
71.00000
  0
ENDSEC
  0
EOF
