M48
;DRILL file {PCBnew (2010-03-14)-final} date Mon 23 May 2011 11:29:36 AM PDT
;FORMAT={2:4/ absolute / inch / suppress trailing zeros}
R,T
VER,1
FMAT,2
INCH,LZ
TCST,OFF
ICI,OFF
ATC,ON
T1C0.025
T2C0.039
T3C0.040
T4C0.042
T5C0.043
T6C0.043
T7C0.048
T8C0.107
T9C0.120
T10C0.220
%
M47
G05
M72
T1
X0298Y-0349
X037647Y-04878
X0379Y-0428
X039Y-0467
X0396Y-0411
X042Y-0419
X0431Y-0407
X0432Y-0394
X0494Y-0422
X052Y-04092
X053078Y-040701
X0538Y-0392
X0593Y-0422
X062Y-04092
X063078Y-040645
X0638Y-0391
X0689Y-0482
X0693Y-0421
X070861Y-0393
X073078Y-04092
X0738Y-0393
X0826Y-0446
X0826Y-047
T2
X0795Y-0495
X0805Y-0495
X0815Y-0495
T3
X0266Y-038
X0266Y-04
X0266Y-042
X0266Y-044
X0266Y-0512
X0271Y-0461
X0271Y-0471
X0271Y-0481
X0271Y-0491
X0276Y-038
X0276Y-04
X0276Y-042
X0276Y-044
X0276Y-0512
X034Y-035
X034Y-036
X035Y-035
X035Y-036
T4
X03Y-0391
X03Y-0401
X03Y-0411
X03Y-0421
X03Y-0431
X03Y-0441
X03Y-0451
X03Y-0461
X03Y-0471
X03Y-0481
X03Y-0491
X03Y-0501
X03Y-0511
X03Y-0521
X03Y-0531
X036Y-0391
X036Y-0401
X036Y-0411
X036Y-0421
X036Y-0431
X036Y-0441
X036Y-0451
X036Y-0461
X036Y-0471
X036Y-0481
X036Y-0491
X036Y-0501
X036Y-0511
X036Y-0521
X036Y-0531
T5
X0425Y-0351
X0425Y-0361
X0435Y-0351
X0435Y-0361
X0525Y-0351
X0525Y-0361
X0535Y-0351
X0535Y-0361
X0625Y-0351
X0625Y-0361
X0635Y-0351
X0635Y-0361
X0725Y-0351
X0725Y-0361
X0735Y-0351
X0735Y-0361
X08Y-0351
X08Y-0361
X081Y-0351
X081Y-0361
T6
X042016Y-0535
X043Y-0535
X043984Y-0535
X052016Y-0535
X053Y-0535
X053984Y-0535
X062016Y-0535
X063Y-0535
X063984Y-0535
X072016Y-0535
X073Y-0535
X073984Y-0535
T7
X04Y-044
X042Y-044
X043Y-044
X044Y-044
X045Y-044
X046Y-044
X05Y-044
X052Y-044
X053Y-044
X054Y-044
X055Y-044
X056Y-044
X06Y-044
X062Y-044
X063Y-044
X064Y-044
X065Y-044
X066Y-044
X07Y-044
X072Y-044
X073Y-044
X074Y-044
X075Y-044
X076Y-044
T8
X04107Y-052634
X04493Y-052634
X05107Y-052634
X05493Y-052634
X06107Y-052634
X06493Y-052634
X07107Y-052634
X07493Y-052634
T9
X02675Y-03575
X02675Y-05325
X0555Y-03575
X08425Y-03575
X08425Y-05325
T10
X041Y-0465
X051Y-0465
X061Y-0465
X071Y-0465
T0
M30
