G04 (created by PCBNEW-RS274X (2010-00-09 BZR 23xx)-stable) date Thu 04 Aug 2011 09:52:01 AM PDT*
G01*
G70*
G90*
%MOIN*%
G04 Gerber Fmt 3.4, Leading zero omitted, Abs format*
%FSLAX34Y34*%
G04 APERTURE LIST*
%ADD10C,0.006000*%
%ADD11C,0.009000*%
%ADD12C,0.096000*%
%ADD13C,0.145000*%
%ADD14R,0.089000X0.089000*%
%ADD15C,0.089000*%
%ADD16C,0.090000*%
%ADD17C,0.256000*%
%ADD18C,0.160000*%
%ADD19C,0.180000*%
%ADD20R,0.075000X0.075000*%
%ADD21C,0.075000*%
%ADD22C,0.098000*%
%ADD23C,0.093000*%
%ADD24R,0.093000X0.093000*%
%ADD25C,0.076000*%
G04 APERTURE END LIST*
G54D10*
G54D11*
X30500Y-55750D02*
X30500Y-29500D01*
X85500Y-55750D02*
X30500Y-55750D01*
X85500Y-29500D02*
X85500Y-55750D01*
X30500Y-29500D02*
X85500Y-29500D01*
G54D12*
X33266Y-53500D03*
X34250Y-53500D03*
X35234Y-53500D03*
G54D13*
X32320Y-52634D03*
X36180Y-52634D03*
G54D12*
X80766Y-53500D03*
X81750Y-53500D03*
X82734Y-53500D03*
G54D13*
X79820Y-52634D03*
X83680Y-52634D03*
G54D12*
X67016Y-53500D03*
X68000Y-53500D03*
X68984Y-53500D03*
G54D13*
X66070Y-52634D03*
X69930Y-52634D03*
G54D12*
X47016Y-53500D03*
X48000Y-53500D03*
X48984Y-53500D03*
G54D13*
X46070Y-52634D03*
X49930Y-52634D03*
G54D14*
X61000Y-46250D03*
G54D15*
X61000Y-45250D03*
X61000Y-44250D03*
X61000Y-43250D03*
X61000Y-42250D03*
X61000Y-41250D03*
X61000Y-40250D03*
X61000Y-39250D03*
X61000Y-38250D03*
X61000Y-37250D03*
X61000Y-36250D03*
X61000Y-35250D03*
X61000Y-34250D03*
X61000Y-33250D03*
X61000Y-32250D03*
X55000Y-32250D03*
X55000Y-33250D03*
X55000Y-34250D03*
X55000Y-35250D03*
X55000Y-36250D03*
X55000Y-37250D03*
X55000Y-38250D03*
X55000Y-39250D03*
X55000Y-40250D03*
X55000Y-41250D03*
X55000Y-42250D03*
X55000Y-43250D03*
X55000Y-44250D03*
X55000Y-45250D03*
X55000Y-46250D03*
G54D16*
X53250Y-51500D03*
X53250Y-50500D03*
X53250Y-49500D03*
G54D14*
X62500Y-42000D03*
G54D15*
X62500Y-43000D03*
X62500Y-44000D03*
X62500Y-45000D03*
G54D17*
X75500Y-38250D03*
X40500Y-53250D03*
X75500Y-53250D03*
X40500Y-38250D03*
G54D14*
X52250Y-39250D03*
G54D15*
X53250Y-39250D03*
X52250Y-40250D03*
X53250Y-40250D03*
X52250Y-41250D03*
X53250Y-41250D03*
X52250Y-42250D03*
X53250Y-42250D03*
G54D12*
X73000Y-30930D03*
G54D18*
X73000Y-32110D03*
G54D19*
X73000Y-34470D03*
G54D18*
X71230Y-31720D03*
X74770Y-31720D03*
G54D20*
X81750Y-39000D03*
G54D21*
X80750Y-39000D03*
X79750Y-39000D03*
X79750Y-42000D03*
X80750Y-42000D03*
X81750Y-42000D03*
G54D20*
X68000Y-39000D03*
G54D21*
X67000Y-39000D03*
X66000Y-39000D03*
X66000Y-42000D03*
X67000Y-42000D03*
X68000Y-42000D03*
G54D20*
X48000Y-39000D03*
G54D21*
X47000Y-39000D03*
X46000Y-39000D03*
X46000Y-42000D03*
X47000Y-42000D03*
X48000Y-42000D03*
G54D20*
X34250Y-39000D03*
G54D21*
X33250Y-39000D03*
X32250Y-39000D03*
X32250Y-42000D03*
X33250Y-42000D03*
X34250Y-42000D03*
G54D15*
X53250Y-37000D03*
X52250Y-37000D03*
X53250Y-36000D03*
X52250Y-36000D03*
X53250Y-35000D03*
X52250Y-35000D03*
X53250Y-34000D03*
X52250Y-34000D03*
X53250Y-33000D03*
X52250Y-33000D03*
X53250Y-32000D03*
X52250Y-32000D03*
G54D14*
X53250Y-38000D03*
G54D15*
X52250Y-38000D03*
X53250Y-31000D03*
X52250Y-31000D03*
G54D22*
X48000Y-44000D03*
X49000Y-44000D03*
X50000Y-44000D03*
X51000Y-44000D03*
X47000Y-44000D03*
X45000Y-44000D03*
X46000Y-44000D03*
X45000Y-49000D03*
X46000Y-49000D03*
X47000Y-49000D03*
X48000Y-49000D03*
X49000Y-49000D03*
X50000Y-49000D03*
X51000Y-49000D03*
X68000Y-44000D03*
X69000Y-44000D03*
X70000Y-44000D03*
X71000Y-44000D03*
X67000Y-44000D03*
X65000Y-44000D03*
X66000Y-44000D03*
X65000Y-49000D03*
X66000Y-49000D03*
X67000Y-49000D03*
X68000Y-49000D03*
X69000Y-49000D03*
X70000Y-49000D03*
X71000Y-49000D03*
X81750Y-44000D03*
X82750Y-44000D03*
X83750Y-44000D03*
X84750Y-44000D03*
X80750Y-44000D03*
X78750Y-44000D03*
X79750Y-44000D03*
X78750Y-49000D03*
X79750Y-49000D03*
X80750Y-49000D03*
X81750Y-49000D03*
X82750Y-49000D03*
X83750Y-49000D03*
X84750Y-49000D03*
X34250Y-44000D03*
X35250Y-44000D03*
X36250Y-44000D03*
X37250Y-44000D03*
X33250Y-44000D03*
X31250Y-44000D03*
X32250Y-44000D03*
X31250Y-49000D03*
X32250Y-49000D03*
X33250Y-49000D03*
X34250Y-49000D03*
X35250Y-49000D03*
X36250Y-49000D03*
X37250Y-49000D03*
G54D23*
X33750Y-31250D03*
G54D24*
X34750Y-31250D03*
G54D25*
X34750Y-30250D03*
X33750Y-30250D03*
G54D23*
X67500Y-31250D03*
G54D24*
X68500Y-31250D03*
G54D25*
X68500Y-30250D03*
X67500Y-30250D03*
G54D23*
X47500Y-31250D03*
G54D24*
X48500Y-31250D03*
G54D25*
X48500Y-30250D03*
X47500Y-30250D03*
G54D23*
X81250Y-31250D03*
G54D24*
X82250Y-31250D03*
G54D25*
X82250Y-30250D03*
X81250Y-30250D03*
M02*
