M48
;DRILL file {PCBnew (2010-00-09 BZR 23xx)-stable} date Thu 04 Aug 2011 09:52:05 AM PDT
;FORMAT={-.-/ absolute / inch / decimal}
R,T
VER,1
FMAT,2
INCH,TZ
TCST,OFF
ICI,OFF
ATC,ON
T1C0.025
T2C0.032
T3C0.039
T4C0.040
T5C0.042
T6C0.043
T7C0.043
T8C0.048
T9C0.063
T10C0.106
T11C0.107
T12C0.124
T13C0.160
%
M47
G05
M72
T1
X3.513Y-4.044
X3.775Y-4.675
X4.345Y-4.385
X4.944Y-3.975
X5.441Y-4.362
X5.552Y-3.149
X5.659Y-3.426
X5.665Y-3.615
X5.755Y-5.380
X5.775Y-3.660
X5.780Y-5.000
X5.805Y-5.410
X5.830Y-5.060
X5.834Y-4.915
X5.859Y-3.265
X5.913Y-4.933
X6.030Y-4.930
X6.225Y-4.665
X6.246Y-5.026
X6.501Y-4.795
X7.590Y-3.405
X7.759Y-4.353
X8.021Y-3.970
T2
X3.225Y-3.900
X3.225Y-4.200
X3.325Y-3.900
X3.325Y-4.200
X3.425Y-3.900
X3.425Y-4.200
X4.600Y-3.900
X4.600Y-4.200
X4.700Y-3.900
X4.700Y-4.200
X4.800Y-3.900
X4.800Y-4.200
X6.600Y-3.900
X6.600Y-4.200
X6.700Y-3.900
X6.700Y-4.200
X6.800Y-3.900
X6.800Y-4.200
X7.975Y-3.900
X7.975Y-4.200
X8.075Y-3.900
X8.075Y-4.200
X8.175Y-3.900
X8.175Y-4.200
T3
X5.325Y-4.950
X5.325Y-5.050
X5.325Y-5.150
T4
X5.225Y-3.100
X5.225Y-3.200
X5.225Y-3.300
X5.225Y-3.400
X5.225Y-3.500
X5.225Y-3.600
X5.225Y-3.700
X5.225Y-3.800
X5.225Y-3.925
X5.225Y-4.025
X5.225Y-4.125
X5.225Y-4.225
X5.325Y-3.100
X5.325Y-3.200
X5.325Y-3.300
X5.325Y-3.400
X5.325Y-3.500
X5.325Y-3.600
X5.325Y-3.700
X5.325Y-3.800
X5.325Y-3.925
X5.325Y-4.025
X5.325Y-4.125
X5.325Y-4.225
X6.250Y-4.200
X6.250Y-4.300
X6.250Y-4.400
X6.250Y-4.500
T5
X5.500Y-3.225
X5.500Y-3.325
X5.500Y-3.425
X5.500Y-3.525
X5.500Y-3.625
X5.500Y-3.725
X5.500Y-3.825
X5.500Y-3.925
X5.500Y-4.025
X5.500Y-4.125
X5.500Y-4.225
X5.500Y-4.325
X5.500Y-4.425
X5.500Y-4.525
X5.500Y-4.625
X6.100Y-3.225
X6.100Y-3.325
X6.100Y-3.425
X6.100Y-3.525
X6.100Y-3.625
X6.100Y-3.725
X6.100Y-3.825
X6.100Y-3.925
X6.100Y-4.025
X6.100Y-4.125
X6.100Y-4.225
X6.100Y-4.325
X6.100Y-4.425
X6.100Y-4.525
X6.100Y-4.625
T6
X3.375Y-3.025
X3.375Y-3.125
X3.475Y-3.025
X3.475Y-3.125
X4.750Y-3.025
X4.750Y-3.125
X4.850Y-3.025
X4.850Y-3.125
X6.750Y-3.025
X6.750Y-3.125
X6.850Y-3.025
X6.850Y-3.125
X8.125Y-3.025
X8.125Y-3.125
X8.225Y-3.025
X8.225Y-3.125
T7
X3.327Y-5.350
X3.425Y-5.350
X3.523Y-5.350
X4.702Y-5.350
X4.800Y-5.350
X4.898Y-5.350
X6.702Y-5.350
X6.800Y-5.350
X6.898Y-5.350
X8.077Y-5.350
X8.175Y-5.350
X8.273Y-5.350
T8
X3.125Y-4.400
X3.125Y-4.900
X3.225Y-4.400
X3.225Y-4.900
X3.325Y-4.400
X3.325Y-4.900
X3.425Y-4.400
X3.425Y-4.900
X3.525Y-4.400
X3.525Y-4.900
X3.625Y-4.400
X3.625Y-4.900
X3.725Y-4.400
X3.725Y-4.900
X4.500Y-4.400
X4.500Y-4.900
X4.600Y-4.400
X4.600Y-4.900
X4.700Y-4.400
X4.700Y-4.900
X4.800Y-4.400
X4.800Y-4.900
X4.900Y-4.400
X4.900Y-4.900
X5.000Y-4.400
X5.000Y-4.900
X5.100Y-4.400
X5.100Y-4.900
X6.500Y-4.400
X6.500Y-4.900
X6.600Y-4.400
X6.600Y-4.900
X6.700Y-4.400
X6.700Y-4.900
X6.800Y-4.400
X6.800Y-4.900
X6.900Y-4.400
X6.900Y-4.900
X7.000Y-4.400
X7.000Y-4.900
X7.100Y-4.400
X7.100Y-4.900
X7.875Y-4.400
X7.875Y-4.900
X7.975Y-4.400
X7.975Y-4.900
X8.075Y-4.400
X8.075Y-4.900
X8.175Y-4.400
X8.175Y-4.900
X8.275Y-4.400
X8.275Y-4.900
X8.375Y-4.400
X8.375Y-4.900
X8.475Y-4.400
X8.475Y-4.900
T9
X7.300Y-3.093
T10
X7.123Y-3.172
X7.300Y-3.211
X7.477Y-3.172
T11
X3.232Y-5.263
X3.618Y-5.263
X4.607Y-5.263
X4.993Y-5.263
X6.607Y-5.263
X6.993Y-5.263
X7.982Y-5.263
X8.368Y-5.263
T12
X7.300Y-3.447
T13
X4.050Y-3.825
X4.050Y-5.325
X7.550Y-3.825
X7.550Y-5.325
T0
M30
