G04 (created by PCBNEW-RS274X (2010-00-09 BZR 23xx)-stable) date Thu 14 Jul 2011 05:09:27 PM PDT*
G01*
G70*
G90*
%MOIN*%
G04 Gerber Fmt 3.4, Leading zero omitted, Abs format*
%FSLAX34Y34*%
G04 APERTURE LIST*
%ADD10C,0.006000*%
%ADD11C,0.010000*%
%ADD12C,0.009000*%
%ADD13C,0.015000*%
%ADD14C,0.012000*%
%ADD15C,0.005000*%
%ADD16C,0.008000*%
G04 APERTURE END LIST*
G54D10*
G54D11*
X50964Y-35798D02*
X51155Y-35798D01*
X50926Y-35912D02*
X51059Y-35512D01*
X51193Y-35912D01*
X51517Y-35512D02*
X51326Y-35512D01*
X51307Y-35702D01*
X51326Y-35683D01*
X51364Y-35664D01*
X51460Y-35664D01*
X51498Y-35683D01*
X51517Y-35702D01*
X51536Y-35740D01*
X51536Y-35836D01*
X51517Y-35874D01*
X51498Y-35893D01*
X51460Y-35912D01*
X51364Y-35912D01*
X51326Y-35893D01*
X51307Y-35874D01*
X50964Y-34798D02*
X51155Y-34798D01*
X50926Y-34912D02*
X51059Y-34512D01*
X51193Y-34912D01*
X51498Y-34645D02*
X51498Y-34912D01*
X51402Y-34493D02*
X51307Y-34779D01*
X51555Y-34779D01*
X50964Y-33798D02*
X51155Y-33798D01*
X50926Y-33912D02*
X51059Y-33512D01*
X51193Y-33912D01*
X51288Y-33512D02*
X51536Y-33512D01*
X51402Y-33664D01*
X51460Y-33664D01*
X51498Y-33683D01*
X51517Y-33702D01*
X51536Y-33740D01*
X51536Y-33836D01*
X51517Y-33874D01*
X51498Y-33893D01*
X51460Y-33912D01*
X51345Y-33912D01*
X51307Y-33893D01*
X51288Y-33874D01*
X50964Y-32798D02*
X51155Y-32798D01*
X50926Y-32912D02*
X51059Y-32512D01*
X51193Y-32912D01*
X51307Y-32550D02*
X51326Y-32531D01*
X51364Y-32512D01*
X51460Y-32512D01*
X51498Y-32531D01*
X51517Y-32550D01*
X51536Y-32588D01*
X51536Y-32626D01*
X51517Y-32683D01*
X51288Y-32912D01*
X51536Y-32912D01*
G54D12*
X30500Y-55750D02*
X30500Y-29500D01*
X85500Y-55750D02*
X30500Y-55750D01*
X85500Y-29500D02*
X85500Y-55750D01*
X30500Y-29500D02*
X85500Y-29500D01*
G54D13*
X53500Y-37000D02*
X52750Y-37750D01*
X52000Y-37000D02*
X53500Y-37000D01*
X52750Y-37750D02*
X52000Y-37000D01*
G54D11*
X52140Y-42262D02*
X52273Y-42662D01*
X52407Y-42262D01*
X52597Y-42662D02*
X52559Y-42643D01*
X52540Y-42624D01*
X52521Y-42586D01*
X52521Y-42471D01*
X52540Y-42433D01*
X52559Y-42414D01*
X52597Y-42395D01*
X52655Y-42395D01*
X52693Y-42414D01*
X52712Y-42433D01*
X52731Y-42471D01*
X52731Y-42586D01*
X52712Y-42624D01*
X52693Y-42643D01*
X52655Y-42662D01*
X52597Y-42662D01*
X53074Y-42395D02*
X53074Y-42662D01*
X52902Y-42395D02*
X52902Y-42605D01*
X52921Y-42643D01*
X52959Y-42662D01*
X53017Y-42662D01*
X53055Y-42643D01*
X53074Y-42624D01*
X53207Y-42395D02*
X53359Y-42395D01*
X53264Y-42262D02*
X53264Y-42605D01*
X53283Y-42643D01*
X53321Y-42662D01*
X53359Y-42662D01*
X64455Y-41912D02*
X64455Y-41512D01*
X64550Y-41512D01*
X64608Y-41531D01*
X64646Y-41569D01*
X64665Y-41607D01*
X64684Y-41683D01*
X64684Y-41740D01*
X64665Y-41817D01*
X64646Y-41855D01*
X64608Y-41893D01*
X64550Y-41912D01*
X64455Y-41912D01*
X64836Y-41550D02*
X64855Y-41531D01*
X64893Y-41512D01*
X64989Y-41512D01*
X65027Y-41531D01*
X65046Y-41550D01*
X65065Y-41588D01*
X65065Y-41626D01*
X65046Y-41683D01*
X64817Y-41912D01*
X65065Y-41912D01*
X64455Y-40912D02*
X64455Y-40512D01*
X64550Y-40512D01*
X64608Y-40531D01*
X64646Y-40569D01*
X64665Y-40607D01*
X64684Y-40683D01*
X64684Y-40740D01*
X64665Y-40817D01*
X64646Y-40855D01*
X64608Y-40893D01*
X64550Y-40912D01*
X64455Y-40912D01*
X64817Y-40512D02*
X65065Y-40512D01*
X64931Y-40664D01*
X64989Y-40664D01*
X65027Y-40683D01*
X65046Y-40702D01*
X65065Y-40740D01*
X65065Y-40836D01*
X65046Y-40874D01*
X65027Y-40893D01*
X64989Y-40912D01*
X64874Y-40912D01*
X64836Y-40893D01*
X64817Y-40874D01*
G54D14*
X82022Y-33269D02*
X82479Y-33269D01*
X82250Y-33574D02*
X82250Y-32964D01*
X76272Y-32019D02*
X76729Y-32019D01*
X81022Y-33269D02*
X81479Y-33269D01*
X76272Y-34519D02*
X76729Y-34519D01*
X76500Y-34824D02*
X76500Y-34214D01*
X83343Y-30574D02*
X83343Y-29774D01*
X83486Y-29774D01*
X83571Y-29812D01*
X83629Y-29888D01*
X83657Y-29964D01*
X83686Y-30117D01*
X83686Y-30231D01*
X83657Y-30383D01*
X83629Y-30460D01*
X83571Y-30536D01*
X83486Y-30574D01*
X83343Y-30574D01*
X69936Y-30498D02*
X69907Y-30536D01*
X69821Y-30574D01*
X69764Y-30574D01*
X69679Y-30536D01*
X69621Y-30460D01*
X69593Y-30383D01*
X69564Y-30231D01*
X69564Y-30117D01*
X69593Y-29964D01*
X69621Y-29888D01*
X69679Y-29812D01*
X69764Y-29774D01*
X69821Y-29774D01*
X69907Y-29812D01*
X69936Y-29850D01*
X46293Y-30155D02*
X46379Y-30193D01*
X46407Y-30231D01*
X46436Y-30307D01*
X46436Y-30421D01*
X46407Y-30498D01*
X46379Y-30536D01*
X46321Y-30574D01*
X46093Y-30574D01*
X46093Y-29774D01*
X46293Y-29774D01*
X46350Y-29812D01*
X46379Y-29850D01*
X46407Y-29926D01*
X46407Y-30002D01*
X46379Y-30079D01*
X46350Y-30117D01*
X46293Y-30155D01*
X46093Y-30155D01*
X32357Y-30345D02*
X32643Y-30345D01*
X32300Y-30574D02*
X32500Y-29774D01*
X32700Y-30574D01*
X84493Y-55324D02*
X84493Y-54524D01*
X84636Y-54524D01*
X84721Y-54562D01*
X84779Y-54638D01*
X84807Y-54714D01*
X84836Y-54867D01*
X84836Y-54981D01*
X84807Y-55133D01*
X84779Y-55210D01*
X84721Y-55286D01*
X84636Y-55324D01*
X84493Y-55324D01*
X71086Y-55248D02*
X71057Y-55286D01*
X70971Y-55324D01*
X70914Y-55324D01*
X70829Y-55286D01*
X70771Y-55210D01*
X70743Y-55133D01*
X70714Y-54981D01*
X70714Y-54867D01*
X70743Y-54714D01*
X70771Y-54638D01*
X70829Y-54562D01*
X70914Y-54524D01*
X70971Y-54524D01*
X71057Y-54562D01*
X71086Y-54600D01*
X45043Y-54905D02*
X45129Y-54943D01*
X45157Y-54981D01*
X45186Y-55057D01*
X45186Y-55171D01*
X45157Y-55248D01*
X45129Y-55286D01*
X45071Y-55324D01*
X44843Y-55324D01*
X44843Y-54524D01*
X45043Y-54524D01*
X45100Y-54562D01*
X45129Y-54600D01*
X45157Y-54676D01*
X45157Y-54752D01*
X45129Y-54829D01*
X45100Y-54867D01*
X45043Y-54905D01*
X44843Y-54905D01*
X31107Y-55095D02*
X31393Y-55095D01*
X31050Y-55324D02*
X31250Y-54524D01*
X31450Y-55324D01*
G54D11*
X64645Y-39912D02*
X64645Y-39512D01*
X64740Y-39512D01*
X64798Y-39531D01*
X64836Y-39569D01*
X64855Y-39607D01*
X64874Y-39683D01*
X64874Y-39740D01*
X64855Y-39817D01*
X64836Y-39855D01*
X64798Y-39893D01*
X64740Y-39912D01*
X64645Y-39912D01*
X64874Y-38874D02*
X64855Y-38893D01*
X64798Y-38912D01*
X64760Y-38912D01*
X64702Y-38893D01*
X64664Y-38855D01*
X64645Y-38817D01*
X64626Y-38740D01*
X64626Y-38683D01*
X64645Y-38607D01*
X64664Y-38569D01*
X64702Y-38531D01*
X64760Y-38512D01*
X64798Y-38512D01*
X64855Y-38531D01*
X64874Y-38550D01*
X64779Y-37702D02*
X64836Y-37721D01*
X64855Y-37740D01*
X64874Y-37779D01*
X64874Y-37836D01*
X64855Y-37874D01*
X64836Y-37893D01*
X64798Y-37912D01*
X64645Y-37912D01*
X64645Y-37512D01*
X64779Y-37512D01*
X64817Y-37531D01*
X64836Y-37550D01*
X64855Y-37588D01*
X64855Y-37626D01*
X64836Y-37664D01*
X64817Y-37683D01*
X64779Y-37702D01*
X64645Y-37702D01*
X64655Y-36798D02*
X64846Y-36798D01*
X64617Y-36912D02*
X64750Y-36512D01*
X64884Y-36912D01*
X71724Y-36412D02*
X71495Y-36412D01*
X71609Y-36412D02*
X71609Y-36012D01*
X71571Y-36069D01*
X71533Y-36107D01*
X71495Y-36126D01*
X71876Y-36050D02*
X71895Y-36031D01*
X71933Y-36012D01*
X72029Y-36012D01*
X72067Y-36031D01*
X72086Y-36050D01*
X72105Y-36088D01*
X72105Y-36126D01*
X72086Y-36183D01*
X71857Y-36412D01*
X72105Y-36412D01*
X72276Y-36260D02*
X72581Y-36260D01*
X72733Y-36012D02*
X72981Y-36012D01*
X72847Y-36164D01*
X72905Y-36164D01*
X72943Y-36183D01*
X72962Y-36202D01*
X72981Y-36240D01*
X72981Y-36336D01*
X72962Y-36374D01*
X72943Y-36393D01*
X72905Y-36412D01*
X72790Y-36412D01*
X72752Y-36393D01*
X72733Y-36374D01*
X73133Y-36050D02*
X73152Y-36031D01*
X73190Y-36012D01*
X73286Y-36012D01*
X73324Y-36031D01*
X73343Y-36050D01*
X73362Y-36088D01*
X73362Y-36126D01*
X73343Y-36183D01*
X73114Y-36412D01*
X73362Y-36412D01*
X73476Y-36012D02*
X73609Y-36412D01*
X73743Y-36012D01*
X73876Y-36412D02*
X73876Y-36012D01*
X73971Y-36012D01*
X74029Y-36031D01*
X74067Y-36069D01*
X74086Y-36107D01*
X74105Y-36183D01*
X74105Y-36240D01*
X74086Y-36317D01*
X74067Y-36355D01*
X74029Y-36393D01*
X73971Y-36412D01*
X73876Y-36412D01*
X74505Y-36374D02*
X74486Y-36393D01*
X74429Y-36412D01*
X74391Y-36412D01*
X74333Y-36393D01*
X74295Y-36355D01*
X74276Y-36317D01*
X74257Y-36240D01*
X74257Y-36183D01*
X74276Y-36107D01*
X74295Y-36069D01*
X74333Y-36031D01*
X74391Y-36012D01*
X74429Y-36012D01*
X74486Y-36031D01*
X74505Y-36050D01*
G54D14*
X67272Y-33269D02*
X67729Y-33269D01*
X47272Y-33269D02*
X47729Y-33269D01*
X68272Y-33269D02*
X68729Y-33269D01*
X68500Y-33574D02*
X68500Y-32964D01*
X48272Y-33269D02*
X48729Y-33269D01*
X48500Y-33574D02*
X48500Y-32964D01*
X33522Y-33269D02*
X33979Y-33269D01*
X34522Y-33269D02*
X34979Y-33269D01*
X34750Y-33574D02*
X34750Y-32964D01*
G54D11*
X51002Y-53512D02*
X51079Y-53512D01*
X51117Y-53531D01*
X51155Y-53569D01*
X51174Y-53645D01*
X51174Y-53779D01*
X51155Y-53855D01*
X51117Y-53893D01*
X51079Y-53912D01*
X51002Y-53912D01*
X50964Y-53893D01*
X50926Y-53855D01*
X50907Y-53779D01*
X50907Y-53645D01*
X50926Y-53569D01*
X50964Y-53531D01*
X51002Y-53512D01*
X51345Y-53912D02*
X51345Y-53512D01*
X51574Y-53912D01*
X51574Y-53512D01*
X50869Y-54512D02*
X50946Y-54512D01*
X50984Y-54531D01*
X51022Y-54569D01*
X51041Y-54645D01*
X51041Y-54779D01*
X51022Y-54855D01*
X50984Y-54893D01*
X50946Y-54912D01*
X50869Y-54912D01*
X50831Y-54893D01*
X50793Y-54855D01*
X50774Y-54779D01*
X50774Y-54645D01*
X50793Y-54569D01*
X50831Y-54531D01*
X50869Y-54512D01*
X51346Y-54702D02*
X51212Y-54702D01*
X51212Y-54912D02*
X51212Y-54512D01*
X51403Y-54512D01*
X51689Y-54702D02*
X51555Y-54702D01*
X51555Y-54912D02*
X51555Y-54512D01*
X51746Y-54512D01*
X34955Y-37143D02*
X34955Y-37571D01*
X34935Y-37657D01*
X34897Y-37714D01*
X34840Y-37743D01*
X34802Y-37743D01*
X35317Y-37343D02*
X35317Y-37743D01*
X35145Y-37343D02*
X35145Y-37657D01*
X35164Y-37714D01*
X35202Y-37743D01*
X35260Y-37743D01*
X35298Y-37714D01*
X35317Y-37686D01*
X35564Y-37743D02*
X35526Y-37714D01*
X35507Y-37657D01*
X35507Y-37143D01*
X35679Y-37343D02*
X35774Y-37743D01*
X35870Y-37343D02*
X35774Y-37743D01*
X35736Y-37886D01*
X35717Y-37914D01*
X35679Y-37943D01*
X36308Y-37200D02*
X36327Y-37171D01*
X36365Y-37143D01*
X36461Y-37143D01*
X36499Y-37171D01*
X36518Y-37200D01*
X36537Y-37257D01*
X36537Y-37314D01*
X36518Y-37400D01*
X36289Y-37743D01*
X36537Y-37743D01*
X36784Y-37143D02*
X36823Y-37143D01*
X36861Y-37171D01*
X36880Y-37200D01*
X36899Y-37257D01*
X36918Y-37371D01*
X36918Y-37514D01*
X36899Y-37629D01*
X36880Y-37686D01*
X36861Y-37714D01*
X36823Y-37743D01*
X36784Y-37743D01*
X36746Y-37714D01*
X36727Y-37686D01*
X36708Y-37629D01*
X36689Y-37514D01*
X36689Y-37371D01*
X36708Y-37257D01*
X36727Y-37200D01*
X36746Y-37171D01*
X36784Y-37143D01*
X37299Y-37743D02*
X37070Y-37743D01*
X37184Y-37743D02*
X37184Y-37143D01*
X37146Y-37229D01*
X37108Y-37286D01*
X37070Y-37314D01*
X37680Y-37743D02*
X37451Y-37743D01*
X37565Y-37743D02*
X37565Y-37143D01*
X37527Y-37229D01*
X37489Y-37286D01*
X37451Y-37314D01*
X35193Y-36143D02*
X35326Y-36743D01*
X35460Y-36143D01*
X35746Y-36714D02*
X35708Y-36743D01*
X35631Y-36743D01*
X35593Y-36714D01*
X35574Y-36657D01*
X35574Y-36429D01*
X35593Y-36371D01*
X35631Y-36343D01*
X35708Y-36343D01*
X35746Y-36371D01*
X35765Y-36429D01*
X35765Y-36486D01*
X35574Y-36543D01*
X35936Y-36743D02*
X35936Y-36343D01*
X35936Y-36457D02*
X35955Y-36400D01*
X35974Y-36371D01*
X36012Y-36343D01*
X36051Y-36343D01*
X36451Y-36143D02*
X36699Y-36143D01*
X36565Y-36371D01*
X36623Y-36371D01*
X36661Y-36400D01*
X36680Y-36429D01*
X36699Y-36486D01*
X36699Y-36629D01*
X36680Y-36686D01*
X36661Y-36714D01*
X36623Y-36743D01*
X36508Y-36743D01*
X36470Y-36714D01*
X36451Y-36686D01*
X36870Y-36686D02*
X36889Y-36714D01*
X36870Y-36743D01*
X36851Y-36714D01*
X36870Y-36686D01*
X36870Y-36743D01*
X37136Y-36143D02*
X37175Y-36143D01*
X37213Y-36171D01*
X37232Y-36200D01*
X37251Y-36257D01*
X37270Y-36371D01*
X37270Y-36514D01*
X37251Y-36629D01*
X37232Y-36686D01*
X37213Y-36714D01*
X37175Y-36743D01*
X37136Y-36743D01*
X37098Y-36714D01*
X37079Y-36686D01*
X37060Y-36629D01*
X37041Y-36514D01*
X37041Y-36371D01*
X37060Y-36257D01*
X37079Y-36200D01*
X37098Y-36171D01*
X37136Y-36143D01*
X32181Y-35429D02*
X32238Y-35457D01*
X32257Y-35486D01*
X32276Y-35543D01*
X32276Y-35629D01*
X32257Y-35686D01*
X32238Y-35714D01*
X32200Y-35743D01*
X32047Y-35743D01*
X32047Y-35143D01*
X32181Y-35143D01*
X32219Y-35171D01*
X32238Y-35200D01*
X32257Y-35257D01*
X32257Y-35314D01*
X32238Y-35371D01*
X32219Y-35400D01*
X32181Y-35429D01*
X32047Y-35429D01*
X32619Y-35343D02*
X32619Y-35743D01*
X32447Y-35343D02*
X32447Y-35657D01*
X32466Y-35714D01*
X32504Y-35743D01*
X32562Y-35743D01*
X32600Y-35714D01*
X32619Y-35686D01*
X32981Y-35714D02*
X32943Y-35743D01*
X32866Y-35743D01*
X32828Y-35714D01*
X32809Y-35686D01*
X32790Y-35629D01*
X32790Y-35457D01*
X32809Y-35400D01*
X32828Y-35371D01*
X32866Y-35343D01*
X32943Y-35343D01*
X32981Y-35371D01*
X33152Y-35743D02*
X33152Y-35143D01*
X33190Y-35514D02*
X33305Y-35743D01*
X33305Y-35343D02*
X33152Y-35571D01*
X33476Y-35343D02*
X33476Y-35943D01*
X33476Y-35371D02*
X33514Y-35343D01*
X33591Y-35343D01*
X33629Y-35371D01*
X33648Y-35400D01*
X33667Y-35457D01*
X33667Y-35629D01*
X33648Y-35686D01*
X33629Y-35714D01*
X33591Y-35743D01*
X33514Y-35743D01*
X33476Y-35714D01*
X34010Y-35343D02*
X34010Y-35743D01*
X33838Y-35343D02*
X33838Y-35657D01*
X33857Y-35714D01*
X33895Y-35743D01*
X33953Y-35743D01*
X33991Y-35714D01*
X34010Y-35686D01*
X34372Y-35714D02*
X34334Y-35743D01*
X34257Y-35743D01*
X34219Y-35714D01*
X34200Y-35686D01*
X34181Y-35629D01*
X34181Y-35457D01*
X34200Y-35400D01*
X34219Y-35371D01*
X34257Y-35343D01*
X34334Y-35343D01*
X34372Y-35371D01*
X34543Y-35743D02*
X34543Y-35143D01*
X34581Y-35514D02*
X34696Y-35743D01*
X34696Y-35343D02*
X34543Y-35571D01*
X35401Y-35686D02*
X35382Y-35714D01*
X35325Y-35743D01*
X35287Y-35743D01*
X35229Y-35714D01*
X35191Y-35657D01*
X35172Y-35600D01*
X35153Y-35486D01*
X35153Y-35400D01*
X35172Y-35286D01*
X35191Y-35229D01*
X35229Y-35171D01*
X35287Y-35143D01*
X35325Y-35143D01*
X35382Y-35171D01*
X35401Y-35200D01*
X35744Y-35343D02*
X35744Y-35743D01*
X35572Y-35343D02*
X35572Y-35657D01*
X35591Y-35714D01*
X35629Y-35743D01*
X35687Y-35743D01*
X35725Y-35714D01*
X35744Y-35686D01*
X35934Y-35743D02*
X35934Y-35343D01*
X35934Y-35457D02*
X35953Y-35400D01*
X35972Y-35371D01*
X36010Y-35343D01*
X36049Y-35343D01*
X36182Y-35743D02*
X36182Y-35343D01*
X36182Y-35457D02*
X36201Y-35400D01*
X36220Y-35371D01*
X36258Y-35343D01*
X36297Y-35343D01*
X36583Y-35714D02*
X36545Y-35743D01*
X36468Y-35743D01*
X36430Y-35714D01*
X36411Y-35657D01*
X36411Y-35429D01*
X36430Y-35371D01*
X36468Y-35343D01*
X36545Y-35343D01*
X36583Y-35371D01*
X36602Y-35429D01*
X36602Y-35486D01*
X36411Y-35543D01*
X36773Y-35343D02*
X36773Y-35743D01*
X36773Y-35400D02*
X36792Y-35371D01*
X36830Y-35343D01*
X36888Y-35343D01*
X36926Y-35371D01*
X36945Y-35429D01*
X36945Y-35743D01*
X37078Y-35343D02*
X37230Y-35343D01*
X37135Y-35143D02*
X37135Y-35657D01*
X37154Y-35714D01*
X37192Y-35743D01*
X37230Y-35743D01*
X37898Y-35686D02*
X37879Y-35714D01*
X37822Y-35743D01*
X37784Y-35743D01*
X37726Y-35714D01*
X37688Y-35657D01*
X37669Y-35600D01*
X37650Y-35486D01*
X37650Y-35400D01*
X37669Y-35286D01*
X37688Y-35229D01*
X37726Y-35171D01*
X37784Y-35143D01*
X37822Y-35143D01*
X37879Y-35171D01*
X37898Y-35200D01*
X38126Y-35743D02*
X38088Y-35714D01*
X38069Y-35686D01*
X38050Y-35629D01*
X38050Y-35457D01*
X38069Y-35400D01*
X38088Y-35371D01*
X38126Y-35343D01*
X38184Y-35343D01*
X38222Y-35371D01*
X38241Y-35400D01*
X38260Y-35457D01*
X38260Y-35629D01*
X38241Y-35686D01*
X38222Y-35714D01*
X38184Y-35743D01*
X38126Y-35743D01*
X38431Y-35343D02*
X38431Y-35743D01*
X38431Y-35400D02*
X38450Y-35371D01*
X38488Y-35343D01*
X38546Y-35343D01*
X38584Y-35371D01*
X38603Y-35429D01*
X38603Y-35743D01*
X38736Y-35343D02*
X38888Y-35343D01*
X38793Y-35143D02*
X38793Y-35657D01*
X38812Y-35714D01*
X38850Y-35743D01*
X38888Y-35743D01*
X39022Y-35743D02*
X39022Y-35343D01*
X39022Y-35457D02*
X39041Y-35400D01*
X39060Y-35371D01*
X39098Y-35343D01*
X39137Y-35343D01*
X39327Y-35743D02*
X39289Y-35714D01*
X39270Y-35686D01*
X39251Y-35629D01*
X39251Y-35457D01*
X39270Y-35400D01*
X39289Y-35371D01*
X39327Y-35343D01*
X39385Y-35343D01*
X39423Y-35371D01*
X39442Y-35400D01*
X39461Y-35457D01*
X39461Y-35629D01*
X39442Y-35686D01*
X39423Y-35714D01*
X39385Y-35743D01*
X39327Y-35743D01*
X39689Y-35743D02*
X39651Y-35714D01*
X39632Y-35657D01*
X39632Y-35143D01*
X39899Y-35743D02*
X39861Y-35714D01*
X39842Y-35657D01*
X39842Y-35143D01*
X40205Y-35714D02*
X40167Y-35743D01*
X40090Y-35743D01*
X40052Y-35714D01*
X40033Y-35657D01*
X40033Y-35429D01*
X40052Y-35371D01*
X40090Y-35343D01*
X40167Y-35343D01*
X40205Y-35371D01*
X40224Y-35429D01*
X40224Y-35486D01*
X40033Y-35543D01*
X40395Y-35743D02*
X40395Y-35343D01*
X40395Y-35457D02*
X40414Y-35400D01*
X40433Y-35371D01*
X40471Y-35343D01*
X40510Y-35343D01*
G54D13*
X36750Y-51700D02*
X31750Y-51700D01*
X36250Y-55600D02*
X32250Y-55600D01*
X32250Y-55600D02*
X32250Y-54100D01*
X32250Y-54100D02*
X36250Y-54100D01*
X36250Y-54100D02*
X36250Y-55600D01*
X84250Y-51700D02*
X79250Y-51700D01*
X83750Y-55600D02*
X79750Y-55600D01*
X79750Y-55600D02*
X79750Y-54100D01*
X79750Y-54100D02*
X83750Y-54100D01*
X83750Y-54100D02*
X83750Y-55600D01*
X70500Y-51700D02*
X65500Y-51700D01*
X70000Y-55600D02*
X66000Y-55600D01*
X66000Y-55600D02*
X66000Y-54100D01*
X66000Y-54100D02*
X70000Y-54100D01*
X70000Y-54100D02*
X70000Y-55600D01*
X50500Y-51700D02*
X45500Y-51700D01*
X50000Y-55600D02*
X46000Y-55600D01*
X46000Y-55600D02*
X46000Y-54100D01*
X46000Y-54100D02*
X50000Y-54100D01*
X50000Y-54100D02*
X50000Y-55600D01*
X59500Y-30750D02*
X59500Y-29750D01*
X59500Y-29750D02*
X56500Y-29750D01*
X56500Y-29750D02*
X56500Y-30750D01*
X61500Y-47750D02*
X54500Y-47750D01*
X54500Y-47750D02*
X54500Y-30750D01*
X54500Y-30750D02*
X61500Y-30750D01*
X61500Y-30750D02*
X61500Y-47750D01*
X58500Y-46750D02*
X58498Y-46707D01*
X58492Y-46664D01*
X58482Y-46621D01*
X58469Y-46579D01*
X58453Y-46539D01*
X58433Y-46501D01*
X58409Y-46464D01*
X58383Y-46429D01*
X58353Y-46397D01*
X58321Y-46367D01*
X58286Y-46341D01*
X58250Y-46317D01*
X58211Y-46297D01*
X58171Y-46281D01*
X58129Y-46268D01*
X58086Y-46258D01*
X58043Y-46252D01*
X58000Y-46250D01*
X58000Y-46250D02*
X57957Y-46252D01*
X57914Y-46258D01*
X57871Y-46268D01*
X57829Y-46281D01*
X57789Y-46297D01*
X57751Y-46317D01*
X57714Y-46341D01*
X57679Y-46367D01*
X57647Y-46397D01*
X57617Y-46429D01*
X57591Y-46464D01*
X57567Y-46501D01*
X57547Y-46539D01*
X57531Y-46579D01*
X57518Y-46621D01*
X57508Y-46664D01*
X57502Y-46707D01*
X57500Y-46750D01*
X55500Y-46750D02*
X57500Y-46750D01*
X60500Y-46750D02*
X58500Y-46750D01*
X60500Y-46750D02*
X60500Y-31750D01*
X60500Y-31750D02*
X55500Y-31750D01*
X55500Y-31750D02*
X55500Y-46750D01*
X52350Y-52800D02*
X55950Y-52800D01*
X55950Y-52800D02*
X55950Y-48200D01*
X55950Y-48200D02*
X52350Y-48200D01*
X52350Y-48200D02*
X52350Y-52800D01*
G54D14*
X54000Y-53250D02*
X54000Y-55250D01*
X54000Y-55250D02*
X52000Y-55250D01*
X52000Y-55250D02*
X52000Y-53250D01*
X52000Y-53250D02*
X54000Y-53250D01*
G54D13*
X53250Y-38000D02*
X52250Y-38000D01*
X52250Y-38000D02*
X52250Y-42000D01*
X52250Y-42000D02*
X53250Y-42000D01*
X53250Y-42000D02*
X53250Y-38000D01*
X76846Y-38250D02*
X76820Y-38511D01*
X76744Y-38762D01*
X76621Y-38994D01*
X76455Y-39198D01*
X76252Y-39365D01*
X76021Y-39490D01*
X75770Y-39568D01*
X75509Y-39595D01*
X75248Y-39572D01*
X74996Y-39497D01*
X74763Y-39376D01*
X74559Y-39211D01*
X74390Y-39010D01*
X74263Y-38780D01*
X74184Y-38529D01*
X74155Y-38268D01*
X74177Y-38008D01*
X74249Y-37755D01*
X74369Y-37521D01*
X74532Y-37315D01*
X74732Y-37145D01*
X74962Y-37017D01*
X75211Y-36936D01*
X75472Y-36905D01*
X75733Y-36925D01*
X75986Y-36996D01*
X76221Y-37114D01*
X76428Y-37276D01*
X76599Y-37475D01*
X76729Y-37703D01*
X76812Y-37952D01*
X76845Y-38213D01*
X76846Y-38250D01*
X41846Y-53250D02*
X41820Y-53511D01*
X41744Y-53762D01*
X41621Y-53994D01*
X41455Y-54198D01*
X41252Y-54365D01*
X41021Y-54490D01*
X40770Y-54568D01*
X40509Y-54595D01*
X40248Y-54572D01*
X39996Y-54497D01*
X39763Y-54376D01*
X39559Y-54211D01*
X39390Y-54010D01*
X39263Y-53780D01*
X39184Y-53529D01*
X39155Y-53268D01*
X39177Y-53008D01*
X39249Y-52755D01*
X39369Y-52521D01*
X39532Y-52315D01*
X39732Y-52145D01*
X39962Y-52017D01*
X40211Y-51936D01*
X40472Y-51905D01*
X40733Y-51925D01*
X40986Y-51996D01*
X41221Y-52114D01*
X41428Y-52276D01*
X41599Y-52475D01*
X41729Y-52703D01*
X41812Y-52952D01*
X41845Y-53213D01*
X41846Y-53250D01*
X76846Y-53250D02*
X76820Y-53511D01*
X76744Y-53762D01*
X76621Y-53994D01*
X76455Y-54198D01*
X76252Y-54365D01*
X76021Y-54490D01*
X75770Y-54568D01*
X75509Y-54595D01*
X75248Y-54572D01*
X74996Y-54497D01*
X74763Y-54376D01*
X74559Y-54211D01*
X74390Y-54010D01*
X74263Y-53780D01*
X74184Y-53529D01*
X74155Y-53268D01*
X74177Y-53008D01*
X74249Y-52755D01*
X74369Y-52521D01*
X74532Y-52315D01*
X74732Y-52145D01*
X74962Y-52017D01*
X75211Y-51936D01*
X75472Y-51905D01*
X75733Y-51925D01*
X75986Y-51996D01*
X76221Y-52114D01*
X76428Y-52276D01*
X76599Y-52475D01*
X76729Y-52703D01*
X76812Y-52952D01*
X76845Y-53213D01*
X76846Y-53250D01*
X41846Y-38250D02*
X41820Y-38511D01*
X41744Y-38762D01*
X41621Y-38994D01*
X41455Y-39198D01*
X41252Y-39365D01*
X41021Y-39490D01*
X40770Y-39568D01*
X40509Y-39595D01*
X40248Y-39572D01*
X39996Y-39497D01*
X39763Y-39376D01*
X39559Y-39211D01*
X39390Y-39010D01*
X39263Y-38780D01*
X39184Y-38529D01*
X39155Y-38268D01*
X39177Y-38008D01*
X39249Y-37755D01*
X39369Y-37521D01*
X39532Y-37315D01*
X39732Y-37145D01*
X39962Y-37017D01*
X40211Y-36936D01*
X40472Y-36905D01*
X40733Y-36925D01*
X40986Y-36996D01*
X41221Y-37114D01*
X41428Y-37276D01*
X41599Y-37475D01*
X41729Y-37703D01*
X41812Y-37952D01*
X41845Y-38213D01*
X41846Y-38250D01*
X38250Y-43000D02*
X38250Y-51250D01*
X38250Y-51250D02*
X29750Y-51250D01*
X29750Y-51250D02*
X29750Y-43000D01*
X38250Y-43000D02*
X29750Y-43000D01*
X85750Y-43000D02*
X85750Y-51250D01*
X85750Y-51250D02*
X77250Y-51250D01*
X77250Y-51250D02*
X77250Y-43000D01*
X85750Y-43000D02*
X77250Y-43000D01*
X72000Y-43000D02*
X72000Y-51250D01*
X72000Y-51250D02*
X63500Y-51250D01*
X63500Y-51250D02*
X63500Y-43000D01*
X72000Y-43000D02*
X63500Y-43000D01*
X52000Y-43000D02*
X52000Y-51250D01*
X52000Y-51250D02*
X43500Y-51250D01*
X43500Y-51250D02*
X43500Y-43000D01*
X52000Y-43000D02*
X43500Y-43000D01*
X83000Y-32500D02*
X83000Y-29750D01*
X83000Y-32500D02*
X80500Y-32500D01*
X80500Y-32500D02*
X80500Y-29750D01*
X83000Y-29750D02*
X80500Y-29750D01*
X49250Y-32500D02*
X49250Y-29750D01*
X49250Y-32500D02*
X46750Y-32500D01*
X46750Y-32500D02*
X46750Y-29750D01*
X49250Y-29750D02*
X46750Y-29750D01*
X69250Y-32500D02*
X69250Y-29750D01*
X69250Y-32500D02*
X66750Y-32500D01*
X66750Y-32500D02*
X66750Y-29750D01*
X69250Y-29750D02*
X66750Y-29750D01*
X35500Y-32500D02*
X35500Y-29750D01*
X35500Y-32500D02*
X33000Y-32500D01*
X33000Y-32500D02*
X33000Y-29750D01*
X35500Y-29750D02*
X33000Y-29750D01*
X51750Y-36250D02*
X51750Y-32250D01*
X51750Y-32250D02*
X53750Y-32250D01*
X53750Y-32250D02*
X53750Y-36250D01*
X53750Y-36250D02*
X51750Y-36250D01*
G54D14*
X64250Y-36250D02*
X64250Y-42250D01*
X64250Y-42250D02*
X62250Y-42250D01*
X62250Y-42250D02*
X62250Y-36250D01*
X62250Y-36250D02*
X64250Y-36250D01*
G54D13*
X70250Y-29750D02*
X75750Y-29750D01*
X75750Y-29750D02*
X75750Y-35500D01*
X75750Y-35500D02*
X70250Y-35500D01*
X70250Y-35500D02*
X70250Y-29750D01*
G54D15*
X37271Y-53678D02*
X37129Y-53778D01*
X37271Y-53850D02*
X36971Y-53850D01*
X36971Y-53735D01*
X36986Y-53707D01*
X37000Y-53692D01*
X37029Y-53678D01*
X37071Y-53678D01*
X37100Y-53692D01*
X37114Y-53707D01*
X37129Y-53735D01*
X37129Y-53850D01*
X36971Y-53592D02*
X37271Y-53492D01*
X36971Y-53392D01*
X37271Y-53135D02*
X37271Y-53307D01*
X37271Y-53221D02*
X36971Y-53221D01*
X37014Y-53250D01*
X37043Y-53278D01*
X37057Y-53307D01*
X31471Y-53850D02*
X31171Y-53850D01*
X31171Y-53735D01*
X31186Y-53707D01*
X31200Y-53692D01*
X31229Y-53678D01*
X31271Y-53678D01*
X31300Y-53692D01*
X31314Y-53707D01*
X31329Y-53735D01*
X31329Y-53850D01*
X31171Y-53492D02*
X31171Y-53435D01*
X31186Y-53407D01*
X31214Y-53378D01*
X31271Y-53364D01*
X31371Y-53364D01*
X31429Y-53378D01*
X31457Y-53407D01*
X31471Y-53435D01*
X31471Y-53492D01*
X31457Y-53521D01*
X31429Y-53550D01*
X31371Y-53564D01*
X31271Y-53564D01*
X31214Y-53550D01*
X31186Y-53521D01*
X31171Y-53492D01*
X31171Y-53278D02*
X31171Y-53107D01*
X31471Y-53193D02*
X31171Y-53193D01*
X84771Y-53678D02*
X84629Y-53778D01*
X84771Y-53850D02*
X84471Y-53850D01*
X84471Y-53735D01*
X84486Y-53707D01*
X84500Y-53692D01*
X84529Y-53678D01*
X84571Y-53678D01*
X84600Y-53692D01*
X84614Y-53707D01*
X84629Y-53735D01*
X84629Y-53850D01*
X84471Y-53592D02*
X84771Y-53492D01*
X84471Y-53392D01*
X84571Y-53164D02*
X84771Y-53164D01*
X84457Y-53235D02*
X84671Y-53307D01*
X84671Y-53121D01*
X78971Y-53850D02*
X78671Y-53850D01*
X78671Y-53735D01*
X78686Y-53707D01*
X78700Y-53692D01*
X78729Y-53678D01*
X78771Y-53678D01*
X78800Y-53692D01*
X78814Y-53707D01*
X78829Y-53735D01*
X78829Y-53850D01*
X78671Y-53492D02*
X78671Y-53435D01*
X78686Y-53407D01*
X78714Y-53378D01*
X78771Y-53364D01*
X78871Y-53364D01*
X78929Y-53378D01*
X78957Y-53407D01*
X78971Y-53435D01*
X78971Y-53492D01*
X78957Y-53521D01*
X78929Y-53550D01*
X78871Y-53564D01*
X78771Y-53564D01*
X78714Y-53550D01*
X78686Y-53521D01*
X78671Y-53492D01*
X78671Y-53278D02*
X78671Y-53107D01*
X78971Y-53193D02*
X78671Y-53193D01*
X71021Y-53678D02*
X70879Y-53778D01*
X71021Y-53850D02*
X70721Y-53850D01*
X70721Y-53735D01*
X70736Y-53707D01*
X70750Y-53692D01*
X70779Y-53678D01*
X70821Y-53678D01*
X70850Y-53692D01*
X70864Y-53707D01*
X70879Y-53735D01*
X70879Y-53850D01*
X70721Y-53592D02*
X71021Y-53492D01*
X70721Y-53392D01*
X70721Y-53321D02*
X70721Y-53135D01*
X70836Y-53235D01*
X70836Y-53193D01*
X70850Y-53164D01*
X70864Y-53150D01*
X70893Y-53135D01*
X70964Y-53135D01*
X70993Y-53150D01*
X71007Y-53164D01*
X71021Y-53193D01*
X71021Y-53278D01*
X71007Y-53307D01*
X70993Y-53321D01*
X65221Y-53850D02*
X64921Y-53850D01*
X64921Y-53735D01*
X64936Y-53707D01*
X64950Y-53692D01*
X64979Y-53678D01*
X65021Y-53678D01*
X65050Y-53692D01*
X65064Y-53707D01*
X65079Y-53735D01*
X65079Y-53850D01*
X64921Y-53492D02*
X64921Y-53435D01*
X64936Y-53407D01*
X64964Y-53378D01*
X65021Y-53364D01*
X65121Y-53364D01*
X65179Y-53378D01*
X65207Y-53407D01*
X65221Y-53435D01*
X65221Y-53492D01*
X65207Y-53521D01*
X65179Y-53550D01*
X65121Y-53564D01*
X65021Y-53564D01*
X64964Y-53550D01*
X64936Y-53521D01*
X64921Y-53492D01*
X64921Y-53278D02*
X64921Y-53107D01*
X65221Y-53193D02*
X64921Y-53193D01*
X50621Y-55428D02*
X50479Y-55528D01*
X50621Y-55600D02*
X50321Y-55600D01*
X50321Y-55485D01*
X50336Y-55457D01*
X50350Y-55442D01*
X50379Y-55428D01*
X50421Y-55428D01*
X50450Y-55442D01*
X50464Y-55457D01*
X50479Y-55485D01*
X50479Y-55600D01*
X50321Y-55342D02*
X50621Y-55242D01*
X50321Y-55142D01*
X50350Y-55057D02*
X50336Y-55043D01*
X50321Y-55014D01*
X50321Y-54943D01*
X50336Y-54914D01*
X50350Y-54900D01*
X50379Y-54885D01*
X50407Y-54885D01*
X50450Y-54900D01*
X50621Y-55071D01*
X50621Y-54885D01*
X45221Y-53850D02*
X44921Y-53850D01*
X44921Y-53735D01*
X44936Y-53707D01*
X44950Y-53692D01*
X44979Y-53678D01*
X45021Y-53678D01*
X45050Y-53692D01*
X45064Y-53707D01*
X45079Y-53735D01*
X45079Y-53850D01*
X44921Y-53492D02*
X44921Y-53435D01*
X44936Y-53407D01*
X44964Y-53378D01*
X45021Y-53364D01*
X45121Y-53364D01*
X45179Y-53378D01*
X45207Y-53407D01*
X45221Y-53435D01*
X45221Y-53492D01*
X45207Y-53521D01*
X45179Y-53550D01*
X45121Y-53564D01*
X45021Y-53564D01*
X44964Y-53550D01*
X44936Y-53521D01*
X44921Y-53492D01*
X44921Y-53278D02*
X44921Y-53107D01*
X45221Y-53193D02*
X44921Y-53193D01*
G54D14*
X57543Y-48143D02*
X57543Y-48629D01*
X57571Y-48686D01*
X57600Y-48714D01*
X57657Y-48743D01*
X57771Y-48743D01*
X57829Y-48714D01*
X57857Y-48686D01*
X57886Y-48629D01*
X57886Y-48143D01*
X58143Y-48200D02*
X58172Y-48171D01*
X58229Y-48143D01*
X58372Y-48143D01*
X58429Y-48171D01*
X58458Y-48200D01*
X58486Y-48257D01*
X58486Y-48314D01*
X58458Y-48400D01*
X58115Y-48743D01*
X58486Y-48743D01*
X57071Y-42758D02*
X57071Y-42472D01*
X57243Y-42815D02*
X56643Y-42615D01*
X57243Y-42415D01*
X57243Y-41872D02*
X56957Y-42072D01*
X57243Y-42215D02*
X56643Y-42215D01*
X56643Y-41987D01*
X56671Y-41929D01*
X56700Y-41901D01*
X56757Y-41872D01*
X56843Y-41872D01*
X56900Y-41901D01*
X56929Y-41929D01*
X56957Y-41987D01*
X56957Y-42215D01*
X57243Y-41615D02*
X56643Y-41615D01*
X56643Y-41472D01*
X56671Y-41387D01*
X56729Y-41329D01*
X56786Y-41301D01*
X56900Y-41272D01*
X56986Y-41272D01*
X57100Y-41301D01*
X57157Y-41329D01*
X57214Y-41387D01*
X57243Y-41472D01*
X57243Y-41615D01*
X56643Y-41015D02*
X57129Y-41015D01*
X57186Y-40987D01*
X57214Y-40958D01*
X57243Y-40901D01*
X57243Y-40787D01*
X57214Y-40729D01*
X57186Y-40701D01*
X57129Y-40672D01*
X56643Y-40672D01*
X57243Y-40386D02*
X56643Y-40386D01*
X57243Y-40100D02*
X56643Y-40100D01*
X57243Y-39757D01*
X56643Y-39757D01*
X56643Y-39357D02*
X56643Y-39243D01*
X56671Y-39185D01*
X56729Y-39128D01*
X56843Y-39100D01*
X57043Y-39100D01*
X57157Y-39128D01*
X57214Y-39185D01*
X57243Y-39243D01*
X57243Y-39357D01*
X57214Y-39414D01*
X57157Y-39471D01*
X57043Y-39500D01*
X56843Y-39500D01*
X56729Y-39471D01*
X56671Y-39414D01*
X56643Y-39357D01*
X57300Y-38985D02*
X57300Y-38528D01*
X57243Y-38385D02*
X56643Y-38385D01*
X57243Y-38042D01*
X56643Y-38042D01*
X57071Y-37785D02*
X57071Y-37499D01*
X57243Y-37842D02*
X56643Y-37642D01*
X57243Y-37442D01*
X57243Y-37242D02*
X56643Y-37242D01*
X57243Y-36899D01*
X56643Y-36899D01*
X56643Y-36499D02*
X56643Y-36385D01*
X56671Y-36327D01*
X56729Y-36270D01*
X56843Y-36242D01*
X57043Y-36242D01*
X57157Y-36270D01*
X57214Y-36327D01*
X57243Y-36385D01*
X57243Y-36499D01*
X57214Y-36556D01*
X57157Y-36613D01*
X57043Y-36642D01*
X56843Y-36642D01*
X56729Y-36613D01*
X56671Y-36556D01*
X56643Y-36499D01*
X57243Y-29893D02*
X57243Y-30379D01*
X57271Y-30436D01*
X57300Y-30464D01*
X57357Y-30493D01*
X57471Y-30493D01*
X57529Y-30464D01*
X57557Y-30436D01*
X57586Y-30379D01*
X57586Y-29893D01*
X57843Y-30464D02*
X57929Y-30493D01*
X58072Y-30493D01*
X58129Y-30464D01*
X58158Y-30436D01*
X58186Y-30379D01*
X58186Y-30321D01*
X58158Y-30264D01*
X58129Y-30236D01*
X58072Y-30207D01*
X57958Y-30179D01*
X57900Y-30150D01*
X57872Y-30121D01*
X57843Y-30064D01*
X57843Y-30007D01*
X57872Y-29950D01*
X57900Y-29921D01*
X57958Y-29893D01*
X58100Y-29893D01*
X58186Y-29921D01*
X58643Y-30179D02*
X58729Y-30207D01*
X58757Y-30236D01*
X58786Y-30293D01*
X58786Y-30379D01*
X58757Y-30436D01*
X58729Y-30464D01*
X58671Y-30493D01*
X58443Y-30493D01*
X58443Y-29893D01*
X58643Y-29893D01*
X58700Y-29921D01*
X58729Y-29950D01*
X58757Y-30007D01*
X58757Y-30064D01*
X58729Y-30121D01*
X58700Y-30150D01*
X58643Y-30179D01*
X58443Y-30179D01*
G54D15*
X51821Y-52729D02*
X52064Y-52729D01*
X52093Y-52714D01*
X52107Y-52700D01*
X52121Y-52671D01*
X52121Y-52614D01*
X52107Y-52586D01*
X52093Y-52571D01*
X52064Y-52557D01*
X51821Y-52557D01*
X52121Y-52257D02*
X52121Y-52429D01*
X52121Y-52343D02*
X51821Y-52343D01*
X51864Y-52372D01*
X51893Y-52400D01*
X51907Y-52429D01*
X56071Y-51171D02*
X56371Y-51071D01*
X56071Y-50971D01*
X56071Y-50900D02*
X56071Y-50700D01*
X56371Y-50829D01*
X56200Y-50543D02*
X56186Y-50571D01*
X56171Y-50586D01*
X56143Y-50600D01*
X56129Y-50600D01*
X56100Y-50586D01*
X56086Y-50571D01*
X56071Y-50543D01*
X56071Y-50486D01*
X56086Y-50457D01*
X56100Y-50443D01*
X56129Y-50428D01*
X56143Y-50428D01*
X56171Y-50443D01*
X56186Y-50457D01*
X56200Y-50486D01*
X56200Y-50543D01*
X56214Y-50571D01*
X56229Y-50586D01*
X56257Y-50600D01*
X56314Y-50600D01*
X56343Y-50586D01*
X56357Y-50571D01*
X56371Y-50543D01*
X56371Y-50486D01*
X56357Y-50457D01*
X56343Y-50443D01*
X56314Y-50428D01*
X56257Y-50428D01*
X56229Y-50443D01*
X56214Y-50457D01*
X56200Y-50486D01*
X56071Y-50242D02*
X56071Y-50214D01*
X56086Y-50185D01*
X56100Y-50171D01*
X56129Y-50157D01*
X56186Y-50142D01*
X56257Y-50142D01*
X56314Y-50157D01*
X56343Y-50171D01*
X56357Y-50185D01*
X56371Y-50214D01*
X56371Y-50242D01*
X56357Y-50271D01*
X56343Y-50285D01*
X56314Y-50300D01*
X56257Y-50314D01*
X56186Y-50314D01*
X56129Y-50300D01*
X56100Y-50285D01*
X56086Y-50271D01*
X56071Y-50242D01*
X56371Y-49999D02*
X56371Y-49942D01*
X56357Y-49914D01*
X56343Y-49899D01*
X56300Y-49871D01*
X56243Y-49856D01*
X56129Y-49856D01*
X56100Y-49871D01*
X56086Y-49885D01*
X56071Y-49914D01*
X56071Y-49971D01*
X56086Y-49999D01*
X56100Y-50014D01*
X56129Y-50028D01*
X56200Y-50028D01*
X56229Y-50014D01*
X56243Y-49999D01*
X56257Y-49971D01*
X56257Y-49914D01*
X56243Y-49885D01*
X56229Y-49871D01*
X56200Y-49856D01*
G54D16*
X54662Y-54545D02*
X54262Y-54545D01*
X54262Y-54392D01*
X54281Y-54354D01*
X54300Y-54335D01*
X54338Y-54316D01*
X54395Y-54316D01*
X54433Y-54335D01*
X54452Y-54354D01*
X54471Y-54392D01*
X54471Y-54545D01*
X54300Y-54164D02*
X54281Y-54145D01*
X54262Y-54107D01*
X54262Y-54011D01*
X54281Y-53973D01*
X54300Y-53954D01*
X54338Y-53935D01*
X54376Y-53935D01*
X54433Y-53954D01*
X54662Y-54183D01*
X54662Y-53935D01*
X54526Y-55412D02*
X54392Y-55221D01*
X54297Y-55412D02*
X54297Y-55012D01*
X54450Y-55012D01*
X54488Y-55031D01*
X54507Y-55050D01*
X54526Y-55088D01*
X54526Y-55145D01*
X54507Y-55183D01*
X54488Y-55202D01*
X54450Y-55221D01*
X54297Y-55221D01*
X54850Y-55393D02*
X54812Y-55412D01*
X54735Y-55412D01*
X54697Y-55393D01*
X54678Y-55355D01*
X54678Y-55202D01*
X54697Y-55164D01*
X54735Y-55145D01*
X54812Y-55145D01*
X54850Y-55164D01*
X54869Y-55202D01*
X54869Y-55240D01*
X54678Y-55279D01*
X55021Y-55393D02*
X55059Y-55412D01*
X55135Y-55412D01*
X55174Y-55393D01*
X55193Y-55355D01*
X55193Y-55336D01*
X55174Y-55298D01*
X55135Y-55279D01*
X55078Y-55279D01*
X55040Y-55260D01*
X55021Y-55221D01*
X55021Y-55202D01*
X55040Y-55164D01*
X55078Y-55145D01*
X55135Y-55145D01*
X55174Y-55164D01*
X55517Y-55393D02*
X55479Y-55412D01*
X55402Y-55412D01*
X55364Y-55393D01*
X55345Y-55355D01*
X55345Y-55202D01*
X55364Y-55164D01*
X55402Y-55145D01*
X55479Y-55145D01*
X55517Y-55164D01*
X55536Y-55202D01*
X55536Y-55240D01*
X55345Y-55279D01*
X55650Y-55145D02*
X55802Y-55145D01*
X55707Y-55012D02*
X55707Y-55355D01*
X55726Y-55393D01*
X55764Y-55412D01*
X55802Y-55412D01*
X56012Y-55012D02*
X56089Y-55012D01*
X56127Y-55031D01*
X56165Y-55069D01*
X56184Y-55145D01*
X56184Y-55279D01*
X56165Y-55355D01*
X56127Y-55393D01*
X56089Y-55412D01*
X56012Y-55412D01*
X55974Y-55393D01*
X55936Y-55355D01*
X55917Y-55279D01*
X55917Y-55145D01*
X55936Y-55069D01*
X55974Y-55031D01*
X56012Y-55012D01*
X56317Y-55145D02*
X56412Y-55412D01*
X56508Y-55145D01*
X56813Y-55393D02*
X56775Y-55412D01*
X56698Y-55412D01*
X56660Y-55393D01*
X56641Y-55355D01*
X56641Y-55202D01*
X56660Y-55164D01*
X56698Y-55145D01*
X56775Y-55145D01*
X56813Y-55164D01*
X56832Y-55202D01*
X56832Y-55240D01*
X56641Y-55279D01*
X57003Y-55412D02*
X57003Y-55145D01*
X57003Y-55221D02*
X57022Y-55183D01*
X57041Y-55164D01*
X57079Y-55145D01*
X57118Y-55145D01*
X57251Y-55412D02*
X57251Y-55145D01*
X57251Y-55221D02*
X57270Y-55183D01*
X57289Y-55164D01*
X57327Y-55145D01*
X57366Y-55145D01*
X57499Y-55412D02*
X57499Y-55145D01*
X57499Y-55012D02*
X57480Y-55031D01*
X57499Y-55050D01*
X57518Y-55031D01*
X57499Y-55012D01*
X57499Y-55050D01*
X57861Y-55412D02*
X57861Y-55012D01*
X57861Y-55393D02*
X57823Y-55412D01*
X57746Y-55412D01*
X57708Y-55393D01*
X57689Y-55374D01*
X57670Y-55336D01*
X57670Y-55221D01*
X57689Y-55183D01*
X57708Y-55164D01*
X57746Y-55145D01*
X57823Y-55145D01*
X57861Y-55164D01*
X58204Y-55393D02*
X58166Y-55412D01*
X58089Y-55412D01*
X58051Y-55393D01*
X58032Y-55355D01*
X58032Y-55202D01*
X58051Y-55164D01*
X58089Y-55145D01*
X58166Y-55145D01*
X58204Y-55164D01*
X58223Y-55202D01*
X58223Y-55240D01*
X58032Y-55279D01*
G54D11*
X51205Y-42412D02*
X51205Y-42012D01*
X51358Y-42012D01*
X51396Y-42031D01*
X51415Y-42050D01*
X51434Y-42088D01*
X51434Y-42145D01*
X51415Y-42183D01*
X51396Y-42202D01*
X51358Y-42221D01*
X51205Y-42221D01*
X51567Y-42012D02*
X51815Y-42012D01*
X51681Y-42164D01*
X51739Y-42164D01*
X51777Y-42183D01*
X51796Y-42202D01*
X51815Y-42240D01*
X51815Y-42336D01*
X51796Y-42374D01*
X51777Y-42393D01*
X51739Y-42412D01*
X51624Y-42412D01*
X51586Y-42393D01*
X51567Y-42374D01*
X51912Y-40981D02*
X51512Y-40981D01*
X51512Y-40886D01*
X51531Y-40828D01*
X51569Y-40790D01*
X51607Y-40771D01*
X51683Y-40752D01*
X51740Y-40752D01*
X51817Y-40771D01*
X51855Y-40790D01*
X51893Y-40828D01*
X51912Y-40886D01*
X51912Y-40981D01*
X51912Y-40581D02*
X51645Y-40581D01*
X51512Y-40581D02*
X51531Y-40600D01*
X51550Y-40581D01*
X51531Y-40562D01*
X51512Y-40581D01*
X51550Y-40581D01*
X51893Y-40410D02*
X51912Y-40372D01*
X51912Y-40296D01*
X51893Y-40257D01*
X51855Y-40238D01*
X51836Y-40238D01*
X51798Y-40257D01*
X51779Y-40296D01*
X51779Y-40353D01*
X51760Y-40391D01*
X51721Y-40410D01*
X51702Y-40410D01*
X51664Y-40391D01*
X51645Y-40353D01*
X51645Y-40296D01*
X51664Y-40257D01*
X51645Y-40067D02*
X52045Y-40067D01*
X51664Y-40067D02*
X51645Y-40029D01*
X51645Y-39952D01*
X51664Y-39914D01*
X51683Y-39895D01*
X51721Y-39876D01*
X51836Y-39876D01*
X51874Y-39895D01*
X51893Y-39914D01*
X51912Y-39952D01*
X51912Y-40029D01*
X51893Y-40067D01*
X51912Y-39648D02*
X51893Y-39686D01*
X51855Y-39705D01*
X51512Y-39705D01*
X51912Y-39323D02*
X51702Y-39323D01*
X51664Y-39342D01*
X51645Y-39380D01*
X51645Y-39457D01*
X51664Y-39495D01*
X51893Y-39323D02*
X51912Y-39361D01*
X51912Y-39457D01*
X51893Y-39495D01*
X51855Y-39514D01*
X51817Y-39514D01*
X51779Y-39495D01*
X51760Y-39457D01*
X51760Y-39361D01*
X51740Y-39323D01*
X51645Y-39171D02*
X51912Y-39076D01*
X51645Y-38980D02*
X51912Y-39076D01*
X52007Y-39114D01*
X52026Y-39133D01*
X52045Y-39171D01*
G54D14*
X38929Y-51042D02*
X38957Y-50956D01*
X38986Y-50928D01*
X39043Y-50899D01*
X39129Y-50899D01*
X39186Y-50928D01*
X39214Y-50956D01*
X39243Y-51014D01*
X39243Y-51242D01*
X38643Y-51242D01*
X38643Y-51042D01*
X38671Y-50985D01*
X38700Y-50956D01*
X38757Y-50928D01*
X38814Y-50928D01*
X38871Y-50956D01*
X38900Y-50985D01*
X38929Y-51042D01*
X38929Y-51242D01*
X39243Y-50642D02*
X38643Y-50642D01*
X38643Y-50414D01*
X38671Y-50356D01*
X38700Y-50328D01*
X38757Y-50299D01*
X38843Y-50299D01*
X38900Y-50328D01*
X38929Y-50356D01*
X38957Y-50414D01*
X38957Y-50642D01*
X39243Y-49728D02*
X39243Y-50071D01*
X39243Y-49899D02*
X38643Y-49899D01*
X38729Y-49956D01*
X38786Y-50014D01*
X38814Y-50071D01*
X32164Y-50729D02*
X32250Y-50757D01*
X32278Y-50786D01*
X32307Y-50843D01*
X32307Y-50929D01*
X32278Y-50986D01*
X32250Y-51014D01*
X32192Y-51043D01*
X31964Y-51043D01*
X31964Y-50443D01*
X32164Y-50443D01*
X32221Y-50471D01*
X32250Y-50500D01*
X32278Y-50557D01*
X32278Y-50614D01*
X32250Y-50671D01*
X32221Y-50700D01*
X32164Y-50729D01*
X31964Y-50729D01*
X32564Y-50443D02*
X32564Y-50929D01*
X32592Y-50986D01*
X32621Y-51014D01*
X32678Y-51043D01*
X32792Y-51043D01*
X32850Y-51014D01*
X32878Y-50986D01*
X32907Y-50929D01*
X32907Y-50443D01*
X33536Y-50986D02*
X33507Y-51014D01*
X33421Y-51043D01*
X33364Y-51043D01*
X33279Y-51014D01*
X33221Y-50957D01*
X33193Y-50900D01*
X33164Y-50786D01*
X33164Y-50700D01*
X33193Y-50586D01*
X33221Y-50529D01*
X33279Y-50471D01*
X33364Y-50443D01*
X33421Y-50443D01*
X33507Y-50471D01*
X33536Y-50500D01*
X33793Y-51043D02*
X33793Y-50443D01*
X34136Y-51043D02*
X33879Y-50700D01*
X34136Y-50443D02*
X33793Y-50786D01*
X34393Y-51043D02*
X34393Y-50443D01*
X34621Y-50443D01*
X34679Y-50471D01*
X34707Y-50500D01*
X34736Y-50557D01*
X34736Y-50643D01*
X34707Y-50700D01*
X34679Y-50729D01*
X34621Y-50757D01*
X34393Y-50757D01*
X34993Y-50443D02*
X34993Y-50929D01*
X35021Y-50986D01*
X35050Y-51014D01*
X35107Y-51043D01*
X35221Y-51043D01*
X35279Y-51014D01*
X35307Y-50986D01*
X35336Y-50929D01*
X35336Y-50443D01*
X35965Y-50986D02*
X35936Y-51014D01*
X35850Y-51043D01*
X35793Y-51043D01*
X35708Y-51014D01*
X35650Y-50957D01*
X35622Y-50900D01*
X35593Y-50786D01*
X35593Y-50700D01*
X35622Y-50586D01*
X35650Y-50529D01*
X35708Y-50471D01*
X35793Y-50443D01*
X35850Y-50443D01*
X35936Y-50471D01*
X35965Y-50500D01*
X36222Y-51043D02*
X36222Y-50443D01*
X36565Y-51043D02*
X36308Y-50700D01*
X36565Y-50443D02*
X36222Y-50786D01*
X76679Y-51042D02*
X76707Y-50956D01*
X76736Y-50928D01*
X76793Y-50899D01*
X76879Y-50899D01*
X76936Y-50928D01*
X76964Y-50956D01*
X76993Y-51014D01*
X76993Y-51242D01*
X76393Y-51242D01*
X76393Y-51042D01*
X76421Y-50985D01*
X76450Y-50956D01*
X76507Y-50928D01*
X76564Y-50928D01*
X76621Y-50956D01*
X76650Y-50985D01*
X76679Y-51042D01*
X76679Y-51242D01*
X76993Y-50642D02*
X76393Y-50642D01*
X76393Y-50414D01*
X76421Y-50356D01*
X76450Y-50328D01*
X76507Y-50299D01*
X76593Y-50299D01*
X76650Y-50328D01*
X76679Y-50356D01*
X76707Y-50414D01*
X76707Y-50642D01*
X76593Y-49785D02*
X76993Y-49785D01*
X76364Y-49928D02*
X76793Y-50071D01*
X76793Y-49699D01*
X79664Y-50729D02*
X79750Y-50757D01*
X79778Y-50786D01*
X79807Y-50843D01*
X79807Y-50929D01*
X79778Y-50986D01*
X79750Y-51014D01*
X79692Y-51043D01*
X79464Y-51043D01*
X79464Y-50443D01*
X79664Y-50443D01*
X79721Y-50471D01*
X79750Y-50500D01*
X79778Y-50557D01*
X79778Y-50614D01*
X79750Y-50671D01*
X79721Y-50700D01*
X79664Y-50729D01*
X79464Y-50729D01*
X80064Y-50443D02*
X80064Y-50929D01*
X80092Y-50986D01*
X80121Y-51014D01*
X80178Y-51043D01*
X80292Y-51043D01*
X80350Y-51014D01*
X80378Y-50986D01*
X80407Y-50929D01*
X80407Y-50443D01*
X81036Y-50986D02*
X81007Y-51014D01*
X80921Y-51043D01*
X80864Y-51043D01*
X80779Y-51014D01*
X80721Y-50957D01*
X80693Y-50900D01*
X80664Y-50786D01*
X80664Y-50700D01*
X80693Y-50586D01*
X80721Y-50529D01*
X80779Y-50471D01*
X80864Y-50443D01*
X80921Y-50443D01*
X81007Y-50471D01*
X81036Y-50500D01*
X81293Y-51043D02*
X81293Y-50443D01*
X81636Y-51043D02*
X81379Y-50700D01*
X81636Y-50443D02*
X81293Y-50786D01*
X81893Y-51043D02*
X81893Y-50443D01*
X82121Y-50443D01*
X82179Y-50471D01*
X82207Y-50500D01*
X82236Y-50557D01*
X82236Y-50643D01*
X82207Y-50700D01*
X82179Y-50729D01*
X82121Y-50757D01*
X81893Y-50757D01*
X82493Y-50443D02*
X82493Y-50929D01*
X82521Y-50986D01*
X82550Y-51014D01*
X82607Y-51043D01*
X82721Y-51043D01*
X82779Y-51014D01*
X82807Y-50986D01*
X82836Y-50929D01*
X82836Y-50443D01*
X83465Y-50986D02*
X83436Y-51014D01*
X83350Y-51043D01*
X83293Y-51043D01*
X83208Y-51014D01*
X83150Y-50957D01*
X83122Y-50900D01*
X83093Y-50786D01*
X83093Y-50700D01*
X83122Y-50586D01*
X83150Y-50529D01*
X83208Y-50471D01*
X83293Y-50443D01*
X83350Y-50443D01*
X83436Y-50471D01*
X83465Y-50500D01*
X83722Y-51043D02*
X83722Y-50443D01*
X84065Y-51043D02*
X83808Y-50700D01*
X84065Y-50443D02*
X83722Y-50786D01*
X72679Y-51042D02*
X72707Y-50956D01*
X72736Y-50928D01*
X72793Y-50899D01*
X72879Y-50899D01*
X72936Y-50928D01*
X72964Y-50956D01*
X72993Y-51014D01*
X72993Y-51242D01*
X72393Y-51242D01*
X72393Y-51042D01*
X72421Y-50985D01*
X72450Y-50956D01*
X72507Y-50928D01*
X72564Y-50928D01*
X72621Y-50956D01*
X72650Y-50985D01*
X72679Y-51042D01*
X72679Y-51242D01*
X72993Y-50642D02*
X72393Y-50642D01*
X72393Y-50414D01*
X72421Y-50356D01*
X72450Y-50328D01*
X72507Y-50299D01*
X72593Y-50299D01*
X72650Y-50328D01*
X72679Y-50356D01*
X72707Y-50414D01*
X72707Y-50642D01*
X72393Y-50099D02*
X72393Y-49728D01*
X72621Y-49928D01*
X72621Y-49842D01*
X72650Y-49785D01*
X72679Y-49756D01*
X72736Y-49728D01*
X72879Y-49728D01*
X72936Y-49756D01*
X72964Y-49785D01*
X72993Y-49842D01*
X72993Y-50014D01*
X72964Y-50071D01*
X72936Y-50099D01*
X65914Y-50729D02*
X66000Y-50757D01*
X66028Y-50786D01*
X66057Y-50843D01*
X66057Y-50929D01*
X66028Y-50986D01*
X66000Y-51014D01*
X65942Y-51043D01*
X65714Y-51043D01*
X65714Y-50443D01*
X65914Y-50443D01*
X65971Y-50471D01*
X66000Y-50500D01*
X66028Y-50557D01*
X66028Y-50614D01*
X66000Y-50671D01*
X65971Y-50700D01*
X65914Y-50729D01*
X65714Y-50729D01*
X66314Y-50443D02*
X66314Y-50929D01*
X66342Y-50986D01*
X66371Y-51014D01*
X66428Y-51043D01*
X66542Y-51043D01*
X66600Y-51014D01*
X66628Y-50986D01*
X66657Y-50929D01*
X66657Y-50443D01*
X67286Y-50986D02*
X67257Y-51014D01*
X67171Y-51043D01*
X67114Y-51043D01*
X67029Y-51014D01*
X66971Y-50957D01*
X66943Y-50900D01*
X66914Y-50786D01*
X66914Y-50700D01*
X66943Y-50586D01*
X66971Y-50529D01*
X67029Y-50471D01*
X67114Y-50443D01*
X67171Y-50443D01*
X67257Y-50471D01*
X67286Y-50500D01*
X67543Y-51043D02*
X67543Y-50443D01*
X67886Y-51043D02*
X67629Y-50700D01*
X67886Y-50443D02*
X67543Y-50786D01*
X68143Y-51043D02*
X68143Y-50443D01*
X68371Y-50443D01*
X68429Y-50471D01*
X68457Y-50500D01*
X68486Y-50557D01*
X68486Y-50643D01*
X68457Y-50700D01*
X68429Y-50729D01*
X68371Y-50757D01*
X68143Y-50757D01*
X68743Y-50443D02*
X68743Y-50929D01*
X68771Y-50986D01*
X68800Y-51014D01*
X68857Y-51043D01*
X68971Y-51043D01*
X69029Y-51014D01*
X69057Y-50986D01*
X69086Y-50929D01*
X69086Y-50443D01*
X69715Y-50986D02*
X69686Y-51014D01*
X69600Y-51043D01*
X69543Y-51043D01*
X69458Y-51014D01*
X69400Y-50957D01*
X69372Y-50900D01*
X69343Y-50786D01*
X69343Y-50700D01*
X69372Y-50586D01*
X69400Y-50529D01*
X69458Y-50471D01*
X69543Y-50443D01*
X69600Y-50443D01*
X69686Y-50471D01*
X69715Y-50500D01*
X69972Y-51043D02*
X69972Y-50443D01*
X70315Y-51043D02*
X70058Y-50700D01*
X70315Y-50443D02*
X69972Y-50786D01*
X42929Y-51042D02*
X42957Y-50956D01*
X42986Y-50928D01*
X43043Y-50899D01*
X43129Y-50899D01*
X43186Y-50928D01*
X43214Y-50956D01*
X43243Y-51014D01*
X43243Y-51242D01*
X42643Y-51242D01*
X42643Y-51042D01*
X42671Y-50985D01*
X42700Y-50956D01*
X42757Y-50928D01*
X42814Y-50928D01*
X42871Y-50956D01*
X42900Y-50985D01*
X42929Y-51042D01*
X42929Y-51242D01*
X43243Y-50642D02*
X42643Y-50642D01*
X42643Y-50414D01*
X42671Y-50356D01*
X42700Y-50328D01*
X42757Y-50299D01*
X42843Y-50299D01*
X42900Y-50328D01*
X42929Y-50356D01*
X42957Y-50414D01*
X42957Y-50642D01*
X42700Y-50071D02*
X42671Y-50042D01*
X42643Y-49985D01*
X42643Y-49842D01*
X42671Y-49785D01*
X42700Y-49756D01*
X42757Y-49728D01*
X42814Y-49728D01*
X42900Y-49756D01*
X43243Y-50099D01*
X43243Y-49728D01*
X45914Y-50729D02*
X46000Y-50757D01*
X46028Y-50786D01*
X46057Y-50843D01*
X46057Y-50929D01*
X46028Y-50986D01*
X46000Y-51014D01*
X45942Y-51043D01*
X45714Y-51043D01*
X45714Y-50443D01*
X45914Y-50443D01*
X45971Y-50471D01*
X46000Y-50500D01*
X46028Y-50557D01*
X46028Y-50614D01*
X46000Y-50671D01*
X45971Y-50700D01*
X45914Y-50729D01*
X45714Y-50729D01*
X46314Y-50443D02*
X46314Y-50929D01*
X46342Y-50986D01*
X46371Y-51014D01*
X46428Y-51043D01*
X46542Y-51043D01*
X46600Y-51014D01*
X46628Y-50986D01*
X46657Y-50929D01*
X46657Y-50443D01*
X47286Y-50986D02*
X47257Y-51014D01*
X47171Y-51043D01*
X47114Y-51043D01*
X47029Y-51014D01*
X46971Y-50957D01*
X46943Y-50900D01*
X46914Y-50786D01*
X46914Y-50700D01*
X46943Y-50586D01*
X46971Y-50529D01*
X47029Y-50471D01*
X47114Y-50443D01*
X47171Y-50443D01*
X47257Y-50471D01*
X47286Y-50500D01*
X47543Y-51043D02*
X47543Y-50443D01*
X47886Y-51043D02*
X47629Y-50700D01*
X47886Y-50443D02*
X47543Y-50786D01*
X48143Y-51043D02*
X48143Y-50443D01*
X48371Y-50443D01*
X48429Y-50471D01*
X48457Y-50500D01*
X48486Y-50557D01*
X48486Y-50643D01*
X48457Y-50700D01*
X48429Y-50729D01*
X48371Y-50757D01*
X48143Y-50757D01*
X48743Y-50443D02*
X48743Y-50929D01*
X48771Y-50986D01*
X48800Y-51014D01*
X48857Y-51043D01*
X48971Y-51043D01*
X49029Y-51014D01*
X49057Y-50986D01*
X49086Y-50929D01*
X49086Y-50443D01*
X49715Y-50986D02*
X49686Y-51014D01*
X49600Y-51043D01*
X49543Y-51043D01*
X49458Y-51014D01*
X49400Y-50957D01*
X49372Y-50900D01*
X49343Y-50786D01*
X49343Y-50700D01*
X49372Y-50586D01*
X49400Y-50529D01*
X49458Y-50471D01*
X49543Y-50443D01*
X49600Y-50443D01*
X49686Y-50471D01*
X49715Y-50500D01*
X49972Y-51043D02*
X49972Y-50443D01*
X50315Y-51043D02*
X50058Y-50700D01*
X50315Y-50443D02*
X49972Y-50786D01*
G54D11*
X83662Y-32486D02*
X83262Y-32486D01*
X83262Y-32333D01*
X83281Y-32295D01*
X83300Y-32276D01*
X83338Y-32257D01*
X83395Y-32257D01*
X83433Y-32276D01*
X83452Y-32295D01*
X83471Y-32333D01*
X83471Y-32486D01*
X83662Y-31876D02*
X83662Y-32105D01*
X83662Y-31991D02*
X83262Y-31991D01*
X83319Y-32029D01*
X83357Y-32067D01*
X83376Y-32105D01*
X83300Y-31724D02*
X83281Y-31705D01*
X83262Y-31667D01*
X83262Y-31571D01*
X83281Y-31533D01*
X83300Y-31514D01*
X83338Y-31495D01*
X83376Y-31495D01*
X83433Y-31514D01*
X83662Y-31743D01*
X83662Y-31495D01*
X80124Y-33753D02*
X80143Y-33772D01*
X80162Y-33829D01*
X80162Y-33867D01*
X80143Y-33925D01*
X80105Y-33963D01*
X80067Y-33982D01*
X79990Y-34001D01*
X79933Y-34001D01*
X79857Y-33982D01*
X79819Y-33963D01*
X79781Y-33925D01*
X79762Y-33867D01*
X79762Y-33829D01*
X79781Y-33772D01*
X79800Y-33753D01*
X79895Y-33410D02*
X80162Y-33410D01*
X79895Y-33582D02*
X80105Y-33582D01*
X80143Y-33563D01*
X80162Y-33525D01*
X80162Y-33467D01*
X80143Y-33429D01*
X80124Y-33410D01*
X80162Y-33220D02*
X79895Y-33220D01*
X79971Y-33220D02*
X79933Y-33201D01*
X79914Y-33182D01*
X79895Y-33144D01*
X79895Y-33105D01*
X80162Y-32972D02*
X79895Y-32972D01*
X79971Y-32972D02*
X79933Y-32953D01*
X79914Y-32934D01*
X79895Y-32896D01*
X79895Y-32857D01*
X80143Y-32571D02*
X80162Y-32609D01*
X80162Y-32686D01*
X80143Y-32724D01*
X80105Y-32743D01*
X79952Y-32743D01*
X79914Y-32724D01*
X79895Y-32686D01*
X79895Y-32609D01*
X79914Y-32571D01*
X79952Y-32552D01*
X79990Y-32552D01*
X80029Y-32743D01*
X79895Y-32381D02*
X80162Y-32381D01*
X79933Y-32381D02*
X79914Y-32362D01*
X79895Y-32324D01*
X79895Y-32266D01*
X79914Y-32228D01*
X79952Y-32209D01*
X80162Y-32209D01*
X79895Y-32076D02*
X79895Y-31924D01*
X79762Y-32019D02*
X80105Y-32019D01*
X80143Y-32000D01*
X80162Y-31962D01*
X80162Y-31924D01*
X79762Y-31714D02*
X79762Y-31637D01*
X79781Y-31599D01*
X79819Y-31561D01*
X79895Y-31542D01*
X80029Y-31542D01*
X80105Y-31561D01*
X80143Y-31599D01*
X80162Y-31637D01*
X80162Y-31714D01*
X80143Y-31752D01*
X80105Y-31790D01*
X80029Y-31809D01*
X79895Y-31809D01*
X79819Y-31790D01*
X79781Y-31752D01*
X79762Y-31714D01*
X79895Y-31199D02*
X80162Y-31199D01*
X79895Y-31371D02*
X80105Y-31371D01*
X80143Y-31352D01*
X80162Y-31314D01*
X80162Y-31256D01*
X80143Y-31218D01*
X80124Y-31199D01*
X79895Y-31066D02*
X79895Y-30914D01*
X79762Y-31009D02*
X80105Y-31009D01*
X80143Y-30990D01*
X80162Y-30952D01*
X80162Y-30914D01*
X79895Y-30780D02*
X80295Y-30780D01*
X79914Y-30780D02*
X79895Y-30742D01*
X79895Y-30665D01*
X79914Y-30627D01*
X79933Y-30608D01*
X79971Y-30589D01*
X80086Y-30589D01*
X80124Y-30608D01*
X80143Y-30627D01*
X80162Y-30665D01*
X80162Y-30742D01*
X80143Y-30780D01*
X79895Y-30246D02*
X80162Y-30246D01*
X79895Y-30418D02*
X80105Y-30418D01*
X80143Y-30399D01*
X80162Y-30361D01*
X80162Y-30303D01*
X80143Y-30265D01*
X80124Y-30246D01*
X79895Y-30113D02*
X79895Y-29961D01*
X79762Y-30056D02*
X80105Y-30056D01*
X80143Y-30037D01*
X80162Y-29999D01*
X80162Y-29961D01*
X46412Y-32486D02*
X46012Y-32486D01*
X46012Y-32333D01*
X46031Y-32295D01*
X46050Y-32276D01*
X46088Y-32257D01*
X46145Y-32257D01*
X46183Y-32276D01*
X46202Y-32295D01*
X46221Y-32333D01*
X46221Y-32486D01*
X46412Y-31876D02*
X46412Y-32105D01*
X46412Y-31991D02*
X46012Y-31991D01*
X46069Y-32029D01*
X46107Y-32067D01*
X46126Y-32105D01*
X46012Y-31629D02*
X46012Y-31590D01*
X46031Y-31552D01*
X46050Y-31533D01*
X46088Y-31514D01*
X46164Y-31495D01*
X46260Y-31495D01*
X46336Y-31514D01*
X46374Y-31533D01*
X46393Y-31552D01*
X46412Y-31590D01*
X46412Y-31629D01*
X46393Y-31667D01*
X46374Y-31686D01*
X46336Y-31705D01*
X46260Y-31724D01*
X46164Y-31724D01*
X46088Y-31705D01*
X46050Y-31686D01*
X46031Y-31667D01*
X46012Y-31629D01*
X49874Y-33753D02*
X49893Y-33772D01*
X49912Y-33829D01*
X49912Y-33867D01*
X49893Y-33925D01*
X49855Y-33963D01*
X49817Y-33982D01*
X49740Y-34001D01*
X49683Y-34001D01*
X49607Y-33982D01*
X49569Y-33963D01*
X49531Y-33925D01*
X49512Y-33867D01*
X49512Y-33829D01*
X49531Y-33772D01*
X49550Y-33753D01*
X49645Y-33410D02*
X49912Y-33410D01*
X49645Y-33582D02*
X49855Y-33582D01*
X49893Y-33563D01*
X49912Y-33525D01*
X49912Y-33467D01*
X49893Y-33429D01*
X49874Y-33410D01*
X49912Y-33220D02*
X49645Y-33220D01*
X49721Y-33220D02*
X49683Y-33201D01*
X49664Y-33182D01*
X49645Y-33144D01*
X49645Y-33105D01*
X49912Y-32972D02*
X49645Y-32972D01*
X49721Y-32972D02*
X49683Y-32953D01*
X49664Y-32934D01*
X49645Y-32896D01*
X49645Y-32857D01*
X49893Y-32571D02*
X49912Y-32609D01*
X49912Y-32686D01*
X49893Y-32724D01*
X49855Y-32743D01*
X49702Y-32743D01*
X49664Y-32724D01*
X49645Y-32686D01*
X49645Y-32609D01*
X49664Y-32571D01*
X49702Y-32552D01*
X49740Y-32552D01*
X49779Y-32743D01*
X49645Y-32381D02*
X49912Y-32381D01*
X49683Y-32381D02*
X49664Y-32362D01*
X49645Y-32324D01*
X49645Y-32266D01*
X49664Y-32228D01*
X49702Y-32209D01*
X49912Y-32209D01*
X49645Y-32076D02*
X49645Y-31924D01*
X49512Y-32019D02*
X49855Y-32019D01*
X49893Y-32000D01*
X49912Y-31962D01*
X49912Y-31924D01*
X49512Y-31714D02*
X49512Y-31637D01*
X49531Y-31599D01*
X49569Y-31561D01*
X49645Y-31542D01*
X49779Y-31542D01*
X49855Y-31561D01*
X49893Y-31599D01*
X49912Y-31637D01*
X49912Y-31714D01*
X49893Y-31752D01*
X49855Y-31790D01*
X49779Y-31809D01*
X49645Y-31809D01*
X49569Y-31790D01*
X49531Y-31752D01*
X49512Y-31714D01*
X49645Y-31199D02*
X49912Y-31199D01*
X49645Y-31371D02*
X49855Y-31371D01*
X49893Y-31352D01*
X49912Y-31314D01*
X49912Y-31256D01*
X49893Y-31218D01*
X49874Y-31199D01*
X49645Y-31066D02*
X49645Y-30914D01*
X49512Y-31009D02*
X49855Y-31009D01*
X49893Y-30990D01*
X49912Y-30952D01*
X49912Y-30914D01*
X49645Y-30780D02*
X50045Y-30780D01*
X49664Y-30780D02*
X49645Y-30742D01*
X49645Y-30665D01*
X49664Y-30627D01*
X49683Y-30608D01*
X49721Y-30589D01*
X49836Y-30589D01*
X49874Y-30608D01*
X49893Y-30627D01*
X49912Y-30665D01*
X49912Y-30742D01*
X49893Y-30780D01*
X49645Y-30246D02*
X49912Y-30246D01*
X49645Y-30418D02*
X49855Y-30418D01*
X49893Y-30399D01*
X49912Y-30361D01*
X49912Y-30303D01*
X49893Y-30265D01*
X49874Y-30246D01*
X49645Y-30113D02*
X49645Y-29961D01*
X49512Y-30056D02*
X49855Y-30056D01*
X49893Y-30037D01*
X49912Y-29999D01*
X49912Y-29961D01*
X69912Y-32486D02*
X69512Y-32486D01*
X69512Y-32333D01*
X69531Y-32295D01*
X69550Y-32276D01*
X69588Y-32257D01*
X69645Y-32257D01*
X69683Y-32276D01*
X69702Y-32295D01*
X69721Y-32333D01*
X69721Y-32486D01*
X69912Y-31876D02*
X69912Y-32105D01*
X69912Y-31991D02*
X69512Y-31991D01*
X69569Y-32029D01*
X69607Y-32067D01*
X69626Y-32105D01*
X69912Y-31495D02*
X69912Y-31724D01*
X69912Y-31610D02*
X69512Y-31610D01*
X69569Y-31648D01*
X69607Y-31686D01*
X69626Y-31724D01*
X66374Y-33753D02*
X66393Y-33772D01*
X66412Y-33829D01*
X66412Y-33867D01*
X66393Y-33925D01*
X66355Y-33963D01*
X66317Y-33982D01*
X66240Y-34001D01*
X66183Y-34001D01*
X66107Y-33982D01*
X66069Y-33963D01*
X66031Y-33925D01*
X66012Y-33867D01*
X66012Y-33829D01*
X66031Y-33772D01*
X66050Y-33753D01*
X66145Y-33410D02*
X66412Y-33410D01*
X66145Y-33582D02*
X66355Y-33582D01*
X66393Y-33563D01*
X66412Y-33525D01*
X66412Y-33467D01*
X66393Y-33429D01*
X66374Y-33410D01*
X66412Y-33220D02*
X66145Y-33220D01*
X66221Y-33220D02*
X66183Y-33201D01*
X66164Y-33182D01*
X66145Y-33144D01*
X66145Y-33105D01*
X66412Y-32972D02*
X66145Y-32972D01*
X66221Y-32972D02*
X66183Y-32953D01*
X66164Y-32934D01*
X66145Y-32896D01*
X66145Y-32857D01*
X66393Y-32571D02*
X66412Y-32609D01*
X66412Y-32686D01*
X66393Y-32724D01*
X66355Y-32743D01*
X66202Y-32743D01*
X66164Y-32724D01*
X66145Y-32686D01*
X66145Y-32609D01*
X66164Y-32571D01*
X66202Y-32552D01*
X66240Y-32552D01*
X66279Y-32743D01*
X66145Y-32381D02*
X66412Y-32381D01*
X66183Y-32381D02*
X66164Y-32362D01*
X66145Y-32324D01*
X66145Y-32266D01*
X66164Y-32228D01*
X66202Y-32209D01*
X66412Y-32209D01*
X66145Y-32076D02*
X66145Y-31924D01*
X66012Y-32019D02*
X66355Y-32019D01*
X66393Y-32000D01*
X66412Y-31962D01*
X66412Y-31924D01*
X66012Y-31714D02*
X66012Y-31637D01*
X66031Y-31599D01*
X66069Y-31561D01*
X66145Y-31542D01*
X66279Y-31542D01*
X66355Y-31561D01*
X66393Y-31599D01*
X66412Y-31637D01*
X66412Y-31714D01*
X66393Y-31752D01*
X66355Y-31790D01*
X66279Y-31809D01*
X66145Y-31809D01*
X66069Y-31790D01*
X66031Y-31752D01*
X66012Y-31714D01*
X66145Y-31199D02*
X66412Y-31199D01*
X66145Y-31371D02*
X66355Y-31371D01*
X66393Y-31352D01*
X66412Y-31314D01*
X66412Y-31256D01*
X66393Y-31218D01*
X66374Y-31199D01*
X66145Y-31066D02*
X66145Y-30914D01*
X66012Y-31009D02*
X66355Y-31009D01*
X66393Y-30990D01*
X66412Y-30952D01*
X66412Y-30914D01*
X66145Y-30780D02*
X66545Y-30780D01*
X66164Y-30780D02*
X66145Y-30742D01*
X66145Y-30665D01*
X66164Y-30627D01*
X66183Y-30608D01*
X66221Y-30589D01*
X66336Y-30589D01*
X66374Y-30608D01*
X66393Y-30627D01*
X66412Y-30665D01*
X66412Y-30742D01*
X66393Y-30780D01*
X66145Y-30246D02*
X66412Y-30246D01*
X66145Y-30418D02*
X66355Y-30418D01*
X66393Y-30399D01*
X66412Y-30361D01*
X66412Y-30303D01*
X66393Y-30265D01*
X66374Y-30246D01*
X66145Y-30113D02*
X66145Y-29961D01*
X66012Y-30056D02*
X66355Y-30056D01*
X66393Y-30037D01*
X66412Y-29999D01*
X66412Y-29961D01*
X32662Y-32295D02*
X32262Y-32295D01*
X32262Y-32142D01*
X32281Y-32104D01*
X32300Y-32085D01*
X32338Y-32066D01*
X32395Y-32066D01*
X32433Y-32085D01*
X32452Y-32104D01*
X32471Y-32142D01*
X32471Y-32295D01*
X32662Y-31876D02*
X32662Y-31800D01*
X32643Y-31761D01*
X32624Y-31742D01*
X32567Y-31704D01*
X32490Y-31685D01*
X32338Y-31685D01*
X32300Y-31704D01*
X32281Y-31723D01*
X32262Y-31761D01*
X32262Y-31838D01*
X32281Y-31876D01*
X32300Y-31895D01*
X32338Y-31914D01*
X32433Y-31914D01*
X32471Y-31895D01*
X32490Y-31876D01*
X32510Y-31838D01*
X32510Y-31761D01*
X32490Y-31723D01*
X32471Y-31704D01*
X32433Y-31685D01*
X36124Y-33753D02*
X36143Y-33772D01*
X36162Y-33829D01*
X36162Y-33867D01*
X36143Y-33925D01*
X36105Y-33963D01*
X36067Y-33982D01*
X35990Y-34001D01*
X35933Y-34001D01*
X35857Y-33982D01*
X35819Y-33963D01*
X35781Y-33925D01*
X35762Y-33867D01*
X35762Y-33829D01*
X35781Y-33772D01*
X35800Y-33753D01*
X35895Y-33410D02*
X36162Y-33410D01*
X35895Y-33582D02*
X36105Y-33582D01*
X36143Y-33563D01*
X36162Y-33525D01*
X36162Y-33467D01*
X36143Y-33429D01*
X36124Y-33410D01*
X36162Y-33220D02*
X35895Y-33220D01*
X35971Y-33220D02*
X35933Y-33201D01*
X35914Y-33182D01*
X35895Y-33144D01*
X35895Y-33105D01*
X36162Y-32972D02*
X35895Y-32972D01*
X35971Y-32972D02*
X35933Y-32953D01*
X35914Y-32934D01*
X35895Y-32896D01*
X35895Y-32857D01*
X36143Y-32571D02*
X36162Y-32609D01*
X36162Y-32686D01*
X36143Y-32724D01*
X36105Y-32743D01*
X35952Y-32743D01*
X35914Y-32724D01*
X35895Y-32686D01*
X35895Y-32609D01*
X35914Y-32571D01*
X35952Y-32552D01*
X35990Y-32552D01*
X36029Y-32743D01*
X35895Y-32381D02*
X36162Y-32381D01*
X35933Y-32381D02*
X35914Y-32362D01*
X35895Y-32324D01*
X35895Y-32266D01*
X35914Y-32228D01*
X35952Y-32209D01*
X36162Y-32209D01*
X35895Y-32076D02*
X35895Y-31924D01*
X35762Y-32019D02*
X36105Y-32019D01*
X36143Y-32000D01*
X36162Y-31962D01*
X36162Y-31924D01*
X35762Y-31714D02*
X35762Y-31637D01*
X35781Y-31599D01*
X35819Y-31561D01*
X35895Y-31542D01*
X36029Y-31542D01*
X36105Y-31561D01*
X36143Y-31599D01*
X36162Y-31637D01*
X36162Y-31714D01*
X36143Y-31752D01*
X36105Y-31790D01*
X36029Y-31809D01*
X35895Y-31809D01*
X35819Y-31790D01*
X35781Y-31752D01*
X35762Y-31714D01*
X35895Y-31199D02*
X36162Y-31199D01*
X35895Y-31371D02*
X36105Y-31371D01*
X36143Y-31352D01*
X36162Y-31314D01*
X36162Y-31256D01*
X36143Y-31218D01*
X36124Y-31199D01*
X35895Y-31066D02*
X35895Y-30914D01*
X35762Y-31009D02*
X36105Y-31009D01*
X36143Y-30990D01*
X36162Y-30952D01*
X36162Y-30914D01*
X35895Y-30780D02*
X36295Y-30780D01*
X35914Y-30780D02*
X35895Y-30742D01*
X35895Y-30665D01*
X35914Y-30627D01*
X35933Y-30608D01*
X35971Y-30589D01*
X36086Y-30589D01*
X36124Y-30608D01*
X36143Y-30627D01*
X36162Y-30665D01*
X36162Y-30742D01*
X36143Y-30780D01*
X35895Y-30246D02*
X36162Y-30246D01*
X35895Y-30418D02*
X36105Y-30418D01*
X36143Y-30399D01*
X36162Y-30361D01*
X36162Y-30303D01*
X36143Y-30265D01*
X36124Y-30246D01*
X35895Y-30113D02*
X35895Y-29961D01*
X35762Y-30056D02*
X36105Y-30056D01*
X36143Y-30037D01*
X36162Y-29999D01*
X36162Y-29961D01*
X50514Y-36912D02*
X50514Y-36512D01*
X50667Y-36512D01*
X50705Y-36531D01*
X50724Y-36550D01*
X50743Y-36588D01*
X50743Y-36645D01*
X50724Y-36683D01*
X50705Y-36702D01*
X50667Y-36721D01*
X50514Y-36721D01*
X51124Y-36912D02*
X50895Y-36912D01*
X51009Y-36912D02*
X51009Y-36512D01*
X50971Y-36569D01*
X50933Y-36607D01*
X50895Y-36626D01*
X51257Y-36512D02*
X51505Y-36512D01*
X51371Y-36664D01*
X51429Y-36664D01*
X51467Y-36683D01*
X51486Y-36702D01*
X51505Y-36740D01*
X51505Y-36836D01*
X51486Y-36874D01*
X51467Y-36893D01*
X51429Y-36912D01*
X51314Y-36912D01*
X51276Y-36893D01*
X51257Y-36874D01*
G54D16*
X52331Y-31912D02*
X52331Y-31512D01*
X52807Y-31493D02*
X52464Y-32007D01*
X53016Y-31512D02*
X53093Y-31512D01*
X53131Y-31531D01*
X53169Y-31569D01*
X53188Y-31645D01*
X53188Y-31779D01*
X53169Y-31855D01*
X53131Y-31893D01*
X53093Y-31912D01*
X53016Y-31912D01*
X52978Y-31893D01*
X52940Y-31855D01*
X52921Y-31779D01*
X52921Y-31645D01*
X52940Y-31569D01*
X52978Y-31531D01*
X53016Y-31512D01*
G54D11*
X64505Y-42762D02*
X64505Y-42362D01*
X64658Y-42362D01*
X64696Y-42381D01*
X64715Y-42400D01*
X64734Y-42438D01*
X64734Y-42495D01*
X64715Y-42533D01*
X64696Y-42552D01*
X64658Y-42571D01*
X64505Y-42571D01*
X65077Y-42495D02*
X65077Y-42762D01*
X64981Y-42343D02*
X64886Y-42629D01*
X65134Y-42629D01*
G54D16*
X62831Y-35912D02*
X62831Y-35512D01*
X63307Y-35493D02*
X62964Y-36007D01*
X63516Y-35512D02*
X63593Y-35512D01*
X63631Y-35531D01*
X63669Y-35569D01*
X63688Y-35645D01*
X63688Y-35779D01*
X63669Y-35855D01*
X63631Y-35893D01*
X63593Y-35912D01*
X63516Y-35912D01*
X63478Y-35893D01*
X63440Y-35855D01*
X63421Y-35779D01*
X63421Y-35645D01*
X63440Y-35569D01*
X63478Y-35531D01*
X63516Y-35512D01*
G54D14*
X76743Y-30692D02*
X76143Y-30692D01*
X76143Y-30464D01*
X76171Y-30406D01*
X76200Y-30378D01*
X76257Y-30349D01*
X76343Y-30349D01*
X76400Y-30378D01*
X76429Y-30406D01*
X76457Y-30464D01*
X76457Y-30692D01*
X76743Y-29778D02*
X76743Y-30121D01*
X76743Y-29949D02*
X76143Y-29949D01*
X76229Y-30006D01*
X76286Y-30064D01*
X76314Y-30121D01*
X69993Y-36636D02*
X69393Y-36636D01*
X69393Y-36408D01*
X69421Y-36350D01*
X69450Y-36322D01*
X69507Y-36293D01*
X69593Y-36293D01*
X69650Y-36322D01*
X69679Y-36350D01*
X69707Y-36408D01*
X69707Y-36636D01*
X69393Y-35922D02*
X69393Y-35808D01*
X69421Y-35750D01*
X69479Y-35693D01*
X69593Y-35665D01*
X69793Y-35665D01*
X69907Y-35693D01*
X69964Y-35750D01*
X69993Y-35808D01*
X69993Y-35922D01*
X69964Y-35979D01*
X69907Y-36036D01*
X69793Y-36065D01*
X69593Y-36065D01*
X69479Y-36036D01*
X69421Y-35979D01*
X69393Y-35922D01*
X69393Y-35464D02*
X69993Y-35321D01*
X69564Y-35207D01*
X69993Y-35093D01*
X69393Y-34950D01*
X69679Y-34721D02*
X69679Y-34521D01*
X69993Y-34435D02*
X69993Y-34721D01*
X69393Y-34721D01*
X69393Y-34435D01*
X69993Y-33835D02*
X69707Y-34035D01*
X69993Y-34178D02*
X69393Y-34178D01*
X69393Y-33950D01*
X69421Y-33892D01*
X69450Y-33864D01*
X69507Y-33835D01*
X69593Y-33835D01*
X69650Y-33864D01*
X69679Y-33892D01*
X69707Y-33950D01*
X69707Y-34178D01*
M02*
