M48
;DRILL file {PCBnew (2010-00-09 BZR 23xx)-stable} date Fri 15 Jul 2011 12:40:13 PM PDT
;FORMAT={-.-/ absolute / inch / decimal}
R,T
VER,1
FMAT,2
INCH,TZ
TCST,OFF
ICI,OFF
ATC,ON
T1C0.025
T2C0.036
T3C0.039
T4C0.040
T5C0.042
T6C0.043
T7C0.043
T8C0.048
T9C0.063
T10C0.106
T11C0.107
T12C0.124
T13C0.160
T14C0.220
%
M47
G05
M72
T1
X4.028Y-4.592
X5.620Y-4.570
X5.771Y-5.116
X5.841Y-5.048
X6.027Y-5.219
X6.052Y-4.823
X6.252Y-4.274
X6.320Y-4.770
X6.320Y-4.880
X6.381Y-4.374
X6.464Y-5.132
T2
X5.120Y-5.110
X6.270Y-4.590
X6.560Y-5.150
X6.780Y-4.550
T3
X5.325Y-4.950
X5.325Y-5.050
X5.325Y-5.150
T4
X5.225Y-3.275
X5.225Y-3.375
X5.225Y-3.475
X5.225Y-3.575
X5.250Y-5.375
X5.250Y-5.475
X5.275Y-3.850
X5.275Y-3.950
X5.275Y-4.050
X5.275Y-4.150
X5.325Y-3.275
X5.325Y-3.375
X5.325Y-3.475
X5.325Y-3.575
X5.350Y-5.375
X5.350Y-5.475
X6.275Y-3.675
X6.275Y-3.775
X6.275Y-3.875
X6.275Y-3.975
X6.275Y-4.075
X6.275Y-4.175
X6.375Y-3.675
X6.375Y-3.775
X6.375Y-3.875
X6.375Y-3.975
X6.375Y-4.075
X6.375Y-4.175
T5
X5.500Y-3.225
X5.500Y-3.325
X5.500Y-3.425
X5.500Y-3.525
X5.500Y-3.625
X5.500Y-3.725
X5.500Y-3.825
X5.500Y-3.925
X5.500Y-4.025
X5.500Y-4.125
X5.500Y-4.225
X5.500Y-4.325
X5.500Y-4.425
X5.500Y-4.525
X5.500Y-4.625
X6.100Y-3.225
X6.100Y-3.325
X6.100Y-3.425
X6.100Y-3.525
X6.100Y-3.625
X6.100Y-3.725
X6.100Y-3.825
X6.100Y-3.925
X6.100Y-4.025
X6.100Y-4.125
X6.100Y-4.225
X6.100Y-4.325
X6.100Y-4.425
X6.100Y-4.525
X6.100Y-4.625
T6
X3.375Y-3.025
X3.375Y-3.125
X3.475Y-3.025
X3.475Y-3.125
X4.750Y-3.025
X4.750Y-3.125
X4.850Y-3.025
X4.850Y-3.125
X6.750Y-3.025
X6.750Y-3.125
X6.850Y-3.025
X6.850Y-3.125
X8.125Y-3.025
X8.125Y-3.125
X8.225Y-3.025
X8.225Y-3.125
T7
X3.327Y-5.350
X3.425Y-5.350
X3.523Y-5.350
X4.702Y-5.350
X4.800Y-5.350
X4.898Y-5.350
X6.702Y-5.350
X6.800Y-5.350
X6.898Y-5.350
X8.077Y-5.350
X8.175Y-5.350
X8.273Y-5.350
T8
X3.125Y-4.400
X3.125Y-4.900
X3.225Y-4.400
X3.225Y-4.900
X3.325Y-4.400
X3.325Y-4.900
X3.425Y-4.400
X3.425Y-4.900
X3.525Y-4.400
X3.525Y-4.900
X3.625Y-4.400
X3.625Y-4.900
X3.725Y-4.400
X3.725Y-4.900
X4.500Y-4.400
X4.500Y-4.900
X4.600Y-4.400
X4.600Y-4.900
X4.700Y-4.400
X4.700Y-4.900
X4.800Y-4.400
X4.800Y-4.900
X4.900Y-4.400
X4.900Y-4.900
X5.000Y-4.400
X5.000Y-4.900
X5.100Y-4.400
X5.100Y-4.900
X6.500Y-4.400
X6.500Y-4.900
X6.600Y-4.400
X6.600Y-4.900
X6.700Y-4.400
X6.700Y-4.900
X6.800Y-4.400
X6.800Y-4.900
X6.900Y-4.400
X6.900Y-4.900
X7.000Y-4.400
X7.000Y-4.900
X7.100Y-4.400
X7.100Y-4.900
X7.875Y-4.400
X7.875Y-4.900
X7.975Y-4.400
X7.975Y-4.900
X8.075Y-4.400
X8.075Y-4.900
X8.175Y-4.400
X8.175Y-4.900
X8.275Y-4.400
X8.275Y-4.900
X8.375Y-4.400
X8.375Y-4.900
X8.475Y-4.400
X8.475Y-4.900
T9
X7.300Y-3.093
T10
X7.123Y-3.172
X7.300Y-3.211
X7.477Y-3.172
T11
X3.232Y-5.263
X3.618Y-5.263
X4.607Y-5.263
X4.993Y-5.263
X6.607Y-5.263
X6.993Y-5.263
X7.982Y-5.263
X8.368Y-5.263
T12
X7.300Y-3.447
T13
X4.050Y-3.825
X4.050Y-5.325
X7.550Y-3.825
X7.550Y-5.325
T14
X3.225Y-4.650
X4.600Y-4.650
X6.600Y-4.650
X7.975Y-4.650
T0
M30
