G04 (created by PCBNEW-RS274X (2010-00-09 BZR 23xx)-stable) date Fri 15 Jul 2011 12:40:09 PM PDT*
G01*
G70*
G90*
%MOIN*%
G04 Gerber Fmt 3.4, Leading zero omitted, Abs format*
%FSLAX34Y34*%
G04 APERTURE LIST*
%ADD10C,0.006000*%
%ADD11C,0.009000*%
%ADD12C,0.096000*%
%ADD13C,0.145000*%
%ADD14R,0.089000X0.089000*%
%ADD15C,0.089000*%
%ADD16C,0.090000*%
%ADD17C,0.256000*%
%ADD18C,0.098000*%
%ADD19C,0.280000*%
%ADD20C,0.093000*%
%ADD21R,0.093000X0.093000*%
%ADD22C,0.073000*%
%ADD23R,0.059100X0.019700*%
%ADD24R,0.070000X0.120000*%
%ADD25R,0.120000X0.070000*%
%ADD26C,0.160000*%
%ADD27C,0.180000*%
G04 APERTURE END LIST*
G54D10*
G54D11*
X30500Y-55750D02*
X30500Y-29500D01*
X85500Y-55750D02*
X30500Y-55750D01*
X85500Y-29500D02*
X85500Y-55750D01*
X30500Y-29500D02*
X85500Y-29500D01*
G54D12*
X33266Y-53500D03*
X34250Y-53500D03*
X35234Y-53500D03*
G54D13*
X32320Y-52634D03*
X36180Y-52634D03*
G54D12*
X80766Y-53500D03*
X81750Y-53500D03*
X82734Y-53500D03*
G54D13*
X79820Y-52634D03*
X83680Y-52634D03*
G54D12*
X67016Y-53500D03*
X68000Y-53500D03*
X68984Y-53500D03*
G54D13*
X66070Y-52634D03*
X69930Y-52634D03*
G54D12*
X47016Y-53500D03*
X48000Y-53500D03*
X48984Y-53500D03*
G54D13*
X46070Y-52634D03*
X49930Y-52634D03*
G54D14*
X61000Y-46250D03*
G54D15*
X61000Y-45250D03*
X61000Y-44250D03*
X61000Y-43250D03*
X61000Y-42250D03*
X61000Y-41250D03*
X61000Y-40250D03*
X61000Y-39250D03*
X61000Y-38250D03*
X61000Y-37250D03*
X61000Y-36250D03*
X61000Y-35250D03*
X61000Y-34250D03*
X61000Y-33250D03*
X61000Y-32250D03*
X55000Y-32250D03*
X55000Y-33250D03*
X55000Y-34250D03*
X55000Y-35250D03*
X55000Y-36250D03*
X55000Y-37250D03*
X55000Y-38250D03*
X55000Y-39250D03*
X55000Y-40250D03*
X55000Y-41250D03*
X55000Y-42250D03*
X55000Y-43250D03*
X55000Y-44250D03*
X55000Y-45250D03*
X55000Y-46250D03*
G54D16*
X53250Y-51500D03*
X53250Y-50500D03*
X53250Y-49500D03*
G54D14*
X52500Y-53750D03*
G54D15*
X53500Y-53750D03*
X52500Y-54750D03*
X53500Y-54750D03*
G54D14*
X52750Y-38500D03*
G54D15*
X52750Y-39500D03*
X52750Y-40500D03*
X52750Y-41500D03*
G54D17*
X75500Y-38250D03*
X40500Y-53250D03*
X75500Y-53250D03*
X40500Y-38250D03*
G54D18*
X34250Y-44000D03*
X35250Y-44000D03*
X36250Y-44000D03*
X37250Y-44000D03*
X33250Y-44000D03*
X31250Y-44000D03*
G54D19*
X32250Y-46500D03*
G54D18*
X32250Y-44000D03*
X31250Y-49000D03*
X32250Y-49000D03*
X33250Y-49000D03*
X34250Y-49000D03*
X35250Y-49000D03*
X36250Y-49000D03*
X37250Y-49000D03*
X81750Y-44000D03*
X82750Y-44000D03*
X83750Y-44000D03*
X84750Y-44000D03*
X80750Y-44000D03*
X78750Y-44000D03*
G54D19*
X79750Y-46500D03*
G54D18*
X79750Y-44000D03*
X78750Y-49000D03*
X79750Y-49000D03*
X80750Y-49000D03*
X81750Y-49000D03*
X82750Y-49000D03*
X83750Y-49000D03*
X84750Y-49000D03*
X68000Y-44000D03*
X69000Y-44000D03*
X70000Y-44000D03*
X71000Y-44000D03*
X67000Y-44000D03*
X65000Y-44000D03*
G54D19*
X66000Y-46500D03*
G54D18*
X66000Y-44000D03*
X65000Y-49000D03*
X66000Y-49000D03*
X67000Y-49000D03*
X68000Y-49000D03*
X69000Y-49000D03*
X70000Y-49000D03*
X71000Y-49000D03*
X48000Y-44000D03*
X49000Y-44000D03*
X50000Y-44000D03*
X51000Y-44000D03*
X47000Y-44000D03*
X45000Y-44000D03*
G54D19*
X46000Y-46500D03*
G54D18*
X46000Y-44000D03*
X45000Y-49000D03*
X46000Y-49000D03*
X47000Y-49000D03*
X48000Y-49000D03*
X49000Y-49000D03*
X50000Y-49000D03*
X51000Y-49000D03*
G54D20*
X81250Y-31250D03*
G54D21*
X82250Y-31250D03*
G54D22*
X82250Y-30250D03*
X81250Y-30250D03*
G54D20*
X47500Y-31250D03*
G54D21*
X48500Y-31250D03*
G54D22*
X48500Y-30250D03*
X47500Y-30250D03*
G54D20*
X67500Y-31250D03*
G54D21*
X68500Y-31250D03*
G54D22*
X68500Y-30250D03*
X67500Y-30250D03*
G54D20*
X33750Y-31250D03*
G54D21*
X34750Y-31250D03*
G54D22*
X34750Y-30250D03*
X33750Y-30250D03*
G54D23*
X63160Y-50350D03*
X63160Y-50604D03*
X63160Y-50860D03*
X63160Y-51116D03*
X63160Y-51372D03*
X63160Y-51628D03*
X63160Y-51884D03*
X63160Y-52140D03*
X63160Y-52396D03*
X63160Y-52650D03*
X60840Y-52650D03*
X60840Y-52396D03*
X60840Y-52140D03*
X60840Y-51884D03*
X60840Y-51628D03*
X60840Y-51372D03*
X60840Y-51116D03*
X60840Y-50860D03*
X60840Y-50604D03*
X60840Y-50350D03*
X63160Y-50090D03*
X60840Y-50090D03*
X63160Y-52910D03*
X60840Y-52910D03*
G54D14*
X53250Y-35750D03*
G54D15*
X52250Y-35750D03*
X53250Y-34750D03*
X52250Y-34750D03*
X53250Y-33750D03*
X52250Y-33750D03*
X53250Y-32750D03*
X52250Y-32750D03*
G54D23*
X59160Y-50350D03*
X59160Y-50604D03*
X59160Y-50860D03*
X59160Y-51116D03*
X59160Y-51372D03*
X59160Y-51628D03*
X59160Y-51884D03*
X59160Y-52140D03*
X59160Y-52396D03*
X59160Y-52650D03*
X56840Y-52650D03*
X56840Y-52396D03*
X56840Y-52140D03*
X56840Y-51884D03*
X56840Y-51628D03*
X56840Y-51372D03*
X56840Y-51116D03*
X56840Y-50860D03*
X56840Y-50604D03*
X56840Y-50350D03*
G54D14*
X62750Y-36750D03*
G54D15*
X63750Y-36750D03*
X62750Y-37750D03*
X63750Y-37750D03*
X62750Y-38750D03*
X63750Y-38750D03*
X62750Y-39750D03*
X63750Y-39750D03*
X62750Y-40750D03*
X63750Y-40750D03*
X62750Y-41750D03*
X63750Y-41750D03*
G54D24*
X61400Y-48000D03*
X62600Y-48000D03*
X58600Y-53750D03*
X57400Y-53750D03*
G54D25*
X63250Y-53650D03*
X63250Y-54850D03*
G54D20*
X73000Y-30930D03*
G54D26*
X73000Y-32110D03*
G54D27*
X73000Y-34470D03*
G54D26*
X71230Y-31720D03*
X74770Y-31720D03*
G54D25*
X54750Y-51600D03*
X54750Y-50400D03*
G54D24*
X53850Y-46250D03*
X52650Y-46250D03*
G54D25*
X54750Y-53650D03*
X54750Y-54850D03*
G54D24*
X57400Y-49250D03*
X58600Y-49250D03*
G54D25*
X56000Y-53650D03*
X56000Y-54850D03*
X71000Y-34850D03*
X71000Y-33650D03*
X62000Y-53650D03*
X62000Y-54850D03*
X60750Y-53650D03*
X60750Y-54850D03*
G54D24*
X61400Y-49250D03*
X62600Y-49250D03*
M02*
