G04 (created by PCBNEW-RS274X (2010-03-14)-final) date Mon 23 May 2011 01:34:54 PM PDT*
G01*
G70*
G90*
%MOIN*%
G04 Gerber Fmt 3.4, Leading zero omitted, Abs format*
%FSLAX34Y34*%
G04 APERTURE LIST*
%ADD10C,0.006000*%
%ADD11C,0.009000*%
%ADD12C,0.096000*%
%ADD13C,0.145000*%
%ADD14R,0.233000X0.089000*%
%ADD15C,0.090000*%
%ADD16R,0.070000X0.120000*%
%ADD17R,0.120000X0.070000*%
%ADD18C,0.093000*%
%ADD19R,0.093000X0.093000*%
%ADD20C,0.073000*%
%ADD21R,0.080000X0.080000*%
%ADD22C,0.080000*%
%ADD23R,0.090000X0.046000*%
%ADD24C,0.098000*%
%ADD25C,0.280000*%
%ADD26C,0.180000*%
%ADD27C,0.160000*%
%ADD28C,0.227000*%
G04 APERTURE END LIST*
G54D10*
G54D11*
X25500Y-33500D02*
X25500Y-55500D01*
X85500Y-33500D02*
X25500Y-33500D01*
X85500Y-55500D02*
X85500Y-33500D01*
X25500Y-55500D02*
X85500Y-55500D01*
G54D12*
X42016Y-53500D03*
X43000Y-53500D03*
X43984Y-53500D03*
G54D13*
X41070Y-52634D03*
X44930Y-52634D03*
G54D12*
X72016Y-53500D03*
X73000Y-53500D03*
X73984Y-53500D03*
G54D13*
X71070Y-52634D03*
X74930Y-52634D03*
G54D12*
X62016Y-53500D03*
X63000Y-53500D03*
X63984Y-53500D03*
G54D13*
X61070Y-52634D03*
X64930Y-52634D03*
G54D12*
X52016Y-53500D03*
X53000Y-53500D03*
X53984Y-53500D03*
G54D13*
X51070Y-52634D03*
X54930Y-52634D03*
G54D14*
X30000Y-39100D03*
X30000Y-40100D03*
X30000Y-41100D03*
X30000Y-42100D03*
X30000Y-43100D03*
X30000Y-44100D03*
X30000Y-45100D03*
X30000Y-46100D03*
X30000Y-47100D03*
X30000Y-48100D03*
X30000Y-49100D03*
X30000Y-50100D03*
X30000Y-51100D03*
X30000Y-52100D03*
X30000Y-53100D03*
X36000Y-53100D03*
X36000Y-52100D03*
X36000Y-51100D03*
X36000Y-50100D03*
X36000Y-49100D03*
X36000Y-48100D03*
X36000Y-47100D03*
X36000Y-46100D03*
X36000Y-45100D03*
X36000Y-44100D03*
X36000Y-43100D03*
X36000Y-42100D03*
X36000Y-41100D03*
X36000Y-40100D03*
X36000Y-39100D03*
G54D15*
X81500Y-49500D03*
X80500Y-49500D03*
X79500Y-49500D03*
G54D16*
X79500Y-52000D03*
X80700Y-52000D03*
G54D17*
X31000Y-36100D03*
X31000Y-34900D03*
X38500Y-38900D03*
X38500Y-40100D03*
X41100Y-41100D03*
X41100Y-42300D03*
X41100Y-39900D03*
X41100Y-38700D03*
X51100Y-41100D03*
X51100Y-42300D03*
X51100Y-39900D03*
X51100Y-38700D03*
X61100Y-41100D03*
X61100Y-42300D03*
X61100Y-39900D03*
X61100Y-38700D03*
X71100Y-41100D03*
X71100Y-42300D03*
X71100Y-39900D03*
X71100Y-38700D03*
G54D18*
X42500Y-36100D03*
G54D19*
X43500Y-36100D03*
G54D20*
X43500Y-35100D03*
X42500Y-35100D03*
G54D18*
X52500Y-36100D03*
G54D19*
X53500Y-36100D03*
G54D20*
X53500Y-35100D03*
X52500Y-35100D03*
G54D18*
X62500Y-36100D03*
G54D19*
X63500Y-36100D03*
G54D20*
X63500Y-35100D03*
X62500Y-35100D03*
G54D18*
X72500Y-36100D03*
G54D19*
X73500Y-36100D03*
G54D20*
X73500Y-35100D03*
X72500Y-35100D03*
G54D21*
X35000Y-36000D03*
G54D22*
X34000Y-36000D03*
X35000Y-35000D03*
X34000Y-35000D03*
G54D21*
X27600Y-51200D03*
G54D22*
X26600Y-51200D03*
G54D21*
X27600Y-44000D03*
G54D22*
X26600Y-44000D03*
G54D21*
X27600Y-42000D03*
G54D22*
X26600Y-42000D03*
G54D21*
X27600Y-40000D03*
G54D22*
X26600Y-40000D03*
G54D21*
X27600Y-38000D03*
G54D22*
X26600Y-38000D03*
G54D23*
X46000Y-41250D03*
X46000Y-40750D03*
X46000Y-40250D03*
X46000Y-39750D03*
X43800Y-39750D03*
X43800Y-40250D03*
X43800Y-40750D03*
X43800Y-41250D03*
X56000Y-41250D03*
X56000Y-40750D03*
X56000Y-40250D03*
X56000Y-39750D03*
X53800Y-39750D03*
X53800Y-40250D03*
X53800Y-40750D03*
X53800Y-41250D03*
X66000Y-41250D03*
X66000Y-40750D03*
X66000Y-40250D03*
X66000Y-39750D03*
X63800Y-39750D03*
X63800Y-40250D03*
X63800Y-40750D03*
X63800Y-41250D03*
X76000Y-41250D03*
X76000Y-40750D03*
X76000Y-40250D03*
X76000Y-39750D03*
X73800Y-39750D03*
X73800Y-40250D03*
X73800Y-40750D03*
X73800Y-41250D03*
G54D17*
X32500Y-36100D03*
X32500Y-34900D03*
G54D18*
X80000Y-36100D03*
G54D19*
X81000Y-36100D03*
G54D20*
X81000Y-35100D03*
X80000Y-35100D03*
G54D24*
X43000Y-44000D03*
X44000Y-44000D03*
X45000Y-44000D03*
X46000Y-44000D03*
X42000Y-44000D03*
X40000Y-44000D03*
G54D25*
X41000Y-46500D03*
G54D24*
X73000Y-44000D03*
X74000Y-44000D03*
X75000Y-44000D03*
X76000Y-44000D03*
X72000Y-44000D03*
X70000Y-44000D03*
G54D25*
X71000Y-46500D03*
G54D24*
X63000Y-44000D03*
X64000Y-44000D03*
X65000Y-44000D03*
X66000Y-44000D03*
X62000Y-44000D03*
X60000Y-44000D03*
G54D25*
X61000Y-46500D03*
G54D24*
X53000Y-44000D03*
X54000Y-44000D03*
X55000Y-44000D03*
X56000Y-44000D03*
X52000Y-44000D03*
X50000Y-44000D03*
G54D25*
X51000Y-46500D03*
G54D26*
X84250Y-35750D03*
X55500Y-35750D03*
X26750Y-35750D03*
X26750Y-53250D03*
X84250Y-53250D03*
G54D27*
X78375Y-38775D03*
X82625Y-38775D03*
X82625Y-43025D03*
X78375Y-43025D03*
G54D28*
X80500Y-40900D03*
M02*
