G04 (created by PCBNEW-RS274X (2010-03-14)-final) date Wed 25 May 2011 10:36:55 AM PDT*
G01*
G70*
G90*
%MOIN*%
G04 Gerber Fmt 3.4, Leading zero omitted, Abs format*
%FSLAX34Y34*%
G04 APERTURE LIST*
%ADD10C,0.006000*%
%ADD11C,0.009000*%
%ADD12C,0.015000*%
%ADD13C,0.005000*%
G04 APERTURE END LIST*
G54D10*
G54D11*
X25500Y-33500D02*
X25500Y-55500D01*
X85500Y-33500D02*
X25500Y-33500D01*
X85500Y-55500D02*
X85500Y-33500D01*
X25500Y-55500D02*
X85500Y-55500D01*
G54D12*
X41800Y-40500D02*
X42200Y-40500D01*
X42200Y-40500D02*
X42200Y-41700D01*
X42200Y-41700D02*
X41800Y-41700D01*
X41800Y-41700D02*
X41800Y-40500D01*
X51800Y-40500D02*
X52200Y-40500D01*
X52200Y-40500D02*
X52200Y-41700D01*
X52200Y-41700D02*
X51800Y-41700D01*
X51800Y-41700D02*
X51800Y-40500D01*
X61800Y-40500D02*
X62200Y-40500D01*
X62200Y-40500D02*
X62200Y-41700D01*
X62200Y-41700D02*
X61800Y-41700D01*
X61800Y-41700D02*
X61800Y-40500D01*
X71800Y-40500D02*
X72200Y-40500D01*
X72200Y-40500D02*
X72200Y-41700D01*
X72200Y-41700D02*
X71800Y-41700D01*
X71800Y-41700D02*
X71800Y-40500D01*
G54D13*
X81520Y-48600D02*
X81518Y-48613D01*
X81514Y-48626D01*
X81508Y-48638D01*
X81499Y-48649D01*
X81489Y-48658D01*
X81477Y-48664D01*
X81464Y-48668D01*
X81450Y-48669D01*
X81437Y-48668D01*
X81424Y-48664D01*
X81412Y-48658D01*
X81402Y-48650D01*
X81393Y-48639D01*
X81386Y-48627D01*
X81382Y-48614D01*
X81381Y-48600D01*
X81382Y-48588D01*
X81385Y-48575D01*
X81392Y-48563D01*
X81400Y-48552D01*
X81411Y-48543D01*
X81422Y-48536D01*
X81435Y-48532D01*
X81449Y-48531D01*
X81462Y-48532D01*
X81475Y-48535D01*
X81487Y-48541D01*
X81498Y-48550D01*
X81507Y-48560D01*
X81513Y-48572D01*
X81518Y-48585D01*
X81519Y-48599D01*
X81520Y-48600D01*
X80800Y-47450D02*
X81400Y-47450D01*
X81400Y-47450D02*
X81400Y-48550D01*
X81400Y-48550D02*
X80800Y-48550D01*
X80200Y-48550D02*
X79600Y-48550D01*
X79600Y-48550D02*
X79600Y-47450D01*
X79600Y-47450D02*
X80200Y-47450D01*
X43020Y-40000D02*
X43018Y-40013D01*
X43014Y-40026D01*
X43008Y-40038D01*
X42999Y-40049D01*
X42989Y-40058D01*
X42977Y-40064D01*
X42964Y-40068D01*
X42950Y-40069D01*
X42937Y-40068D01*
X42924Y-40064D01*
X42912Y-40058D01*
X42902Y-40050D01*
X42893Y-40039D01*
X42886Y-40027D01*
X42882Y-40014D01*
X42881Y-40000D01*
X42882Y-39988D01*
X42885Y-39975D01*
X42892Y-39963D01*
X42900Y-39952D01*
X42911Y-39943D01*
X42922Y-39936D01*
X42935Y-39932D01*
X42949Y-39931D01*
X42962Y-39932D01*
X42975Y-39935D01*
X42987Y-39941D01*
X42998Y-39950D01*
X43007Y-39960D01*
X43013Y-39972D01*
X43018Y-39985D01*
X43019Y-39999D01*
X43020Y-40000D01*
X42300Y-38850D02*
X42900Y-38850D01*
X42900Y-38850D02*
X42900Y-39950D01*
X42900Y-39950D02*
X42300Y-39950D01*
X41700Y-39950D02*
X41100Y-39950D01*
X41100Y-39950D02*
X41100Y-38850D01*
X41100Y-38850D02*
X41700Y-38850D01*
X43620Y-45400D02*
X43618Y-45413D01*
X43614Y-45426D01*
X43608Y-45438D01*
X43599Y-45449D01*
X43589Y-45458D01*
X43577Y-45464D01*
X43564Y-45468D01*
X43550Y-45469D01*
X43537Y-45468D01*
X43524Y-45464D01*
X43512Y-45458D01*
X43502Y-45450D01*
X43493Y-45439D01*
X43486Y-45427D01*
X43482Y-45414D01*
X43481Y-45400D01*
X43482Y-45388D01*
X43485Y-45375D01*
X43492Y-45363D01*
X43500Y-45352D01*
X43511Y-45343D01*
X43522Y-45336D01*
X43535Y-45332D01*
X43549Y-45331D01*
X43562Y-45332D01*
X43575Y-45335D01*
X43587Y-45341D01*
X43598Y-45350D01*
X43607Y-45360D01*
X43613Y-45372D01*
X43618Y-45385D01*
X43619Y-45399D01*
X43620Y-45400D01*
X44200Y-46550D02*
X43600Y-46550D01*
X43600Y-46550D02*
X43600Y-45450D01*
X43600Y-45450D02*
X44200Y-45450D01*
X44800Y-45450D02*
X45400Y-45450D01*
X45400Y-45450D02*
X45400Y-46550D01*
X45400Y-46550D02*
X44800Y-46550D01*
X53020Y-40000D02*
X53018Y-40013D01*
X53014Y-40026D01*
X53008Y-40038D01*
X52999Y-40049D01*
X52989Y-40058D01*
X52977Y-40064D01*
X52964Y-40068D01*
X52950Y-40069D01*
X52937Y-40068D01*
X52924Y-40064D01*
X52912Y-40058D01*
X52902Y-40050D01*
X52893Y-40039D01*
X52886Y-40027D01*
X52882Y-40014D01*
X52881Y-40000D01*
X52882Y-39988D01*
X52885Y-39975D01*
X52892Y-39963D01*
X52900Y-39952D01*
X52911Y-39943D01*
X52922Y-39936D01*
X52935Y-39932D01*
X52949Y-39931D01*
X52962Y-39932D01*
X52975Y-39935D01*
X52987Y-39941D01*
X52998Y-39950D01*
X53007Y-39960D01*
X53013Y-39972D01*
X53018Y-39985D01*
X53019Y-39999D01*
X53020Y-40000D01*
X52300Y-38850D02*
X52900Y-38850D01*
X52900Y-38850D02*
X52900Y-39950D01*
X52900Y-39950D02*
X52300Y-39950D01*
X51700Y-39950D02*
X51100Y-39950D01*
X51100Y-39950D02*
X51100Y-38850D01*
X51100Y-38850D02*
X51700Y-38850D01*
X53620Y-45400D02*
X53618Y-45413D01*
X53614Y-45426D01*
X53608Y-45438D01*
X53599Y-45449D01*
X53589Y-45458D01*
X53577Y-45464D01*
X53564Y-45468D01*
X53550Y-45469D01*
X53537Y-45468D01*
X53524Y-45464D01*
X53512Y-45458D01*
X53502Y-45450D01*
X53493Y-45439D01*
X53486Y-45427D01*
X53482Y-45414D01*
X53481Y-45400D01*
X53482Y-45388D01*
X53485Y-45375D01*
X53492Y-45363D01*
X53500Y-45352D01*
X53511Y-45343D01*
X53522Y-45336D01*
X53535Y-45332D01*
X53549Y-45331D01*
X53562Y-45332D01*
X53575Y-45335D01*
X53587Y-45341D01*
X53598Y-45350D01*
X53607Y-45360D01*
X53613Y-45372D01*
X53618Y-45385D01*
X53619Y-45399D01*
X53620Y-45400D01*
X54200Y-46550D02*
X53600Y-46550D01*
X53600Y-46550D02*
X53600Y-45450D01*
X53600Y-45450D02*
X54200Y-45450D01*
X54800Y-45450D02*
X55400Y-45450D01*
X55400Y-45450D02*
X55400Y-46550D01*
X55400Y-46550D02*
X54800Y-46550D01*
X63020Y-40000D02*
X63018Y-40013D01*
X63014Y-40026D01*
X63008Y-40038D01*
X62999Y-40049D01*
X62989Y-40058D01*
X62977Y-40064D01*
X62964Y-40068D01*
X62950Y-40069D01*
X62937Y-40068D01*
X62924Y-40064D01*
X62912Y-40058D01*
X62902Y-40050D01*
X62893Y-40039D01*
X62886Y-40027D01*
X62882Y-40014D01*
X62881Y-40000D01*
X62882Y-39988D01*
X62885Y-39975D01*
X62892Y-39963D01*
X62900Y-39952D01*
X62911Y-39943D01*
X62922Y-39936D01*
X62935Y-39932D01*
X62949Y-39931D01*
X62962Y-39932D01*
X62975Y-39935D01*
X62987Y-39941D01*
X62998Y-39950D01*
X63007Y-39960D01*
X63013Y-39972D01*
X63018Y-39985D01*
X63019Y-39999D01*
X63020Y-40000D01*
X62300Y-38850D02*
X62900Y-38850D01*
X62900Y-38850D02*
X62900Y-39950D01*
X62900Y-39950D02*
X62300Y-39950D01*
X61700Y-39950D02*
X61100Y-39950D01*
X61100Y-39950D02*
X61100Y-38850D01*
X61100Y-38850D02*
X61700Y-38850D01*
X63620Y-45400D02*
X63618Y-45413D01*
X63614Y-45426D01*
X63608Y-45438D01*
X63599Y-45449D01*
X63589Y-45458D01*
X63577Y-45464D01*
X63564Y-45468D01*
X63550Y-45469D01*
X63537Y-45468D01*
X63524Y-45464D01*
X63512Y-45458D01*
X63502Y-45450D01*
X63493Y-45439D01*
X63486Y-45427D01*
X63482Y-45414D01*
X63481Y-45400D01*
X63482Y-45388D01*
X63485Y-45375D01*
X63492Y-45363D01*
X63500Y-45352D01*
X63511Y-45343D01*
X63522Y-45336D01*
X63535Y-45332D01*
X63549Y-45331D01*
X63562Y-45332D01*
X63575Y-45335D01*
X63587Y-45341D01*
X63598Y-45350D01*
X63607Y-45360D01*
X63613Y-45372D01*
X63618Y-45385D01*
X63619Y-45399D01*
X63620Y-45400D01*
X64200Y-46550D02*
X63600Y-46550D01*
X63600Y-46550D02*
X63600Y-45450D01*
X63600Y-45450D02*
X64200Y-45450D01*
X64800Y-45450D02*
X65400Y-45450D01*
X65400Y-45450D02*
X65400Y-46550D01*
X65400Y-46550D02*
X64800Y-46550D01*
X73020Y-40000D02*
X73018Y-40013D01*
X73014Y-40026D01*
X73008Y-40038D01*
X72999Y-40049D01*
X72989Y-40058D01*
X72977Y-40064D01*
X72964Y-40068D01*
X72950Y-40069D01*
X72937Y-40068D01*
X72924Y-40064D01*
X72912Y-40058D01*
X72902Y-40050D01*
X72893Y-40039D01*
X72886Y-40027D01*
X72882Y-40014D01*
X72881Y-40000D01*
X72882Y-39988D01*
X72885Y-39975D01*
X72892Y-39963D01*
X72900Y-39952D01*
X72911Y-39943D01*
X72922Y-39936D01*
X72935Y-39932D01*
X72949Y-39931D01*
X72962Y-39932D01*
X72975Y-39935D01*
X72987Y-39941D01*
X72998Y-39950D01*
X73007Y-39960D01*
X73013Y-39972D01*
X73018Y-39985D01*
X73019Y-39999D01*
X73020Y-40000D01*
X72300Y-38850D02*
X72900Y-38850D01*
X72900Y-38850D02*
X72900Y-39950D01*
X72900Y-39950D02*
X72300Y-39950D01*
X71700Y-39950D02*
X71100Y-39950D01*
X71100Y-39950D02*
X71100Y-38850D01*
X71100Y-38850D02*
X71700Y-38850D01*
X73620Y-45400D02*
X73618Y-45413D01*
X73614Y-45426D01*
X73608Y-45438D01*
X73599Y-45449D01*
X73589Y-45458D01*
X73577Y-45464D01*
X73564Y-45468D01*
X73550Y-45469D01*
X73537Y-45468D01*
X73524Y-45464D01*
X73512Y-45458D01*
X73502Y-45450D01*
X73493Y-45439D01*
X73486Y-45427D01*
X73482Y-45414D01*
X73481Y-45400D01*
X73482Y-45388D01*
X73485Y-45375D01*
X73492Y-45363D01*
X73500Y-45352D01*
X73511Y-45343D01*
X73522Y-45336D01*
X73535Y-45332D01*
X73549Y-45331D01*
X73562Y-45332D01*
X73575Y-45335D01*
X73587Y-45341D01*
X73598Y-45350D01*
X73607Y-45360D01*
X73613Y-45372D01*
X73618Y-45385D01*
X73619Y-45399D01*
X73620Y-45400D01*
X74200Y-46550D02*
X73600Y-46550D01*
X73600Y-46550D02*
X73600Y-45450D01*
X73600Y-45450D02*
X74200Y-45450D01*
X74800Y-45450D02*
X75400Y-45450D01*
X75400Y-45450D02*
X75400Y-46550D01*
X75400Y-46550D02*
X74800Y-46550D01*
X43620Y-47900D02*
X43618Y-47913D01*
X43614Y-47926D01*
X43608Y-47938D01*
X43599Y-47949D01*
X43589Y-47958D01*
X43577Y-47964D01*
X43564Y-47968D01*
X43550Y-47969D01*
X43537Y-47968D01*
X43524Y-47964D01*
X43512Y-47958D01*
X43502Y-47950D01*
X43493Y-47939D01*
X43486Y-47927D01*
X43482Y-47914D01*
X43481Y-47900D01*
X43482Y-47888D01*
X43485Y-47875D01*
X43492Y-47863D01*
X43500Y-47852D01*
X43511Y-47843D01*
X43522Y-47836D01*
X43535Y-47832D01*
X43549Y-47831D01*
X43562Y-47832D01*
X43575Y-47835D01*
X43587Y-47841D01*
X43598Y-47850D01*
X43607Y-47860D01*
X43613Y-47872D01*
X43618Y-47885D01*
X43619Y-47899D01*
X43620Y-47900D01*
X44200Y-49050D02*
X43600Y-49050D01*
X43600Y-49050D02*
X43600Y-47950D01*
X43600Y-47950D02*
X44200Y-47950D01*
X44800Y-47950D02*
X45400Y-47950D01*
X45400Y-47950D02*
X45400Y-49050D01*
X45400Y-49050D02*
X44800Y-49050D01*
X41120Y-42100D02*
X41118Y-42113D01*
X41114Y-42126D01*
X41108Y-42138D01*
X41099Y-42149D01*
X41089Y-42158D01*
X41077Y-42164D01*
X41064Y-42168D01*
X41050Y-42169D01*
X41037Y-42168D01*
X41024Y-42164D01*
X41012Y-42158D01*
X41002Y-42150D01*
X40993Y-42139D01*
X40986Y-42127D01*
X40982Y-42114D01*
X40981Y-42100D01*
X40982Y-42088D01*
X40985Y-42075D01*
X40992Y-42063D01*
X41000Y-42052D01*
X41011Y-42043D01*
X41022Y-42036D01*
X41035Y-42032D01*
X41049Y-42031D01*
X41062Y-42032D01*
X41075Y-42035D01*
X41087Y-42041D01*
X41098Y-42050D01*
X41107Y-42060D01*
X41113Y-42072D01*
X41118Y-42085D01*
X41119Y-42099D01*
X41120Y-42100D01*
X41700Y-43250D02*
X41100Y-43250D01*
X41100Y-43250D02*
X41100Y-42150D01*
X41100Y-42150D02*
X41700Y-42150D01*
X42300Y-42150D02*
X42900Y-42150D01*
X42900Y-42150D02*
X42900Y-43250D01*
X42900Y-43250D02*
X42300Y-43250D01*
X43470Y-42050D02*
X43468Y-42063D01*
X43464Y-42076D01*
X43458Y-42088D01*
X43449Y-42099D01*
X43439Y-42108D01*
X43427Y-42114D01*
X43414Y-42118D01*
X43400Y-42119D01*
X43387Y-42118D01*
X43374Y-42114D01*
X43362Y-42108D01*
X43352Y-42100D01*
X43343Y-42089D01*
X43336Y-42077D01*
X43332Y-42064D01*
X43331Y-42050D01*
X43332Y-42038D01*
X43335Y-42025D01*
X43342Y-42013D01*
X43350Y-42002D01*
X43361Y-41993D01*
X43372Y-41986D01*
X43385Y-41982D01*
X43399Y-41981D01*
X43412Y-41982D01*
X43425Y-41985D01*
X43437Y-41991D01*
X43448Y-42000D01*
X43457Y-42010D01*
X43463Y-42022D01*
X43468Y-42035D01*
X43469Y-42049D01*
X43470Y-42050D01*
X44550Y-41400D02*
X44550Y-42000D01*
X44550Y-42000D02*
X43450Y-42000D01*
X43450Y-42000D02*
X43450Y-41400D01*
X43450Y-40800D02*
X43450Y-40200D01*
X43450Y-40200D02*
X44550Y-40200D01*
X44550Y-40200D02*
X44550Y-40800D01*
X53620Y-47900D02*
X53618Y-47913D01*
X53614Y-47926D01*
X53608Y-47938D01*
X53599Y-47949D01*
X53589Y-47958D01*
X53577Y-47964D01*
X53564Y-47968D01*
X53550Y-47969D01*
X53537Y-47968D01*
X53524Y-47964D01*
X53512Y-47958D01*
X53502Y-47950D01*
X53493Y-47939D01*
X53486Y-47927D01*
X53482Y-47914D01*
X53481Y-47900D01*
X53482Y-47888D01*
X53485Y-47875D01*
X53492Y-47863D01*
X53500Y-47852D01*
X53511Y-47843D01*
X53522Y-47836D01*
X53535Y-47832D01*
X53549Y-47831D01*
X53562Y-47832D01*
X53575Y-47835D01*
X53587Y-47841D01*
X53598Y-47850D01*
X53607Y-47860D01*
X53613Y-47872D01*
X53618Y-47885D01*
X53619Y-47899D01*
X53620Y-47900D01*
X54200Y-49050D02*
X53600Y-49050D01*
X53600Y-49050D02*
X53600Y-47950D01*
X53600Y-47950D02*
X54200Y-47950D01*
X54800Y-47950D02*
X55400Y-47950D01*
X55400Y-47950D02*
X55400Y-49050D01*
X55400Y-49050D02*
X54800Y-49050D01*
X51120Y-42100D02*
X51118Y-42113D01*
X51114Y-42126D01*
X51108Y-42138D01*
X51099Y-42149D01*
X51089Y-42158D01*
X51077Y-42164D01*
X51064Y-42168D01*
X51050Y-42169D01*
X51037Y-42168D01*
X51024Y-42164D01*
X51012Y-42158D01*
X51002Y-42150D01*
X50993Y-42139D01*
X50986Y-42127D01*
X50982Y-42114D01*
X50981Y-42100D01*
X50982Y-42088D01*
X50985Y-42075D01*
X50992Y-42063D01*
X51000Y-42052D01*
X51011Y-42043D01*
X51022Y-42036D01*
X51035Y-42032D01*
X51049Y-42031D01*
X51062Y-42032D01*
X51075Y-42035D01*
X51087Y-42041D01*
X51098Y-42050D01*
X51107Y-42060D01*
X51113Y-42072D01*
X51118Y-42085D01*
X51119Y-42099D01*
X51120Y-42100D01*
X51700Y-43250D02*
X51100Y-43250D01*
X51100Y-43250D02*
X51100Y-42150D01*
X51100Y-42150D02*
X51700Y-42150D01*
X52300Y-42150D02*
X52900Y-42150D01*
X52900Y-42150D02*
X52900Y-43250D01*
X52900Y-43250D02*
X52300Y-43250D01*
X53470Y-42050D02*
X53468Y-42063D01*
X53464Y-42076D01*
X53458Y-42088D01*
X53449Y-42099D01*
X53439Y-42108D01*
X53427Y-42114D01*
X53414Y-42118D01*
X53400Y-42119D01*
X53387Y-42118D01*
X53374Y-42114D01*
X53362Y-42108D01*
X53352Y-42100D01*
X53343Y-42089D01*
X53336Y-42077D01*
X53332Y-42064D01*
X53331Y-42050D01*
X53332Y-42038D01*
X53335Y-42025D01*
X53342Y-42013D01*
X53350Y-42002D01*
X53361Y-41993D01*
X53372Y-41986D01*
X53385Y-41982D01*
X53399Y-41981D01*
X53412Y-41982D01*
X53425Y-41985D01*
X53437Y-41991D01*
X53448Y-42000D01*
X53457Y-42010D01*
X53463Y-42022D01*
X53468Y-42035D01*
X53469Y-42049D01*
X53470Y-42050D01*
X54550Y-41400D02*
X54550Y-42000D01*
X54550Y-42000D02*
X53450Y-42000D01*
X53450Y-42000D02*
X53450Y-41400D01*
X53450Y-40800D02*
X53450Y-40200D01*
X53450Y-40200D02*
X54550Y-40200D01*
X54550Y-40200D02*
X54550Y-40800D01*
X63620Y-47900D02*
X63618Y-47913D01*
X63614Y-47926D01*
X63608Y-47938D01*
X63599Y-47949D01*
X63589Y-47958D01*
X63577Y-47964D01*
X63564Y-47968D01*
X63550Y-47969D01*
X63537Y-47968D01*
X63524Y-47964D01*
X63512Y-47958D01*
X63502Y-47950D01*
X63493Y-47939D01*
X63486Y-47927D01*
X63482Y-47914D01*
X63481Y-47900D01*
X63482Y-47888D01*
X63485Y-47875D01*
X63492Y-47863D01*
X63500Y-47852D01*
X63511Y-47843D01*
X63522Y-47836D01*
X63535Y-47832D01*
X63549Y-47831D01*
X63562Y-47832D01*
X63575Y-47835D01*
X63587Y-47841D01*
X63598Y-47850D01*
X63607Y-47860D01*
X63613Y-47872D01*
X63618Y-47885D01*
X63619Y-47899D01*
X63620Y-47900D01*
X64200Y-49050D02*
X63600Y-49050D01*
X63600Y-49050D02*
X63600Y-47950D01*
X63600Y-47950D02*
X64200Y-47950D01*
X64800Y-47950D02*
X65400Y-47950D01*
X65400Y-47950D02*
X65400Y-49050D01*
X65400Y-49050D02*
X64800Y-49050D01*
X61120Y-42100D02*
X61118Y-42113D01*
X61114Y-42126D01*
X61108Y-42138D01*
X61099Y-42149D01*
X61089Y-42158D01*
X61077Y-42164D01*
X61064Y-42168D01*
X61050Y-42169D01*
X61037Y-42168D01*
X61024Y-42164D01*
X61012Y-42158D01*
X61002Y-42150D01*
X60993Y-42139D01*
X60986Y-42127D01*
X60982Y-42114D01*
X60981Y-42100D01*
X60982Y-42088D01*
X60985Y-42075D01*
X60992Y-42063D01*
X61000Y-42052D01*
X61011Y-42043D01*
X61022Y-42036D01*
X61035Y-42032D01*
X61049Y-42031D01*
X61062Y-42032D01*
X61075Y-42035D01*
X61087Y-42041D01*
X61098Y-42050D01*
X61107Y-42060D01*
X61113Y-42072D01*
X61118Y-42085D01*
X61119Y-42099D01*
X61120Y-42100D01*
X61700Y-43250D02*
X61100Y-43250D01*
X61100Y-43250D02*
X61100Y-42150D01*
X61100Y-42150D02*
X61700Y-42150D01*
X62300Y-42150D02*
X62900Y-42150D01*
X62900Y-42150D02*
X62900Y-43250D01*
X62900Y-43250D02*
X62300Y-43250D01*
X63470Y-42050D02*
X63468Y-42063D01*
X63464Y-42076D01*
X63458Y-42088D01*
X63449Y-42099D01*
X63439Y-42108D01*
X63427Y-42114D01*
X63414Y-42118D01*
X63400Y-42119D01*
X63387Y-42118D01*
X63374Y-42114D01*
X63362Y-42108D01*
X63352Y-42100D01*
X63343Y-42089D01*
X63336Y-42077D01*
X63332Y-42064D01*
X63331Y-42050D01*
X63332Y-42038D01*
X63335Y-42025D01*
X63342Y-42013D01*
X63350Y-42002D01*
X63361Y-41993D01*
X63372Y-41986D01*
X63385Y-41982D01*
X63399Y-41981D01*
X63412Y-41982D01*
X63425Y-41985D01*
X63437Y-41991D01*
X63448Y-42000D01*
X63457Y-42010D01*
X63463Y-42022D01*
X63468Y-42035D01*
X63469Y-42049D01*
X63470Y-42050D01*
X64550Y-41400D02*
X64550Y-42000D01*
X64550Y-42000D02*
X63450Y-42000D01*
X63450Y-42000D02*
X63450Y-41400D01*
X63450Y-40800D02*
X63450Y-40200D01*
X63450Y-40200D02*
X64550Y-40200D01*
X64550Y-40200D02*
X64550Y-40800D01*
X73620Y-47900D02*
X73618Y-47913D01*
X73614Y-47926D01*
X73608Y-47938D01*
X73599Y-47949D01*
X73589Y-47958D01*
X73577Y-47964D01*
X73564Y-47968D01*
X73550Y-47969D01*
X73537Y-47968D01*
X73524Y-47964D01*
X73512Y-47958D01*
X73502Y-47950D01*
X73493Y-47939D01*
X73486Y-47927D01*
X73482Y-47914D01*
X73481Y-47900D01*
X73482Y-47888D01*
X73485Y-47875D01*
X73492Y-47863D01*
X73500Y-47852D01*
X73511Y-47843D01*
X73522Y-47836D01*
X73535Y-47832D01*
X73549Y-47831D01*
X73562Y-47832D01*
X73575Y-47835D01*
X73587Y-47841D01*
X73598Y-47850D01*
X73607Y-47860D01*
X73613Y-47872D01*
X73618Y-47885D01*
X73619Y-47899D01*
X73620Y-47900D01*
X74200Y-49050D02*
X73600Y-49050D01*
X73600Y-49050D02*
X73600Y-47950D01*
X73600Y-47950D02*
X74200Y-47950D01*
X74800Y-47950D02*
X75400Y-47950D01*
X75400Y-47950D02*
X75400Y-49050D01*
X75400Y-49050D02*
X74800Y-49050D01*
X71120Y-42100D02*
X71118Y-42113D01*
X71114Y-42126D01*
X71108Y-42138D01*
X71099Y-42149D01*
X71089Y-42158D01*
X71077Y-42164D01*
X71064Y-42168D01*
X71050Y-42169D01*
X71037Y-42168D01*
X71024Y-42164D01*
X71012Y-42158D01*
X71002Y-42150D01*
X70993Y-42139D01*
X70986Y-42127D01*
X70982Y-42114D01*
X70981Y-42100D01*
X70982Y-42088D01*
X70985Y-42075D01*
X70992Y-42063D01*
X71000Y-42052D01*
X71011Y-42043D01*
X71022Y-42036D01*
X71035Y-42032D01*
X71049Y-42031D01*
X71062Y-42032D01*
X71075Y-42035D01*
X71087Y-42041D01*
X71098Y-42050D01*
X71107Y-42060D01*
X71113Y-42072D01*
X71118Y-42085D01*
X71119Y-42099D01*
X71120Y-42100D01*
X71700Y-43250D02*
X71100Y-43250D01*
X71100Y-43250D02*
X71100Y-42150D01*
X71100Y-42150D02*
X71700Y-42150D01*
X72300Y-42150D02*
X72900Y-42150D01*
X72900Y-42150D02*
X72900Y-43250D01*
X72900Y-43250D02*
X72300Y-43250D01*
X73470Y-42050D02*
X73468Y-42063D01*
X73464Y-42076D01*
X73458Y-42088D01*
X73449Y-42099D01*
X73439Y-42108D01*
X73427Y-42114D01*
X73414Y-42118D01*
X73400Y-42119D01*
X73387Y-42118D01*
X73374Y-42114D01*
X73362Y-42108D01*
X73352Y-42100D01*
X73343Y-42089D01*
X73336Y-42077D01*
X73332Y-42064D01*
X73331Y-42050D01*
X73332Y-42038D01*
X73335Y-42025D01*
X73342Y-42013D01*
X73350Y-42002D01*
X73361Y-41993D01*
X73372Y-41986D01*
X73385Y-41982D01*
X73399Y-41981D01*
X73412Y-41982D01*
X73425Y-41985D01*
X73437Y-41991D01*
X73448Y-42000D01*
X73457Y-42010D01*
X73463Y-42022D01*
X73468Y-42035D01*
X73469Y-42049D01*
X73470Y-42050D01*
X74550Y-41400D02*
X74550Y-42000D01*
X74550Y-42000D02*
X73450Y-42000D01*
X73450Y-42000D02*
X73450Y-41400D01*
X73450Y-40800D02*
X73450Y-40200D01*
X73450Y-40200D02*
X74550Y-40200D01*
X74550Y-40200D02*
X74550Y-40800D01*
X81520Y-46600D02*
X81518Y-46613D01*
X81514Y-46626D01*
X81508Y-46638D01*
X81499Y-46649D01*
X81489Y-46658D01*
X81477Y-46664D01*
X81464Y-46668D01*
X81450Y-46669D01*
X81437Y-46668D01*
X81424Y-46664D01*
X81412Y-46658D01*
X81402Y-46650D01*
X81393Y-46639D01*
X81386Y-46627D01*
X81382Y-46614D01*
X81381Y-46600D01*
X81382Y-46588D01*
X81385Y-46575D01*
X81392Y-46563D01*
X81400Y-46552D01*
X81411Y-46543D01*
X81422Y-46536D01*
X81435Y-46532D01*
X81449Y-46531D01*
X81462Y-46532D01*
X81475Y-46535D01*
X81487Y-46541D01*
X81498Y-46550D01*
X81507Y-46560D01*
X81513Y-46572D01*
X81518Y-46585D01*
X81519Y-46599D01*
X81520Y-46600D01*
X80800Y-45450D02*
X81400Y-45450D01*
X81400Y-45450D02*
X81400Y-46550D01*
X81400Y-46550D02*
X80800Y-46550D01*
X80200Y-46550D02*
X79600Y-46550D01*
X79600Y-46550D02*
X79600Y-45450D01*
X79600Y-45450D02*
X80200Y-45450D01*
X40921Y-40871D02*
X41164Y-40871D01*
X41193Y-40886D01*
X41207Y-40900D01*
X41221Y-40929D01*
X41221Y-40986D01*
X41207Y-41014D01*
X41193Y-41029D01*
X41164Y-41043D01*
X40921Y-41043D01*
X40921Y-41157D02*
X40921Y-41343D01*
X41036Y-41243D01*
X41036Y-41285D01*
X41050Y-41314D01*
X41064Y-41328D01*
X41093Y-41343D01*
X41164Y-41343D01*
X41193Y-41328D01*
X41207Y-41314D01*
X41221Y-41285D01*
X41221Y-41200D01*
X41207Y-41171D01*
X41193Y-41157D01*
X43121Y-40592D02*
X43121Y-40449D01*
X42821Y-40449D01*
X43121Y-40692D02*
X42821Y-40692D01*
X43036Y-40792D01*
X42821Y-40892D01*
X43121Y-40892D01*
X42821Y-41007D02*
X42821Y-41193D01*
X42936Y-41093D01*
X42936Y-41135D01*
X42950Y-41164D01*
X42964Y-41178D01*
X42993Y-41193D01*
X43064Y-41193D01*
X43093Y-41178D01*
X43107Y-41164D01*
X43121Y-41135D01*
X43121Y-41050D01*
X43107Y-41021D01*
X43093Y-41007D01*
X42850Y-41307D02*
X42836Y-41321D01*
X42821Y-41350D01*
X42821Y-41421D01*
X42836Y-41450D01*
X42850Y-41464D01*
X42879Y-41479D01*
X42907Y-41479D01*
X42950Y-41464D01*
X43121Y-41293D01*
X43121Y-41479D01*
X43121Y-41765D02*
X43121Y-41593D01*
X43121Y-41679D02*
X42821Y-41679D01*
X42864Y-41650D01*
X42893Y-41622D01*
X42907Y-41593D01*
X50921Y-40871D02*
X51164Y-40871D01*
X51193Y-40886D01*
X51207Y-40900D01*
X51221Y-40929D01*
X51221Y-40986D01*
X51207Y-41014D01*
X51193Y-41029D01*
X51164Y-41043D01*
X50921Y-41043D01*
X51021Y-41314D02*
X51221Y-41314D01*
X50907Y-41243D02*
X51121Y-41171D01*
X51121Y-41357D01*
X53121Y-40592D02*
X53121Y-40449D01*
X52821Y-40449D01*
X53121Y-40692D02*
X52821Y-40692D01*
X53036Y-40792D01*
X52821Y-40892D01*
X53121Y-40892D01*
X52821Y-41007D02*
X52821Y-41193D01*
X52936Y-41093D01*
X52936Y-41135D01*
X52950Y-41164D01*
X52964Y-41178D01*
X52993Y-41193D01*
X53064Y-41193D01*
X53093Y-41178D01*
X53107Y-41164D01*
X53121Y-41135D01*
X53121Y-41050D01*
X53107Y-41021D01*
X53093Y-41007D01*
X52850Y-41307D02*
X52836Y-41321D01*
X52821Y-41350D01*
X52821Y-41421D01*
X52836Y-41450D01*
X52850Y-41464D01*
X52879Y-41479D01*
X52907Y-41479D01*
X52950Y-41464D01*
X53121Y-41293D01*
X53121Y-41479D01*
X53121Y-41765D02*
X53121Y-41593D01*
X53121Y-41679D02*
X52821Y-41679D01*
X52864Y-41650D01*
X52893Y-41622D01*
X52907Y-41593D01*
X60921Y-40871D02*
X61164Y-40871D01*
X61193Y-40886D01*
X61207Y-40900D01*
X61221Y-40929D01*
X61221Y-40986D01*
X61207Y-41014D01*
X61193Y-41029D01*
X61164Y-41043D01*
X60921Y-41043D01*
X60921Y-41328D02*
X60921Y-41185D01*
X61064Y-41171D01*
X61050Y-41185D01*
X61036Y-41214D01*
X61036Y-41285D01*
X61050Y-41314D01*
X61064Y-41328D01*
X61093Y-41343D01*
X61164Y-41343D01*
X61193Y-41328D01*
X61207Y-41314D01*
X61221Y-41285D01*
X61221Y-41214D01*
X61207Y-41185D01*
X61193Y-41171D01*
X63121Y-40592D02*
X63121Y-40449D01*
X62821Y-40449D01*
X63121Y-40692D02*
X62821Y-40692D01*
X63036Y-40792D01*
X62821Y-40892D01*
X63121Y-40892D01*
X62821Y-41007D02*
X62821Y-41193D01*
X62936Y-41093D01*
X62936Y-41135D01*
X62950Y-41164D01*
X62964Y-41178D01*
X62993Y-41193D01*
X63064Y-41193D01*
X63093Y-41178D01*
X63107Y-41164D01*
X63121Y-41135D01*
X63121Y-41050D01*
X63107Y-41021D01*
X63093Y-41007D01*
X62850Y-41307D02*
X62836Y-41321D01*
X62821Y-41350D01*
X62821Y-41421D01*
X62836Y-41450D01*
X62850Y-41464D01*
X62879Y-41479D01*
X62907Y-41479D01*
X62950Y-41464D01*
X63121Y-41293D01*
X63121Y-41479D01*
X63121Y-41765D02*
X63121Y-41593D01*
X63121Y-41679D02*
X62821Y-41679D01*
X62864Y-41650D01*
X62893Y-41622D01*
X62907Y-41593D01*
X70921Y-40871D02*
X71164Y-40871D01*
X71193Y-40886D01*
X71207Y-40900D01*
X71221Y-40929D01*
X71221Y-40986D01*
X71207Y-41014D01*
X71193Y-41029D01*
X71164Y-41043D01*
X70921Y-41043D01*
X70921Y-41314D02*
X70921Y-41257D01*
X70936Y-41228D01*
X70950Y-41214D01*
X70993Y-41185D01*
X71050Y-41171D01*
X71164Y-41171D01*
X71193Y-41185D01*
X71207Y-41200D01*
X71221Y-41228D01*
X71221Y-41285D01*
X71207Y-41314D01*
X71193Y-41328D01*
X71164Y-41343D01*
X71093Y-41343D01*
X71064Y-41328D01*
X71050Y-41314D01*
X71036Y-41285D01*
X71036Y-41228D01*
X71050Y-41200D01*
X71064Y-41185D01*
X71093Y-41171D01*
X73121Y-40592D02*
X73121Y-40449D01*
X72821Y-40449D01*
X73121Y-40692D02*
X72821Y-40692D01*
X73036Y-40792D01*
X72821Y-40892D01*
X73121Y-40892D01*
X72821Y-41007D02*
X72821Y-41193D01*
X72936Y-41093D01*
X72936Y-41135D01*
X72950Y-41164D01*
X72964Y-41178D01*
X72993Y-41193D01*
X73064Y-41193D01*
X73093Y-41178D01*
X73107Y-41164D01*
X73121Y-41135D01*
X73121Y-41050D01*
X73107Y-41021D01*
X73093Y-41007D01*
X72850Y-41307D02*
X72836Y-41321D01*
X72821Y-41350D01*
X72821Y-41421D01*
X72836Y-41450D01*
X72850Y-41464D01*
X72879Y-41479D01*
X72907Y-41479D01*
X72950Y-41464D01*
X73121Y-41293D01*
X73121Y-41479D01*
X73121Y-41765D02*
X73121Y-41593D01*
X73121Y-41679D02*
X72821Y-41679D01*
X72864Y-41650D01*
X72893Y-41622D01*
X72907Y-41593D01*
X80550Y-47293D02*
X80564Y-47307D01*
X80607Y-47321D01*
X80636Y-47321D01*
X80679Y-47307D01*
X80707Y-47279D01*
X80722Y-47250D01*
X80736Y-47193D01*
X80736Y-47150D01*
X80722Y-47093D01*
X80707Y-47064D01*
X80679Y-47036D01*
X80636Y-47021D01*
X80607Y-47021D01*
X80564Y-47036D01*
X80550Y-47050D01*
X80436Y-47050D02*
X80422Y-47036D01*
X80393Y-47021D01*
X80322Y-47021D01*
X80293Y-47036D01*
X80279Y-47050D01*
X80264Y-47079D01*
X80264Y-47107D01*
X80279Y-47150D01*
X80450Y-47321D01*
X80264Y-47321D01*
X80821Y-49021D02*
X80993Y-49021D01*
X80907Y-49021D02*
X80907Y-48721D01*
X80936Y-48764D01*
X80964Y-48793D01*
X80993Y-48807D01*
X80635Y-48721D02*
X80607Y-48721D01*
X80578Y-48736D01*
X80564Y-48750D01*
X80550Y-48779D01*
X80535Y-48836D01*
X80535Y-48907D01*
X80550Y-48964D01*
X80564Y-48993D01*
X80578Y-49007D01*
X80607Y-49021D01*
X80635Y-49021D01*
X80664Y-49007D01*
X80678Y-48993D01*
X80693Y-48964D01*
X80707Y-48907D01*
X80707Y-48836D01*
X80693Y-48779D01*
X80678Y-48750D01*
X80664Y-48736D01*
X80635Y-48721D01*
X80278Y-48821D02*
X80278Y-49021D01*
X80407Y-48821D02*
X80407Y-48979D01*
X80392Y-49007D01*
X80364Y-49021D01*
X80321Y-49021D01*
X80292Y-49007D01*
X80278Y-48993D01*
X80036Y-48864D02*
X80136Y-48864D01*
X80136Y-49021D02*
X80136Y-48721D01*
X79993Y-48721D01*
X40893Y-39350D02*
X40907Y-39336D01*
X40921Y-39293D01*
X40921Y-39264D01*
X40907Y-39221D01*
X40879Y-39193D01*
X40850Y-39178D01*
X40793Y-39164D01*
X40750Y-39164D01*
X40693Y-39178D01*
X40664Y-39193D01*
X40636Y-39221D01*
X40621Y-39264D01*
X40621Y-39293D01*
X40636Y-39336D01*
X40650Y-39350D01*
X40750Y-39521D02*
X40736Y-39493D01*
X40721Y-39478D01*
X40693Y-39464D01*
X40679Y-39464D01*
X40650Y-39478D01*
X40636Y-39493D01*
X40621Y-39521D01*
X40621Y-39578D01*
X40636Y-39607D01*
X40650Y-39621D01*
X40679Y-39636D01*
X40693Y-39636D01*
X40721Y-39621D01*
X40736Y-39607D01*
X40750Y-39578D01*
X40750Y-39521D01*
X40764Y-39493D01*
X40779Y-39478D01*
X40807Y-39464D01*
X40864Y-39464D01*
X40893Y-39478D01*
X40907Y-39493D01*
X40921Y-39521D01*
X40921Y-39578D01*
X40907Y-39607D01*
X40893Y-39621D01*
X40864Y-39636D01*
X40807Y-39636D01*
X40779Y-39621D01*
X40764Y-39607D01*
X40750Y-39578D01*
X43121Y-38908D02*
X43121Y-38936D01*
X43136Y-38965D01*
X43150Y-38979D01*
X43179Y-38993D01*
X43236Y-39008D01*
X43307Y-39008D01*
X43364Y-38993D01*
X43393Y-38979D01*
X43407Y-38965D01*
X43421Y-38936D01*
X43421Y-38908D01*
X43407Y-38879D01*
X43393Y-38865D01*
X43364Y-38850D01*
X43307Y-38836D01*
X43236Y-38836D01*
X43179Y-38850D01*
X43150Y-38865D01*
X43136Y-38879D01*
X43121Y-38908D01*
X43393Y-39136D02*
X43407Y-39151D01*
X43421Y-39136D01*
X43407Y-39122D01*
X43393Y-39136D01*
X43421Y-39136D01*
X43421Y-39437D02*
X43421Y-39265D01*
X43421Y-39351D02*
X43121Y-39351D01*
X43164Y-39322D01*
X43193Y-39294D01*
X43207Y-39265D01*
X43221Y-39694D02*
X43421Y-39694D01*
X43221Y-39565D02*
X43379Y-39565D01*
X43407Y-39580D01*
X43421Y-39608D01*
X43421Y-39651D01*
X43407Y-39680D01*
X43393Y-39694D01*
X43264Y-39936D02*
X43264Y-39836D01*
X43421Y-39836D02*
X43121Y-39836D01*
X43121Y-39979D01*
X44550Y-46893D02*
X44564Y-46907D01*
X44607Y-46921D01*
X44636Y-46921D01*
X44679Y-46907D01*
X44707Y-46879D01*
X44722Y-46850D01*
X44736Y-46793D01*
X44736Y-46750D01*
X44722Y-46693D01*
X44707Y-46664D01*
X44679Y-46636D01*
X44636Y-46621D01*
X44607Y-46621D01*
X44564Y-46636D01*
X44550Y-46650D01*
X44407Y-46921D02*
X44350Y-46921D01*
X44322Y-46907D01*
X44307Y-46893D01*
X44279Y-46850D01*
X44264Y-46793D01*
X44264Y-46679D01*
X44279Y-46650D01*
X44293Y-46636D01*
X44322Y-46621D01*
X44379Y-46621D01*
X44407Y-46636D01*
X44422Y-46650D01*
X44436Y-46679D01*
X44436Y-46750D01*
X44422Y-46779D01*
X44407Y-46793D01*
X44379Y-46807D01*
X44322Y-46807D01*
X44293Y-46793D01*
X44279Y-46779D01*
X44264Y-46750D01*
X44678Y-45221D02*
X44850Y-45221D01*
X44764Y-45221D02*
X44764Y-44921D01*
X44793Y-44964D01*
X44821Y-44993D01*
X44850Y-45007D01*
X44421Y-45021D02*
X44421Y-45221D01*
X44550Y-45021D02*
X44550Y-45179D01*
X44535Y-45207D01*
X44507Y-45221D01*
X44464Y-45221D01*
X44435Y-45207D01*
X44421Y-45193D01*
X44179Y-45064D02*
X44279Y-45064D01*
X44279Y-45221D02*
X44279Y-44921D01*
X44136Y-44921D01*
X50893Y-39207D02*
X50907Y-39193D01*
X50921Y-39150D01*
X50921Y-39121D01*
X50907Y-39078D01*
X50879Y-39050D01*
X50850Y-39035D01*
X50793Y-39021D01*
X50750Y-39021D01*
X50693Y-39035D01*
X50664Y-39050D01*
X50636Y-39078D01*
X50621Y-39121D01*
X50621Y-39150D01*
X50636Y-39193D01*
X50650Y-39207D01*
X50921Y-39493D02*
X50921Y-39321D01*
X50921Y-39407D02*
X50621Y-39407D01*
X50664Y-39378D01*
X50693Y-39350D01*
X50707Y-39321D01*
X50650Y-39607D02*
X50636Y-39621D01*
X50621Y-39650D01*
X50621Y-39721D01*
X50636Y-39750D01*
X50650Y-39764D01*
X50679Y-39779D01*
X50707Y-39779D01*
X50750Y-39764D01*
X50921Y-39593D01*
X50921Y-39779D01*
X53121Y-38908D02*
X53121Y-38936D01*
X53136Y-38965D01*
X53150Y-38979D01*
X53179Y-38993D01*
X53236Y-39008D01*
X53307Y-39008D01*
X53364Y-38993D01*
X53393Y-38979D01*
X53407Y-38965D01*
X53421Y-38936D01*
X53421Y-38908D01*
X53407Y-38879D01*
X53393Y-38865D01*
X53364Y-38850D01*
X53307Y-38836D01*
X53236Y-38836D01*
X53179Y-38850D01*
X53150Y-38865D01*
X53136Y-38879D01*
X53121Y-38908D01*
X53393Y-39136D02*
X53407Y-39151D01*
X53421Y-39136D01*
X53407Y-39122D01*
X53393Y-39136D01*
X53421Y-39136D01*
X53421Y-39437D02*
X53421Y-39265D01*
X53421Y-39351D02*
X53121Y-39351D01*
X53164Y-39322D01*
X53193Y-39294D01*
X53207Y-39265D01*
X53221Y-39694D02*
X53421Y-39694D01*
X53221Y-39565D02*
X53379Y-39565D01*
X53407Y-39580D01*
X53421Y-39608D01*
X53421Y-39651D01*
X53407Y-39680D01*
X53393Y-39694D01*
X53264Y-39936D02*
X53264Y-39836D01*
X53421Y-39836D02*
X53121Y-39836D01*
X53121Y-39979D01*
X54693Y-46893D02*
X54707Y-46907D01*
X54750Y-46921D01*
X54779Y-46921D01*
X54822Y-46907D01*
X54850Y-46879D01*
X54865Y-46850D01*
X54879Y-46793D01*
X54879Y-46750D01*
X54865Y-46693D01*
X54850Y-46664D01*
X54822Y-46636D01*
X54779Y-46621D01*
X54750Y-46621D01*
X54707Y-46636D01*
X54693Y-46650D01*
X54407Y-46921D02*
X54579Y-46921D01*
X54493Y-46921D02*
X54493Y-46621D01*
X54522Y-46664D01*
X54550Y-46693D01*
X54579Y-46707D01*
X54307Y-46621D02*
X54121Y-46621D01*
X54221Y-46736D01*
X54179Y-46736D01*
X54150Y-46750D01*
X54136Y-46764D01*
X54121Y-46793D01*
X54121Y-46864D01*
X54136Y-46893D01*
X54150Y-46907D01*
X54179Y-46921D01*
X54264Y-46921D01*
X54293Y-46907D01*
X54307Y-46893D01*
X54678Y-45221D02*
X54850Y-45221D01*
X54764Y-45221D02*
X54764Y-44921D01*
X54793Y-44964D01*
X54821Y-44993D01*
X54850Y-45007D01*
X54421Y-45021D02*
X54421Y-45221D01*
X54550Y-45021D02*
X54550Y-45179D01*
X54535Y-45207D01*
X54507Y-45221D01*
X54464Y-45221D01*
X54435Y-45207D01*
X54421Y-45193D01*
X54179Y-45064D02*
X54279Y-45064D01*
X54279Y-45221D02*
X54279Y-44921D01*
X54136Y-44921D01*
X60893Y-39207D02*
X60907Y-39193D01*
X60921Y-39150D01*
X60921Y-39121D01*
X60907Y-39078D01*
X60879Y-39050D01*
X60850Y-39035D01*
X60793Y-39021D01*
X60750Y-39021D01*
X60693Y-39035D01*
X60664Y-39050D01*
X60636Y-39078D01*
X60621Y-39121D01*
X60621Y-39150D01*
X60636Y-39193D01*
X60650Y-39207D01*
X60921Y-39493D02*
X60921Y-39321D01*
X60921Y-39407D02*
X60621Y-39407D01*
X60664Y-39378D01*
X60693Y-39350D01*
X60707Y-39321D01*
X60621Y-39750D02*
X60621Y-39693D01*
X60636Y-39664D01*
X60650Y-39650D01*
X60693Y-39621D01*
X60750Y-39607D01*
X60864Y-39607D01*
X60893Y-39621D01*
X60907Y-39636D01*
X60921Y-39664D01*
X60921Y-39721D01*
X60907Y-39750D01*
X60893Y-39764D01*
X60864Y-39779D01*
X60793Y-39779D01*
X60764Y-39764D01*
X60750Y-39750D01*
X60736Y-39721D01*
X60736Y-39664D01*
X60750Y-39636D01*
X60764Y-39621D01*
X60793Y-39607D01*
X63121Y-38908D02*
X63121Y-38936D01*
X63136Y-38965D01*
X63150Y-38979D01*
X63179Y-38993D01*
X63236Y-39008D01*
X63307Y-39008D01*
X63364Y-38993D01*
X63393Y-38979D01*
X63407Y-38965D01*
X63421Y-38936D01*
X63421Y-38908D01*
X63407Y-38879D01*
X63393Y-38865D01*
X63364Y-38850D01*
X63307Y-38836D01*
X63236Y-38836D01*
X63179Y-38850D01*
X63150Y-38865D01*
X63136Y-38879D01*
X63121Y-38908D01*
X63393Y-39136D02*
X63407Y-39151D01*
X63421Y-39136D01*
X63407Y-39122D01*
X63393Y-39136D01*
X63421Y-39136D01*
X63421Y-39437D02*
X63421Y-39265D01*
X63421Y-39351D02*
X63121Y-39351D01*
X63164Y-39322D01*
X63193Y-39294D01*
X63207Y-39265D01*
X63221Y-39694D02*
X63421Y-39694D01*
X63221Y-39565D02*
X63379Y-39565D01*
X63407Y-39580D01*
X63421Y-39608D01*
X63421Y-39651D01*
X63407Y-39680D01*
X63393Y-39694D01*
X63264Y-39936D02*
X63264Y-39836D01*
X63421Y-39836D02*
X63121Y-39836D01*
X63121Y-39979D01*
X64693Y-46893D02*
X64707Y-46907D01*
X64750Y-46921D01*
X64779Y-46921D01*
X64822Y-46907D01*
X64850Y-46879D01*
X64865Y-46850D01*
X64879Y-46793D01*
X64879Y-46750D01*
X64865Y-46693D01*
X64850Y-46664D01*
X64822Y-46636D01*
X64779Y-46621D01*
X64750Y-46621D01*
X64707Y-46636D01*
X64693Y-46650D01*
X64407Y-46921D02*
X64579Y-46921D01*
X64493Y-46921D02*
X64493Y-46621D01*
X64522Y-46664D01*
X64550Y-46693D01*
X64579Y-46707D01*
X64307Y-46621D02*
X64107Y-46621D01*
X64236Y-46921D01*
X64678Y-45221D02*
X64850Y-45221D01*
X64764Y-45221D02*
X64764Y-44921D01*
X64793Y-44964D01*
X64821Y-44993D01*
X64850Y-45007D01*
X64421Y-45021D02*
X64421Y-45221D01*
X64550Y-45021D02*
X64550Y-45179D01*
X64535Y-45207D01*
X64507Y-45221D01*
X64464Y-45221D01*
X64435Y-45207D01*
X64421Y-45193D01*
X64179Y-45064D02*
X64279Y-45064D01*
X64279Y-45221D02*
X64279Y-44921D01*
X64136Y-44921D01*
X70893Y-39207D02*
X70907Y-39193D01*
X70921Y-39150D01*
X70921Y-39121D01*
X70907Y-39078D01*
X70879Y-39050D01*
X70850Y-39035D01*
X70793Y-39021D01*
X70750Y-39021D01*
X70693Y-39035D01*
X70664Y-39050D01*
X70636Y-39078D01*
X70621Y-39121D01*
X70621Y-39150D01*
X70636Y-39193D01*
X70650Y-39207D01*
X70650Y-39321D02*
X70636Y-39335D01*
X70621Y-39364D01*
X70621Y-39435D01*
X70636Y-39464D01*
X70650Y-39478D01*
X70679Y-39493D01*
X70707Y-39493D01*
X70750Y-39478D01*
X70921Y-39307D01*
X70921Y-39493D01*
X70621Y-39679D02*
X70621Y-39707D01*
X70636Y-39736D01*
X70650Y-39750D01*
X70679Y-39764D01*
X70736Y-39779D01*
X70807Y-39779D01*
X70864Y-39764D01*
X70893Y-39750D01*
X70907Y-39736D01*
X70921Y-39707D01*
X70921Y-39679D01*
X70907Y-39650D01*
X70893Y-39636D01*
X70864Y-39621D01*
X70807Y-39607D01*
X70736Y-39607D01*
X70679Y-39621D01*
X70650Y-39636D01*
X70636Y-39650D01*
X70621Y-39679D01*
X73121Y-38908D02*
X73121Y-38936D01*
X73136Y-38965D01*
X73150Y-38979D01*
X73179Y-38993D01*
X73236Y-39008D01*
X73307Y-39008D01*
X73364Y-38993D01*
X73393Y-38979D01*
X73407Y-38965D01*
X73421Y-38936D01*
X73421Y-38908D01*
X73407Y-38879D01*
X73393Y-38865D01*
X73364Y-38850D01*
X73307Y-38836D01*
X73236Y-38836D01*
X73179Y-38850D01*
X73150Y-38865D01*
X73136Y-38879D01*
X73121Y-38908D01*
X73393Y-39136D02*
X73407Y-39151D01*
X73421Y-39136D01*
X73407Y-39122D01*
X73393Y-39136D01*
X73421Y-39136D01*
X73421Y-39437D02*
X73421Y-39265D01*
X73421Y-39351D02*
X73121Y-39351D01*
X73164Y-39322D01*
X73193Y-39294D01*
X73207Y-39265D01*
X73221Y-39694D02*
X73421Y-39694D01*
X73221Y-39565D02*
X73379Y-39565D01*
X73407Y-39580D01*
X73421Y-39608D01*
X73421Y-39651D01*
X73407Y-39680D01*
X73393Y-39694D01*
X73264Y-39936D02*
X73264Y-39836D01*
X73421Y-39836D02*
X73121Y-39836D01*
X73121Y-39979D01*
X74693Y-46893D02*
X74707Y-46907D01*
X74750Y-46921D01*
X74779Y-46921D01*
X74822Y-46907D01*
X74850Y-46879D01*
X74865Y-46850D01*
X74879Y-46793D01*
X74879Y-46750D01*
X74865Y-46693D01*
X74850Y-46664D01*
X74822Y-46636D01*
X74779Y-46621D01*
X74750Y-46621D01*
X74707Y-46636D01*
X74693Y-46650D01*
X74579Y-46650D02*
X74565Y-46636D01*
X74536Y-46621D01*
X74465Y-46621D01*
X74436Y-46636D01*
X74422Y-46650D01*
X74407Y-46679D01*
X74407Y-46707D01*
X74422Y-46750D01*
X74593Y-46921D01*
X74407Y-46921D01*
X74121Y-46921D02*
X74293Y-46921D01*
X74207Y-46921D02*
X74207Y-46621D01*
X74236Y-46664D01*
X74264Y-46693D01*
X74293Y-46707D01*
X74678Y-45221D02*
X74850Y-45221D01*
X74764Y-45221D02*
X74764Y-44921D01*
X74793Y-44964D01*
X74821Y-44993D01*
X74850Y-45007D01*
X74421Y-45021D02*
X74421Y-45221D01*
X74550Y-45021D02*
X74550Y-45179D01*
X74535Y-45207D01*
X74507Y-45221D01*
X74464Y-45221D01*
X74435Y-45207D01*
X74421Y-45193D01*
X74179Y-45064D02*
X74279Y-45064D01*
X74279Y-45221D02*
X74279Y-44921D01*
X74136Y-44921D01*
X44550Y-49421D02*
X44650Y-49279D01*
X44722Y-49421D02*
X44722Y-49121D01*
X44607Y-49121D01*
X44579Y-49136D01*
X44564Y-49150D01*
X44550Y-49179D01*
X44550Y-49221D01*
X44564Y-49250D01*
X44579Y-49264D01*
X44607Y-49279D01*
X44722Y-49279D01*
X44436Y-49150D02*
X44422Y-49136D01*
X44393Y-49121D01*
X44322Y-49121D01*
X44293Y-49136D01*
X44279Y-49150D01*
X44264Y-49179D01*
X44264Y-49207D01*
X44279Y-49250D01*
X44450Y-49421D01*
X44264Y-49421D01*
X44750Y-47721D02*
X44922Y-47721D01*
X44836Y-47721D02*
X44836Y-47421D01*
X44865Y-47464D01*
X44893Y-47493D01*
X44922Y-47507D01*
X44622Y-47693D02*
X44607Y-47707D01*
X44622Y-47721D01*
X44636Y-47707D01*
X44622Y-47693D01*
X44622Y-47721D01*
X44507Y-47421D02*
X44307Y-47421D01*
X44436Y-47721D01*
X44193Y-47721D02*
X44193Y-47421D01*
X44164Y-47607D02*
X44078Y-47721D01*
X44078Y-47521D02*
X44193Y-47636D01*
X40921Y-42650D02*
X40779Y-42550D01*
X40921Y-42478D02*
X40621Y-42478D01*
X40621Y-42593D01*
X40636Y-42621D01*
X40650Y-42636D01*
X40679Y-42650D01*
X40721Y-42650D01*
X40750Y-42636D01*
X40764Y-42621D01*
X40779Y-42593D01*
X40779Y-42478D01*
X40621Y-42750D02*
X40621Y-42936D01*
X40736Y-42836D01*
X40736Y-42878D01*
X40750Y-42907D01*
X40764Y-42921D01*
X40793Y-42936D01*
X40864Y-42936D01*
X40893Y-42921D01*
X40907Y-42907D01*
X40921Y-42878D01*
X40921Y-42793D01*
X40907Y-42764D01*
X40893Y-42750D01*
X43121Y-42493D02*
X43321Y-42493D01*
X43007Y-42422D02*
X43221Y-42350D01*
X43221Y-42536D01*
X43021Y-42622D02*
X43021Y-42808D01*
X43136Y-42708D01*
X43136Y-42750D01*
X43150Y-42779D01*
X43164Y-42793D01*
X43193Y-42808D01*
X43264Y-42808D01*
X43293Y-42793D01*
X43307Y-42779D01*
X43321Y-42750D01*
X43321Y-42665D01*
X43307Y-42636D01*
X43293Y-42622D01*
X43321Y-42936D02*
X43021Y-42936D01*
X43207Y-42965D02*
X43321Y-43051D01*
X43121Y-43051D02*
X43236Y-42936D01*
X44050Y-40021D02*
X44150Y-39879D01*
X44222Y-40021D02*
X44222Y-39721D01*
X44107Y-39721D01*
X44079Y-39736D01*
X44064Y-39750D01*
X44050Y-39779D01*
X44050Y-39821D01*
X44064Y-39850D01*
X44079Y-39864D01*
X44107Y-39879D01*
X44222Y-39879D01*
X43793Y-39821D02*
X43793Y-40021D01*
X43864Y-39707D02*
X43936Y-39921D01*
X43750Y-39921D01*
X44250Y-42421D02*
X44422Y-42421D01*
X44336Y-42421D02*
X44336Y-42121D01*
X44365Y-42164D01*
X44393Y-42193D01*
X44422Y-42207D01*
X44122Y-42393D02*
X44107Y-42407D01*
X44122Y-42421D01*
X44136Y-42407D01*
X44122Y-42393D01*
X44122Y-42421D01*
X44007Y-42121D02*
X43807Y-42121D01*
X43936Y-42421D01*
X43693Y-42421D02*
X43693Y-42121D01*
X43664Y-42307D02*
X43578Y-42421D01*
X43578Y-42221D02*
X43693Y-42336D01*
X54550Y-49421D02*
X54650Y-49279D01*
X54722Y-49421D02*
X54722Y-49121D01*
X54607Y-49121D01*
X54579Y-49136D01*
X54564Y-49150D01*
X54550Y-49179D01*
X54550Y-49221D01*
X54564Y-49250D01*
X54579Y-49264D01*
X54607Y-49279D01*
X54722Y-49279D01*
X54279Y-49121D02*
X54422Y-49121D01*
X54436Y-49264D01*
X54422Y-49250D01*
X54393Y-49236D01*
X54322Y-49236D01*
X54293Y-49250D01*
X54279Y-49264D01*
X54264Y-49293D01*
X54264Y-49364D01*
X54279Y-49393D01*
X54293Y-49407D01*
X54322Y-49421D01*
X54393Y-49421D01*
X54422Y-49407D01*
X54436Y-49393D01*
X54750Y-47721D02*
X54922Y-47721D01*
X54836Y-47721D02*
X54836Y-47421D01*
X54865Y-47464D01*
X54893Y-47493D01*
X54922Y-47507D01*
X54622Y-47693D02*
X54607Y-47707D01*
X54622Y-47721D01*
X54636Y-47707D01*
X54622Y-47693D01*
X54622Y-47721D01*
X54507Y-47421D02*
X54307Y-47421D01*
X54436Y-47721D01*
X54193Y-47721D02*
X54193Y-47421D01*
X54164Y-47607D02*
X54078Y-47721D01*
X54078Y-47521D02*
X54193Y-47636D01*
X50921Y-42650D02*
X50779Y-42550D01*
X50921Y-42478D02*
X50621Y-42478D01*
X50621Y-42593D01*
X50636Y-42621D01*
X50650Y-42636D01*
X50679Y-42650D01*
X50721Y-42650D01*
X50750Y-42636D01*
X50764Y-42621D01*
X50779Y-42593D01*
X50779Y-42478D01*
X50621Y-42907D02*
X50621Y-42850D01*
X50636Y-42821D01*
X50650Y-42807D01*
X50693Y-42778D01*
X50750Y-42764D01*
X50864Y-42764D01*
X50893Y-42778D01*
X50907Y-42793D01*
X50921Y-42821D01*
X50921Y-42878D01*
X50907Y-42907D01*
X50893Y-42921D01*
X50864Y-42936D01*
X50793Y-42936D01*
X50764Y-42921D01*
X50750Y-42907D01*
X50736Y-42878D01*
X50736Y-42821D01*
X50750Y-42793D01*
X50764Y-42778D01*
X50793Y-42764D01*
X53121Y-42493D02*
X53321Y-42493D01*
X53007Y-42422D02*
X53221Y-42350D01*
X53221Y-42536D01*
X53021Y-42622D02*
X53021Y-42808D01*
X53136Y-42708D01*
X53136Y-42750D01*
X53150Y-42779D01*
X53164Y-42793D01*
X53193Y-42808D01*
X53264Y-42808D01*
X53293Y-42793D01*
X53307Y-42779D01*
X53321Y-42750D01*
X53321Y-42665D01*
X53307Y-42636D01*
X53293Y-42622D01*
X53321Y-42936D02*
X53021Y-42936D01*
X53207Y-42965D02*
X53321Y-43051D01*
X53121Y-43051D02*
X53236Y-42936D01*
X54050Y-40021D02*
X54150Y-39879D01*
X54222Y-40021D02*
X54222Y-39721D01*
X54107Y-39721D01*
X54079Y-39736D01*
X54064Y-39750D01*
X54050Y-39779D01*
X54050Y-39821D01*
X54064Y-39850D01*
X54079Y-39864D01*
X54107Y-39879D01*
X54222Y-39879D01*
X53950Y-39721D02*
X53750Y-39721D01*
X53879Y-40021D01*
X54250Y-42421D02*
X54422Y-42421D01*
X54336Y-42421D02*
X54336Y-42121D01*
X54365Y-42164D01*
X54393Y-42193D01*
X54422Y-42207D01*
X54122Y-42393D02*
X54107Y-42407D01*
X54122Y-42421D01*
X54136Y-42407D01*
X54122Y-42393D01*
X54122Y-42421D01*
X54007Y-42121D02*
X53807Y-42121D01*
X53936Y-42421D01*
X53693Y-42421D02*
X53693Y-42121D01*
X53664Y-42307D02*
X53578Y-42421D01*
X53578Y-42221D02*
X53693Y-42336D01*
X64550Y-49421D02*
X64650Y-49279D01*
X64722Y-49421D02*
X64722Y-49121D01*
X64607Y-49121D01*
X64579Y-49136D01*
X64564Y-49150D01*
X64550Y-49179D01*
X64550Y-49221D01*
X64564Y-49250D01*
X64579Y-49264D01*
X64607Y-49279D01*
X64722Y-49279D01*
X64379Y-49250D02*
X64407Y-49236D01*
X64422Y-49221D01*
X64436Y-49193D01*
X64436Y-49179D01*
X64422Y-49150D01*
X64407Y-49136D01*
X64379Y-49121D01*
X64322Y-49121D01*
X64293Y-49136D01*
X64279Y-49150D01*
X64264Y-49179D01*
X64264Y-49193D01*
X64279Y-49221D01*
X64293Y-49236D01*
X64322Y-49250D01*
X64379Y-49250D01*
X64407Y-49264D01*
X64422Y-49279D01*
X64436Y-49307D01*
X64436Y-49364D01*
X64422Y-49393D01*
X64407Y-49407D01*
X64379Y-49421D01*
X64322Y-49421D01*
X64293Y-49407D01*
X64279Y-49393D01*
X64264Y-49364D01*
X64264Y-49307D01*
X64279Y-49279D01*
X64293Y-49264D01*
X64322Y-49250D01*
X64750Y-47721D02*
X64922Y-47721D01*
X64836Y-47721D02*
X64836Y-47421D01*
X64865Y-47464D01*
X64893Y-47493D01*
X64922Y-47507D01*
X64622Y-47693D02*
X64607Y-47707D01*
X64622Y-47721D01*
X64636Y-47707D01*
X64622Y-47693D01*
X64622Y-47721D01*
X64507Y-47421D02*
X64307Y-47421D01*
X64436Y-47721D01*
X64193Y-47721D02*
X64193Y-47421D01*
X64164Y-47607D02*
X64078Y-47721D01*
X64078Y-47521D02*
X64193Y-47636D01*
X60921Y-42650D02*
X60779Y-42550D01*
X60921Y-42478D02*
X60621Y-42478D01*
X60621Y-42593D01*
X60636Y-42621D01*
X60650Y-42636D01*
X60679Y-42650D01*
X60721Y-42650D01*
X60750Y-42636D01*
X60764Y-42621D01*
X60779Y-42593D01*
X60779Y-42478D01*
X60921Y-42793D02*
X60921Y-42850D01*
X60907Y-42878D01*
X60893Y-42893D01*
X60850Y-42921D01*
X60793Y-42936D01*
X60679Y-42936D01*
X60650Y-42921D01*
X60636Y-42907D01*
X60621Y-42878D01*
X60621Y-42821D01*
X60636Y-42793D01*
X60650Y-42778D01*
X60679Y-42764D01*
X60750Y-42764D01*
X60779Y-42778D01*
X60793Y-42793D01*
X60807Y-42821D01*
X60807Y-42878D01*
X60793Y-42907D01*
X60779Y-42921D01*
X60750Y-42936D01*
X63121Y-42493D02*
X63321Y-42493D01*
X63007Y-42422D02*
X63221Y-42350D01*
X63221Y-42536D01*
X63021Y-42622D02*
X63021Y-42808D01*
X63136Y-42708D01*
X63136Y-42750D01*
X63150Y-42779D01*
X63164Y-42793D01*
X63193Y-42808D01*
X63264Y-42808D01*
X63293Y-42793D01*
X63307Y-42779D01*
X63321Y-42750D01*
X63321Y-42665D01*
X63307Y-42636D01*
X63293Y-42622D01*
X63321Y-42936D02*
X63021Y-42936D01*
X63207Y-42965D02*
X63321Y-43051D01*
X63121Y-43051D02*
X63236Y-42936D01*
X64193Y-40021D02*
X64293Y-39879D01*
X64365Y-40021D02*
X64365Y-39721D01*
X64250Y-39721D01*
X64222Y-39736D01*
X64207Y-39750D01*
X64193Y-39779D01*
X64193Y-39821D01*
X64207Y-39850D01*
X64222Y-39864D01*
X64250Y-39879D01*
X64365Y-39879D01*
X63907Y-40021D02*
X64079Y-40021D01*
X63993Y-40021D02*
X63993Y-39721D01*
X64022Y-39764D01*
X64050Y-39793D01*
X64079Y-39807D01*
X63721Y-39721D02*
X63693Y-39721D01*
X63664Y-39736D01*
X63650Y-39750D01*
X63636Y-39779D01*
X63621Y-39836D01*
X63621Y-39907D01*
X63636Y-39964D01*
X63650Y-39993D01*
X63664Y-40007D01*
X63693Y-40021D01*
X63721Y-40021D01*
X63750Y-40007D01*
X63764Y-39993D01*
X63779Y-39964D01*
X63793Y-39907D01*
X63793Y-39836D01*
X63779Y-39779D01*
X63764Y-39750D01*
X63750Y-39736D01*
X63721Y-39721D01*
X64250Y-42421D02*
X64422Y-42421D01*
X64336Y-42421D02*
X64336Y-42121D01*
X64365Y-42164D01*
X64393Y-42193D01*
X64422Y-42207D01*
X64122Y-42393D02*
X64107Y-42407D01*
X64122Y-42421D01*
X64136Y-42407D01*
X64122Y-42393D01*
X64122Y-42421D01*
X64007Y-42121D02*
X63807Y-42121D01*
X63936Y-42421D01*
X63693Y-42421D02*
X63693Y-42121D01*
X63664Y-42307D02*
X63578Y-42421D01*
X63578Y-42221D02*
X63693Y-42336D01*
X74693Y-49421D02*
X74793Y-49279D01*
X74865Y-49421D02*
X74865Y-49121D01*
X74750Y-49121D01*
X74722Y-49136D01*
X74707Y-49150D01*
X74693Y-49179D01*
X74693Y-49221D01*
X74707Y-49250D01*
X74722Y-49264D01*
X74750Y-49279D01*
X74865Y-49279D01*
X74407Y-49421D02*
X74579Y-49421D01*
X74493Y-49421D02*
X74493Y-49121D01*
X74522Y-49164D01*
X74550Y-49193D01*
X74579Y-49207D01*
X74121Y-49421D02*
X74293Y-49421D01*
X74207Y-49421D02*
X74207Y-49121D01*
X74236Y-49164D01*
X74264Y-49193D01*
X74293Y-49207D01*
X74750Y-47721D02*
X74922Y-47721D01*
X74836Y-47721D02*
X74836Y-47421D01*
X74865Y-47464D01*
X74893Y-47493D01*
X74922Y-47507D01*
X74622Y-47693D02*
X74607Y-47707D01*
X74622Y-47721D01*
X74636Y-47707D01*
X74622Y-47693D01*
X74622Y-47721D01*
X74507Y-47421D02*
X74307Y-47421D01*
X74436Y-47721D01*
X74193Y-47721D02*
X74193Y-47421D01*
X74164Y-47607D02*
X74078Y-47721D01*
X74078Y-47521D02*
X74193Y-47636D01*
X70921Y-42507D02*
X70779Y-42407D01*
X70921Y-42335D02*
X70621Y-42335D01*
X70621Y-42450D01*
X70636Y-42478D01*
X70650Y-42493D01*
X70679Y-42507D01*
X70721Y-42507D01*
X70750Y-42493D01*
X70764Y-42478D01*
X70779Y-42450D01*
X70779Y-42335D01*
X70921Y-42793D02*
X70921Y-42621D01*
X70921Y-42707D02*
X70621Y-42707D01*
X70664Y-42678D01*
X70693Y-42650D01*
X70707Y-42621D01*
X70650Y-42907D02*
X70636Y-42921D01*
X70621Y-42950D01*
X70621Y-43021D01*
X70636Y-43050D01*
X70650Y-43064D01*
X70679Y-43079D01*
X70707Y-43079D01*
X70750Y-43064D01*
X70921Y-42893D01*
X70921Y-43079D01*
X73221Y-42493D02*
X73421Y-42493D01*
X73107Y-42422D02*
X73321Y-42350D01*
X73321Y-42536D01*
X73121Y-42622D02*
X73121Y-42808D01*
X73236Y-42708D01*
X73236Y-42750D01*
X73250Y-42779D01*
X73264Y-42793D01*
X73293Y-42808D01*
X73364Y-42808D01*
X73393Y-42793D01*
X73407Y-42779D01*
X73421Y-42750D01*
X73421Y-42665D01*
X73407Y-42636D01*
X73393Y-42622D01*
X73421Y-42936D02*
X73121Y-42936D01*
X73307Y-42965D02*
X73421Y-43051D01*
X73221Y-43051D02*
X73336Y-42936D01*
X74193Y-40021D02*
X74293Y-39879D01*
X74365Y-40021D02*
X74365Y-39721D01*
X74250Y-39721D01*
X74222Y-39736D01*
X74207Y-39750D01*
X74193Y-39779D01*
X74193Y-39821D01*
X74207Y-39850D01*
X74222Y-39864D01*
X74250Y-39879D01*
X74365Y-39879D01*
X73907Y-40021D02*
X74079Y-40021D01*
X73993Y-40021D02*
X73993Y-39721D01*
X74022Y-39764D01*
X74050Y-39793D01*
X74079Y-39807D01*
X73807Y-39721D02*
X73621Y-39721D01*
X73721Y-39836D01*
X73679Y-39836D01*
X73650Y-39850D01*
X73636Y-39864D01*
X73621Y-39893D01*
X73621Y-39964D01*
X73636Y-39993D01*
X73650Y-40007D01*
X73679Y-40021D01*
X73764Y-40021D01*
X73793Y-40007D01*
X73807Y-39993D01*
X74250Y-42521D02*
X74422Y-42521D01*
X74336Y-42521D02*
X74336Y-42221D01*
X74365Y-42264D01*
X74393Y-42293D01*
X74422Y-42307D01*
X74122Y-42493D02*
X74107Y-42507D01*
X74122Y-42521D01*
X74136Y-42507D01*
X74122Y-42493D01*
X74122Y-42521D01*
X74007Y-42221D02*
X73807Y-42221D01*
X73936Y-42521D01*
X73693Y-42521D02*
X73693Y-42221D01*
X73664Y-42407D02*
X73578Y-42521D01*
X73578Y-42321D02*
X73693Y-42436D01*
X80550Y-45293D02*
X80564Y-45307D01*
X80607Y-45321D01*
X80636Y-45321D01*
X80679Y-45307D01*
X80707Y-45279D01*
X80722Y-45250D01*
X80736Y-45193D01*
X80736Y-45150D01*
X80722Y-45093D01*
X80707Y-45064D01*
X80679Y-45036D01*
X80636Y-45021D01*
X80607Y-45021D01*
X80564Y-45036D01*
X80550Y-45050D01*
X80264Y-45321D02*
X80436Y-45321D01*
X80350Y-45321D02*
X80350Y-45021D01*
X80379Y-45064D01*
X80407Y-45093D01*
X80436Y-45107D01*
X80821Y-47021D02*
X80993Y-47021D01*
X80907Y-47021D02*
X80907Y-46721D01*
X80936Y-46764D01*
X80964Y-46793D01*
X80993Y-46807D01*
X80635Y-46721D02*
X80607Y-46721D01*
X80578Y-46736D01*
X80564Y-46750D01*
X80550Y-46779D01*
X80535Y-46836D01*
X80535Y-46907D01*
X80550Y-46964D01*
X80564Y-46993D01*
X80578Y-47007D01*
X80607Y-47021D01*
X80635Y-47021D01*
X80664Y-47007D01*
X80678Y-46993D01*
X80693Y-46964D01*
X80707Y-46907D01*
X80707Y-46836D01*
X80693Y-46779D01*
X80678Y-46750D01*
X80664Y-46736D01*
X80635Y-46721D01*
X80278Y-46821D02*
X80278Y-47021D01*
X80407Y-46821D02*
X80407Y-46979D01*
X80392Y-47007D01*
X80364Y-47021D01*
X80321Y-47021D01*
X80292Y-47007D01*
X80278Y-46993D01*
X80036Y-46864D02*
X80136Y-46864D01*
X80136Y-47021D02*
X80136Y-46721D01*
X79993Y-46721D01*
M02*
