G04 (created by PCBNEW-RS274X (2010-03-14)-final) date Wed 08 Jun 2011 02:42:47 PM PDT*
G01*
G70*
G90*
%MOIN*%
G04 Gerber Fmt 3.4, Leading zero omitted, Abs format*
%FSLAX34Y34*%
G04 APERTURE LIST*
%ADD10C,0.006000*%
%ADD11C,0.009000*%
%ADD12C,0.096000*%
%ADD13C,0.145000*%
%ADD14R,0.089000X0.089000*%
%ADD15C,0.089000*%
%ADD16C,0.090000*%
%ADD17C,0.256000*%
%ADD18C,0.098000*%
%ADD19C,0.280000*%
%ADD20C,0.093000*%
%ADD21R,0.093000X0.093000*%
%ADD22C,0.073000*%
%ADD23R,0.075000X0.075000*%
%ADD24C,0.075000*%
G04 APERTURE END LIST*
G54D10*
G54D11*
X29250Y-25750D02*
X29250Y-55750D01*
X86750Y-25750D02*
X29250Y-25750D01*
X86750Y-55750D02*
X86750Y-25750D01*
X29250Y-55750D02*
X86750Y-55750D01*
G54D12*
X33266Y-53500D03*
X34250Y-53500D03*
X35234Y-53500D03*
G54D13*
X32320Y-52634D03*
X36180Y-52634D03*
G54D12*
X80766Y-53500D03*
X81750Y-53500D03*
X82734Y-53500D03*
G54D13*
X79820Y-52634D03*
X83680Y-52634D03*
G54D12*
X67016Y-53500D03*
X68000Y-53500D03*
X68984Y-53500D03*
G54D13*
X66070Y-52634D03*
X69930Y-52634D03*
G54D12*
X47016Y-53500D03*
X48000Y-53500D03*
X48984Y-53500D03*
G54D13*
X46070Y-52634D03*
X49930Y-52634D03*
G54D14*
X61000Y-42250D03*
G54D15*
X61000Y-41250D03*
X61000Y-40250D03*
X61000Y-39250D03*
X61000Y-38250D03*
X61000Y-37250D03*
X61000Y-36250D03*
X61000Y-35250D03*
X61000Y-34250D03*
X61000Y-33250D03*
X61000Y-32250D03*
X61000Y-31250D03*
X61000Y-30250D03*
X61000Y-29250D03*
X61000Y-28250D03*
X55000Y-28250D03*
X55000Y-29250D03*
X55000Y-30250D03*
X55000Y-31250D03*
X55000Y-32250D03*
X55000Y-33250D03*
X55000Y-34250D03*
X55000Y-35250D03*
X55000Y-36250D03*
X55000Y-37250D03*
X55000Y-38250D03*
X55000Y-39250D03*
X55000Y-40250D03*
X55000Y-41250D03*
X55000Y-42250D03*
G54D16*
X55000Y-48250D03*
X55000Y-47250D03*
X55000Y-46250D03*
G54D14*
X55250Y-51750D03*
G54D15*
X56250Y-51750D03*
X55250Y-52750D03*
X56250Y-52750D03*
G54D14*
X80750Y-41500D03*
G54D15*
X81750Y-41500D03*
X82750Y-41500D03*
X83250Y-31500D03*
X82250Y-31500D03*
X81250Y-31500D03*
X80250Y-31500D03*
G54D14*
X67000Y-41500D03*
G54D15*
X68000Y-41500D03*
X69000Y-41500D03*
X69500Y-31500D03*
X68500Y-31500D03*
X67500Y-31500D03*
X66500Y-31500D03*
G54D14*
X47000Y-41500D03*
G54D15*
X48000Y-41500D03*
X49000Y-41500D03*
X49500Y-31500D03*
X48500Y-31500D03*
X47500Y-31500D03*
X46500Y-31500D03*
G54D14*
X33250Y-41500D03*
G54D15*
X34250Y-41500D03*
X35250Y-41500D03*
X35750Y-31500D03*
X34750Y-31500D03*
X33750Y-31500D03*
X32750Y-31500D03*
G54D14*
X52750Y-34250D03*
G54D15*
X52750Y-35250D03*
X52750Y-36250D03*
X52750Y-37250D03*
G54D14*
X62750Y-33250D03*
G54D15*
X63750Y-33250D03*
X62750Y-34250D03*
X63750Y-34250D03*
X62750Y-35250D03*
X63750Y-35250D03*
X62750Y-36250D03*
X63750Y-36250D03*
X62750Y-37250D03*
X63750Y-37250D03*
X62750Y-38250D03*
X63750Y-38250D03*
G54D17*
X75500Y-32000D03*
X40500Y-53250D03*
X75500Y-53250D03*
X40500Y-32000D03*
G54D18*
X34250Y-44000D03*
X35250Y-44000D03*
X36250Y-44000D03*
X37250Y-44000D03*
X33250Y-44000D03*
X31250Y-44000D03*
G54D19*
X32250Y-46500D03*
G54D18*
X32250Y-44000D03*
X31250Y-49000D03*
X32250Y-49000D03*
X33250Y-49000D03*
X34250Y-49000D03*
X35250Y-49000D03*
X36250Y-49000D03*
X37250Y-49000D03*
X81750Y-44000D03*
X82750Y-44000D03*
X83750Y-44000D03*
X84750Y-44000D03*
X80750Y-44000D03*
X78750Y-44000D03*
G54D19*
X79750Y-46500D03*
G54D18*
X79750Y-44000D03*
X78750Y-49000D03*
X79750Y-49000D03*
X80750Y-49000D03*
X81750Y-49000D03*
X82750Y-49000D03*
X83750Y-49000D03*
X84750Y-49000D03*
X68000Y-44000D03*
X69000Y-44000D03*
X70000Y-44000D03*
X71000Y-44000D03*
X67000Y-44000D03*
X65000Y-44000D03*
G54D19*
X66000Y-46500D03*
G54D18*
X66000Y-44000D03*
X65000Y-49000D03*
X66000Y-49000D03*
X67000Y-49000D03*
X68000Y-49000D03*
X69000Y-49000D03*
X70000Y-49000D03*
X71000Y-49000D03*
X48000Y-44000D03*
X49000Y-44000D03*
X50000Y-44000D03*
X51000Y-44000D03*
X47000Y-44000D03*
X45000Y-44000D03*
G54D19*
X46000Y-46500D03*
G54D18*
X46000Y-44000D03*
X45000Y-49000D03*
X46000Y-49000D03*
X47000Y-49000D03*
X48000Y-49000D03*
X49000Y-49000D03*
X50000Y-49000D03*
X51000Y-49000D03*
G54D20*
X81250Y-28250D03*
G54D21*
X82250Y-28250D03*
G54D22*
X82250Y-27250D03*
X81250Y-27250D03*
G54D20*
X47500Y-28250D03*
G54D21*
X48500Y-28250D03*
G54D22*
X48500Y-27250D03*
X47500Y-27250D03*
G54D20*
X74500Y-28250D03*
G54D21*
X75500Y-28250D03*
G54D22*
X75500Y-27250D03*
X74500Y-27250D03*
G54D20*
X67500Y-28250D03*
G54D21*
X68500Y-28250D03*
G54D22*
X68500Y-27250D03*
X67500Y-27250D03*
G54D20*
X33750Y-28250D03*
G54D21*
X34750Y-28250D03*
G54D22*
X34750Y-27250D03*
X33750Y-27250D03*
G54D23*
X77000Y-40750D03*
G54D24*
X77000Y-39750D03*
X77000Y-38750D03*
X77000Y-37750D03*
X77000Y-36750D03*
X77000Y-35750D03*
X77000Y-34750D03*
X74000Y-34750D03*
X74000Y-35750D03*
X74000Y-36750D03*
X74000Y-37750D03*
X74000Y-38750D03*
X74000Y-39750D03*
X74000Y-40750D03*
G54D23*
X42000Y-40750D03*
G54D24*
X42000Y-39750D03*
X42000Y-38750D03*
X42000Y-37750D03*
X42000Y-36750D03*
X42000Y-35750D03*
X42000Y-34750D03*
X39000Y-34750D03*
X39000Y-35750D03*
X39000Y-36750D03*
X39000Y-37750D03*
X39000Y-38750D03*
X39000Y-39750D03*
X39000Y-40750D03*
M02*
