G04 (created by PCBNEW-RS274X (2010-03-14)-final) date Wed 08 Jun 2011 02:42:47 PM PDT*
G01*
G70*
G90*
%MOIN*%
G04 Gerber Fmt 3.4, Leading zero omitted, Abs format*
%FSLAX34Y34*%
G04 APERTURE LIST*
%ADD10C,0.006000*%
%ADD11C,0.015000*%
%ADD12C,0.006700*%
%ADD13C,0.009000*%
%ADD14C,0.010000*%
%ADD15C,0.005000*%
%ADD16C,0.012000*%
%ADD17C,0.007500*%
G04 APERTURE END LIST*
G54D10*
G54D11*
X53500Y-32750D02*
X52750Y-33500D01*
X52000Y-32750D02*
X53500Y-32750D01*
X52750Y-33500D02*
X52000Y-32750D01*
G54D12*
X52140Y-38012D02*
X52273Y-38412D01*
X52407Y-38012D01*
X52597Y-38412D02*
X52559Y-38393D01*
X52540Y-38374D01*
X52521Y-38336D01*
X52521Y-38221D01*
X52540Y-38183D01*
X52559Y-38164D01*
X52597Y-38145D01*
X52655Y-38145D01*
X52693Y-38164D01*
X52712Y-38183D01*
X52731Y-38221D01*
X52731Y-38336D01*
X52712Y-38374D01*
X52693Y-38393D01*
X52655Y-38412D01*
X52597Y-38412D01*
X53074Y-38145D02*
X53074Y-38412D01*
X52902Y-38145D02*
X52902Y-38355D01*
X52921Y-38393D01*
X52959Y-38412D01*
X53017Y-38412D01*
X53055Y-38393D01*
X53074Y-38374D01*
X53207Y-38145D02*
X53359Y-38145D01*
X53264Y-38012D02*
X53264Y-38355D01*
X53283Y-38393D01*
X53321Y-38412D01*
X53359Y-38412D01*
X62058Y-38202D02*
X61924Y-38202D01*
X61924Y-38412D02*
X61924Y-38012D01*
X62115Y-38012D01*
X61914Y-37202D02*
X62048Y-37202D01*
X62105Y-37412D02*
X61914Y-37412D01*
X61914Y-37012D01*
X62105Y-37012D01*
G54D13*
X29250Y-25750D02*
X29250Y-55750D01*
X86750Y-25750D02*
X29250Y-25750D01*
X86750Y-55750D02*
X86750Y-25750D01*
X29250Y-55750D02*
X86750Y-55750D01*
G54D14*
X82022Y-26269D02*
X82479Y-26269D01*
X82250Y-26574D02*
X82250Y-25964D01*
X74272Y-26269D02*
X74729Y-26269D01*
X81022Y-26269D02*
X81479Y-26269D01*
X75272Y-26269D02*
X75729Y-26269D01*
X75500Y-26574D02*
X75500Y-25964D01*
X83343Y-27574D02*
X83343Y-26774D01*
X83486Y-26774D01*
X83571Y-26812D01*
X83629Y-26888D01*
X83657Y-26964D01*
X83686Y-27117D01*
X83686Y-27231D01*
X83657Y-27383D01*
X83629Y-27460D01*
X83571Y-27536D01*
X83486Y-27574D01*
X83343Y-27574D01*
X69936Y-27498D02*
X69907Y-27536D01*
X69821Y-27574D01*
X69764Y-27574D01*
X69679Y-27536D01*
X69621Y-27460D01*
X69593Y-27383D01*
X69564Y-27231D01*
X69564Y-27117D01*
X69593Y-26964D01*
X69621Y-26888D01*
X69679Y-26812D01*
X69764Y-26774D01*
X69821Y-26774D01*
X69907Y-26812D01*
X69936Y-26850D01*
X46293Y-27155D02*
X46379Y-27193D01*
X46407Y-27231D01*
X46436Y-27307D01*
X46436Y-27421D01*
X46407Y-27498D01*
X46379Y-27536D01*
X46321Y-27574D01*
X46093Y-27574D01*
X46093Y-26774D01*
X46293Y-26774D01*
X46350Y-26812D01*
X46379Y-26850D01*
X46407Y-26926D01*
X46407Y-27002D01*
X46379Y-27079D01*
X46350Y-27117D01*
X46293Y-27155D01*
X46093Y-27155D01*
X32357Y-27345D02*
X32643Y-27345D01*
X32300Y-27574D02*
X32500Y-26774D01*
X32700Y-27574D01*
X84493Y-55324D02*
X84493Y-54524D01*
X84636Y-54524D01*
X84721Y-54562D01*
X84779Y-54638D01*
X84807Y-54714D01*
X84836Y-54867D01*
X84836Y-54981D01*
X84807Y-55133D01*
X84779Y-55210D01*
X84721Y-55286D01*
X84636Y-55324D01*
X84493Y-55324D01*
X71086Y-55248D02*
X71057Y-55286D01*
X70971Y-55324D01*
X70914Y-55324D01*
X70829Y-55286D01*
X70771Y-55210D01*
X70743Y-55133D01*
X70714Y-54981D01*
X70714Y-54867D01*
X70743Y-54714D01*
X70771Y-54638D01*
X70829Y-54562D01*
X70914Y-54524D01*
X70971Y-54524D01*
X71057Y-54562D01*
X71086Y-54600D01*
X45043Y-54905D02*
X45129Y-54943D01*
X45157Y-54981D01*
X45186Y-55057D01*
X45186Y-55171D01*
X45157Y-55248D01*
X45129Y-55286D01*
X45071Y-55324D01*
X44843Y-55324D01*
X44843Y-54524D01*
X45043Y-54524D01*
X45100Y-54562D01*
X45129Y-54600D01*
X45157Y-54676D01*
X45157Y-54752D01*
X45129Y-54829D01*
X45100Y-54867D01*
X45043Y-54905D01*
X44843Y-54905D01*
X31107Y-55095D02*
X31393Y-55095D01*
X31050Y-55324D02*
X31250Y-54524D01*
X31450Y-55324D01*
G54D12*
X61895Y-36412D02*
X61895Y-36012D01*
X61990Y-36012D01*
X62048Y-36031D01*
X62086Y-36069D01*
X62105Y-36107D01*
X62124Y-36183D01*
X62124Y-36240D01*
X62105Y-36317D01*
X62086Y-36355D01*
X62048Y-36393D01*
X61990Y-36412D01*
X61895Y-36412D01*
X62124Y-35374D02*
X62105Y-35393D01*
X62048Y-35412D01*
X62010Y-35412D01*
X61952Y-35393D01*
X61914Y-35355D01*
X61895Y-35317D01*
X61876Y-35240D01*
X61876Y-35183D01*
X61895Y-35107D01*
X61914Y-35069D01*
X61952Y-35031D01*
X62010Y-35012D01*
X62048Y-35012D01*
X62105Y-35031D01*
X62124Y-35050D01*
X62029Y-34202D02*
X62086Y-34221D01*
X62105Y-34240D01*
X62124Y-34279D01*
X62124Y-34336D01*
X62105Y-34374D01*
X62086Y-34393D01*
X62048Y-34412D01*
X61895Y-34412D01*
X61895Y-34012D01*
X62029Y-34012D01*
X62067Y-34031D01*
X62086Y-34050D01*
X62105Y-34088D01*
X62105Y-34126D01*
X62086Y-34164D01*
X62067Y-34183D01*
X62029Y-34202D01*
X61895Y-34202D01*
X61905Y-33298D02*
X62096Y-33298D01*
X61867Y-33412D02*
X62000Y-33012D01*
X62134Y-33412D01*
X73724Y-30162D02*
X73495Y-30162D01*
X73609Y-30162D02*
X73609Y-29762D01*
X73571Y-29819D01*
X73533Y-29857D01*
X73495Y-29876D01*
X73876Y-29800D02*
X73895Y-29781D01*
X73933Y-29762D01*
X74029Y-29762D01*
X74067Y-29781D01*
X74086Y-29800D01*
X74105Y-29838D01*
X74105Y-29876D01*
X74086Y-29933D01*
X73857Y-30162D01*
X74105Y-30162D01*
X74276Y-30010D02*
X74581Y-30010D01*
X74733Y-29762D02*
X74981Y-29762D01*
X74847Y-29914D01*
X74905Y-29914D01*
X74943Y-29933D01*
X74962Y-29952D01*
X74981Y-29990D01*
X74981Y-30086D01*
X74962Y-30124D01*
X74943Y-30143D01*
X74905Y-30162D01*
X74790Y-30162D01*
X74752Y-30143D01*
X74733Y-30124D01*
X75133Y-29800D02*
X75152Y-29781D01*
X75190Y-29762D01*
X75286Y-29762D01*
X75324Y-29781D01*
X75343Y-29800D01*
X75362Y-29838D01*
X75362Y-29876D01*
X75343Y-29933D01*
X75114Y-30162D01*
X75362Y-30162D01*
X75476Y-29762D02*
X75609Y-30162D01*
X75743Y-29762D01*
X75876Y-30162D02*
X75876Y-29762D01*
X75971Y-29762D01*
X76029Y-29781D01*
X76067Y-29819D01*
X76086Y-29857D01*
X76105Y-29933D01*
X76105Y-29990D01*
X76086Y-30067D01*
X76067Y-30105D01*
X76029Y-30143D01*
X75971Y-30162D01*
X75876Y-30162D01*
X76505Y-30124D02*
X76486Y-30143D01*
X76429Y-30162D01*
X76391Y-30162D01*
X76333Y-30143D01*
X76295Y-30105D01*
X76276Y-30067D01*
X76257Y-29990D01*
X76257Y-29933D01*
X76276Y-29857D01*
X76295Y-29819D01*
X76333Y-29781D01*
X76391Y-29762D01*
X76429Y-29762D01*
X76486Y-29781D01*
X76505Y-29800D01*
G54D14*
X67272Y-26269D02*
X67729Y-26269D01*
X47272Y-26269D02*
X47729Y-26269D01*
X68272Y-26269D02*
X68729Y-26269D01*
X68500Y-26574D02*
X68500Y-25964D01*
X48022Y-26269D02*
X48479Y-26269D01*
X48250Y-26574D02*
X48250Y-25964D01*
X33522Y-26269D02*
X33979Y-26269D01*
X34522Y-26269D02*
X34979Y-26269D01*
X34750Y-26574D02*
X34750Y-25964D01*
G54D12*
X53752Y-51512D02*
X53829Y-51512D01*
X53867Y-51531D01*
X53905Y-51569D01*
X53924Y-51645D01*
X53924Y-51779D01*
X53905Y-51855D01*
X53867Y-51893D01*
X53829Y-51912D01*
X53752Y-51912D01*
X53714Y-51893D01*
X53676Y-51855D01*
X53657Y-51779D01*
X53657Y-51645D01*
X53676Y-51569D01*
X53714Y-51531D01*
X53752Y-51512D01*
X54095Y-51912D02*
X54095Y-51512D01*
X54324Y-51912D01*
X54324Y-51512D01*
X53619Y-52512D02*
X53696Y-52512D01*
X53734Y-52531D01*
X53772Y-52569D01*
X53791Y-52645D01*
X53791Y-52779D01*
X53772Y-52855D01*
X53734Y-52893D01*
X53696Y-52912D01*
X53619Y-52912D01*
X53581Y-52893D01*
X53543Y-52855D01*
X53524Y-52779D01*
X53524Y-52645D01*
X53543Y-52569D01*
X53581Y-52531D01*
X53619Y-52512D01*
X54096Y-52702D02*
X53962Y-52702D01*
X53962Y-52912D02*
X53962Y-52512D01*
X54153Y-52512D01*
X54439Y-52702D02*
X54305Y-52702D01*
X54305Y-52912D02*
X54305Y-52512D01*
X54496Y-52512D01*
X39110Y-28643D02*
X39110Y-29071D01*
X39090Y-29157D01*
X39052Y-29214D01*
X38995Y-29243D01*
X38957Y-29243D01*
X39472Y-28843D02*
X39472Y-29243D01*
X39300Y-28843D02*
X39300Y-29157D01*
X39319Y-29214D01*
X39357Y-29243D01*
X39415Y-29243D01*
X39453Y-29214D01*
X39472Y-29186D01*
X39662Y-28843D02*
X39662Y-29243D01*
X39662Y-28900D02*
X39681Y-28871D01*
X39719Y-28843D01*
X39777Y-28843D01*
X39815Y-28871D01*
X39834Y-28929D01*
X39834Y-29243D01*
X40177Y-29214D02*
X40139Y-29243D01*
X40062Y-29243D01*
X40024Y-29214D01*
X40005Y-29157D01*
X40005Y-28929D01*
X40024Y-28871D01*
X40062Y-28843D01*
X40139Y-28843D01*
X40177Y-28871D01*
X40196Y-28929D01*
X40196Y-28986D01*
X40005Y-29043D01*
X40653Y-28700D02*
X40672Y-28671D01*
X40710Y-28643D01*
X40806Y-28643D01*
X40844Y-28671D01*
X40863Y-28700D01*
X40882Y-28757D01*
X40882Y-28814D01*
X40863Y-28900D01*
X40634Y-29243D01*
X40882Y-29243D01*
X41129Y-28643D02*
X41168Y-28643D01*
X41206Y-28671D01*
X41225Y-28700D01*
X41244Y-28757D01*
X41263Y-28871D01*
X41263Y-29014D01*
X41244Y-29129D01*
X41225Y-29186D01*
X41206Y-29214D01*
X41168Y-29243D01*
X41129Y-29243D01*
X41091Y-29214D01*
X41072Y-29186D01*
X41053Y-29129D01*
X41034Y-29014D01*
X41034Y-28871D01*
X41053Y-28757D01*
X41072Y-28700D01*
X41091Y-28671D01*
X41129Y-28643D01*
X41644Y-29243D02*
X41415Y-29243D01*
X41529Y-29243D02*
X41529Y-28643D01*
X41491Y-28729D01*
X41453Y-28786D01*
X41415Y-28814D01*
X42025Y-29243D02*
X41796Y-29243D01*
X41910Y-29243D02*
X41910Y-28643D01*
X41872Y-28729D01*
X41834Y-28786D01*
X41796Y-28814D01*
X39443Y-27643D02*
X39576Y-28243D01*
X39710Y-27643D01*
X39996Y-28214D02*
X39958Y-28243D01*
X39881Y-28243D01*
X39843Y-28214D01*
X39824Y-28157D01*
X39824Y-27929D01*
X39843Y-27871D01*
X39881Y-27843D01*
X39958Y-27843D01*
X39996Y-27871D01*
X40015Y-27929D01*
X40015Y-27986D01*
X39824Y-28043D01*
X40186Y-28243D02*
X40186Y-27843D01*
X40186Y-27957D02*
X40205Y-27900D01*
X40224Y-27871D01*
X40262Y-27843D01*
X40301Y-27843D01*
X40720Y-27700D02*
X40739Y-27671D01*
X40777Y-27643D01*
X40873Y-27643D01*
X40911Y-27671D01*
X40930Y-27700D01*
X40949Y-27757D01*
X40949Y-27814D01*
X40930Y-27900D01*
X40701Y-28243D01*
X40949Y-28243D01*
X41120Y-28186D02*
X41139Y-28214D01*
X41120Y-28243D01*
X41101Y-28214D01*
X41120Y-28186D01*
X41120Y-28243D01*
X41386Y-27643D02*
X41425Y-27643D01*
X41463Y-27671D01*
X41482Y-27700D01*
X41501Y-27757D01*
X41520Y-27871D01*
X41520Y-28014D01*
X41501Y-28129D01*
X41482Y-28186D01*
X41463Y-28214D01*
X41425Y-28243D01*
X41386Y-28243D01*
X41348Y-28214D01*
X41329Y-28186D01*
X41310Y-28129D01*
X41291Y-28014D01*
X41291Y-27871D01*
X41310Y-27757D01*
X41329Y-27700D01*
X41348Y-27671D01*
X41386Y-27643D01*
X36431Y-26929D02*
X36488Y-26957D01*
X36507Y-26986D01*
X36526Y-27043D01*
X36526Y-27129D01*
X36507Y-27186D01*
X36488Y-27214D01*
X36450Y-27243D01*
X36297Y-27243D01*
X36297Y-26643D01*
X36431Y-26643D01*
X36469Y-26671D01*
X36488Y-26700D01*
X36507Y-26757D01*
X36507Y-26814D01*
X36488Y-26871D01*
X36469Y-26900D01*
X36431Y-26929D01*
X36297Y-26929D01*
X36869Y-26843D02*
X36869Y-27243D01*
X36697Y-26843D02*
X36697Y-27157D01*
X36716Y-27214D01*
X36754Y-27243D01*
X36812Y-27243D01*
X36850Y-27214D01*
X36869Y-27186D01*
X37231Y-27214D02*
X37193Y-27243D01*
X37116Y-27243D01*
X37078Y-27214D01*
X37059Y-27186D01*
X37040Y-27129D01*
X37040Y-26957D01*
X37059Y-26900D01*
X37078Y-26871D01*
X37116Y-26843D01*
X37193Y-26843D01*
X37231Y-26871D01*
X37402Y-27243D02*
X37402Y-26643D01*
X37440Y-27014D02*
X37555Y-27243D01*
X37555Y-26843D02*
X37402Y-27071D01*
X37726Y-26843D02*
X37726Y-27443D01*
X37726Y-26871D02*
X37764Y-26843D01*
X37841Y-26843D01*
X37879Y-26871D01*
X37898Y-26900D01*
X37917Y-26957D01*
X37917Y-27129D01*
X37898Y-27186D01*
X37879Y-27214D01*
X37841Y-27243D01*
X37764Y-27243D01*
X37726Y-27214D01*
X38260Y-26843D02*
X38260Y-27243D01*
X38088Y-26843D02*
X38088Y-27157D01*
X38107Y-27214D01*
X38145Y-27243D01*
X38203Y-27243D01*
X38241Y-27214D01*
X38260Y-27186D01*
X38622Y-27214D02*
X38584Y-27243D01*
X38507Y-27243D01*
X38469Y-27214D01*
X38450Y-27186D01*
X38431Y-27129D01*
X38431Y-26957D01*
X38450Y-26900D01*
X38469Y-26871D01*
X38507Y-26843D01*
X38584Y-26843D01*
X38622Y-26871D01*
X38793Y-27243D02*
X38793Y-26643D01*
X38831Y-27014D02*
X38946Y-27243D01*
X38946Y-26843D02*
X38793Y-27071D01*
X39651Y-27186D02*
X39632Y-27214D01*
X39575Y-27243D01*
X39537Y-27243D01*
X39479Y-27214D01*
X39441Y-27157D01*
X39422Y-27100D01*
X39403Y-26986D01*
X39403Y-26900D01*
X39422Y-26786D01*
X39441Y-26729D01*
X39479Y-26671D01*
X39537Y-26643D01*
X39575Y-26643D01*
X39632Y-26671D01*
X39651Y-26700D01*
X39994Y-26843D02*
X39994Y-27243D01*
X39822Y-26843D02*
X39822Y-27157D01*
X39841Y-27214D01*
X39879Y-27243D01*
X39937Y-27243D01*
X39975Y-27214D01*
X39994Y-27186D01*
X40184Y-27243D02*
X40184Y-26843D01*
X40184Y-26957D02*
X40203Y-26900D01*
X40222Y-26871D01*
X40260Y-26843D01*
X40299Y-26843D01*
X40432Y-27243D02*
X40432Y-26843D01*
X40432Y-26957D02*
X40451Y-26900D01*
X40470Y-26871D01*
X40508Y-26843D01*
X40547Y-26843D01*
X40833Y-27214D02*
X40795Y-27243D01*
X40718Y-27243D01*
X40680Y-27214D01*
X40661Y-27157D01*
X40661Y-26929D01*
X40680Y-26871D01*
X40718Y-26843D01*
X40795Y-26843D01*
X40833Y-26871D01*
X40852Y-26929D01*
X40852Y-26986D01*
X40661Y-27043D01*
X41023Y-26843D02*
X41023Y-27243D01*
X41023Y-26900D02*
X41042Y-26871D01*
X41080Y-26843D01*
X41138Y-26843D01*
X41176Y-26871D01*
X41195Y-26929D01*
X41195Y-27243D01*
X41328Y-26843D02*
X41480Y-26843D01*
X41385Y-26643D02*
X41385Y-27157D01*
X41404Y-27214D01*
X41442Y-27243D01*
X41480Y-27243D01*
X42148Y-27186D02*
X42129Y-27214D01*
X42072Y-27243D01*
X42034Y-27243D01*
X41976Y-27214D01*
X41938Y-27157D01*
X41919Y-27100D01*
X41900Y-26986D01*
X41900Y-26900D01*
X41919Y-26786D01*
X41938Y-26729D01*
X41976Y-26671D01*
X42034Y-26643D01*
X42072Y-26643D01*
X42129Y-26671D01*
X42148Y-26700D01*
X42376Y-27243D02*
X42338Y-27214D01*
X42319Y-27186D01*
X42300Y-27129D01*
X42300Y-26957D01*
X42319Y-26900D01*
X42338Y-26871D01*
X42376Y-26843D01*
X42434Y-26843D01*
X42472Y-26871D01*
X42491Y-26900D01*
X42510Y-26957D01*
X42510Y-27129D01*
X42491Y-27186D01*
X42472Y-27214D01*
X42434Y-27243D01*
X42376Y-27243D01*
X42681Y-26843D02*
X42681Y-27243D01*
X42681Y-26900D02*
X42700Y-26871D01*
X42738Y-26843D01*
X42796Y-26843D01*
X42834Y-26871D01*
X42853Y-26929D01*
X42853Y-27243D01*
X42986Y-26843D02*
X43138Y-26843D01*
X43043Y-26643D02*
X43043Y-27157D01*
X43062Y-27214D01*
X43100Y-27243D01*
X43138Y-27243D01*
X43272Y-27243D02*
X43272Y-26843D01*
X43272Y-26957D02*
X43291Y-26900D01*
X43310Y-26871D01*
X43348Y-26843D01*
X43387Y-26843D01*
X43577Y-27243D02*
X43539Y-27214D01*
X43520Y-27186D01*
X43501Y-27129D01*
X43501Y-26957D01*
X43520Y-26900D01*
X43539Y-26871D01*
X43577Y-26843D01*
X43635Y-26843D01*
X43673Y-26871D01*
X43692Y-26900D01*
X43711Y-26957D01*
X43711Y-27129D01*
X43692Y-27186D01*
X43673Y-27214D01*
X43635Y-27243D01*
X43577Y-27243D01*
X43939Y-27243D02*
X43901Y-27214D01*
X43882Y-27157D01*
X43882Y-26643D01*
X44149Y-27243D02*
X44111Y-27214D01*
X44092Y-27157D01*
X44092Y-26643D01*
X44455Y-27214D02*
X44417Y-27243D01*
X44340Y-27243D01*
X44302Y-27214D01*
X44283Y-27157D01*
X44283Y-26929D01*
X44302Y-26871D01*
X44340Y-26843D01*
X44417Y-26843D01*
X44455Y-26871D01*
X44474Y-26929D01*
X44474Y-26986D01*
X44283Y-27043D01*
X44645Y-27243D02*
X44645Y-26843D01*
X44645Y-26957D02*
X44664Y-26900D01*
X44683Y-26871D01*
X44721Y-26843D01*
X44760Y-26843D01*
G54D11*
X36750Y-51700D02*
X31750Y-51700D01*
X36250Y-55600D02*
X32250Y-55600D01*
X32250Y-55600D02*
X32250Y-54100D01*
X32250Y-54100D02*
X36250Y-54100D01*
X36250Y-54100D02*
X36250Y-55600D01*
X84250Y-51700D02*
X79250Y-51700D01*
X83750Y-55600D02*
X79750Y-55600D01*
X79750Y-55600D02*
X79750Y-54100D01*
X79750Y-54100D02*
X83750Y-54100D01*
X83750Y-54100D02*
X83750Y-55600D01*
X70500Y-51700D02*
X65500Y-51700D01*
X70000Y-55600D02*
X66000Y-55600D01*
X66000Y-55600D02*
X66000Y-54100D01*
X66000Y-54100D02*
X70000Y-54100D01*
X70000Y-54100D02*
X70000Y-55600D01*
X50500Y-51700D02*
X45500Y-51700D01*
X50000Y-55600D02*
X46000Y-55600D01*
X46000Y-55600D02*
X46000Y-54100D01*
X46000Y-54100D02*
X50000Y-54100D01*
X50000Y-54100D02*
X50000Y-55600D01*
X59500Y-26750D02*
X59500Y-25750D01*
X59500Y-25750D02*
X56500Y-25750D01*
X56500Y-25750D02*
X56500Y-26750D01*
X61500Y-43750D02*
X54500Y-43750D01*
X54500Y-43750D02*
X54500Y-26750D01*
X54500Y-26750D02*
X61500Y-26750D01*
X61500Y-26750D02*
X61500Y-43750D01*
X58500Y-42750D02*
X58498Y-42707D01*
X58492Y-42664D01*
X58482Y-42621D01*
X58469Y-42579D01*
X58453Y-42539D01*
X58433Y-42501D01*
X58409Y-42464D01*
X58383Y-42429D01*
X58353Y-42397D01*
X58321Y-42367D01*
X58286Y-42341D01*
X58250Y-42317D01*
X58211Y-42297D01*
X58171Y-42281D01*
X58129Y-42268D01*
X58086Y-42258D01*
X58043Y-42252D01*
X58000Y-42250D01*
X58000Y-42250D02*
X57957Y-42252D01*
X57914Y-42258D01*
X57871Y-42268D01*
X57829Y-42281D01*
X57789Y-42297D01*
X57751Y-42317D01*
X57714Y-42341D01*
X57679Y-42367D01*
X57647Y-42397D01*
X57617Y-42429D01*
X57591Y-42464D01*
X57567Y-42501D01*
X57547Y-42539D01*
X57531Y-42579D01*
X57518Y-42621D01*
X57508Y-42664D01*
X57502Y-42707D01*
X57500Y-42750D01*
X55500Y-42750D02*
X57500Y-42750D01*
X60500Y-42750D02*
X58500Y-42750D01*
X60500Y-42750D02*
X60500Y-27750D01*
X60500Y-27750D02*
X55500Y-27750D01*
X55500Y-27750D02*
X55500Y-42750D01*
X54100Y-49550D02*
X57700Y-49550D01*
X57700Y-49550D02*
X57700Y-44950D01*
X57700Y-44950D02*
X54100Y-44950D01*
X54100Y-44950D02*
X54100Y-49550D01*
G54D15*
X61670Y-48200D02*
X61668Y-48213D01*
X61664Y-48226D01*
X61658Y-48238D01*
X61649Y-48249D01*
X61639Y-48258D01*
X61627Y-48264D01*
X61614Y-48268D01*
X61600Y-48269D01*
X61587Y-48268D01*
X61574Y-48264D01*
X61562Y-48258D01*
X61552Y-48250D01*
X61543Y-48239D01*
X61536Y-48227D01*
X61532Y-48214D01*
X61531Y-48200D01*
X61532Y-48188D01*
X61535Y-48175D01*
X61542Y-48163D01*
X61550Y-48152D01*
X61561Y-48143D01*
X61572Y-48136D01*
X61585Y-48132D01*
X61599Y-48131D01*
X61612Y-48132D01*
X61625Y-48135D01*
X61637Y-48141D01*
X61648Y-48150D01*
X61657Y-48160D01*
X61663Y-48172D01*
X61668Y-48185D01*
X61669Y-48199D01*
X61670Y-48200D01*
X60450Y-47550D02*
X60450Y-48150D01*
X60450Y-48150D02*
X61550Y-48150D01*
X61550Y-48150D02*
X61550Y-47550D01*
X61550Y-46950D02*
X61550Y-46350D01*
X61550Y-46350D02*
X60450Y-46350D01*
X60450Y-46350D02*
X60450Y-46950D01*
X53770Y-39900D02*
X53768Y-39913D01*
X53764Y-39926D01*
X53758Y-39938D01*
X53749Y-39949D01*
X53739Y-39958D01*
X53727Y-39964D01*
X53714Y-39968D01*
X53700Y-39969D01*
X53687Y-39968D01*
X53674Y-39964D01*
X53662Y-39958D01*
X53652Y-39950D01*
X53643Y-39939D01*
X53636Y-39927D01*
X53632Y-39914D01*
X53631Y-39900D01*
X53632Y-39888D01*
X53635Y-39875D01*
X53642Y-39863D01*
X53650Y-39852D01*
X53661Y-39843D01*
X53672Y-39836D01*
X53685Y-39832D01*
X53699Y-39831D01*
X53712Y-39832D01*
X53725Y-39835D01*
X53737Y-39841D01*
X53748Y-39850D01*
X53757Y-39860D01*
X53763Y-39872D01*
X53768Y-39885D01*
X53769Y-39899D01*
X53770Y-39900D01*
X53050Y-41050D02*
X53650Y-41050D01*
X53650Y-41050D02*
X53650Y-39950D01*
X53650Y-39950D02*
X53050Y-39950D01*
X52450Y-39950D02*
X51850Y-39950D01*
X51850Y-39950D02*
X51850Y-41050D01*
X51850Y-41050D02*
X52450Y-41050D01*
X58220Y-51300D02*
X58218Y-51313D01*
X58214Y-51326D01*
X58208Y-51338D01*
X58199Y-51349D01*
X58189Y-51358D01*
X58177Y-51364D01*
X58164Y-51368D01*
X58150Y-51369D01*
X58137Y-51368D01*
X58124Y-51364D01*
X58112Y-51358D01*
X58102Y-51350D01*
X58093Y-51339D01*
X58086Y-51327D01*
X58082Y-51314D01*
X58081Y-51300D01*
X58082Y-51288D01*
X58085Y-51275D01*
X58092Y-51263D01*
X58100Y-51252D01*
X58111Y-51243D01*
X58122Y-51236D01*
X58135Y-51232D01*
X58149Y-51231D01*
X58162Y-51232D01*
X58175Y-51235D01*
X58187Y-51241D01*
X58198Y-51250D01*
X58207Y-51260D01*
X58213Y-51272D01*
X58218Y-51285D01*
X58219Y-51299D01*
X58220Y-51300D01*
X59300Y-51950D02*
X59300Y-51350D01*
X59300Y-51350D02*
X58200Y-51350D01*
X58200Y-51350D02*
X58200Y-51950D01*
X58200Y-52550D02*
X58200Y-53150D01*
X58200Y-53150D02*
X59300Y-53150D01*
X59300Y-53150D02*
X59300Y-52550D01*
X39970Y-42050D02*
X39968Y-42063D01*
X39964Y-42076D01*
X39958Y-42088D01*
X39949Y-42099D01*
X39939Y-42108D01*
X39927Y-42114D01*
X39914Y-42118D01*
X39900Y-42119D01*
X39887Y-42118D01*
X39874Y-42114D01*
X39862Y-42108D01*
X39852Y-42100D01*
X39843Y-42089D01*
X39836Y-42077D01*
X39832Y-42064D01*
X39831Y-42050D01*
X39832Y-42038D01*
X39835Y-42025D01*
X39842Y-42013D01*
X39850Y-42002D01*
X39861Y-41993D01*
X39872Y-41986D01*
X39885Y-41982D01*
X39899Y-41981D01*
X39912Y-41982D01*
X39925Y-41985D01*
X39937Y-41991D01*
X39948Y-42000D01*
X39957Y-42010D01*
X39963Y-42022D01*
X39968Y-42035D01*
X39969Y-42049D01*
X39970Y-42050D01*
X41050Y-42700D02*
X41050Y-42100D01*
X41050Y-42100D02*
X39950Y-42100D01*
X39950Y-42100D02*
X39950Y-42700D01*
X39950Y-43300D02*
X39950Y-43900D01*
X39950Y-43900D02*
X41050Y-43900D01*
X41050Y-43900D02*
X41050Y-43300D01*
G54D16*
X56750Y-51250D02*
X56750Y-53250D01*
X56750Y-53250D02*
X54750Y-53250D01*
X54750Y-53250D02*
X54750Y-51250D01*
X54750Y-51250D02*
X56750Y-51250D01*
G54D15*
X60720Y-51300D02*
X60718Y-51313D01*
X60714Y-51326D01*
X60708Y-51338D01*
X60699Y-51349D01*
X60689Y-51358D01*
X60677Y-51364D01*
X60664Y-51368D01*
X60650Y-51369D01*
X60637Y-51368D01*
X60624Y-51364D01*
X60612Y-51358D01*
X60602Y-51350D01*
X60593Y-51339D01*
X60586Y-51327D01*
X60582Y-51314D01*
X60581Y-51300D01*
X60582Y-51288D01*
X60585Y-51275D01*
X60592Y-51263D01*
X60600Y-51252D01*
X60611Y-51243D01*
X60622Y-51236D01*
X60635Y-51232D01*
X60649Y-51231D01*
X60662Y-51232D01*
X60675Y-51235D01*
X60687Y-51241D01*
X60698Y-51250D01*
X60707Y-51260D01*
X60713Y-51272D01*
X60718Y-51285D01*
X60719Y-51299D01*
X60720Y-51300D01*
X61800Y-51950D02*
X61800Y-51350D01*
X61800Y-51350D02*
X60700Y-51350D01*
X60700Y-51350D02*
X60700Y-51950D01*
X60700Y-52550D02*
X60700Y-53150D01*
X60700Y-53150D02*
X61800Y-53150D01*
X61800Y-53150D02*
X61800Y-52550D01*
X72770Y-27650D02*
X72768Y-27663D01*
X72764Y-27676D01*
X72758Y-27688D01*
X72749Y-27699D01*
X72739Y-27708D01*
X72727Y-27714D01*
X72714Y-27718D01*
X72700Y-27719D01*
X72687Y-27718D01*
X72674Y-27714D01*
X72662Y-27708D01*
X72652Y-27700D01*
X72643Y-27689D01*
X72636Y-27677D01*
X72632Y-27664D01*
X72631Y-27650D01*
X72632Y-27638D01*
X72635Y-27625D01*
X72642Y-27613D01*
X72650Y-27602D01*
X72661Y-27593D01*
X72672Y-27586D01*
X72685Y-27582D01*
X72699Y-27581D01*
X72712Y-27582D01*
X72725Y-27585D01*
X72737Y-27591D01*
X72748Y-27600D01*
X72757Y-27610D01*
X72763Y-27622D01*
X72768Y-27635D01*
X72769Y-27649D01*
X72770Y-27650D01*
X72050Y-28800D02*
X72650Y-28800D01*
X72650Y-28800D02*
X72650Y-27700D01*
X72650Y-27700D02*
X72050Y-27700D01*
X71450Y-27700D02*
X70850Y-27700D01*
X70850Y-27700D02*
X70850Y-28800D01*
X70850Y-28800D02*
X71450Y-28800D01*
G54D11*
X84750Y-30500D02*
X78750Y-30500D01*
X78750Y-30500D02*
X78750Y-42500D01*
X78750Y-42500D02*
X84750Y-42500D01*
X84750Y-42500D02*
X84750Y-30500D01*
X71000Y-30500D02*
X65000Y-30500D01*
X65000Y-30500D02*
X65000Y-42500D01*
X65000Y-42500D02*
X71000Y-42500D01*
X71000Y-42500D02*
X71000Y-30500D01*
X51000Y-30500D02*
X45000Y-30500D01*
X45000Y-30500D02*
X45000Y-42500D01*
X45000Y-42500D02*
X51000Y-42500D01*
X51000Y-42500D02*
X51000Y-30500D01*
X37250Y-30500D02*
X31250Y-30500D01*
X31250Y-30500D02*
X31250Y-42500D01*
X31250Y-42500D02*
X37250Y-42500D01*
X37250Y-42500D02*
X37250Y-30500D01*
X53250Y-33750D02*
X52250Y-33750D01*
X52250Y-33750D02*
X52250Y-37750D01*
X52250Y-37750D02*
X53250Y-37750D01*
X53250Y-37750D02*
X53250Y-33750D01*
G54D16*
X64250Y-32750D02*
X64250Y-38750D01*
X64250Y-38750D02*
X62250Y-38750D01*
X62250Y-38750D02*
X62250Y-32750D01*
X62250Y-32750D02*
X64250Y-32750D01*
G54D11*
X76846Y-32000D02*
X76820Y-32261D01*
X76744Y-32512D01*
X76621Y-32744D01*
X76455Y-32948D01*
X76252Y-33115D01*
X76021Y-33240D01*
X75770Y-33318D01*
X75509Y-33345D01*
X75248Y-33322D01*
X74996Y-33247D01*
X74763Y-33126D01*
X74559Y-32961D01*
X74390Y-32760D01*
X74263Y-32530D01*
X74184Y-32279D01*
X74155Y-32018D01*
X74177Y-31758D01*
X74249Y-31505D01*
X74369Y-31271D01*
X74532Y-31065D01*
X74732Y-30895D01*
X74962Y-30767D01*
X75211Y-30686D01*
X75472Y-30655D01*
X75733Y-30675D01*
X75986Y-30746D01*
X76221Y-30864D01*
X76428Y-31026D01*
X76599Y-31225D01*
X76729Y-31453D01*
X76812Y-31702D01*
X76845Y-31963D01*
X76846Y-32000D01*
X41846Y-53250D02*
X41820Y-53511D01*
X41744Y-53762D01*
X41621Y-53994D01*
X41455Y-54198D01*
X41252Y-54365D01*
X41021Y-54490D01*
X40770Y-54568D01*
X40509Y-54595D01*
X40248Y-54572D01*
X39996Y-54497D01*
X39763Y-54376D01*
X39559Y-54211D01*
X39390Y-54010D01*
X39263Y-53780D01*
X39184Y-53529D01*
X39155Y-53268D01*
X39177Y-53008D01*
X39249Y-52755D01*
X39369Y-52521D01*
X39532Y-52315D01*
X39732Y-52145D01*
X39962Y-52017D01*
X40211Y-51936D01*
X40472Y-51905D01*
X40733Y-51925D01*
X40986Y-51996D01*
X41221Y-52114D01*
X41428Y-52276D01*
X41599Y-52475D01*
X41729Y-52703D01*
X41812Y-52952D01*
X41845Y-53213D01*
X41846Y-53250D01*
X76846Y-53250D02*
X76820Y-53511D01*
X76744Y-53762D01*
X76621Y-53994D01*
X76455Y-54198D01*
X76252Y-54365D01*
X76021Y-54490D01*
X75770Y-54568D01*
X75509Y-54595D01*
X75248Y-54572D01*
X74996Y-54497D01*
X74763Y-54376D01*
X74559Y-54211D01*
X74390Y-54010D01*
X74263Y-53780D01*
X74184Y-53529D01*
X74155Y-53268D01*
X74177Y-53008D01*
X74249Y-52755D01*
X74369Y-52521D01*
X74532Y-52315D01*
X74732Y-52145D01*
X74962Y-52017D01*
X75211Y-51936D01*
X75472Y-51905D01*
X75733Y-51925D01*
X75986Y-51996D01*
X76221Y-52114D01*
X76428Y-52276D01*
X76599Y-52475D01*
X76729Y-52703D01*
X76812Y-52952D01*
X76845Y-53213D01*
X76846Y-53250D01*
X41846Y-32000D02*
X41820Y-32261D01*
X41744Y-32512D01*
X41621Y-32744D01*
X41455Y-32948D01*
X41252Y-33115D01*
X41021Y-33240D01*
X40770Y-33318D01*
X40509Y-33345D01*
X40248Y-33322D01*
X39996Y-33247D01*
X39763Y-33126D01*
X39559Y-32961D01*
X39390Y-32760D01*
X39263Y-32530D01*
X39184Y-32279D01*
X39155Y-32018D01*
X39177Y-31758D01*
X39249Y-31505D01*
X39369Y-31271D01*
X39532Y-31065D01*
X39732Y-30895D01*
X39962Y-30767D01*
X40211Y-30686D01*
X40472Y-30655D01*
X40733Y-30675D01*
X40986Y-30746D01*
X41221Y-30864D01*
X41428Y-31026D01*
X41599Y-31225D01*
X41729Y-31453D01*
X41812Y-31702D01*
X41845Y-31963D01*
X41846Y-32000D01*
X38250Y-43000D02*
X38250Y-51250D01*
X38250Y-51250D02*
X29750Y-51250D01*
X29750Y-51250D02*
X29750Y-43000D01*
X38250Y-43000D02*
X29750Y-43000D01*
X85750Y-43000D02*
X85750Y-51250D01*
X85750Y-51250D02*
X77250Y-51250D01*
X77250Y-51250D02*
X77250Y-43000D01*
X85750Y-43000D02*
X77250Y-43000D01*
X72000Y-43000D02*
X72000Y-51250D01*
X72000Y-51250D02*
X63500Y-51250D01*
X63500Y-51250D02*
X63500Y-43000D01*
X72000Y-43000D02*
X63500Y-43000D01*
X52000Y-43000D02*
X52000Y-51250D01*
X52000Y-51250D02*
X43500Y-51250D01*
X43500Y-51250D02*
X43500Y-43000D01*
X52000Y-43000D02*
X43500Y-43000D01*
X83000Y-29500D02*
X83000Y-26750D01*
X83000Y-29500D02*
X80500Y-29500D01*
X80500Y-29500D02*
X80500Y-26750D01*
X83000Y-26750D02*
X80500Y-26750D01*
X49250Y-29500D02*
X49250Y-26750D01*
X49250Y-29500D02*
X46750Y-29500D01*
X46750Y-29500D02*
X46750Y-26750D01*
X49250Y-26750D02*
X46750Y-26750D01*
X76250Y-29500D02*
X76250Y-26750D01*
X76250Y-29500D02*
X73750Y-29500D01*
X73750Y-29500D02*
X73750Y-26750D01*
X76250Y-26750D02*
X73750Y-26750D01*
X69250Y-29500D02*
X69250Y-26750D01*
X69250Y-29500D02*
X66750Y-29500D01*
X66750Y-29500D02*
X66750Y-26750D01*
X69250Y-26750D02*
X66750Y-26750D01*
X35500Y-29500D02*
X35500Y-26750D01*
X35500Y-29500D02*
X33000Y-29500D01*
X33000Y-29500D02*
X33000Y-26750D01*
X35500Y-26750D02*
X33000Y-26750D01*
X74500Y-41750D02*
X74500Y-33750D01*
X76500Y-33750D02*
X76500Y-41750D01*
X76500Y-41750D02*
X74500Y-41750D01*
X75000Y-41750D02*
X75000Y-41250D01*
X75000Y-41250D02*
X76000Y-41250D01*
X76000Y-41250D02*
X76000Y-41750D01*
X74500Y-33750D02*
X76500Y-33750D01*
G54D15*
X74970Y-42050D02*
X74968Y-42063D01*
X74964Y-42076D01*
X74958Y-42088D01*
X74949Y-42099D01*
X74939Y-42108D01*
X74927Y-42114D01*
X74914Y-42118D01*
X74900Y-42119D01*
X74887Y-42118D01*
X74874Y-42114D01*
X74862Y-42108D01*
X74852Y-42100D01*
X74843Y-42089D01*
X74836Y-42077D01*
X74832Y-42064D01*
X74831Y-42050D01*
X74832Y-42038D01*
X74835Y-42025D01*
X74842Y-42013D01*
X74850Y-42002D01*
X74861Y-41993D01*
X74872Y-41986D01*
X74885Y-41982D01*
X74899Y-41981D01*
X74912Y-41982D01*
X74925Y-41985D01*
X74937Y-41991D01*
X74948Y-42000D01*
X74957Y-42010D01*
X74963Y-42022D01*
X74968Y-42035D01*
X74969Y-42049D01*
X74970Y-42050D01*
X76050Y-42700D02*
X76050Y-42100D01*
X76050Y-42100D02*
X74950Y-42100D01*
X74950Y-42100D02*
X74950Y-42700D01*
X74950Y-43300D02*
X74950Y-43900D01*
X74950Y-43900D02*
X76050Y-43900D01*
X76050Y-43900D02*
X76050Y-43300D01*
G54D11*
X63450Y-29650D02*
X63050Y-29650D01*
X63050Y-29650D02*
X63050Y-30850D01*
X63050Y-30850D02*
X63450Y-30850D01*
X63450Y-30850D02*
X63450Y-29650D01*
X39500Y-41750D02*
X39500Y-33750D01*
X41500Y-33750D02*
X41500Y-41750D01*
X41500Y-41750D02*
X39500Y-41750D01*
X40000Y-41750D02*
X40000Y-41250D01*
X40000Y-41250D02*
X41000Y-41250D01*
X41000Y-41250D02*
X41000Y-41750D01*
X39500Y-33750D02*
X41500Y-33750D01*
G54D15*
X37271Y-53678D02*
X37129Y-53778D01*
X37271Y-53850D02*
X36971Y-53850D01*
X36971Y-53735D01*
X36986Y-53707D01*
X37000Y-53692D01*
X37029Y-53678D01*
X37071Y-53678D01*
X37100Y-53692D01*
X37114Y-53707D01*
X37129Y-53735D01*
X37129Y-53850D01*
X36971Y-53592D02*
X37271Y-53492D01*
X36971Y-53392D01*
X37271Y-53135D02*
X37271Y-53307D01*
X37271Y-53221D02*
X36971Y-53221D01*
X37014Y-53250D01*
X37043Y-53278D01*
X37057Y-53307D01*
X31471Y-53850D02*
X31171Y-53850D01*
X31171Y-53735D01*
X31186Y-53707D01*
X31200Y-53692D01*
X31229Y-53678D01*
X31271Y-53678D01*
X31300Y-53692D01*
X31314Y-53707D01*
X31329Y-53735D01*
X31329Y-53850D01*
X31171Y-53492D02*
X31171Y-53435D01*
X31186Y-53407D01*
X31214Y-53378D01*
X31271Y-53364D01*
X31371Y-53364D01*
X31429Y-53378D01*
X31457Y-53407D01*
X31471Y-53435D01*
X31471Y-53492D01*
X31457Y-53521D01*
X31429Y-53550D01*
X31371Y-53564D01*
X31271Y-53564D01*
X31214Y-53550D01*
X31186Y-53521D01*
X31171Y-53492D01*
X31171Y-53278D02*
X31171Y-53107D01*
X31471Y-53193D02*
X31171Y-53193D01*
X84771Y-53678D02*
X84629Y-53778D01*
X84771Y-53850D02*
X84471Y-53850D01*
X84471Y-53735D01*
X84486Y-53707D01*
X84500Y-53692D01*
X84529Y-53678D01*
X84571Y-53678D01*
X84600Y-53692D01*
X84614Y-53707D01*
X84629Y-53735D01*
X84629Y-53850D01*
X84471Y-53592D02*
X84771Y-53492D01*
X84471Y-53392D01*
X84571Y-53164D02*
X84771Y-53164D01*
X84457Y-53235D02*
X84671Y-53307D01*
X84671Y-53121D01*
X78971Y-53850D02*
X78671Y-53850D01*
X78671Y-53735D01*
X78686Y-53707D01*
X78700Y-53692D01*
X78729Y-53678D01*
X78771Y-53678D01*
X78800Y-53692D01*
X78814Y-53707D01*
X78829Y-53735D01*
X78829Y-53850D01*
X78671Y-53492D02*
X78671Y-53435D01*
X78686Y-53407D01*
X78714Y-53378D01*
X78771Y-53364D01*
X78871Y-53364D01*
X78929Y-53378D01*
X78957Y-53407D01*
X78971Y-53435D01*
X78971Y-53492D01*
X78957Y-53521D01*
X78929Y-53550D01*
X78871Y-53564D01*
X78771Y-53564D01*
X78714Y-53550D01*
X78686Y-53521D01*
X78671Y-53492D01*
X78671Y-53278D02*
X78671Y-53107D01*
X78971Y-53193D02*
X78671Y-53193D01*
X71021Y-53678D02*
X70879Y-53778D01*
X71021Y-53850D02*
X70721Y-53850D01*
X70721Y-53735D01*
X70736Y-53707D01*
X70750Y-53692D01*
X70779Y-53678D01*
X70821Y-53678D01*
X70850Y-53692D01*
X70864Y-53707D01*
X70879Y-53735D01*
X70879Y-53850D01*
X70721Y-53592D02*
X71021Y-53492D01*
X70721Y-53392D01*
X70721Y-53321D02*
X70721Y-53135D01*
X70836Y-53235D01*
X70836Y-53193D01*
X70850Y-53164D01*
X70864Y-53150D01*
X70893Y-53135D01*
X70964Y-53135D01*
X70993Y-53150D01*
X71007Y-53164D01*
X71021Y-53193D01*
X71021Y-53278D01*
X71007Y-53307D01*
X70993Y-53321D01*
X65221Y-53850D02*
X64921Y-53850D01*
X64921Y-53735D01*
X64936Y-53707D01*
X64950Y-53692D01*
X64979Y-53678D01*
X65021Y-53678D01*
X65050Y-53692D01*
X65064Y-53707D01*
X65079Y-53735D01*
X65079Y-53850D01*
X64921Y-53492D02*
X64921Y-53435D01*
X64936Y-53407D01*
X64964Y-53378D01*
X65021Y-53364D01*
X65121Y-53364D01*
X65179Y-53378D01*
X65207Y-53407D01*
X65221Y-53435D01*
X65221Y-53492D01*
X65207Y-53521D01*
X65179Y-53550D01*
X65121Y-53564D01*
X65021Y-53564D01*
X64964Y-53550D01*
X64936Y-53521D01*
X64921Y-53492D01*
X64921Y-53278D02*
X64921Y-53107D01*
X65221Y-53193D02*
X64921Y-53193D01*
X51021Y-53678D02*
X50879Y-53778D01*
X51021Y-53850D02*
X50721Y-53850D01*
X50721Y-53735D01*
X50736Y-53707D01*
X50750Y-53692D01*
X50779Y-53678D01*
X50821Y-53678D01*
X50850Y-53692D01*
X50864Y-53707D01*
X50879Y-53735D01*
X50879Y-53850D01*
X50721Y-53592D02*
X51021Y-53492D01*
X50721Y-53392D01*
X50750Y-53307D02*
X50736Y-53293D01*
X50721Y-53264D01*
X50721Y-53193D01*
X50736Y-53164D01*
X50750Y-53150D01*
X50779Y-53135D01*
X50807Y-53135D01*
X50850Y-53150D01*
X51021Y-53321D01*
X51021Y-53135D01*
X45221Y-53850D02*
X44921Y-53850D01*
X44921Y-53735D01*
X44936Y-53707D01*
X44950Y-53692D01*
X44979Y-53678D01*
X45021Y-53678D01*
X45050Y-53692D01*
X45064Y-53707D01*
X45079Y-53735D01*
X45079Y-53850D01*
X44921Y-53492D02*
X44921Y-53435D01*
X44936Y-53407D01*
X44964Y-53378D01*
X45021Y-53364D01*
X45121Y-53364D01*
X45179Y-53378D01*
X45207Y-53407D01*
X45221Y-53435D01*
X45221Y-53492D01*
X45207Y-53521D01*
X45179Y-53550D01*
X45121Y-53564D01*
X45021Y-53564D01*
X44964Y-53550D01*
X44936Y-53521D01*
X44921Y-53492D01*
X44921Y-53278D02*
X44921Y-53107D01*
X45221Y-53193D02*
X44921Y-53193D01*
G54D14*
X53293Y-27143D02*
X53293Y-27629D01*
X53321Y-27686D01*
X53350Y-27714D01*
X53407Y-27743D01*
X53521Y-27743D01*
X53579Y-27714D01*
X53607Y-27686D01*
X53636Y-27629D01*
X53636Y-27143D01*
X53893Y-27200D02*
X53922Y-27171D01*
X53979Y-27143D01*
X54122Y-27143D01*
X54179Y-27171D01*
X54208Y-27200D01*
X54236Y-27257D01*
X54236Y-27314D01*
X54208Y-27400D01*
X53865Y-27743D01*
X54236Y-27743D01*
X57071Y-38758D02*
X57071Y-38472D01*
X57243Y-38815D02*
X56643Y-38615D01*
X57243Y-38415D01*
X57243Y-37872D02*
X56957Y-38072D01*
X57243Y-38215D02*
X56643Y-38215D01*
X56643Y-37987D01*
X56671Y-37929D01*
X56700Y-37901D01*
X56757Y-37872D01*
X56843Y-37872D01*
X56900Y-37901D01*
X56929Y-37929D01*
X56957Y-37987D01*
X56957Y-38215D01*
X57243Y-37615D02*
X56643Y-37615D01*
X56643Y-37472D01*
X56671Y-37387D01*
X56729Y-37329D01*
X56786Y-37301D01*
X56900Y-37272D01*
X56986Y-37272D01*
X57100Y-37301D01*
X57157Y-37329D01*
X57214Y-37387D01*
X57243Y-37472D01*
X57243Y-37615D01*
X56643Y-37015D02*
X57129Y-37015D01*
X57186Y-36987D01*
X57214Y-36958D01*
X57243Y-36901D01*
X57243Y-36787D01*
X57214Y-36729D01*
X57186Y-36701D01*
X57129Y-36672D01*
X56643Y-36672D01*
X57243Y-36386D02*
X56643Y-36386D01*
X57243Y-36100D02*
X56643Y-36100D01*
X57243Y-35757D01*
X56643Y-35757D01*
X56643Y-35357D02*
X56643Y-35243D01*
X56671Y-35185D01*
X56729Y-35128D01*
X56843Y-35100D01*
X57043Y-35100D01*
X57157Y-35128D01*
X57214Y-35185D01*
X57243Y-35243D01*
X57243Y-35357D01*
X57214Y-35414D01*
X57157Y-35471D01*
X57043Y-35500D01*
X56843Y-35500D01*
X56729Y-35471D01*
X56671Y-35414D01*
X56643Y-35357D01*
X57300Y-34985D02*
X57300Y-34528D01*
X57243Y-34385D02*
X56643Y-34385D01*
X57243Y-34042D01*
X56643Y-34042D01*
X57071Y-33785D02*
X57071Y-33499D01*
X57243Y-33842D02*
X56643Y-33642D01*
X57243Y-33442D01*
X57243Y-33242D02*
X56643Y-33242D01*
X57243Y-32899D01*
X56643Y-32899D01*
X56643Y-32499D02*
X56643Y-32385D01*
X56671Y-32327D01*
X56729Y-32270D01*
X56843Y-32242D01*
X57043Y-32242D01*
X57157Y-32270D01*
X57214Y-32327D01*
X57243Y-32385D01*
X57243Y-32499D01*
X57214Y-32556D01*
X57157Y-32613D01*
X57043Y-32642D01*
X56843Y-32642D01*
X56729Y-32613D01*
X56671Y-32556D01*
X56643Y-32499D01*
X57243Y-25893D02*
X57243Y-26379D01*
X57271Y-26436D01*
X57300Y-26464D01*
X57357Y-26493D01*
X57471Y-26493D01*
X57529Y-26464D01*
X57557Y-26436D01*
X57586Y-26379D01*
X57586Y-25893D01*
X57843Y-26464D02*
X57929Y-26493D01*
X58072Y-26493D01*
X58129Y-26464D01*
X58158Y-26436D01*
X58186Y-26379D01*
X58186Y-26321D01*
X58158Y-26264D01*
X58129Y-26236D01*
X58072Y-26207D01*
X57958Y-26179D01*
X57900Y-26150D01*
X57872Y-26121D01*
X57843Y-26064D01*
X57843Y-26007D01*
X57872Y-25950D01*
X57900Y-25921D01*
X57958Y-25893D01*
X58100Y-25893D01*
X58186Y-25921D01*
X58643Y-26179D02*
X58729Y-26207D01*
X58757Y-26236D01*
X58786Y-26293D01*
X58786Y-26379D01*
X58757Y-26436D01*
X58729Y-26464D01*
X58671Y-26493D01*
X58443Y-26493D01*
X58443Y-25893D01*
X58643Y-25893D01*
X58700Y-25921D01*
X58729Y-25950D01*
X58757Y-26007D01*
X58757Y-26064D01*
X58729Y-26121D01*
X58700Y-26150D01*
X58643Y-26179D01*
X58443Y-26179D01*
G54D15*
X53621Y-47479D02*
X53864Y-47479D01*
X53893Y-47464D01*
X53907Y-47450D01*
X53921Y-47421D01*
X53921Y-47364D01*
X53907Y-47336D01*
X53893Y-47321D01*
X53864Y-47307D01*
X53621Y-47307D01*
X53921Y-47007D02*
X53921Y-47179D01*
X53921Y-47093D02*
X53621Y-47093D01*
X53664Y-47122D01*
X53693Y-47150D01*
X53707Y-47179D01*
X57821Y-47921D02*
X58121Y-47821D01*
X57821Y-47721D01*
X57821Y-47650D02*
X57821Y-47450D01*
X58121Y-47579D01*
X57950Y-47293D02*
X57936Y-47321D01*
X57921Y-47336D01*
X57893Y-47350D01*
X57879Y-47350D01*
X57850Y-47336D01*
X57836Y-47321D01*
X57821Y-47293D01*
X57821Y-47236D01*
X57836Y-47207D01*
X57850Y-47193D01*
X57879Y-47178D01*
X57893Y-47178D01*
X57921Y-47193D01*
X57936Y-47207D01*
X57950Y-47236D01*
X57950Y-47293D01*
X57964Y-47321D01*
X57979Y-47336D01*
X58007Y-47350D01*
X58064Y-47350D01*
X58093Y-47336D01*
X58107Y-47321D01*
X58121Y-47293D01*
X58121Y-47236D01*
X58107Y-47207D01*
X58093Y-47193D01*
X58064Y-47178D01*
X58007Y-47178D01*
X57979Y-47193D01*
X57964Y-47207D01*
X57950Y-47236D01*
X57821Y-46992D02*
X57821Y-46964D01*
X57836Y-46935D01*
X57850Y-46921D01*
X57879Y-46907D01*
X57936Y-46892D01*
X58007Y-46892D01*
X58064Y-46907D01*
X58093Y-46921D01*
X58107Y-46935D01*
X58121Y-46964D01*
X58121Y-46992D01*
X58107Y-47021D01*
X58093Y-47035D01*
X58064Y-47050D01*
X58007Y-47064D01*
X57936Y-47064D01*
X57879Y-47050D01*
X57850Y-47035D01*
X57836Y-47021D01*
X57821Y-46992D01*
X58121Y-46749D02*
X58121Y-46692D01*
X58107Y-46664D01*
X58093Y-46649D01*
X58050Y-46621D01*
X57993Y-46606D01*
X57879Y-46606D01*
X57850Y-46621D01*
X57836Y-46635D01*
X57821Y-46664D01*
X57821Y-46721D01*
X57836Y-46749D01*
X57850Y-46764D01*
X57879Y-46778D01*
X57950Y-46778D01*
X57979Y-46764D01*
X57993Y-46749D01*
X58007Y-46721D01*
X58007Y-46664D01*
X57993Y-46635D01*
X57979Y-46621D01*
X57950Y-46606D01*
X60293Y-47300D02*
X60307Y-47314D01*
X60321Y-47357D01*
X60321Y-47386D01*
X60307Y-47429D01*
X60279Y-47457D01*
X60250Y-47472D01*
X60193Y-47486D01*
X60150Y-47486D01*
X60093Y-47472D01*
X60064Y-47457D01*
X60036Y-47429D01*
X60021Y-47386D01*
X60021Y-47357D01*
X60036Y-47314D01*
X60050Y-47300D01*
X60050Y-47186D02*
X60036Y-47172D01*
X60021Y-47143D01*
X60021Y-47072D01*
X60036Y-47043D01*
X60050Y-47029D01*
X60079Y-47014D01*
X60107Y-47014D01*
X60150Y-47029D01*
X60321Y-47200D01*
X60321Y-47014D01*
X62021Y-47571D02*
X62021Y-47743D01*
X62021Y-47657D02*
X61721Y-47657D01*
X61764Y-47686D01*
X61793Y-47714D01*
X61807Y-47743D01*
X61721Y-47385D02*
X61721Y-47357D01*
X61736Y-47328D01*
X61750Y-47314D01*
X61779Y-47300D01*
X61836Y-47285D01*
X61907Y-47285D01*
X61964Y-47300D01*
X61993Y-47314D01*
X62007Y-47328D01*
X62021Y-47357D01*
X62021Y-47385D01*
X62007Y-47414D01*
X61993Y-47428D01*
X61964Y-47443D01*
X61907Y-47457D01*
X61836Y-47457D01*
X61779Y-47443D01*
X61750Y-47428D01*
X61736Y-47414D01*
X61721Y-47385D01*
X61821Y-47028D02*
X62021Y-47028D01*
X61821Y-47157D02*
X61979Y-47157D01*
X62007Y-47142D01*
X62021Y-47114D01*
X62021Y-47071D01*
X62007Y-47042D01*
X61993Y-47028D01*
X61864Y-46786D02*
X61864Y-46886D01*
X62021Y-46886D02*
X61721Y-46886D01*
X61721Y-46743D01*
X52700Y-41393D02*
X52686Y-41407D01*
X52643Y-41421D01*
X52614Y-41421D01*
X52571Y-41407D01*
X52543Y-41379D01*
X52528Y-41350D01*
X52514Y-41293D01*
X52514Y-41250D01*
X52528Y-41193D01*
X52543Y-41164D01*
X52571Y-41136D01*
X52614Y-41121D01*
X52643Y-41121D01*
X52686Y-41136D01*
X52700Y-41150D01*
X52800Y-41121D02*
X52986Y-41121D01*
X52886Y-41236D01*
X52928Y-41236D01*
X52957Y-41250D01*
X52971Y-41264D01*
X52986Y-41293D01*
X52986Y-41364D01*
X52971Y-41393D01*
X52957Y-41407D01*
X52928Y-41421D01*
X52843Y-41421D01*
X52814Y-41407D01*
X52800Y-41393D01*
X52429Y-39721D02*
X52257Y-39721D01*
X52343Y-39721D02*
X52343Y-39421D01*
X52314Y-39464D01*
X52286Y-39493D01*
X52257Y-39507D01*
X52615Y-39421D02*
X52643Y-39421D01*
X52672Y-39436D01*
X52686Y-39450D01*
X52700Y-39479D01*
X52715Y-39536D01*
X52715Y-39607D01*
X52700Y-39664D01*
X52686Y-39693D01*
X52672Y-39707D01*
X52643Y-39721D01*
X52615Y-39721D01*
X52586Y-39707D01*
X52572Y-39693D01*
X52557Y-39664D01*
X52543Y-39607D01*
X52543Y-39536D01*
X52557Y-39479D01*
X52572Y-39450D01*
X52586Y-39436D01*
X52615Y-39421D01*
X52972Y-39521D02*
X52972Y-39721D01*
X52843Y-39521D02*
X52843Y-39679D01*
X52858Y-39707D01*
X52886Y-39721D01*
X52929Y-39721D01*
X52958Y-39707D01*
X52972Y-39693D01*
X53214Y-39564D02*
X53114Y-39564D01*
X53114Y-39721D02*
X53114Y-39421D01*
X53257Y-39421D01*
X59643Y-52300D02*
X59657Y-52314D01*
X59671Y-52357D01*
X59671Y-52386D01*
X59657Y-52429D01*
X59629Y-52457D01*
X59600Y-52472D01*
X59543Y-52486D01*
X59500Y-52486D01*
X59443Y-52472D01*
X59414Y-52457D01*
X59386Y-52429D01*
X59371Y-52386D01*
X59371Y-52357D01*
X59386Y-52314D01*
X59400Y-52300D01*
X59471Y-52043D02*
X59671Y-52043D01*
X59357Y-52114D02*
X59571Y-52186D01*
X59571Y-52000D01*
X57671Y-52885D02*
X57671Y-52857D01*
X57686Y-52828D01*
X57700Y-52814D01*
X57729Y-52800D01*
X57786Y-52785D01*
X57857Y-52785D01*
X57914Y-52800D01*
X57943Y-52814D01*
X57957Y-52828D01*
X57971Y-52857D01*
X57971Y-52885D01*
X57957Y-52914D01*
X57943Y-52928D01*
X57914Y-52943D01*
X57857Y-52957D01*
X57786Y-52957D01*
X57729Y-52943D01*
X57700Y-52928D01*
X57686Y-52914D01*
X57671Y-52885D01*
X57943Y-52657D02*
X57957Y-52642D01*
X57971Y-52657D01*
X57957Y-52671D01*
X57943Y-52657D01*
X57971Y-52657D01*
X57671Y-52542D02*
X57671Y-52356D01*
X57786Y-52456D01*
X57786Y-52414D01*
X57800Y-52385D01*
X57814Y-52371D01*
X57843Y-52356D01*
X57914Y-52356D01*
X57943Y-52371D01*
X57957Y-52385D01*
X57971Y-52414D01*
X57971Y-52499D01*
X57957Y-52528D01*
X57943Y-52542D01*
X57671Y-52256D02*
X57671Y-52070D01*
X57786Y-52170D01*
X57786Y-52128D01*
X57800Y-52099D01*
X57814Y-52085D01*
X57843Y-52070D01*
X57914Y-52070D01*
X57943Y-52085D01*
X57957Y-52099D01*
X57971Y-52128D01*
X57971Y-52213D01*
X57957Y-52242D01*
X57943Y-52256D01*
X57771Y-51813D02*
X57971Y-51813D01*
X57771Y-51942D02*
X57929Y-51942D01*
X57957Y-51927D01*
X57971Y-51899D01*
X57971Y-51856D01*
X57957Y-51827D01*
X57943Y-51813D01*
X57814Y-51571D02*
X57814Y-51671D01*
X57971Y-51671D02*
X57671Y-51671D01*
X57671Y-51528D01*
X41393Y-43050D02*
X41407Y-43064D01*
X41421Y-43107D01*
X41421Y-43136D01*
X41407Y-43179D01*
X41379Y-43207D01*
X41350Y-43222D01*
X41293Y-43236D01*
X41250Y-43236D01*
X41193Y-43222D01*
X41164Y-43207D01*
X41136Y-43179D01*
X41121Y-43136D01*
X41121Y-43107D01*
X41136Y-43064D01*
X41150Y-43050D01*
X41121Y-42779D02*
X41121Y-42922D01*
X41264Y-42936D01*
X41250Y-42922D01*
X41236Y-42893D01*
X41236Y-42822D01*
X41250Y-42793D01*
X41264Y-42779D01*
X41293Y-42764D01*
X41364Y-42764D01*
X41393Y-42779D01*
X41407Y-42793D01*
X41421Y-42822D01*
X41421Y-42893D01*
X41407Y-42922D01*
X41393Y-42936D01*
X39421Y-43492D02*
X39421Y-43464D01*
X39436Y-43435D01*
X39450Y-43421D01*
X39479Y-43407D01*
X39536Y-43392D01*
X39607Y-43392D01*
X39664Y-43407D01*
X39693Y-43421D01*
X39707Y-43435D01*
X39721Y-43464D01*
X39721Y-43492D01*
X39707Y-43521D01*
X39693Y-43535D01*
X39664Y-43550D01*
X39607Y-43564D01*
X39536Y-43564D01*
X39479Y-43550D01*
X39450Y-43535D01*
X39436Y-43521D01*
X39421Y-43492D01*
X39693Y-43264D02*
X39707Y-43249D01*
X39721Y-43264D01*
X39707Y-43278D01*
X39693Y-43264D01*
X39721Y-43264D01*
X39721Y-42963D02*
X39721Y-43135D01*
X39721Y-43049D02*
X39421Y-43049D01*
X39464Y-43078D01*
X39493Y-43106D01*
X39507Y-43135D01*
X39521Y-42706D02*
X39721Y-42706D01*
X39521Y-42835D02*
X39679Y-42835D01*
X39707Y-42820D01*
X39721Y-42792D01*
X39721Y-42749D01*
X39707Y-42720D01*
X39693Y-42706D01*
X39564Y-42464D02*
X39564Y-42564D01*
X39721Y-42564D02*
X39421Y-42564D01*
X39421Y-42421D01*
G54D12*
X55455Y-53912D02*
X55455Y-53512D01*
X55608Y-53512D01*
X55646Y-53531D01*
X55665Y-53550D01*
X55684Y-53588D01*
X55684Y-53645D01*
X55665Y-53683D01*
X55646Y-53702D01*
X55608Y-53721D01*
X55455Y-53721D01*
X55836Y-53550D02*
X55855Y-53531D01*
X55893Y-53512D01*
X55989Y-53512D01*
X56027Y-53531D01*
X56046Y-53550D01*
X56065Y-53588D01*
X56065Y-53626D01*
X56046Y-53683D01*
X55817Y-53912D01*
X56065Y-53912D01*
X54026Y-51162D02*
X53892Y-50971D01*
X53797Y-51162D02*
X53797Y-50762D01*
X53950Y-50762D01*
X53988Y-50781D01*
X54007Y-50800D01*
X54026Y-50838D01*
X54026Y-50895D01*
X54007Y-50933D01*
X53988Y-50952D01*
X53950Y-50971D01*
X53797Y-50971D01*
X54350Y-51143D02*
X54312Y-51162D01*
X54235Y-51162D01*
X54197Y-51143D01*
X54178Y-51105D01*
X54178Y-50952D01*
X54197Y-50914D01*
X54235Y-50895D01*
X54312Y-50895D01*
X54350Y-50914D01*
X54369Y-50952D01*
X54369Y-50990D01*
X54178Y-51029D01*
X54521Y-51143D02*
X54559Y-51162D01*
X54635Y-51162D01*
X54674Y-51143D01*
X54693Y-51105D01*
X54693Y-51086D01*
X54674Y-51048D01*
X54635Y-51029D01*
X54578Y-51029D01*
X54540Y-51010D01*
X54521Y-50971D01*
X54521Y-50952D01*
X54540Y-50914D01*
X54578Y-50895D01*
X54635Y-50895D01*
X54674Y-50914D01*
X55017Y-51143D02*
X54979Y-51162D01*
X54902Y-51162D01*
X54864Y-51143D01*
X54845Y-51105D01*
X54845Y-50952D01*
X54864Y-50914D01*
X54902Y-50895D01*
X54979Y-50895D01*
X55017Y-50914D01*
X55036Y-50952D01*
X55036Y-50990D01*
X54845Y-51029D01*
X55150Y-50895D02*
X55302Y-50895D01*
X55207Y-50762D02*
X55207Y-51105D01*
X55226Y-51143D01*
X55264Y-51162D01*
X55302Y-51162D01*
X55512Y-50762D02*
X55589Y-50762D01*
X55627Y-50781D01*
X55665Y-50819D01*
X55684Y-50895D01*
X55684Y-51029D01*
X55665Y-51105D01*
X55627Y-51143D01*
X55589Y-51162D01*
X55512Y-51162D01*
X55474Y-51143D01*
X55436Y-51105D01*
X55417Y-51029D01*
X55417Y-50895D01*
X55436Y-50819D01*
X55474Y-50781D01*
X55512Y-50762D01*
X55817Y-50895D02*
X55912Y-51162D01*
X56008Y-50895D01*
X56313Y-51143D02*
X56275Y-51162D01*
X56198Y-51162D01*
X56160Y-51143D01*
X56141Y-51105D01*
X56141Y-50952D01*
X56160Y-50914D01*
X56198Y-50895D01*
X56275Y-50895D01*
X56313Y-50914D01*
X56332Y-50952D01*
X56332Y-50990D01*
X56141Y-51029D01*
X56503Y-51162D02*
X56503Y-50895D01*
X56503Y-50971D02*
X56522Y-50933D01*
X56541Y-50914D01*
X56579Y-50895D01*
X56618Y-50895D01*
X56751Y-51162D02*
X56751Y-50895D01*
X56751Y-50971D02*
X56770Y-50933D01*
X56789Y-50914D01*
X56827Y-50895D01*
X56866Y-50895D01*
X56999Y-51162D02*
X56999Y-50895D01*
X56999Y-50762D02*
X56980Y-50781D01*
X56999Y-50800D01*
X57018Y-50781D01*
X56999Y-50762D01*
X56999Y-50800D01*
X57361Y-51162D02*
X57361Y-50762D01*
X57361Y-51143D02*
X57323Y-51162D01*
X57246Y-51162D01*
X57208Y-51143D01*
X57189Y-51124D01*
X57170Y-51086D01*
X57170Y-50971D01*
X57189Y-50933D01*
X57208Y-50914D01*
X57246Y-50895D01*
X57323Y-50895D01*
X57361Y-50914D01*
X57704Y-51143D02*
X57666Y-51162D01*
X57589Y-51162D01*
X57551Y-51143D01*
X57532Y-51105D01*
X57532Y-50952D01*
X57551Y-50914D01*
X57589Y-50895D01*
X57666Y-50895D01*
X57704Y-50914D01*
X57723Y-50952D01*
X57723Y-50990D01*
X57532Y-51029D01*
G54D15*
X62171Y-52300D02*
X62029Y-52400D01*
X62171Y-52472D02*
X61871Y-52472D01*
X61871Y-52357D01*
X61886Y-52329D01*
X61900Y-52314D01*
X61929Y-52300D01*
X61971Y-52300D01*
X62000Y-52314D01*
X62014Y-52329D01*
X62029Y-52357D01*
X62029Y-52472D01*
X62171Y-52014D02*
X62171Y-52186D01*
X62171Y-52100D02*
X61871Y-52100D01*
X61914Y-52129D01*
X61943Y-52157D01*
X61957Y-52186D01*
X60171Y-52336D02*
X60171Y-52393D01*
X60186Y-52422D01*
X60200Y-52436D01*
X60243Y-52465D01*
X60300Y-52479D01*
X60414Y-52479D01*
X60443Y-52465D01*
X60457Y-52450D01*
X60471Y-52422D01*
X60471Y-52365D01*
X60457Y-52336D01*
X60443Y-52322D01*
X60414Y-52307D01*
X60343Y-52307D01*
X60314Y-52322D01*
X60300Y-52336D01*
X60286Y-52365D01*
X60286Y-52422D01*
X60300Y-52450D01*
X60314Y-52465D01*
X60343Y-52479D01*
X60300Y-52136D02*
X60286Y-52164D01*
X60271Y-52179D01*
X60243Y-52193D01*
X60229Y-52193D01*
X60200Y-52179D01*
X60186Y-52164D01*
X60171Y-52136D01*
X60171Y-52079D01*
X60186Y-52050D01*
X60200Y-52036D01*
X60229Y-52021D01*
X60243Y-52021D01*
X60271Y-52036D01*
X60286Y-52050D01*
X60300Y-52079D01*
X60300Y-52136D01*
X60314Y-52164D01*
X60329Y-52179D01*
X60357Y-52193D01*
X60414Y-52193D01*
X60443Y-52179D01*
X60457Y-52164D01*
X60471Y-52136D01*
X60471Y-52079D01*
X60457Y-52050D01*
X60443Y-52036D01*
X60414Y-52021D01*
X60357Y-52021D01*
X60329Y-52036D01*
X60314Y-52050D01*
X60300Y-52079D01*
X71700Y-29143D02*
X71686Y-29157D01*
X71643Y-29171D01*
X71614Y-29171D01*
X71571Y-29157D01*
X71543Y-29129D01*
X71528Y-29100D01*
X71514Y-29043D01*
X71514Y-29000D01*
X71528Y-28943D01*
X71543Y-28914D01*
X71571Y-28886D01*
X71614Y-28871D01*
X71643Y-28871D01*
X71686Y-28886D01*
X71700Y-28900D01*
X71986Y-29171D02*
X71814Y-29171D01*
X71900Y-29171D02*
X71900Y-28871D01*
X71871Y-28914D01*
X71843Y-28943D01*
X71814Y-28957D01*
X71429Y-27471D02*
X71257Y-27471D01*
X71343Y-27471D02*
X71343Y-27171D01*
X71314Y-27214D01*
X71286Y-27243D01*
X71257Y-27257D01*
X71615Y-27171D02*
X71643Y-27171D01*
X71672Y-27186D01*
X71686Y-27200D01*
X71700Y-27229D01*
X71715Y-27286D01*
X71715Y-27357D01*
X71700Y-27414D01*
X71686Y-27443D01*
X71672Y-27457D01*
X71643Y-27471D01*
X71615Y-27471D01*
X71586Y-27457D01*
X71572Y-27443D01*
X71557Y-27414D01*
X71543Y-27357D01*
X71543Y-27286D01*
X71557Y-27229D01*
X71572Y-27200D01*
X71586Y-27186D01*
X71615Y-27171D01*
X71972Y-27271D02*
X71972Y-27471D01*
X71843Y-27271D02*
X71843Y-27429D01*
X71858Y-27457D01*
X71886Y-27471D01*
X71929Y-27471D01*
X71958Y-27457D01*
X71972Y-27443D01*
X72214Y-27314D02*
X72114Y-27314D01*
X72114Y-27471D02*
X72114Y-27171D01*
X72257Y-27171D01*
G54D14*
X78508Y-29929D02*
X78594Y-29957D01*
X78622Y-29986D01*
X78651Y-30043D01*
X78651Y-30129D01*
X78622Y-30186D01*
X78594Y-30214D01*
X78536Y-30243D01*
X78308Y-30243D01*
X78308Y-29643D01*
X78508Y-29643D01*
X78565Y-29671D01*
X78594Y-29700D01*
X78622Y-29757D01*
X78622Y-29814D01*
X78594Y-29871D01*
X78565Y-29900D01*
X78508Y-29929D01*
X78308Y-29929D01*
X79165Y-29843D02*
X79165Y-30243D01*
X79022Y-29614D02*
X78879Y-30043D01*
X79251Y-30043D01*
X78436Y-41743D02*
X78464Y-41772D01*
X78493Y-41858D01*
X78493Y-41915D01*
X78464Y-42000D01*
X78407Y-42058D01*
X78350Y-42086D01*
X78236Y-42115D01*
X78150Y-42115D01*
X78036Y-42086D01*
X77979Y-42058D01*
X77921Y-42000D01*
X77893Y-41915D01*
X77893Y-41858D01*
X77921Y-41772D01*
X77950Y-41743D01*
X77893Y-41486D02*
X78379Y-41486D01*
X78436Y-41458D01*
X78464Y-41429D01*
X78493Y-41372D01*
X78493Y-41258D01*
X78464Y-41200D01*
X78436Y-41172D01*
X78379Y-41143D01*
X77893Y-41143D01*
X78493Y-40514D02*
X78207Y-40714D01*
X78493Y-40857D02*
X77893Y-40857D01*
X77893Y-40629D01*
X77921Y-40571D01*
X77950Y-40543D01*
X78007Y-40514D01*
X78093Y-40514D01*
X78150Y-40543D01*
X78179Y-40571D01*
X78207Y-40629D01*
X78207Y-40857D01*
X78493Y-39914D02*
X78207Y-40114D01*
X78493Y-40257D02*
X77893Y-40257D01*
X77893Y-40029D01*
X77921Y-39971D01*
X77950Y-39943D01*
X78007Y-39914D01*
X78093Y-39914D01*
X78150Y-39943D01*
X78179Y-39971D01*
X78207Y-40029D01*
X78207Y-40257D01*
X78179Y-39657D02*
X78179Y-39457D01*
X78493Y-39371D02*
X78493Y-39657D01*
X77893Y-39657D01*
X77893Y-39371D01*
X78493Y-39114D02*
X77893Y-39114D01*
X78493Y-38771D01*
X77893Y-38771D01*
X77893Y-38571D02*
X77893Y-38228D01*
X78493Y-38399D02*
X77893Y-38399D01*
X78550Y-38171D02*
X78550Y-37714D01*
X78464Y-37600D02*
X78493Y-37514D01*
X78493Y-37371D01*
X78464Y-37314D01*
X78436Y-37285D01*
X78379Y-37257D01*
X78321Y-37257D01*
X78264Y-37285D01*
X78236Y-37314D01*
X78207Y-37371D01*
X78179Y-37485D01*
X78150Y-37543D01*
X78121Y-37571D01*
X78064Y-37600D01*
X78007Y-37600D01*
X77950Y-37571D01*
X77921Y-37543D01*
X77893Y-37485D01*
X77893Y-37343D01*
X77921Y-37257D01*
X78179Y-37000D02*
X78179Y-36800D01*
X78493Y-36714D02*
X78493Y-37000D01*
X77893Y-37000D01*
X77893Y-36714D01*
X78493Y-36457D02*
X77893Y-36457D01*
X78493Y-36114D01*
X77893Y-36114D01*
X78464Y-35857D02*
X78493Y-35771D01*
X78493Y-35628D01*
X78464Y-35571D01*
X78436Y-35542D01*
X78379Y-35514D01*
X78321Y-35514D01*
X78264Y-35542D01*
X78236Y-35571D01*
X78207Y-35628D01*
X78179Y-35742D01*
X78150Y-35800D01*
X78121Y-35828D01*
X78064Y-35857D01*
X78007Y-35857D01*
X77950Y-35828D01*
X77921Y-35800D01*
X77893Y-35742D01*
X77893Y-35600D01*
X77921Y-35514D01*
X77893Y-35143D02*
X77893Y-35029D01*
X77921Y-34971D01*
X77979Y-34914D01*
X78093Y-34886D01*
X78293Y-34886D01*
X78407Y-34914D01*
X78464Y-34971D01*
X78493Y-35029D01*
X78493Y-35143D01*
X78464Y-35200D01*
X78407Y-35257D01*
X78293Y-35286D01*
X78093Y-35286D01*
X77979Y-35257D01*
X77921Y-35200D01*
X77893Y-35143D01*
X78493Y-34285D02*
X78207Y-34485D01*
X78493Y-34628D02*
X77893Y-34628D01*
X77893Y-34400D01*
X77921Y-34342D01*
X77950Y-34314D01*
X78007Y-34285D01*
X78093Y-34285D01*
X78150Y-34314D01*
X78179Y-34342D01*
X78207Y-34400D01*
X78207Y-34628D01*
X78550Y-34171D02*
X78550Y-33714D01*
X78179Y-33371D02*
X78207Y-33285D01*
X78236Y-33257D01*
X78293Y-33228D01*
X78379Y-33228D01*
X78436Y-33257D01*
X78464Y-33285D01*
X78493Y-33343D01*
X78493Y-33571D01*
X77893Y-33571D01*
X77893Y-33371D01*
X77921Y-33314D01*
X77950Y-33285D01*
X78007Y-33257D01*
X78064Y-33257D01*
X78121Y-33285D01*
X78150Y-33314D01*
X78179Y-33371D01*
X78179Y-33571D01*
X77893Y-32857D02*
X77893Y-32743D01*
X77921Y-32685D01*
X77979Y-32628D01*
X78093Y-32600D01*
X78293Y-32600D01*
X78407Y-32628D01*
X78464Y-32685D01*
X78493Y-32743D01*
X78493Y-32857D01*
X78464Y-32914D01*
X78407Y-32971D01*
X78293Y-33000D01*
X78093Y-33000D01*
X77979Y-32971D01*
X77921Y-32914D01*
X77893Y-32857D01*
X78321Y-32371D02*
X78321Y-32085D01*
X78493Y-32428D02*
X77893Y-32228D01*
X78493Y-32028D01*
X78493Y-31485D02*
X78207Y-31685D01*
X78493Y-31828D02*
X77893Y-31828D01*
X77893Y-31600D01*
X77921Y-31542D01*
X77950Y-31514D01*
X78007Y-31485D01*
X78093Y-31485D01*
X78150Y-31514D01*
X78179Y-31542D01*
X78207Y-31600D01*
X78207Y-31828D01*
X78493Y-31228D02*
X77893Y-31228D01*
X77893Y-31085D01*
X77921Y-31000D01*
X77979Y-30942D01*
X78036Y-30914D01*
X78150Y-30885D01*
X78236Y-30885D01*
X78350Y-30914D01*
X78407Y-30942D01*
X78464Y-31000D01*
X78493Y-31085D01*
X78493Y-31228D01*
X80993Y-33671D02*
X80393Y-33671D01*
X80993Y-33385D02*
X80393Y-33385D01*
X80393Y-33157D01*
X80421Y-33099D01*
X80450Y-33071D01*
X80507Y-33042D01*
X80593Y-33042D01*
X80650Y-33071D01*
X80679Y-33099D01*
X80707Y-33157D01*
X80707Y-33385D01*
X80764Y-32785D02*
X80764Y-32328D01*
X82993Y-33671D02*
X82393Y-33671D01*
X82993Y-33385D02*
X82393Y-33385D01*
X82393Y-33157D01*
X82421Y-33099D01*
X82450Y-33071D01*
X82507Y-33042D01*
X82593Y-33042D01*
X82650Y-33071D01*
X82679Y-33099D01*
X82707Y-33157D01*
X82707Y-33385D01*
X82764Y-32785D02*
X82764Y-32328D01*
X82993Y-32557D02*
X82536Y-32557D01*
X82421Y-40457D02*
X82393Y-40514D01*
X82393Y-40600D01*
X82421Y-40685D01*
X82479Y-40743D01*
X82536Y-40771D01*
X82650Y-40800D01*
X82736Y-40800D01*
X82850Y-40771D01*
X82907Y-40743D01*
X82964Y-40685D01*
X82993Y-40600D01*
X82993Y-40543D01*
X82964Y-40457D01*
X82936Y-40428D01*
X82736Y-40428D01*
X82736Y-40543D01*
X82993Y-40171D02*
X82393Y-40171D01*
X82993Y-39828D01*
X82393Y-39828D01*
X82993Y-39542D02*
X82393Y-39542D01*
X82393Y-39399D01*
X82421Y-39314D01*
X82479Y-39256D01*
X82536Y-39228D01*
X82650Y-39199D01*
X82736Y-39199D01*
X82850Y-39228D01*
X82907Y-39256D01*
X82964Y-39314D01*
X82993Y-39399D01*
X82993Y-39542D01*
X81393Y-40971D02*
X81993Y-40771D01*
X81393Y-40571D01*
X81993Y-40285D02*
X81964Y-40343D01*
X81936Y-40371D01*
X81879Y-40400D01*
X81707Y-40400D01*
X81650Y-40371D01*
X81621Y-40343D01*
X81593Y-40285D01*
X81593Y-40200D01*
X81621Y-40143D01*
X81650Y-40114D01*
X81707Y-40085D01*
X81879Y-40085D01*
X81936Y-40114D01*
X81964Y-40143D01*
X81993Y-40200D01*
X81993Y-40285D01*
X80764Y-40771D02*
X80764Y-40314D01*
X80993Y-40543D02*
X80536Y-40543D01*
X80393Y-39742D02*
X80393Y-40028D01*
X80679Y-40057D01*
X80650Y-40028D01*
X80621Y-39971D01*
X80621Y-39828D01*
X80650Y-39771D01*
X80679Y-39742D01*
X80736Y-39714D01*
X80879Y-39714D01*
X80936Y-39742D01*
X80964Y-39771D01*
X80993Y-39828D01*
X80993Y-39971D01*
X80964Y-40028D01*
X80936Y-40057D01*
X80393Y-39543D02*
X80993Y-39343D01*
X80393Y-39143D01*
X70758Y-29929D02*
X70844Y-29957D01*
X70872Y-29986D01*
X70901Y-30043D01*
X70901Y-30129D01*
X70872Y-30186D01*
X70844Y-30214D01*
X70786Y-30243D01*
X70558Y-30243D01*
X70558Y-29643D01*
X70758Y-29643D01*
X70815Y-29671D01*
X70844Y-29700D01*
X70872Y-29757D01*
X70872Y-29814D01*
X70844Y-29871D01*
X70815Y-29900D01*
X70758Y-29929D01*
X70558Y-29929D01*
X71101Y-29643D02*
X71472Y-29643D01*
X71272Y-29871D01*
X71358Y-29871D01*
X71415Y-29900D01*
X71444Y-29929D01*
X71472Y-29986D01*
X71472Y-30129D01*
X71444Y-30186D01*
X71415Y-30214D01*
X71358Y-30243D01*
X71186Y-30243D01*
X71129Y-30214D01*
X71101Y-30186D01*
X71936Y-41743D02*
X71964Y-41772D01*
X71993Y-41858D01*
X71993Y-41915D01*
X71964Y-42000D01*
X71907Y-42058D01*
X71850Y-42086D01*
X71736Y-42115D01*
X71650Y-42115D01*
X71536Y-42086D01*
X71479Y-42058D01*
X71421Y-42000D01*
X71393Y-41915D01*
X71393Y-41858D01*
X71421Y-41772D01*
X71450Y-41743D01*
X71393Y-41486D02*
X71879Y-41486D01*
X71936Y-41458D01*
X71964Y-41429D01*
X71993Y-41372D01*
X71993Y-41258D01*
X71964Y-41200D01*
X71936Y-41172D01*
X71879Y-41143D01*
X71393Y-41143D01*
X71993Y-40514D02*
X71707Y-40714D01*
X71993Y-40857D02*
X71393Y-40857D01*
X71393Y-40629D01*
X71421Y-40571D01*
X71450Y-40543D01*
X71507Y-40514D01*
X71593Y-40514D01*
X71650Y-40543D01*
X71679Y-40571D01*
X71707Y-40629D01*
X71707Y-40857D01*
X71993Y-39914D02*
X71707Y-40114D01*
X71993Y-40257D02*
X71393Y-40257D01*
X71393Y-40029D01*
X71421Y-39971D01*
X71450Y-39943D01*
X71507Y-39914D01*
X71593Y-39914D01*
X71650Y-39943D01*
X71679Y-39971D01*
X71707Y-40029D01*
X71707Y-40257D01*
X71679Y-39657D02*
X71679Y-39457D01*
X71993Y-39371D02*
X71993Y-39657D01*
X71393Y-39657D01*
X71393Y-39371D01*
X71993Y-39114D02*
X71393Y-39114D01*
X71993Y-38771D01*
X71393Y-38771D01*
X71393Y-38571D02*
X71393Y-38228D01*
X71993Y-38399D02*
X71393Y-38399D01*
X72050Y-38171D02*
X72050Y-37714D01*
X71964Y-37600D02*
X71993Y-37514D01*
X71993Y-37371D01*
X71964Y-37314D01*
X71936Y-37285D01*
X71879Y-37257D01*
X71821Y-37257D01*
X71764Y-37285D01*
X71736Y-37314D01*
X71707Y-37371D01*
X71679Y-37485D01*
X71650Y-37543D01*
X71621Y-37571D01*
X71564Y-37600D01*
X71507Y-37600D01*
X71450Y-37571D01*
X71421Y-37543D01*
X71393Y-37485D01*
X71393Y-37343D01*
X71421Y-37257D01*
X71679Y-37000D02*
X71679Y-36800D01*
X71993Y-36714D02*
X71993Y-37000D01*
X71393Y-37000D01*
X71393Y-36714D01*
X71993Y-36457D02*
X71393Y-36457D01*
X71993Y-36114D01*
X71393Y-36114D01*
X71964Y-35857D02*
X71993Y-35771D01*
X71993Y-35628D01*
X71964Y-35571D01*
X71936Y-35542D01*
X71879Y-35514D01*
X71821Y-35514D01*
X71764Y-35542D01*
X71736Y-35571D01*
X71707Y-35628D01*
X71679Y-35742D01*
X71650Y-35800D01*
X71621Y-35828D01*
X71564Y-35857D01*
X71507Y-35857D01*
X71450Y-35828D01*
X71421Y-35800D01*
X71393Y-35742D01*
X71393Y-35600D01*
X71421Y-35514D01*
X71393Y-35143D02*
X71393Y-35029D01*
X71421Y-34971D01*
X71479Y-34914D01*
X71593Y-34886D01*
X71793Y-34886D01*
X71907Y-34914D01*
X71964Y-34971D01*
X71993Y-35029D01*
X71993Y-35143D01*
X71964Y-35200D01*
X71907Y-35257D01*
X71793Y-35286D01*
X71593Y-35286D01*
X71479Y-35257D01*
X71421Y-35200D01*
X71393Y-35143D01*
X71993Y-34285D02*
X71707Y-34485D01*
X71993Y-34628D02*
X71393Y-34628D01*
X71393Y-34400D01*
X71421Y-34342D01*
X71450Y-34314D01*
X71507Y-34285D01*
X71593Y-34285D01*
X71650Y-34314D01*
X71679Y-34342D01*
X71707Y-34400D01*
X71707Y-34628D01*
X72050Y-34171D02*
X72050Y-33714D01*
X71679Y-33371D02*
X71707Y-33285D01*
X71736Y-33257D01*
X71793Y-33228D01*
X71879Y-33228D01*
X71936Y-33257D01*
X71964Y-33285D01*
X71993Y-33343D01*
X71993Y-33571D01*
X71393Y-33571D01*
X71393Y-33371D01*
X71421Y-33314D01*
X71450Y-33285D01*
X71507Y-33257D01*
X71564Y-33257D01*
X71621Y-33285D01*
X71650Y-33314D01*
X71679Y-33371D01*
X71679Y-33571D01*
X71393Y-32857D02*
X71393Y-32743D01*
X71421Y-32685D01*
X71479Y-32628D01*
X71593Y-32600D01*
X71793Y-32600D01*
X71907Y-32628D01*
X71964Y-32685D01*
X71993Y-32743D01*
X71993Y-32857D01*
X71964Y-32914D01*
X71907Y-32971D01*
X71793Y-33000D01*
X71593Y-33000D01*
X71479Y-32971D01*
X71421Y-32914D01*
X71393Y-32857D01*
X71821Y-32371D02*
X71821Y-32085D01*
X71993Y-32428D02*
X71393Y-32228D01*
X71993Y-32028D01*
X71993Y-31485D02*
X71707Y-31685D01*
X71993Y-31828D02*
X71393Y-31828D01*
X71393Y-31600D01*
X71421Y-31542D01*
X71450Y-31514D01*
X71507Y-31485D01*
X71593Y-31485D01*
X71650Y-31514D01*
X71679Y-31542D01*
X71707Y-31600D01*
X71707Y-31828D01*
X71993Y-31228D02*
X71393Y-31228D01*
X71393Y-31085D01*
X71421Y-31000D01*
X71479Y-30942D01*
X71536Y-30914D01*
X71650Y-30885D01*
X71736Y-30885D01*
X71850Y-30914D01*
X71907Y-30942D01*
X71964Y-31000D01*
X71993Y-31085D01*
X71993Y-31228D01*
X67243Y-33671D02*
X66643Y-33671D01*
X67243Y-33385D02*
X66643Y-33385D01*
X66643Y-33157D01*
X66671Y-33099D01*
X66700Y-33071D01*
X66757Y-33042D01*
X66843Y-33042D01*
X66900Y-33071D01*
X66929Y-33099D01*
X66957Y-33157D01*
X66957Y-33385D01*
X67014Y-32785D02*
X67014Y-32328D01*
X69243Y-33671D02*
X68643Y-33671D01*
X69243Y-33385D02*
X68643Y-33385D01*
X68643Y-33157D01*
X68671Y-33099D01*
X68700Y-33071D01*
X68757Y-33042D01*
X68843Y-33042D01*
X68900Y-33071D01*
X68929Y-33099D01*
X68957Y-33157D01*
X68957Y-33385D01*
X69014Y-32785D02*
X69014Y-32328D01*
X69243Y-32557D02*
X68786Y-32557D01*
X68671Y-40457D02*
X68643Y-40514D01*
X68643Y-40600D01*
X68671Y-40685D01*
X68729Y-40743D01*
X68786Y-40771D01*
X68900Y-40800D01*
X68986Y-40800D01*
X69100Y-40771D01*
X69157Y-40743D01*
X69214Y-40685D01*
X69243Y-40600D01*
X69243Y-40543D01*
X69214Y-40457D01*
X69186Y-40428D01*
X68986Y-40428D01*
X68986Y-40543D01*
X69243Y-40171D02*
X68643Y-40171D01*
X69243Y-39828D01*
X68643Y-39828D01*
X69243Y-39542D02*
X68643Y-39542D01*
X68643Y-39399D01*
X68671Y-39314D01*
X68729Y-39256D01*
X68786Y-39228D01*
X68900Y-39199D01*
X68986Y-39199D01*
X69100Y-39228D01*
X69157Y-39256D01*
X69214Y-39314D01*
X69243Y-39399D01*
X69243Y-39542D01*
X67643Y-40971D02*
X68243Y-40771D01*
X67643Y-40571D01*
X68243Y-40285D02*
X68214Y-40343D01*
X68186Y-40371D01*
X68129Y-40400D01*
X67957Y-40400D01*
X67900Y-40371D01*
X67871Y-40343D01*
X67843Y-40285D01*
X67843Y-40200D01*
X67871Y-40143D01*
X67900Y-40114D01*
X67957Y-40085D01*
X68129Y-40085D01*
X68186Y-40114D01*
X68214Y-40143D01*
X68243Y-40200D01*
X68243Y-40285D01*
X67014Y-40771D02*
X67014Y-40314D01*
X67243Y-40543D02*
X66786Y-40543D01*
X66643Y-39742D02*
X66643Y-40028D01*
X66929Y-40057D01*
X66900Y-40028D01*
X66871Y-39971D01*
X66871Y-39828D01*
X66900Y-39771D01*
X66929Y-39742D01*
X66986Y-39714D01*
X67129Y-39714D01*
X67186Y-39742D01*
X67214Y-39771D01*
X67243Y-39828D01*
X67243Y-39971D01*
X67214Y-40028D01*
X67186Y-40057D01*
X66643Y-39543D02*
X67243Y-39343D01*
X66643Y-39143D01*
X44758Y-29929D02*
X44844Y-29957D01*
X44872Y-29986D01*
X44901Y-30043D01*
X44901Y-30129D01*
X44872Y-30186D01*
X44844Y-30214D01*
X44786Y-30243D01*
X44558Y-30243D01*
X44558Y-29643D01*
X44758Y-29643D01*
X44815Y-29671D01*
X44844Y-29700D01*
X44872Y-29757D01*
X44872Y-29814D01*
X44844Y-29871D01*
X44815Y-29900D01*
X44758Y-29929D01*
X44558Y-29929D01*
X45129Y-29700D02*
X45158Y-29671D01*
X45215Y-29643D01*
X45358Y-29643D01*
X45415Y-29671D01*
X45444Y-29700D01*
X45472Y-29757D01*
X45472Y-29814D01*
X45444Y-29900D01*
X45101Y-30243D01*
X45472Y-30243D01*
X44686Y-41743D02*
X44714Y-41772D01*
X44743Y-41858D01*
X44743Y-41915D01*
X44714Y-42000D01*
X44657Y-42058D01*
X44600Y-42086D01*
X44486Y-42115D01*
X44400Y-42115D01*
X44286Y-42086D01*
X44229Y-42058D01*
X44171Y-42000D01*
X44143Y-41915D01*
X44143Y-41858D01*
X44171Y-41772D01*
X44200Y-41743D01*
X44143Y-41486D02*
X44629Y-41486D01*
X44686Y-41458D01*
X44714Y-41429D01*
X44743Y-41372D01*
X44743Y-41258D01*
X44714Y-41200D01*
X44686Y-41172D01*
X44629Y-41143D01*
X44143Y-41143D01*
X44743Y-40514D02*
X44457Y-40714D01*
X44743Y-40857D02*
X44143Y-40857D01*
X44143Y-40629D01*
X44171Y-40571D01*
X44200Y-40543D01*
X44257Y-40514D01*
X44343Y-40514D01*
X44400Y-40543D01*
X44429Y-40571D01*
X44457Y-40629D01*
X44457Y-40857D01*
X44743Y-39914D02*
X44457Y-40114D01*
X44743Y-40257D02*
X44143Y-40257D01*
X44143Y-40029D01*
X44171Y-39971D01*
X44200Y-39943D01*
X44257Y-39914D01*
X44343Y-39914D01*
X44400Y-39943D01*
X44429Y-39971D01*
X44457Y-40029D01*
X44457Y-40257D01*
X44429Y-39657D02*
X44429Y-39457D01*
X44743Y-39371D02*
X44743Y-39657D01*
X44143Y-39657D01*
X44143Y-39371D01*
X44743Y-39114D02*
X44143Y-39114D01*
X44743Y-38771D01*
X44143Y-38771D01*
X44143Y-38571D02*
X44143Y-38228D01*
X44743Y-38399D02*
X44143Y-38399D01*
X44800Y-38171D02*
X44800Y-37714D01*
X44714Y-37600D02*
X44743Y-37514D01*
X44743Y-37371D01*
X44714Y-37314D01*
X44686Y-37285D01*
X44629Y-37257D01*
X44571Y-37257D01*
X44514Y-37285D01*
X44486Y-37314D01*
X44457Y-37371D01*
X44429Y-37485D01*
X44400Y-37543D01*
X44371Y-37571D01*
X44314Y-37600D01*
X44257Y-37600D01*
X44200Y-37571D01*
X44171Y-37543D01*
X44143Y-37485D01*
X44143Y-37343D01*
X44171Y-37257D01*
X44429Y-37000D02*
X44429Y-36800D01*
X44743Y-36714D02*
X44743Y-37000D01*
X44143Y-37000D01*
X44143Y-36714D01*
X44743Y-36457D02*
X44143Y-36457D01*
X44743Y-36114D01*
X44143Y-36114D01*
X44714Y-35857D02*
X44743Y-35771D01*
X44743Y-35628D01*
X44714Y-35571D01*
X44686Y-35542D01*
X44629Y-35514D01*
X44571Y-35514D01*
X44514Y-35542D01*
X44486Y-35571D01*
X44457Y-35628D01*
X44429Y-35742D01*
X44400Y-35800D01*
X44371Y-35828D01*
X44314Y-35857D01*
X44257Y-35857D01*
X44200Y-35828D01*
X44171Y-35800D01*
X44143Y-35742D01*
X44143Y-35600D01*
X44171Y-35514D01*
X44143Y-35143D02*
X44143Y-35029D01*
X44171Y-34971D01*
X44229Y-34914D01*
X44343Y-34886D01*
X44543Y-34886D01*
X44657Y-34914D01*
X44714Y-34971D01*
X44743Y-35029D01*
X44743Y-35143D01*
X44714Y-35200D01*
X44657Y-35257D01*
X44543Y-35286D01*
X44343Y-35286D01*
X44229Y-35257D01*
X44171Y-35200D01*
X44143Y-35143D01*
X44743Y-34285D02*
X44457Y-34485D01*
X44743Y-34628D02*
X44143Y-34628D01*
X44143Y-34400D01*
X44171Y-34342D01*
X44200Y-34314D01*
X44257Y-34285D01*
X44343Y-34285D01*
X44400Y-34314D01*
X44429Y-34342D01*
X44457Y-34400D01*
X44457Y-34628D01*
X44800Y-34171D02*
X44800Y-33714D01*
X44429Y-33371D02*
X44457Y-33285D01*
X44486Y-33257D01*
X44543Y-33228D01*
X44629Y-33228D01*
X44686Y-33257D01*
X44714Y-33285D01*
X44743Y-33343D01*
X44743Y-33571D01*
X44143Y-33571D01*
X44143Y-33371D01*
X44171Y-33314D01*
X44200Y-33285D01*
X44257Y-33257D01*
X44314Y-33257D01*
X44371Y-33285D01*
X44400Y-33314D01*
X44429Y-33371D01*
X44429Y-33571D01*
X44143Y-32857D02*
X44143Y-32743D01*
X44171Y-32685D01*
X44229Y-32628D01*
X44343Y-32600D01*
X44543Y-32600D01*
X44657Y-32628D01*
X44714Y-32685D01*
X44743Y-32743D01*
X44743Y-32857D01*
X44714Y-32914D01*
X44657Y-32971D01*
X44543Y-33000D01*
X44343Y-33000D01*
X44229Y-32971D01*
X44171Y-32914D01*
X44143Y-32857D01*
X44571Y-32371D02*
X44571Y-32085D01*
X44743Y-32428D02*
X44143Y-32228D01*
X44743Y-32028D01*
X44743Y-31485D02*
X44457Y-31685D01*
X44743Y-31828D02*
X44143Y-31828D01*
X44143Y-31600D01*
X44171Y-31542D01*
X44200Y-31514D01*
X44257Y-31485D01*
X44343Y-31485D01*
X44400Y-31514D01*
X44429Y-31542D01*
X44457Y-31600D01*
X44457Y-31828D01*
X44743Y-31228D02*
X44143Y-31228D01*
X44143Y-31085D01*
X44171Y-31000D01*
X44229Y-30942D01*
X44286Y-30914D01*
X44400Y-30885D01*
X44486Y-30885D01*
X44600Y-30914D01*
X44657Y-30942D01*
X44714Y-31000D01*
X44743Y-31085D01*
X44743Y-31228D01*
X47243Y-33671D02*
X46643Y-33671D01*
X47243Y-33385D02*
X46643Y-33385D01*
X46643Y-33157D01*
X46671Y-33099D01*
X46700Y-33071D01*
X46757Y-33042D01*
X46843Y-33042D01*
X46900Y-33071D01*
X46929Y-33099D01*
X46957Y-33157D01*
X46957Y-33385D01*
X47014Y-32785D02*
X47014Y-32328D01*
X49243Y-33671D02*
X48643Y-33671D01*
X49243Y-33385D02*
X48643Y-33385D01*
X48643Y-33157D01*
X48671Y-33099D01*
X48700Y-33071D01*
X48757Y-33042D01*
X48843Y-33042D01*
X48900Y-33071D01*
X48929Y-33099D01*
X48957Y-33157D01*
X48957Y-33385D01*
X49014Y-32785D02*
X49014Y-32328D01*
X49243Y-32557D02*
X48786Y-32557D01*
X48671Y-40457D02*
X48643Y-40514D01*
X48643Y-40600D01*
X48671Y-40685D01*
X48729Y-40743D01*
X48786Y-40771D01*
X48900Y-40800D01*
X48986Y-40800D01*
X49100Y-40771D01*
X49157Y-40743D01*
X49214Y-40685D01*
X49243Y-40600D01*
X49243Y-40543D01*
X49214Y-40457D01*
X49186Y-40428D01*
X48986Y-40428D01*
X48986Y-40543D01*
X49243Y-40171D02*
X48643Y-40171D01*
X49243Y-39828D01*
X48643Y-39828D01*
X49243Y-39542D02*
X48643Y-39542D01*
X48643Y-39399D01*
X48671Y-39314D01*
X48729Y-39256D01*
X48786Y-39228D01*
X48900Y-39199D01*
X48986Y-39199D01*
X49100Y-39228D01*
X49157Y-39256D01*
X49214Y-39314D01*
X49243Y-39399D01*
X49243Y-39542D01*
X47643Y-40971D02*
X48243Y-40771D01*
X47643Y-40571D01*
X48243Y-40285D02*
X48214Y-40343D01*
X48186Y-40371D01*
X48129Y-40400D01*
X47957Y-40400D01*
X47900Y-40371D01*
X47871Y-40343D01*
X47843Y-40285D01*
X47843Y-40200D01*
X47871Y-40143D01*
X47900Y-40114D01*
X47957Y-40085D01*
X48129Y-40085D01*
X48186Y-40114D01*
X48214Y-40143D01*
X48243Y-40200D01*
X48243Y-40285D01*
X47014Y-40771D02*
X47014Y-40314D01*
X47243Y-40543D02*
X46786Y-40543D01*
X46643Y-39742D02*
X46643Y-40028D01*
X46929Y-40057D01*
X46900Y-40028D01*
X46871Y-39971D01*
X46871Y-39828D01*
X46900Y-39771D01*
X46929Y-39742D01*
X46986Y-39714D01*
X47129Y-39714D01*
X47186Y-39742D01*
X47214Y-39771D01*
X47243Y-39828D01*
X47243Y-39971D01*
X47214Y-40028D01*
X47186Y-40057D01*
X46643Y-39543D02*
X47243Y-39343D01*
X46643Y-39143D01*
X37008Y-29929D02*
X37094Y-29957D01*
X37122Y-29986D01*
X37151Y-30043D01*
X37151Y-30129D01*
X37122Y-30186D01*
X37094Y-30214D01*
X37036Y-30243D01*
X36808Y-30243D01*
X36808Y-29643D01*
X37008Y-29643D01*
X37065Y-29671D01*
X37094Y-29700D01*
X37122Y-29757D01*
X37122Y-29814D01*
X37094Y-29871D01*
X37065Y-29900D01*
X37008Y-29929D01*
X36808Y-29929D01*
X37722Y-30243D02*
X37379Y-30243D01*
X37551Y-30243D02*
X37551Y-29643D01*
X37494Y-29729D01*
X37436Y-29786D01*
X37379Y-29814D01*
X30936Y-41743D02*
X30964Y-41772D01*
X30993Y-41858D01*
X30993Y-41915D01*
X30964Y-42000D01*
X30907Y-42058D01*
X30850Y-42086D01*
X30736Y-42115D01*
X30650Y-42115D01*
X30536Y-42086D01*
X30479Y-42058D01*
X30421Y-42000D01*
X30393Y-41915D01*
X30393Y-41858D01*
X30421Y-41772D01*
X30450Y-41743D01*
X30393Y-41486D02*
X30879Y-41486D01*
X30936Y-41458D01*
X30964Y-41429D01*
X30993Y-41372D01*
X30993Y-41258D01*
X30964Y-41200D01*
X30936Y-41172D01*
X30879Y-41143D01*
X30393Y-41143D01*
X30993Y-40514D02*
X30707Y-40714D01*
X30993Y-40857D02*
X30393Y-40857D01*
X30393Y-40629D01*
X30421Y-40571D01*
X30450Y-40543D01*
X30507Y-40514D01*
X30593Y-40514D01*
X30650Y-40543D01*
X30679Y-40571D01*
X30707Y-40629D01*
X30707Y-40857D01*
X30993Y-39914D02*
X30707Y-40114D01*
X30993Y-40257D02*
X30393Y-40257D01*
X30393Y-40029D01*
X30421Y-39971D01*
X30450Y-39943D01*
X30507Y-39914D01*
X30593Y-39914D01*
X30650Y-39943D01*
X30679Y-39971D01*
X30707Y-40029D01*
X30707Y-40257D01*
X30679Y-39657D02*
X30679Y-39457D01*
X30993Y-39371D02*
X30993Y-39657D01*
X30393Y-39657D01*
X30393Y-39371D01*
X30993Y-39114D02*
X30393Y-39114D01*
X30993Y-38771D01*
X30393Y-38771D01*
X30393Y-38571D02*
X30393Y-38228D01*
X30993Y-38399D02*
X30393Y-38399D01*
X31050Y-38171D02*
X31050Y-37714D01*
X30964Y-37600D02*
X30993Y-37514D01*
X30993Y-37371D01*
X30964Y-37314D01*
X30936Y-37285D01*
X30879Y-37257D01*
X30821Y-37257D01*
X30764Y-37285D01*
X30736Y-37314D01*
X30707Y-37371D01*
X30679Y-37485D01*
X30650Y-37543D01*
X30621Y-37571D01*
X30564Y-37600D01*
X30507Y-37600D01*
X30450Y-37571D01*
X30421Y-37543D01*
X30393Y-37485D01*
X30393Y-37343D01*
X30421Y-37257D01*
X30679Y-37000D02*
X30679Y-36800D01*
X30993Y-36714D02*
X30993Y-37000D01*
X30393Y-37000D01*
X30393Y-36714D01*
X30993Y-36457D02*
X30393Y-36457D01*
X30993Y-36114D01*
X30393Y-36114D01*
X30964Y-35857D02*
X30993Y-35771D01*
X30993Y-35628D01*
X30964Y-35571D01*
X30936Y-35542D01*
X30879Y-35514D01*
X30821Y-35514D01*
X30764Y-35542D01*
X30736Y-35571D01*
X30707Y-35628D01*
X30679Y-35742D01*
X30650Y-35800D01*
X30621Y-35828D01*
X30564Y-35857D01*
X30507Y-35857D01*
X30450Y-35828D01*
X30421Y-35800D01*
X30393Y-35742D01*
X30393Y-35600D01*
X30421Y-35514D01*
X30393Y-35143D02*
X30393Y-35029D01*
X30421Y-34971D01*
X30479Y-34914D01*
X30593Y-34886D01*
X30793Y-34886D01*
X30907Y-34914D01*
X30964Y-34971D01*
X30993Y-35029D01*
X30993Y-35143D01*
X30964Y-35200D01*
X30907Y-35257D01*
X30793Y-35286D01*
X30593Y-35286D01*
X30479Y-35257D01*
X30421Y-35200D01*
X30393Y-35143D01*
X30993Y-34285D02*
X30707Y-34485D01*
X30993Y-34628D02*
X30393Y-34628D01*
X30393Y-34400D01*
X30421Y-34342D01*
X30450Y-34314D01*
X30507Y-34285D01*
X30593Y-34285D01*
X30650Y-34314D01*
X30679Y-34342D01*
X30707Y-34400D01*
X30707Y-34628D01*
X31050Y-34171D02*
X31050Y-33714D01*
X30679Y-33371D02*
X30707Y-33285D01*
X30736Y-33257D01*
X30793Y-33228D01*
X30879Y-33228D01*
X30936Y-33257D01*
X30964Y-33285D01*
X30993Y-33343D01*
X30993Y-33571D01*
X30393Y-33571D01*
X30393Y-33371D01*
X30421Y-33314D01*
X30450Y-33285D01*
X30507Y-33257D01*
X30564Y-33257D01*
X30621Y-33285D01*
X30650Y-33314D01*
X30679Y-33371D01*
X30679Y-33571D01*
X30393Y-32857D02*
X30393Y-32743D01*
X30421Y-32685D01*
X30479Y-32628D01*
X30593Y-32600D01*
X30793Y-32600D01*
X30907Y-32628D01*
X30964Y-32685D01*
X30993Y-32743D01*
X30993Y-32857D01*
X30964Y-32914D01*
X30907Y-32971D01*
X30793Y-33000D01*
X30593Y-33000D01*
X30479Y-32971D01*
X30421Y-32914D01*
X30393Y-32857D01*
X30821Y-32371D02*
X30821Y-32085D01*
X30993Y-32428D02*
X30393Y-32228D01*
X30993Y-32028D01*
X30993Y-31485D02*
X30707Y-31685D01*
X30993Y-31828D02*
X30393Y-31828D01*
X30393Y-31600D01*
X30421Y-31542D01*
X30450Y-31514D01*
X30507Y-31485D01*
X30593Y-31485D01*
X30650Y-31514D01*
X30679Y-31542D01*
X30707Y-31600D01*
X30707Y-31828D01*
X30993Y-31228D02*
X30393Y-31228D01*
X30393Y-31085D01*
X30421Y-31000D01*
X30479Y-30942D01*
X30536Y-30914D01*
X30650Y-30885D01*
X30736Y-30885D01*
X30850Y-30914D01*
X30907Y-30942D01*
X30964Y-31000D01*
X30993Y-31085D01*
X30993Y-31228D01*
X33493Y-33671D02*
X32893Y-33671D01*
X33493Y-33385D02*
X32893Y-33385D01*
X32893Y-33157D01*
X32921Y-33099D01*
X32950Y-33071D01*
X33007Y-33042D01*
X33093Y-33042D01*
X33150Y-33071D01*
X33179Y-33099D01*
X33207Y-33157D01*
X33207Y-33385D01*
X33264Y-32785D02*
X33264Y-32328D01*
X35493Y-33671D02*
X34893Y-33671D01*
X35493Y-33385D02*
X34893Y-33385D01*
X34893Y-33157D01*
X34921Y-33099D01*
X34950Y-33071D01*
X35007Y-33042D01*
X35093Y-33042D01*
X35150Y-33071D01*
X35179Y-33099D01*
X35207Y-33157D01*
X35207Y-33385D01*
X35264Y-32785D02*
X35264Y-32328D01*
X35493Y-32557D02*
X35036Y-32557D01*
X34921Y-40457D02*
X34893Y-40514D01*
X34893Y-40600D01*
X34921Y-40685D01*
X34979Y-40743D01*
X35036Y-40771D01*
X35150Y-40800D01*
X35236Y-40800D01*
X35350Y-40771D01*
X35407Y-40743D01*
X35464Y-40685D01*
X35493Y-40600D01*
X35493Y-40543D01*
X35464Y-40457D01*
X35436Y-40428D01*
X35236Y-40428D01*
X35236Y-40543D01*
X35493Y-40171D02*
X34893Y-40171D01*
X35493Y-39828D01*
X34893Y-39828D01*
X35493Y-39542D02*
X34893Y-39542D01*
X34893Y-39399D01*
X34921Y-39314D01*
X34979Y-39256D01*
X35036Y-39228D01*
X35150Y-39199D01*
X35236Y-39199D01*
X35350Y-39228D01*
X35407Y-39256D01*
X35464Y-39314D01*
X35493Y-39399D01*
X35493Y-39542D01*
X33893Y-40971D02*
X34493Y-40771D01*
X33893Y-40571D01*
X34493Y-40285D02*
X34464Y-40343D01*
X34436Y-40371D01*
X34379Y-40400D01*
X34207Y-40400D01*
X34150Y-40371D01*
X34121Y-40343D01*
X34093Y-40285D01*
X34093Y-40200D01*
X34121Y-40143D01*
X34150Y-40114D01*
X34207Y-40085D01*
X34379Y-40085D01*
X34436Y-40114D01*
X34464Y-40143D01*
X34493Y-40200D01*
X34493Y-40285D01*
X33264Y-40771D02*
X33264Y-40314D01*
X33493Y-40543D02*
X33036Y-40543D01*
X32893Y-39742D02*
X32893Y-40028D01*
X33179Y-40057D01*
X33150Y-40028D01*
X33121Y-39971D01*
X33121Y-39828D01*
X33150Y-39771D01*
X33179Y-39742D01*
X33236Y-39714D01*
X33379Y-39714D01*
X33436Y-39742D01*
X33464Y-39771D01*
X33493Y-39828D01*
X33493Y-39971D01*
X33464Y-40028D01*
X33436Y-40057D01*
X32893Y-39543D02*
X33493Y-39343D01*
X32893Y-39143D01*
G54D12*
X53912Y-36045D02*
X53512Y-36045D01*
X53512Y-35892D01*
X53531Y-35854D01*
X53550Y-35835D01*
X53588Y-35816D01*
X53645Y-35816D01*
X53683Y-35835D01*
X53702Y-35854D01*
X53721Y-35892D01*
X53721Y-36045D01*
X53512Y-35683D02*
X53512Y-35435D01*
X53664Y-35569D01*
X53664Y-35511D01*
X53683Y-35473D01*
X53702Y-35454D01*
X53740Y-35435D01*
X53836Y-35435D01*
X53874Y-35454D01*
X53893Y-35473D01*
X53912Y-35511D01*
X53912Y-35626D01*
X53893Y-35664D01*
X53874Y-35683D01*
X51912Y-36731D02*
X51512Y-36731D01*
X51512Y-36636D01*
X51531Y-36578D01*
X51569Y-36540D01*
X51607Y-36521D01*
X51683Y-36502D01*
X51740Y-36502D01*
X51817Y-36521D01*
X51855Y-36540D01*
X51893Y-36578D01*
X51912Y-36636D01*
X51912Y-36731D01*
X51912Y-36331D02*
X51645Y-36331D01*
X51512Y-36331D02*
X51531Y-36350D01*
X51550Y-36331D01*
X51531Y-36312D01*
X51512Y-36331D01*
X51550Y-36331D01*
X51893Y-36160D02*
X51912Y-36122D01*
X51912Y-36046D01*
X51893Y-36007D01*
X51855Y-35988D01*
X51836Y-35988D01*
X51798Y-36007D01*
X51779Y-36046D01*
X51779Y-36103D01*
X51760Y-36141D01*
X51721Y-36160D01*
X51702Y-36160D01*
X51664Y-36141D01*
X51645Y-36103D01*
X51645Y-36046D01*
X51664Y-36007D01*
X51645Y-35817D02*
X52045Y-35817D01*
X51664Y-35817D02*
X51645Y-35779D01*
X51645Y-35702D01*
X51664Y-35664D01*
X51683Y-35645D01*
X51721Y-35626D01*
X51836Y-35626D01*
X51874Y-35645D01*
X51893Y-35664D01*
X51912Y-35702D01*
X51912Y-35779D01*
X51893Y-35817D01*
X51912Y-35398D02*
X51893Y-35436D01*
X51855Y-35455D01*
X51512Y-35455D01*
X51912Y-35073D02*
X51702Y-35073D01*
X51664Y-35092D01*
X51645Y-35130D01*
X51645Y-35207D01*
X51664Y-35245D01*
X51893Y-35073D02*
X51912Y-35111D01*
X51912Y-35207D01*
X51893Y-35245D01*
X51855Y-35264D01*
X51817Y-35264D01*
X51779Y-35245D01*
X51760Y-35207D01*
X51760Y-35111D01*
X51740Y-35073D01*
X51645Y-34921D02*
X51912Y-34826D01*
X51645Y-34730D02*
X51912Y-34826D01*
X52007Y-34864D01*
X52026Y-34883D01*
X52045Y-34921D01*
X62955Y-39412D02*
X62955Y-39012D01*
X63108Y-39012D01*
X63146Y-39031D01*
X63165Y-39050D01*
X63184Y-39088D01*
X63184Y-39145D01*
X63165Y-39183D01*
X63146Y-39202D01*
X63108Y-39221D01*
X62955Y-39221D01*
X63527Y-39145D02*
X63527Y-39412D01*
X63431Y-38993D02*
X63336Y-39279D01*
X63584Y-39279D01*
X62031Y-32393D02*
X62088Y-32412D01*
X62184Y-32412D01*
X62222Y-32393D01*
X62241Y-32374D01*
X62260Y-32336D01*
X62260Y-32298D01*
X62241Y-32260D01*
X62222Y-32240D01*
X62184Y-32221D01*
X62107Y-32202D01*
X62069Y-32183D01*
X62050Y-32164D01*
X62031Y-32126D01*
X62031Y-32088D01*
X62050Y-32050D01*
X62069Y-32031D01*
X62107Y-32012D01*
X62203Y-32012D01*
X62260Y-32031D01*
X62393Y-32145D02*
X62469Y-32412D01*
X62546Y-32221D01*
X62622Y-32412D01*
X62698Y-32145D01*
X62850Y-32412D02*
X62850Y-32145D01*
X62850Y-32012D02*
X62831Y-32031D01*
X62850Y-32050D01*
X62869Y-32031D01*
X62850Y-32012D01*
X62850Y-32050D01*
X62983Y-32145D02*
X63135Y-32145D01*
X63040Y-32012D02*
X63040Y-32355D01*
X63059Y-32393D01*
X63097Y-32412D01*
X63135Y-32412D01*
X63441Y-32393D02*
X63403Y-32412D01*
X63326Y-32412D01*
X63288Y-32393D01*
X63269Y-32374D01*
X63250Y-32336D01*
X63250Y-32221D01*
X63269Y-32183D01*
X63288Y-32164D01*
X63326Y-32145D01*
X63403Y-32145D01*
X63441Y-32164D01*
X63612Y-32412D02*
X63612Y-32012D01*
X63784Y-32412D02*
X63784Y-32202D01*
X63765Y-32164D01*
X63727Y-32145D01*
X63669Y-32145D01*
X63631Y-32164D01*
X63612Y-32183D01*
X64127Y-32393D02*
X64089Y-32412D01*
X64012Y-32412D01*
X63974Y-32393D01*
X63955Y-32355D01*
X63955Y-32202D01*
X63974Y-32164D01*
X64012Y-32145D01*
X64089Y-32145D01*
X64127Y-32164D01*
X64146Y-32202D01*
X64146Y-32240D01*
X63955Y-32279D01*
X64298Y-32393D02*
X64336Y-32412D01*
X64412Y-32412D01*
X64451Y-32393D01*
X64470Y-32355D01*
X64470Y-32336D01*
X64451Y-32298D01*
X64412Y-32279D01*
X64355Y-32279D01*
X64317Y-32260D01*
X64298Y-32221D01*
X64298Y-32202D01*
X64317Y-32164D01*
X64355Y-32145D01*
X64412Y-32145D01*
X64451Y-32164D01*
G54D14*
X38929Y-51042D02*
X38957Y-50956D01*
X38986Y-50928D01*
X39043Y-50899D01*
X39129Y-50899D01*
X39186Y-50928D01*
X39214Y-50956D01*
X39243Y-51014D01*
X39243Y-51242D01*
X38643Y-51242D01*
X38643Y-51042D01*
X38671Y-50985D01*
X38700Y-50956D01*
X38757Y-50928D01*
X38814Y-50928D01*
X38871Y-50956D01*
X38900Y-50985D01*
X38929Y-51042D01*
X38929Y-51242D01*
X39243Y-50642D02*
X38643Y-50642D01*
X38643Y-50414D01*
X38671Y-50356D01*
X38700Y-50328D01*
X38757Y-50299D01*
X38843Y-50299D01*
X38900Y-50328D01*
X38929Y-50356D01*
X38957Y-50414D01*
X38957Y-50642D01*
X39243Y-49728D02*
X39243Y-50071D01*
X39243Y-49899D02*
X38643Y-49899D01*
X38729Y-49956D01*
X38786Y-50014D01*
X38814Y-50071D01*
X32164Y-50729D02*
X32250Y-50757D01*
X32278Y-50786D01*
X32307Y-50843D01*
X32307Y-50929D01*
X32278Y-50986D01*
X32250Y-51014D01*
X32192Y-51043D01*
X31964Y-51043D01*
X31964Y-50443D01*
X32164Y-50443D01*
X32221Y-50471D01*
X32250Y-50500D01*
X32278Y-50557D01*
X32278Y-50614D01*
X32250Y-50671D01*
X32221Y-50700D01*
X32164Y-50729D01*
X31964Y-50729D01*
X32564Y-50443D02*
X32564Y-50929D01*
X32592Y-50986D01*
X32621Y-51014D01*
X32678Y-51043D01*
X32792Y-51043D01*
X32850Y-51014D01*
X32878Y-50986D01*
X32907Y-50929D01*
X32907Y-50443D01*
X33536Y-50986D02*
X33507Y-51014D01*
X33421Y-51043D01*
X33364Y-51043D01*
X33279Y-51014D01*
X33221Y-50957D01*
X33193Y-50900D01*
X33164Y-50786D01*
X33164Y-50700D01*
X33193Y-50586D01*
X33221Y-50529D01*
X33279Y-50471D01*
X33364Y-50443D01*
X33421Y-50443D01*
X33507Y-50471D01*
X33536Y-50500D01*
X33793Y-51043D02*
X33793Y-50443D01*
X34136Y-51043D02*
X33879Y-50700D01*
X34136Y-50443D02*
X33793Y-50786D01*
X34393Y-51043D02*
X34393Y-50443D01*
X34621Y-50443D01*
X34679Y-50471D01*
X34707Y-50500D01*
X34736Y-50557D01*
X34736Y-50643D01*
X34707Y-50700D01*
X34679Y-50729D01*
X34621Y-50757D01*
X34393Y-50757D01*
X34993Y-50443D02*
X34993Y-50929D01*
X35021Y-50986D01*
X35050Y-51014D01*
X35107Y-51043D01*
X35221Y-51043D01*
X35279Y-51014D01*
X35307Y-50986D01*
X35336Y-50929D01*
X35336Y-50443D01*
X35965Y-50986D02*
X35936Y-51014D01*
X35850Y-51043D01*
X35793Y-51043D01*
X35708Y-51014D01*
X35650Y-50957D01*
X35622Y-50900D01*
X35593Y-50786D01*
X35593Y-50700D01*
X35622Y-50586D01*
X35650Y-50529D01*
X35708Y-50471D01*
X35793Y-50443D01*
X35850Y-50443D01*
X35936Y-50471D01*
X35965Y-50500D01*
X36222Y-51043D02*
X36222Y-50443D01*
X36565Y-51043D02*
X36308Y-50700D01*
X36565Y-50443D02*
X36222Y-50786D01*
X76679Y-51042D02*
X76707Y-50956D01*
X76736Y-50928D01*
X76793Y-50899D01*
X76879Y-50899D01*
X76936Y-50928D01*
X76964Y-50956D01*
X76993Y-51014D01*
X76993Y-51242D01*
X76393Y-51242D01*
X76393Y-51042D01*
X76421Y-50985D01*
X76450Y-50956D01*
X76507Y-50928D01*
X76564Y-50928D01*
X76621Y-50956D01*
X76650Y-50985D01*
X76679Y-51042D01*
X76679Y-51242D01*
X76993Y-50642D02*
X76393Y-50642D01*
X76393Y-50414D01*
X76421Y-50356D01*
X76450Y-50328D01*
X76507Y-50299D01*
X76593Y-50299D01*
X76650Y-50328D01*
X76679Y-50356D01*
X76707Y-50414D01*
X76707Y-50642D01*
X76593Y-49785D02*
X76993Y-49785D01*
X76364Y-49928D02*
X76793Y-50071D01*
X76793Y-49699D01*
X79664Y-50729D02*
X79750Y-50757D01*
X79778Y-50786D01*
X79807Y-50843D01*
X79807Y-50929D01*
X79778Y-50986D01*
X79750Y-51014D01*
X79692Y-51043D01*
X79464Y-51043D01*
X79464Y-50443D01*
X79664Y-50443D01*
X79721Y-50471D01*
X79750Y-50500D01*
X79778Y-50557D01*
X79778Y-50614D01*
X79750Y-50671D01*
X79721Y-50700D01*
X79664Y-50729D01*
X79464Y-50729D01*
X80064Y-50443D02*
X80064Y-50929D01*
X80092Y-50986D01*
X80121Y-51014D01*
X80178Y-51043D01*
X80292Y-51043D01*
X80350Y-51014D01*
X80378Y-50986D01*
X80407Y-50929D01*
X80407Y-50443D01*
X81036Y-50986D02*
X81007Y-51014D01*
X80921Y-51043D01*
X80864Y-51043D01*
X80779Y-51014D01*
X80721Y-50957D01*
X80693Y-50900D01*
X80664Y-50786D01*
X80664Y-50700D01*
X80693Y-50586D01*
X80721Y-50529D01*
X80779Y-50471D01*
X80864Y-50443D01*
X80921Y-50443D01*
X81007Y-50471D01*
X81036Y-50500D01*
X81293Y-51043D02*
X81293Y-50443D01*
X81636Y-51043D02*
X81379Y-50700D01*
X81636Y-50443D02*
X81293Y-50786D01*
X81893Y-51043D02*
X81893Y-50443D01*
X82121Y-50443D01*
X82179Y-50471D01*
X82207Y-50500D01*
X82236Y-50557D01*
X82236Y-50643D01*
X82207Y-50700D01*
X82179Y-50729D01*
X82121Y-50757D01*
X81893Y-50757D01*
X82493Y-50443D02*
X82493Y-50929D01*
X82521Y-50986D01*
X82550Y-51014D01*
X82607Y-51043D01*
X82721Y-51043D01*
X82779Y-51014D01*
X82807Y-50986D01*
X82836Y-50929D01*
X82836Y-50443D01*
X83465Y-50986D02*
X83436Y-51014D01*
X83350Y-51043D01*
X83293Y-51043D01*
X83208Y-51014D01*
X83150Y-50957D01*
X83122Y-50900D01*
X83093Y-50786D01*
X83093Y-50700D01*
X83122Y-50586D01*
X83150Y-50529D01*
X83208Y-50471D01*
X83293Y-50443D01*
X83350Y-50443D01*
X83436Y-50471D01*
X83465Y-50500D01*
X83722Y-51043D02*
X83722Y-50443D01*
X84065Y-51043D02*
X83808Y-50700D01*
X84065Y-50443D02*
X83722Y-50786D01*
X72679Y-51042D02*
X72707Y-50956D01*
X72736Y-50928D01*
X72793Y-50899D01*
X72879Y-50899D01*
X72936Y-50928D01*
X72964Y-50956D01*
X72993Y-51014D01*
X72993Y-51242D01*
X72393Y-51242D01*
X72393Y-51042D01*
X72421Y-50985D01*
X72450Y-50956D01*
X72507Y-50928D01*
X72564Y-50928D01*
X72621Y-50956D01*
X72650Y-50985D01*
X72679Y-51042D01*
X72679Y-51242D01*
X72993Y-50642D02*
X72393Y-50642D01*
X72393Y-50414D01*
X72421Y-50356D01*
X72450Y-50328D01*
X72507Y-50299D01*
X72593Y-50299D01*
X72650Y-50328D01*
X72679Y-50356D01*
X72707Y-50414D01*
X72707Y-50642D01*
X72393Y-50099D02*
X72393Y-49728D01*
X72621Y-49928D01*
X72621Y-49842D01*
X72650Y-49785D01*
X72679Y-49756D01*
X72736Y-49728D01*
X72879Y-49728D01*
X72936Y-49756D01*
X72964Y-49785D01*
X72993Y-49842D01*
X72993Y-50014D01*
X72964Y-50071D01*
X72936Y-50099D01*
X65914Y-50729D02*
X66000Y-50757D01*
X66028Y-50786D01*
X66057Y-50843D01*
X66057Y-50929D01*
X66028Y-50986D01*
X66000Y-51014D01*
X65942Y-51043D01*
X65714Y-51043D01*
X65714Y-50443D01*
X65914Y-50443D01*
X65971Y-50471D01*
X66000Y-50500D01*
X66028Y-50557D01*
X66028Y-50614D01*
X66000Y-50671D01*
X65971Y-50700D01*
X65914Y-50729D01*
X65714Y-50729D01*
X66314Y-50443D02*
X66314Y-50929D01*
X66342Y-50986D01*
X66371Y-51014D01*
X66428Y-51043D01*
X66542Y-51043D01*
X66600Y-51014D01*
X66628Y-50986D01*
X66657Y-50929D01*
X66657Y-50443D01*
X67286Y-50986D02*
X67257Y-51014D01*
X67171Y-51043D01*
X67114Y-51043D01*
X67029Y-51014D01*
X66971Y-50957D01*
X66943Y-50900D01*
X66914Y-50786D01*
X66914Y-50700D01*
X66943Y-50586D01*
X66971Y-50529D01*
X67029Y-50471D01*
X67114Y-50443D01*
X67171Y-50443D01*
X67257Y-50471D01*
X67286Y-50500D01*
X67543Y-51043D02*
X67543Y-50443D01*
X67886Y-51043D02*
X67629Y-50700D01*
X67886Y-50443D02*
X67543Y-50786D01*
X68143Y-51043D02*
X68143Y-50443D01*
X68371Y-50443D01*
X68429Y-50471D01*
X68457Y-50500D01*
X68486Y-50557D01*
X68486Y-50643D01*
X68457Y-50700D01*
X68429Y-50729D01*
X68371Y-50757D01*
X68143Y-50757D01*
X68743Y-50443D02*
X68743Y-50929D01*
X68771Y-50986D01*
X68800Y-51014D01*
X68857Y-51043D01*
X68971Y-51043D01*
X69029Y-51014D01*
X69057Y-50986D01*
X69086Y-50929D01*
X69086Y-50443D01*
X69715Y-50986D02*
X69686Y-51014D01*
X69600Y-51043D01*
X69543Y-51043D01*
X69458Y-51014D01*
X69400Y-50957D01*
X69372Y-50900D01*
X69343Y-50786D01*
X69343Y-50700D01*
X69372Y-50586D01*
X69400Y-50529D01*
X69458Y-50471D01*
X69543Y-50443D01*
X69600Y-50443D01*
X69686Y-50471D01*
X69715Y-50500D01*
X69972Y-51043D02*
X69972Y-50443D01*
X70315Y-51043D02*
X70058Y-50700D01*
X70315Y-50443D02*
X69972Y-50786D01*
X42929Y-51042D02*
X42957Y-50956D01*
X42986Y-50928D01*
X43043Y-50899D01*
X43129Y-50899D01*
X43186Y-50928D01*
X43214Y-50956D01*
X43243Y-51014D01*
X43243Y-51242D01*
X42643Y-51242D01*
X42643Y-51042D01*
X42671Y-50985D01*
X42700Y-50956D01*
X42757Y-50928D01*
X42814Y-50928D01*
X42871Y-50956D01*
X42900Y-50985D01*
X42929Y-51042D01*
X42929Y-51242D01*
X43243Y-50642D02*
X42643Y-50642D01*
X42643Y-50414D01*
X42671Y-50356D01*
X42700Y-50328D01*
X42757Y-50299D01*
X42843Y-50299D01*
X42900Y-50328D01*
X42929Y-50356D01*
X42957Y-50414D01*
X42957Y-50642D01*
X42700Y-50071D02*
X42671Y-50042D01*
X42643Y-49985D01*
X42643Y-49842D01*
X42671Y-49785D01*
X42700Y-49756D01*
X42757Y-49728D01*
X42814Y-49728D01*
X42900Y-49756D01*
X43243Y-50099D01*
X43243Y-49728D01*
X45914Y-50729D02*
X46000Y-50757D01*
X46028Y-50786D01*
X46057Y-50843D01*
X46057Y-50929D01*
X46028Y-50986D01*
X46000Y-51014D01*
X45942Y-51043D01*
X45714Y-51043D01*
X45714Y-50443D01*
X45914Y-50443D01*
X45971Y-50471D01*
X46000Y-50500D01*
X46028Y-50557D01*
X46028Y-50614D01*
X46000Y-50671D01*
X45971Y-50700D01*
X45914Y-50729D01*
X45714Y-50729D01*
X46314Y-50443D02*
X46314Y-50929D01*
X46342Y-50986D01*
X46371Y-51014D01*
X46428Y-51043D01*
X46542Y-51043D01*
X46600Y-51014D01*
X46628Y-50986D01*
X46657Y-50929D01*
X46657Y-50443D01*
X47286Y-50986D02*
X47257Y-51014D01*
X47171Y-51043D01*
X47114Y-51043D01*
X47029Y-51014D01*
X46971Y-50957D01*
X46943Y-50900D01*
X46914Y-50786D01*
X46914Y-50700D01*
X46943Y-50586D01*
X46971Y-50529D01*
X47029Y-50471D01*
X47114Y-50443D01*
X47171Y-50443D01*
X47257Y-50471D01*
X47286Y-50500D01*
X47543Y-51043D02*
X47543Y-50443D01*
X47886Y-51043D02*
X47629Y-50700D01*
X47886Y-50443D02*
X47543Y-50786D01*
X48143Y-51043D02*
X48143Y-50443D01*
X48371Y-50443D01*
X48429Y-50471D01*
X48457Y-50500D01*
X48486Y-50557D01*
X48486Y-50643D01*
X48457Y-50700D01*
X48429Y-50729D01*
X48371Y-50757D01*
X48143Y-50757D01*
X48743Y-50443D02*
X48743Y-50929D01*
X48771Y-50986D01*
X48800Y-51014D01*
X48857Y-51043D01*
X48971Y-51043D01*
X49029Y-51014D01*
X49057Y-50986D01*
X49086Y-50929D01*
X49086Y-50443D01*
X49715Y-50986D02*
X49686Y-51014D01*
X49600Y-51043D01*
X49543Y-51043D01*
X49458Y-51014D01*
X49400Y-50957D01*
X49372Y-50900D01*
X49343Y-50786D01*
X49343Y-50700D01*
X49372Y-50586D01*
X49400Y-50529D01*
X49458Y-50471D01*
X49543Y-50443D01*
X49600Y-50443D01*
X49686Y-50471D01*
X49715Y-50500D01*
X49972Y-51043D02*
X49972Y-50443D01*
X50315Y-51043D02*
X50058Y-50700D01*
X50315Y-50443D02*
X49972Y-50786D01*
G54D12*
X80162Y-29486D02*
X79762Y-29486D01*
X79762Y-29333D01*
X79781Y-29295D01*
X79800Y-29276D01*
X79838Y-29257D01*
X79895Y-29257D01*
X79933Y-29276D01*
X79952Y-29295D01*
X79971Y-29333D01*
X79971Y-29486D01*
X80162Y-28876D02*
X80162Y-29105D01*
X80162Y-28991D02*
X79762Y-28991D01*
X79819Y-29029D01*
X79857Y-29067D01*
X79876Y-29105D01*
X79800Y-28724D02*
X79781Y-28705D01*
X79762Y-28667D01*
X79762Y-28571D01*
X79781Y-28533D01*
X79800Y-28514D01*
X79838Y-28495D01*
X79876Y-28495D01*
X79933Y-28514D01*
X80162Y-28743D01*
X80162Y-28495D01*
X79997Y-30124D02*
X79978Y-30143D01*
X79921Y-30162D01*
X79883Y-30162D01*
X79825Y-30143D01*
X79787Y-30105D01*
X79768Y-30067D01*
X79749Y-29990D01*
X79749Y-29933D01*
X79768Y-29857D01*
X79787Y-29819D01*
X79825Y-29781D01*
X79883Y-29762D01*
X79921Y-29762D01*
X79978Y-29781D01*
X79997Y-29800D01*
X80340Y-29895D02*
X80340Y-30162D01*
X80168Y-29895D02*
X80168Y-30105D01*
X80187Y-30143D01*
X80225Y-30162D01*
X80283Y-30162D01*
X80321Y-30143D01*
X80340Y-30124D01*
X80530Y-30162D02*
X80530Y-29895D01*
X80530Y-29971D02*
X80549Y-29933D01*
X80568Y-29914D01*
X80606Y-29895D01*
X80645Y-29895D01*
X80778Y-30162D02*
X80778Y-29895D01*
X80778Y-29971D02*
X80797Y-29933D01*
X80816Y-29914D01*
X80854Y-29895D01*
X80893Y-29895D01*
X81179Y-30143D02*
X81141Y-30162D01*
X81064Y-30162D01*
X81026Y-30143D01*
X81007Y-30105D01*
X81007Y-29952D01*
X81026Y-29914D01*
X81064Y-29895D01*
X81141Y-29895D01*
X81179Y-29914D01*
X81198Y-29952D01*
X81198Y-29990D01*
X81007Y-30029D01*
X81369Y-29895D02*
X81369Y-30162D01*
X81369Y-29933D02*
X81388Y-29914D01*
X81426Y-29895D01*
X81484Y-29895D01*
X81522Y-29914D01*
X81541Y-29952D01*
X81541Y-30162D01*
X81674Y-29895D02*
X81826Y-29895D01*
X81731Y-29762D02*
X81731Y-30105D01*
X81750Y-30143D01*
X81788Y-30162D01*
X81826Y-30162D01*
X82036Y-29762D02*
X82113Y-29762D01*
X82151Y-29781D01*
X82189Y-29819D01*
X82208Y-29895D01*
X82208Y-30029D01*
X82189Y-30105D01*
X82151Y-30143D01*
X82113Y-30162D01*
X82036Y-30162D01*
X81998Y-30143D01*
X81960Y-30105D01*
X81941Y-30029D01*
X81941Y-29895D01*
X81960Y-29819D01*
X81998Y-29781D01*
X82036Y-29762D01*
X82551Y-29895D02*
X82551Y-30162D01*
X82379Y-29895D02*
X82379Y-30105D01*
X82398Y-30143D01*
X82436Y-30162D01*
X82494Y-30162D01*
X82532Y-30143D01*
X82551Y-30124D01*
X82684Y-29895D02*
X82836Y-29895D01*
X82741Y-29762D02*
X82741Y-30105D01*
X82760Y-30143D01*
X82798Y-30162D01*
X82836Y-30162D01*
X82970Y-29895D02*
X82970Y-30295D01*
X82970Y-29914D02*
X83008Y-29895D01*
X83085Y-29895D01*
X83123Y-29914D01*
X83142Y-29933D01*
X83161Y-29971D01*
X83161Y-30086D01*
X83142Y-30124D01*
X83123Y-30143D01*
X83085Y-30162D01*
X83008Y-30162D01*
X82970Y-30143D01*
X83504Y-29895D02*
X83504Y-30162D01*
X83332Y-29895D02*
X83332Y-30105D01*
X83351Y-30143D01*
X83389Y-30162D01*
X83447Y-30162D01*
X83485Y-30143D01*
X83504Y-30124D01*
X83637Y-29895D02*
X83789Y-29895D01*
X83694Y-29762D02*
X83694Y-30105D01*
X83713Y-30143D01*
X83751Y-30162D01*
X83789Y-30162D01*
X46412Y-29486D02*
X46012Y-29486D01*
X46012Y-29333D01*
X46031Y-29295D01*
X46050Y-29276D01*
X46088Y-29257D01*
X46145Y-29257D01*
X46183Y-29276D01*
X46202Y-29295D01*
X46221Y-29333D01*
X46221Y-29486D01*
X46412Y-28876D02*
X46412Y-29105D01*
X46412Y-28991D02*
X46012Y-28991D01*
X46069Y-29029D01*
X46107Y-29067D01*
X46126Y-29105D01*
X46012Y-28629D02*
X46012Y-28590D01*
X46031Y-28552D01*
X46050Y-28533D01*
X46088Y-28514D01*
X46164Y-28495D01*
X46260Y-28495D01*
X46336Y-28514D01*
X46374Y-28533D01*
X46393Y-28552D01*
X46412Y-28590D01*
X46412Y-28629D01*
X46393Y-28667D01*
X46374Y-28686D01*
X46336Y-28705D01*
X46260Y-28724D01*
X46164Y-28724D01*
X46088Y-28705D01*
X46050Y-28686D01*
X46031Y-28667D01*
X46012Y-28629D01*
X46247Y-30124D02*
X46228Y-30143D01*
X46171Y-30162D01*
X46133Y-30162D01*
X46075Y-30143D01*
X46037Y-30105D01*
X46018Y-30067D01*
X45999Y-29990D01*
X45999Y-29933D01*
X46018Y-29857D01*
X46037Y-29819D01*
X46075Y-29781D01*
X46133Y-29762D01*
X46171Y-29762D01*
X46228Y-29781D01*
X46247Y-29800D01*
X46590Y-29895D02*
X46590Y-30162D01*
X46418Y-29895D02*
X46418Y-30105D01*
X46437Y-30143D01*
X46475Y-30162D01*
X46533Y-30162D01*
X46571Y-30143D01*
X46590Y-30124D01*
X46780Y-30162D02*
X46780Y-29895D01*
X46780Y-29971D02*
X46799Y-29933D01*
X46818Y-29914D01*
X46856Y-29895D01*
X46895Y-29895D01*
X47028Y-30162D02*
X47028Y-29895D01*
X47028Y-29971D02*
X47047Y-29933D01*
X47066Y-29914D01*
X47104Y-29895D01*
X47143Y-29895D01*
X47429Y-30143D02*
X47391Y-30162D01*
X47314Y-30162D01*
X47276Y-30143D01*
X47257Y-30105D01*
X47257Y-29952D01*
X47276Y-29914D01*
X47314Y-29895D01*
X47391Y-29895D01*
X47429Y-29914D01*
X47448Y-29952D01*
X47448Y-29990D01*
X47257Y-30029D01*
X47619Y-29895D02*
X47619Y-30162D01*
X47619Y-29933D02*
X47638Y-29914D01*
X47676Y-29895D01*
X47734Y-29895D01*
X47772Y-29914D01*
X47791Y-29952D01*
X47791Y-30162D01*
X47924Y-29895D02*
X48076Y-29895D01*
X47981Y-29762D02*
X47981Y-30105D01*
X48000Y-30143D01*
X48038Y-30162D01*
X48076Y-30162D01*
X48286Y-29762D02*
X48363Y-29762D01*
X48401Y-29781D01*
X48439Y-29819D01*
X48458Y-29895D01*
X48458Y-30029D01*
X48439Y-30105D01*
X48401Y-30143D01*
X48363Y-30162D01*
X48286Y-30162D01*
X48248Y-30143D01*
X48210Y-30105D01*
X48191Y-30029D01*
X48191Y-29895D01*
X48210Y-29819D01*
X48248Y-29781D01*
X48286Y-29762D01*
X48801Y-29895D02*
X48801Y-30162D01*
X48629Y-29895D02*
X48629Y-30105D01*
X48648Y-30143D01*
X48686Y-30162D01*
X48744Y-30162D01*
X48782Y-30143D01*
X48801Y-30124D01*
X48934Y-29895D02*
X49086Y-29895D01*
X48991Y-29762D02*
X48991Y-30105D01*
X49010Y-30143D01*
X49048Y-30162D01*
X49086Y-30162D01*
X49220Y-29895D02*
X49220Y-30295D01*
X49220Y-29914D02*
X49258Y-29895D01*
X49335Y-29895D01*
X49373Y-29914D01*
X49392Y-29933D01*
X49411Y-29971D01*
X49411Y-30086D01*
X49392Y-30124D01*
X49373Y-30143D01*
X49335Y-30162D01*
X49258Y-30162D01*
X49220Y-30143D01*
X49754Y-29895D02*
X49754Y-30162D01*
X49582Y-29895D02*
X49582Y-30105D01*
X49601Y-30143D01*
X49639Y-30162D01*
X49697Y-30162D01*
X49735Y-30143D01*
X49754Y-30124D01*
X49887Y-29895D02*
X50039Y-29895D01*
X49944Y-29762D02*
X49944Y-30105D01*
X49963Y-30143D01*
X50001Y-30162D01*
X50039Y-30162D01*
X73412Y-29295D02*
X73012Y-29295D01*
X73012Y-29142D01*
X73031Y-29104D01*
X73050Y-29085D01*
X73088Y-29066D01*
X73145Y-29066D01*
X73183Y-29085D01*
X73202Y-29104D01*
X73221Y-29142D01*
X73221Y-29295D01*
X73412Y-28685D02*
X73412Y-28914D01*
X73412Y-28800D02*
X73012Y-28800D01*
X73069Y-28838D01*
X73107Y-28876D01*
X73126Y-28914D01*
X76912Y-29174D02*
X76512Y-29174D01*
X76512Y-29021D01*
X76531Y-28983D01*
X76550Y-28964D01*
X76588Y-28945D01*
X76645Y-28945D01*
X76683Y-28964D01*
X76702Y-28983D01*
X76721Y-29021D01*
X76721Y-29174D01*
X76512Y-28698D02*
X76512Y-28621D01*
X76531Y-28583D01*
X76569Y-28545D01*
X76645Y-28526D01*
X76779Y-28526D01*
X76855Y-28545D01*
X76893Y-28583D01*
X76912Y-28621D01*
X76912Y-28698D01*
X76893Y-28736D01*
X76855Y-28774D01*
X76779Y-28793D01*
X76645Y-28793D01*
X76569Y-28774D01*
X76531Y-28736D01*
X76512Y-28698D01*
X76512Y-28393D02*
X76912Y-28298D01*
X76626Y-28221D01*
X76912Y-28145D01*
X76512Y-28050D01*
X76702Y-27898D02*
X76702Y-27764D01*
X76912Y-27707D02*
X76912Y-27898D01*
X76512Y-27898D01*
X76512Y-27707D01*
X76912Y-27307D02*
X76721Y-27441D01*
X76912Y-27536D02*
X76512Y-27536D01*
X76512Y-27383D01*
X76531Y-27345D01*
X76550Y-27326D01*
X76588Y-27307D01*
X76645Y-27307D01*
X76683Y-27326D01*
X76702Y-27345D01*
X76721Y-27383D01*
X76721Y-27536D01*
X66412Y-29486D02*
X66012Y-29486D01*
X66012Y-29333D01*
X66031Y-29295D01*
X66050Y-29276D01*
X66088Y-29257D01*
X66145Y-29257D01*
X66183Y-29276D01*
X66202Y-29295D01*
X66221Y-29333D01*
X66221Y-29486D01*
X66412Y-28876D02*
X66412Y-29105D01*
X66412Y-28991D02*
X66012Y-28991D01*
X66069Y-29029D01*
X66107Y-29067D01*
X66126Y-29105D01*
X66412Y-28495D02*
X66412Y-28724D01*
X66412Y-28610D02*
X66012Y-28610D01*
X66069Y-28648D01*
X66107Y-28686D01*
X66126Y-28724D01*
X66247Y-30124D02*
X66228Y-30143D01*
X66171Y-30162D01*
X66133Y-30162D01*
X66075Y-30143D01*
X66037Y-30105D01*
X66018Y-30067D01*
X65999Y-29990D01*
X65999Y-29933D01*
X66018Y-29857D01*
X66037Y-29819D01*
X66075Y-29781D01*
X66133Y-29762D01*
X66171Y-29762D01*
X66228Y-29781D01*
X66247Y-29800D01*
X66590Y-29895D02*
X66590Y-30162D01*
X66418Y-29895D02*
X66418Y-30105D01*
X66437Y-30143D01*
X66475Y-30162D01*
X66533Y-30162D01*
X66571Y-30143D01*
X66590Y-30124D01*
X66780Y-30162D02*
X66780Y-29895D01*
X66780Y-29971D02*
X66799Y-29933D01*
X66818Y-29914D01*
X66856Y-29895D01*
X66895Y-29895D01*
X67028Y-30162D02*
X67028Y-29895D01*
X67028Y-29971D02*
X67047Y-29933D01*
X67066Y-29914D01*
X67104Y-29895D01*
X67143Y-29895D01*
X67429Y-30143D02*
X67391Y-30162D01*
X67314Y-30162D01*
X67276Y-30143D01*
X67257Y-30105D01*
X67257Y-29952D01*
X67276Y-29914D01*
X67314Y-29895D01*
X67391Y-29895D01*
X67429Y-29914D01*
X67448Y-29952D01*
X67448Y-29990D01*
X67257Y-30029D01*
X67619Y-29895D02*
X67619Y-30162D01*
X67619Y-29933D02*
X67638Y-29914D01*
X67676Y-29895D01*
X67734Y-29895D01*
X67772Y-29914D01*
X67791Y-29952D01*
X67791Y-30162D01*
X67924Y-29895D02*
X68076Y-29895D01*
X67981Y-29762D02*
X67981Y-30105D01*
X68000Y-30143D01*
X68038Y-30162D01*
X68076Y-30162D01*
X68286Y-29762D02*
X68363Y-29762D01*
X68401Y-29781D01*
X68439Y-29819D01*
X68458Y-29895D01*
X68458Y-30029D01*
X68439Y-30105D01*
X68401Y-30143D01*
X68363Y-30162D01*
X68286Y-30162D01*
X68248Y-30143D01*
X68210Y-30105D01*
X68191Y-30029D01*
X68191Y-29895D01*
X68210Y-29819D01*
X68248Y-29781D01*
X68286Y-29762D01*
X68801Y-29895D02*
X68801Y-30162D01*
X68629Y-29895D02*
X68629Y-30105D01*
X68648Y-30143D01*
X68686Y-30162D01*
X68744Y-30162D01*
X68782Y-30143D01*
X68801Y-30124D01*
X68934Y-29895D02*
X69086Y-29895D01*
X68991Y-29762D02*
X68991Y-30105D01*
X69010Y-30143D01*
X69048Y-30162D01*
X69086Y-30162D01*
X69220Y-29895D02*
X69220Y-30295D01*
X69220Y-29914D02*
X69258Y-29895D01*
X69335Y-29895D01*
X69373Y-29914D01*
X69392Y-29933D01*
X69411Y-29971D01*
X69411Y-30086D01*
X69392Y-30124D01*
X69373Y-30143D01*
X69335Y-30162D01*
X69258Y-30162D01*
X69220Y-30143D01*
X69754Y-29895D02*
X69754Y-30162D01*
X69582Y-29895D02*
X69582Y-30105D01*
X69601Y-30143D01*
X69639Y-30162D01*
X69697Y-30162D01*
X69735Y-30143D01*
X69754Y-30124D01*
X69887Y-29895D02*
X70039Y-29895D01*
X69944Y-29762D02*
X69944Y-30105D01*
X69963Y-30143D01*
X70001Y-30162D01*
X70039Y-30162D01*
X32662Y-29295D02*
X32262Y-29295D01*
X32262Y-29142D01*
X32281Y-29104D01*
X32300Y-29085D01*
X32338Y-29066D01*
X32395Y-29066D01*
X32433Y-29085D01*
X32452Y-29104D01*
X32471Y-29142D01*
X32471Y-29295D01*
X32662Y-28876D02*
X32662Y-28800D01*
X32643Y-28761D01*
X32624Y-28742D01*
X32567Y-28704D01*
X32490Y-28685D01*
X32338Y-28685D01*
X32300Y-28704D01*
X32281Y-28723D01*
X32262Y-28761D01*
X32262Y-28838D01*
X32281Y-28876D01*
X32300Y-28895D01*
X32338Y-28914D01*
X32433Y-28914D01*
X32471Y-28895D01*
X32490Y-28876D01*
X32510Y-28838D01*
X32510Y-28761D01*
X32490Y-28723D01*
X32471Y-28704D01*
X32433Y-28685D01*
X32497Y-30124D02*
X32478Y-30143D01*
X32421Y-30162D01*
X32383Y-30162D01*
X32325Y-30143D01*
X32287Y-30105D01*
X32268Y-30067D01*
X32249Y-29990D01*
X32249Y-29933D01*
X32268Y-29857D01*
X32287Y-29819D01*
X32325Y-29781D01*
X32383Y-29762D01*
X32421Y-29762D01*
X32478Y-29781D01*
X32497Y-29800D01*
X32840Y-29895D02*
X32840Y-30162D01*
X32668Y-29895D02*
X32668Y-30105D01*
X32687Y-30143D01*
X32725Y-30162D01*
X32783Y-30162D01*
X32821Y-30143D01*
X32840Y-30124D01*
X33030Y-30162D02*
X33030Y-29895D01*
X33030Y-29971D02*
X33049Y-29933D01*
X33068Y-29914D01*
X33106Y-29895D01*
X33145Y-29895D01*
X33278Y-30162D02*
X33278Y-29895D01*
X33278Y-29971D02*
X33297Y-29933D01*
X33316Y-29914D01*
X33354Y-29895D01*
X33393Y-29895D01*
X33679Y-30143D02*
X33641Y-30162D01*
X33564Y-30162D01*
X33526Y-30143D01*
X33507Y-30105D01*
X33507Y-29952D01*
X33526Y-29914D01*
X33564Y-29895D01*
X33641Y-29895D01*
X33679Y-29914D01*
X33698Y-29952D01*
X33698Y-29990D01*
X33507Y-30029D01*
X33869Y-29895D02*
X33869Y-30162D01*
X33869Y-29933D02*
X33888Y-29914D01*
X33926Y-29895D01*
X33984Y-29895D01*
X34022Y-29914D01*
X34041Y-29952D01*
X34041Y-30162D01*
X34174Y-29895D02*
X34326Y-29895D01*
X34231Y-29762D02*
X34231Y-30105D01*
X34250Y-30143D01*
X34288Y-30162D01*
X34326Y-30162D01*
X34536Y-29762D02*
X34613Y-29762D01*
X34651Y-29781D01*
X34689Y-29819D01*
X34708Y-29895D01*
X34708Y-30029D01*
X34689Y-30105D01*
X34651Y-30143D01*
X34613Y-30162D01*
X34536Y-30162D01*
X34498Y-30143D01*
X34460Y-30105D01*
X34441Y-30029D01*
X34441Y-29895D01*
X34460Y-29819D01*
X34498Y-29781D01*
X34536Y-29762D01*
X35051Y-29895D02*
X35051Y-30162D01*
X34879Y-29895D02*
X34879Y-30105D01*
X34898Y-30143D01*
X34936Y-30162D01*
X34994Y-30162D01*
X35032Y-30143D01*
X35051Y-30124D01*
X35184Y-29895D02*
X35336Y-29895D01*
X35241Y-29762D02*
X35241Y-30105D01*
X35260Y-30143D01*
X35298Y-30162D01*
X35336Y-30162D01*
X35470Y-29895D02*
X35470Y-30295D01*
X35470Y-29914D02*
X35508Y-29895D01*
X35585Y-29895D01*
X35623Y-29914D01*
X35642Y-29933D01*
X35661Y-29971D01*
X35661Y-30086D01*
X35642Y-30124D01*
X35623Y-30143D01*
X35585Y-30162D01*
X35508Y-30162D01*
X35470Y-30143D01*
X36004Y-29895D02*
X36004Y-30162D01*
X35832Y-29895D02*
X35832Y-30105D01*
X35851Y-30143D01*
X35889Y-30162D01*
X35947Y-30162D01*
X35985Y-30143D01*
X36004Y-30124D01*
X36137Y-29895D02*
X36289Y-29895D01*
X36194Y-29762D02*
X36194Y-30105D01*
X36213Y-30143D01*
X36251Y-30162D01*
X36289Y-30162D01*
G54D17*
X76907Y-33143D02*
X76907Y-33629D01*
X76929Y-33686D01*
X76950Y-33714D01*
X76993Y-33743D01*
X77079Y-33743D01*
X77121Y-33714D01*
X77143Y-33686D01*
X77164Y-33629D01*
X77164Y-33143D01*
X77571Y-33343D02*
X77571Y-33743D01*
X77464Y-33114D02*
X77357Y-33543D01*
X77635Y-33543D01*
X76243Y-39768D02*
X75643Y-39768D01*
X76071Y-39618D01*
X75643Y-39468D01*
X76243Y-39468D01*
X76186Y-38997D02*
X76214Y-39018D01*
X76243Y-39082D01*
X76243Y-39125D01*
X76214Y-39190D01*
X76157Y-39232D01*
X76100Y-39254D01*
X75986Y-39275D01*
X75900Y-39275D01*
X75786Y-39254D01*
X75729Y-39232D01*
X75671Y-39190D01*
X75643Y-39125D01*
X75643Y-39082D01*
X75671Y-39018D01*
X75700Y-38997D01*
X76243Y-38804D02*
X75643Y-38804D01*
X75643Y-38632D01*
X75671Y-38590D01*
X75700Y-38568D01*
X75757Y-38547D01*
X75843Y-38547D01*
X75900Y-38568D01*
X75929Y-38590D01*
X75957Y-38632D01*
X75957Y-38804D01*
X75843Y-38161D02*
X76243Y-38161D01*
X75614Y-38268D02*
X76043Y-38375D01*
X76043Y-38097D01*
X75700Y-37946D02*
X75671Y-37925D01*
X75643Y-37882D01*
X75643Y-37775D01*
X75671Y-37732D01*
X75700Y-37711D01*
X75757Y-37689D01*
X75814Y-37689D01*
X75900Y-37711D01*
X76243Y-37968D01*
X76243Y-37689D01*
X75643Y-37539D02*
X76243Y-37239D01*
X75643Y-37239D02*
X76243Y-37539D01*
X76243Y-36831D02*
X76243Y-37088D01*
X76243Y-36960D02*
X75643Y-36960D01*
X75729Y-37003D01*
X75786Y-37045D01*
X75814Y-37088D01*
X76014Y-36638D02*
X76014Y-36295D01*
X76243Y-36081D02*
X75643Y-36081D01*
X75643Y-35909D01*
X75671Y-35867D01*
X75700Y-35845D01*
X75757Y-35824D01*
X75843Y-35824D01*
X75900Y-35845D01*
X75929Y-35867D01*
X75957Y-35909D01*
X75957Y-36081D01*
X76243Y-35631D02*
X75643Y-35631D01*
X75643Y-35524D01*
X75671Y-35459D01*
X75729Y-35417D01*
X75786Y-35395D01*
X75900Y-35374D01*
X75986Y-35374D01*
X76100Y-35395D01*
X76157Y-35417D01*
X76214Y-35459D01*
X76243Y-35524D01*
X76243Y-35631D01*
X76243Y-35181D02*
X75643Y-35181D01*
X76243Y-34967D02*
X75643Y-34967D01*
X75643Y-34795D01*
X75671Y-34753D01*
X75700Y-34731D01*
X75757Y-34710D01*
X75843Y-34710D01*
X75900Y-34731D01*
X75929Y-34753D01*
X75957Y-34795D01*
X75957Y-34967D01*
G54D15*
X76393Y-43050D02*
X76407Y-43064D01*
X76421Y-43107D01*
X76421Y-43136D01*
X76407Y-43179D01*
X76379Y-43207D01*
X76350Y-43222D01*
X76293Y-43236D01*
X76250Y-43236D01*
X76193Y-43222D01*
X76164Y-43207D01*
X76136Y-43179D01*
X76121Y-43136D01*
X76121Y-43107D01*
X76136Y-43064D01*
X76150Y-43050D01*
X76121Y-42793D02*
X76121Y-42850D01*
X76136Y-42879D01*
X76150Y-42893D01*
X76193Y-42922D01*
X76250Y-42936D01*
X76364Y-42936D01*
X76393Y-42922D01*
X76407Y-42907D01*
X76421Y-42879D01*
X76421Y-42822D01*
X76407Y-42793D01*
X76393Y-42779D01*
X76364Y-42764D01*
X76293Y-42764D01*
X76264Y-42779D01*
X76250Y-42793D01*
X76236Y-42822D01*
X76236Y-42879D01*
X76250Y-42907D01*
X76264Y-42922D01*
X76293Y-42936D01*
X74421Y-43492D02*
X74421Y-43464D01*
X74436Y-43435D01*
X74450Y-43421D01*
X74479Y-43407D01*
X74536Y-43392D01*
X74607Y-43392D01*
X74664Y-43407D01*
X74693Y-43421D01*
X74707Y-43435D01*
X74721Y-43464D01*
X74721Y-43492D01*
X74707Y-43521D01*
X74693Y-43535D01*
X74664Y-43550D01*
X74607Y-43564D01*
X74536Y-43564D01*
X74479Y-43550D01*
X74450Y-43535D01*
X74436Y-43521D01*
X74421Y-43492D01*
X74693Y-43264D02*
X74707Y-43249D01*
X74721Y-43264D01*
X74707Y-43278D01*
X74693Y-43264D01*
X74721Y-43264D01*
X74721Y-42963D02*
X74721Y-43135D01*
X74721Y-43049D02*
X74421Y-43049D01*
X74464Y-43078D01*
X74493Y-43106D01*
X74507Y-43135D01*
X74521Y-42706D02*
X74721Y-42706D01*
X74521Y-42835D02*
X74679Y-42835D01*
X74707Y-42820D01*
X74721Y-42792D01*
X74721Y-42749D01*
X74707Y-42720D01*
X74693Y-42706D01*
X74564Y-42464D02*
X74564Y-42564D01*
X74721Y-42564D02*
X74421Y-42564D01*
X74421Y-42421D01*
X63021Y-29171D02*
X63021Y-29414D01*
X63036Y-29443D01*
X63050Y-29457D01*
X63079Y-29471D01*
X63136Y-29471D01*
X63164Y-29457D01*
X63179Y-29443D01*
X63193Y-29414D01*
X63193Y-29171D01*
X63478Y-29171D02*
X63335Y-29171D01*
X63321Y-29314D01*
X63335Y-29300D01*
X63364Y-29286D01*
X63435Y-29286D01*
X63464Y-29300D01*
X63478Y-29314D01*
X63493Y-29343D01*
X63493Y-29414D01*
X63478Y-29443D01*
X63464Y-29457D01*
X63435Y-29471D01*
X63364Y-29471D01*
X63335Y-29457D01*
X63321Y-29443D01*
X62250Y-31271D02*
X62250Y-30971D01*
X62422Y-31271D01*
X62422Y-30971D01*
X62622Y-30971D02*
X62679Y-30971D01*
X62707Y-30986D01*
X62736Y-31014D01*
X62750Y-31071D01*
X62750Y-31171D01*
X62736Y-31229D01*
X62707Y-31257D01*
X62679Y-31271D01*
X62622Y-31271D01*
X62593Y-31257D01*
X62564Y-31229D01*
X62550Y-31171D01*
X62550Y-31071D01*
X62564Y-31014D01*
X62593Y-30986D01*
X62622Y-30971D01*
X62836Y-30971D02*
X63007Y-30971D01*
X62921Y-31271D02*
X62921Y-30971D01*
X63036Y-31300D02*
X63265Y-31300D01*
X63494Y-30986D02*
X63465Y-30971D01*
X63422Y-30971D01*
X63379Y-30986D01*
X63351Y-31014D01*
X63336Y-31043D01*
X63322Y-31100D01*
X63322Y-31143D01*
X63336Y-31200D01*
X63351Y-31229D01*
X63379Y-31257D01*
X63422Y-31271D01*
X63451Y-31271D01*
X63494Y-31257D01*
X63508Y-31243D01*
X63508Y-31143D01*
X63451Y-31143D01*
X63622Y-31186D02*
X63765Y-31186D01*
X63594Y-31271D02*
X63694Y-30971D01*
X63794Y-31271D01*
X63851Y-30971D02*
X64022Y-30971D01*
X63936Y-31271D02*
X63936Y-30971D01*
X64122Y-31114D02*
X64222Y-31114D01*
X64265Y-31271D02*
X64122Y-31271D01*
X64122Y-30971D01*
X64265Y-30971D01*
G54D17*
X38407Y-33143D02*
X38407Y-33629D01*
X38429Y-33686D01*
X38450Y-33714D01*
X38493Y-33743D01*
X38579Y-33743D01*
X38621Y-33714D01*
X38643Y-33686D01*
X38664Y-33629D01*
X38664Y-33143D01*
X38835Y-33143D02*
X39114Y-33143D01*
X38964Y-33371D01*
X39028Y-33371D01*
X39071Y-33400D01*
X39092Y-33429D01*
X39114Y-33486D01*
X39114Y-33629D01*
X39092Y-33686D01*
X39071Y-33714D01*
X39028Y-33743D01*
X38900Y-33743D01*
X38857Y-33714D01*
X38835Y-33686D01*
X41243Y-39768D02*
X40643Y-39768D01*
X41071Y-39618D01*
X40643Y-39468D01*
X41243Y-39468D01*
X41186Y-38997D02*
X41214Y-39018D01*
X41243Y-39082D01*
X41243Y-39125D01*
X41214Y-39190D01*
X41157Y-39232D01*
X41100Y-39254D01*
X40986Y-39275D01*
X40900Y-39275D01*
X40786Y-39254D01*
X40729Y-39232D01*
X40671Y-39190D01*
X40643Y-39125D01*
X40643Y-39082D01*
X40671Y-39018D01*
X40700Y-38997D01*
X41243Y-38804D02*
X40643Y-38804D01*
X40643Y-38632D01*
X40671Y-38590D01*
X40700Y-38568D01*
X40757Y-38547D01*
X40843Y-38547D01*
X40900Y-38568D01*
X40929Y-38590D01*
X40957Y-38632D01*
X40957Y-38804D01*
X40843Y-38161D02*
X41243Y-38161D01*
X40614Y-38268D02*
X41043Y-38375D01*
X41043Y-38097D01*
X40700Y-37946D02*
X40671Y-37925D01*
X40643Y-37882D01*
X40643Y-37775D01*
X40671Y-37732D01*
X40700Y-37711D01*
X40757Y-37689D01*
X40814Y-37689D01*
X40900Y-37711D01*
X41243Y-37968D01*
X41243Y-37689D01*
X40643Y-37539D02*
X41243Y-37239D01*
X40643Y-37239D02*
X41243Y-37539D01*
X41243Y-36831D02*
X41243Y-37088D01*
X41243Y-36960D02*
X40643Y-36960D01*
X40729Y-37003D01*
X40786Y-37045D01*
X40814Y-37088D01*
X41014Y-36638D02*
X41014Y-36295D01*
X41243Y-36081D02*
X40643Y-36081D01*
X40643Y-35909D01*
X40671Y-35867D01*
X40700Y-35845D01*
X40757Y-35824D01*
X40843Y-35824D01*
X40900Y-35845D01*
X40929Y-35867D01*
X40957Y-35909D01*
X40957Y-36081D01*
X41243Y-35631D02*
X40643Y-35631D01*
X40643Y-35524D01*
X40671Y-35459D01*
X40729Y-35417D01*
X40786Y-35395D01*
X40900Y-35374D01*
X40986Y-35374D01*
X41100Y-35395D01*
X41157Y-35417D01*
X41214Y-35459D01*
X41243Y-35524D01*
X41243Y-35631D01*
X41243Y-35181D02*
X40643Y-35181D01*
X41243Y-34967D02*
X40643Y-34967D01*
X40643Y-34795D01*
X40671Y-34753D01*
X40700Y-34731D01*
X40757Y-34710D01*
X40843Y-34710D01*
X40900Y-34731D01*
X40929Y-34753D01*
X40957Y-34795D01*
X40957Y-34967D01*
M02*
