M48
;DRILL file {PCBnew (2010-03-14)-final} date Wed 08 Jun 2011 02:42:53 PM PDT
;FORMAT={2:4/ absolute / inch / suppress trailing zeros}
R,T
VER,1
FMAT,2
INCH,LZ
TCST,OFF
ICI,OFF
ATC,ON
T1C0.025
T2C0.032
T3C0.039
T4C0.040
T5C0.042
T6C0.043
T7C0.043
T8C0.048
T9C0.107
T10C0.160
T11C0.220
%
M47
G05
M72
T1
X03975Y-04625
X05775Y-03925
X061Y-04875
X068Y-046
X069752Y-036437
T2
X039Y-03475
X039Y-03575
X039Y-03675
X039Y-03775
X039Y-03875
X039Y-03975
X039Y-04075
X042Y-03475
X042Y-03575
X042Y-03675
X042Y-03775
X042Y-03875
X042Y-03975
X042Y-04075
X074Y-03475
X074Y-03575
X074Y-03675
X074Y-03775
X074Y-03875
X074Y-03975
X074Y-04075
X077Y-03475
X077Y-03575
X077Y-03675
X077Y-03775
X077Y-03875
X077Y-03975
X077Y-04075
T3
X055Y-04625
X055Y-04725
X055Y-04825
T4
X03275Y-0315
X03325Y-0415
X03375Y-0315
X03425Y-0415
X03475Y-0315
X03525Y-0415
X03575Y-0315
X0465Y-0315
X047Y-0415
X0475Y-0315
X048Y-0415
X0485Y-0315
X049Y-0415
X0495Y-0315
X05275Y-03425
X05275Y-03525
X05275Y-03625
X05275Y-03725
X05525Y-05175
X05525Y-05275
X05625Y-05175
X05625Y-05275
X06275Y-03325
X06275Y-03425
X06275Y-03525
X06275Y-03625
X06275Y-03725
X06275Y-03825
X06375Y-03325
X06375Y-03425
X06375Y-03525
X06375Y-03625
X06375Y-03725
X06375Y-03825
X0665Y-0315
X067Y-0415
X0675Y-0315
X068Y-0415
X0685Y-0315
X069Y-0415
X0695Y-0315
X08025Y-0315
X08075Y-0415
X08125Y-0315
X08175Y-0415
X08225Y-0315
X08275Y-0415
X08325Y-0315
T5
X055Y-02825
X055Y-02925
X055Y-03025
X055Y-03125
X055Y-03225
X055Y-03325
X055Y-03425
X055Y-03525
X055Y-03625
X055Y-03725
X055Y-03825
X055Y-03925
X055Y-04025
X055Y-04125
X055Y-04225
X061Y-02825
X061Y-02925
X061Y-03025
X061Y-03125
X061Y-03225
X061Y-03325
X061Y-03425
X061Y-03525
X061Y-03625
X061Y-03725
X061Y-03825
X061Y-03925
X061Y-04025
X061Y-04125
X061Y-04225
T6
X03375Y-02725
X03375Y-02825
X03475Y-02725
X03475Y-02825
X0475Y-02725
X0475Y-02825
X0485Y-02725
X0485Y-02825
X0675Y-02725
X0675Y-02825
X0685Y-02725
X0685Y-02825
X0745Y-02725
X0745Y-02825
X0755Y-02725
X0755Y-02825
X08125Y-02725
X08125Y-02825
X08225Y-02725
X08225Y-02825
T7
X033266Y-0535
X03425Y-0535
X035234Y-0535
X047016Y-0535
X048Y-0535
X048984Y-0535
X067016Y-0535
X068Y-0535
X068984Y-0535
X080766Y-0535
X08175Y-0535
X082734Y-0535
T8
X03125Y-044
X03125Y-049
X03225Y-044
X03225Y-049
X03325Y-044
X03325Y-049
X03425Y-044
X03425Y-049
X03525Y-044
X03525Y-049
X03625Y-044
X03625Y-049
X03725Y-044
X03725Y-049
X045Y-044
X045Y-049
X046Y-044
X046Y-049
X047Y-044
X047Y-049
X048Y-044
X048Y-049
X049Y-044
X049Y-049
X05Y-044
X05Y-049
X051Y-044
X051Y-049
X065Y-044
X065Y-049
X066Y-044
X066Y-049
X067Y-044
X067Y-049
X068Y-044
X068Y-049
X069Y-044
X069Y-049
X07Y-044
X07Y-049
X071Y-044
X071Y-049
X07875Y-044
X07875Y-049
X07975Y-044
X07975Y-049
X08075Y-044
X08075Y-049
X08175Y-044
X08175Y-049
X08275Y-044
X08275Y-049
X08375Y-044
X08375Y-049
X08475Y-044
X08475Y-049
T9
X03232Y-052634
X03618Y-052634
X04607Y-052634
X04993Y-052634
X06607Y-052634
X06993Y-052634
X07982Y-052634
X08368Y-052634
T10
X0405Y-032
X0405Y-05325
X0755Y-032
X0755Y-05325
T11
X03225Y-0465
X046Y-0465
X066Y-0465
X07975Y-0465
T0
M30
